<svg version="1.1" id="svg1" xml:space="preserve" inkscape:version="1.4 (86a8ad7, 2024-10-11)" sodipodi:docname="09Absgia.svg" xmlns:inkscape="http://www.inkscape.org/namespaces/inkscape" xmlns:sodipodi="http://sodipodi.sourceforge.net/DTD/sodipodi-0.dtd" xmlns="http://www.w3.org/2000/svg" xmlns:svg="http://www.w3.org/2000/svg" viewBox="97.3 142.82 15.08 11.4"><sodipodi:namedview id="namedview1" pagecolor="#ffffff" bordercolor="#000000" borderopacity="0.25" inkscape:showpageshadow="2" inkscape:pageopacity="0.0" inkscape:pagecheckerboard="0" inkscape:deskcolor="#d1d1d1" inkscape:document-units="mm" inkscape:zoom="0.71891835" inkscape:cx="396.42889" inkscape:cy="561.25984" inkscape:window-width="1920" inkscape:window-height="1009" inkscape:window-x="-8" inkscape:window-y="-8" inkscape:window-maximized="1" inkscape:current-layer="layer1"/><defs id="defs1"/><g inkscape:label="Ebene 1" inkscape:groupmode="layer" id="layer1"><path id="Absgia" fill="none" stroke="#000000" stroke-width="1" d="m 101.086,145.35536 c 0.50884,0 1.21835,-0.0813 1.65692,0.18796 0.44874,0.34544 0.77216,1.05833 1.72974,1.46134 1.14216,0.52324 1.93125,0.46482 3.13267,0.46736 0.80941,-0.0948 1.51638,0.96605 1.778,0.52663 0,0 0.47583,0.72475 0.47583,0.72475 -0.0466,0.0127 -0.93388,-0.16849 -0.93134,-0.16934 0.32089,-0.49699 -0.48429,-0.79756 -0.7857,-0.65362 -0.40894,0.2794 0.52239,0.93472 0.15917,1.31233 -0.35391,0.38693 -1.48421,0.0991 -1.62221,0.30734 -0.18712,0.13039 -0.87122,0.63669 -1.02362,0.73575 -0.0364,0.1397 0.24976,0.31835 -0.1143,0.62654 -0.22183,0.24045 -0.39794,0.19473 -0.64516,0.82296 -0.67226,-0.15156 -0.84413,-0.28702 -1.524,0 -0.17696,-0.55542 -0.31158,-0.87376 -0.84667,-1.20735 -0.30226,-0.18881 -0.50461,-0.11261 -0.69003,-0.29464 -0.17018,-0.16595 -0.33698,-0.63754 -0.41064,-0.86868 0,0 -0.32512,0.16933 -0.32512,0.16933 -0.26416,-0.66886 -0.17864,-0.5698 0,-1.18533 0,0 0.11261,-0.42333 0.11261,-0.42333 0.0694,-0.22691 0.23283,-0.42757 0.17695,-0.67564 -0.0796,-0.35222 -0.44873,-0.49107 -0.69088,-0.71205 0,0 -0.37422,-0.39031 -0.37422,-0.39031 0,0 0,0.0847 0,0.0847 0,0 -0.16934,0.0847 -0.16934,0.0847 0,0 -0.338656,-0.84667 -0.338656,-0.84667 0,0 0.761996,0.33867 0.761996,0.33867 0.0576,0.50123 0.29294,0.64008 0.67733,0.93133 0.18457,-0.9762 0.24215,-0.56557 -0.16933,-1.35466 z m 7.34229,2.78892 m 1.06087,-0.0931 m -2.74912,1.59597 m -1.29371,1.04224 m -2.82871,-5.07238 m 2.70933,1.96935"/></g></svg>