<svg version="1.1" id="svg1" xml:space="preserve" inkscape:version="1.4 (86a8ad7, 2024-10-11)" sodipodi:docname="15KüsteAbsia.svg" xmlns:inkscape="http://www.inkscape.org/namespaces/inkscape" xmlns:sodipodi="http://sodipodi.sourceforge.net/DTD/sodipodi-0.dtd" xmlns="http://www.w3.org/2000/svg" xmlns:svg="http://www.w3.org/2000/svg" viewBox="99.02 254.05 8.87 9.57"><sodipodi:namedview id="namedview1" pagecolor="#ffffff" bordercolor="#000000" borderopacity="0.25" inkscape:showpageshadow="2" inkscape:pageopacity="0.0" inkscape:pagecheckerboard="0" inkscape:deskcolor="#d1d1d1" inkscape:document-units="mm" inkscape:zoom="0.71891835" inkscape:cx="396.42889" inkscape:cy="561.25984" inkscape:window-width="1920" inkscape:window-height="1009" inkscape:window-x="-8" inkscape:window-y="-8" inkscape:window-maximized="1" inkscape:current-layer="layer1"/><defs id="defs1"/><g inkscape:label="Ebene 1" inkscape:groupmode="layer" id="layer1"><path id="Küste Absgia" fill="none" stroke="#000000" stroke-width="1" d="m 105.26707,261.02387 c -0.31665,-0.008 -0.56726,-0.002 -0.7857,-0.27347 -0.16002,-0.19812 -0.23622,-0.62145 -0.57066,-0.65532 -0.64262,-0.0652 -0.34882,0.83651 -0.69596,0.98552 -0.3158,0.13631 -1.09474,-0.48429 -1.32926,-0.69257 -0.11092,-0.0991 -0.24215,-0.21929 -0.24215,-0.381 -8.5e-4,-0.27263 0.38947,-0.48684 0.38947,-0.75946 0,-0.27009 -0.34121,-0.39794 -0.44281,-0.62569 -0.094,-0.21167 -0.0533,-1.62052 0.0398,-1.80933 0.0728,-0.14562 0.19135,-0.18203 0.32428,-0.23537 0.11514,0.32427 0.20235,0.63331 0.47836,0.89408 0.27602,0.12531 0.68496,0.23199 0.91271,0.46059 0.28702,0.25569 0.46143,0.62568 0.55965,0.98636 0.78401,-0.26839 0.81026,-0.16933 1.44695,-0.011 z"/></g></svg>