<svg xmlns:inkscape="http://www.inkscape.org/namespaces/inkscape" xmlns:sodipodi="http://sodipodi.sourceforge.net/DTD/sodipodi-0.dtd" xmlns="http://www.w3.org/2000/svg" xmlns:svg="http://www.w3.org/2000/svg" version="1.1" id="svg1" sodipodi:docname="adria.svg" inkscape:version="1.3.2 (091e20e, 2023-11-25, custom)" viewBox="1098.92 804.78 202.85 142.1">
  <defs id="defs1"/>
  <sodipodi:namedview id="namedview1" pagecolor="#ffffff" bordercolor="#999999" borderopacity="1" inkscape:showpageshadow="2" inkscape:pageopacity="0" inkscape:pagecheckerboard="0" inkscape:deskcolor="#d1d1d1" inkscape:document-units="in" inkscape:zoom="1.6768791" inkscape:cx="326.20121" inkscape:cy="244.8" inkscape:window-width="1920" inkscape:window-height="1017" inkscape:window-x="-8" inkscape:window-y="-8" inkscape:window-maximized="1" inkscape:current-layer="svg1"/>
  <path id="Adria" fill="none" stroke="black" stroke-width="1" d="M 1178.00,898.00            C 1176.80,885.14 1163.59,878.48 1155.48,869.68              1153.60,867.64 1151.29,866.80 1151.56,863.94              1151.85,860.98 1156.45,855.69 1154.19,852.94              1151.16,849.25 1137.69,850.31 1138.44,851.25              1129.56,852.40 1135.05,843.28 1128.19,838.75              1122.94,836.69 1118.63,838.91 1108.94,832.50              1103.81,829.11 1100.28,820.29 1099.50,814.31              1099.19,811.89 1099.71,807.21 1102.12,805.81              1108.01,802.40 1109.64,816.43 1114.21,818.57              1116.15,819.23 1119.88,818.06 1121.94,817.81              1133.38,817.58 1122.88,822.62 1138.31,813.81              1137.98,821.26 1137.74,818.51 1140.00,826.00              1140.00,826.00 1143.00,822.00 1143.00,822.00              1143.00,822.00 1157.10,824.74 1157.10,824.74              1157.10,824.74 1163.11,836.77 1163.11,836.77              1163.11,836.77 1173.30,841.74 1173.30,841.74              1173.30,841.74 1177.00,851.00 1177.00,851.00              1182.67,849.77 1184.93,850.29 1187.00,856.00              1197.27,853.54 1194.68,858.35 1201.01,859.65              1205.27,860.52 1211.09,857.15 1213.96,862.23              1215.76,865.42 1213.17,868.52 1213.11,870.99              1213.04,873.97 1214.99,875.26 1217.00,877.00              1220.65,869.55 1227.33,869.77 1229.22,875.06              1230.58,878.87 1227.76,880.54 1228.00,887.00              1231.20,884.49 1233.77,880.06 1237.91,881.61              1242.48,883.33 1250.38,901.35 1253.14,903.40              1256.26,905.71 1259.72,904.54 1263.00,905.43              1266.73,906.44 1268.31,908.81 1271.00,909.91              1274.58,911.36 1276.94,909.23 1281.89,912.37              1285.59,914.71 1289.00,919.49 1284.56,922.12              1282.23,923.51 1276.85,923.49 1274.19,923.50              1280.56,934.67 1285.42,924.01 1294.69,931.62              1296.53,933.14 1300.01,935.88 1300.88,938.12              1301.69,940.25 1300.98,942.75 1301.00,945.00              1293.23,943.25 1290.50,942.51 1282.19,943.31              1282.19,943.31 1262.94,946.38 1262.94,946.38              1256.90,946.42 1253.96,940.51 1255.25,938.25              1257.02,935.14 1266.90,940.96 1266.75,934.94              1266.65,931.13 1260.96,927.58 1258.00,925.88              1246.29,919.13 1238.01,920.15 1230.01,915.56              1224.05,912.14 1224.22,909.05 1217.88,907.19              1217.41,912.78 1214.79,913.40 1209.38,914.31              1201.48,900.59 1196.04,899.26 1192.70,894.82              1190.08,891.34 1190.10,886.71 1187.91,883.02              1185.58,879.07 1182.32,877.99 1178.44,876.06              1177.75,881.62 1185.94,891.00 1183.00,897.00              1183.00,897.00 1178.00,898.00 1178.00,898.00 Z"/>
</svg>