<svg version="1.1" id="svg1" xml:space="preserve" inkscape:version="1.4 (86a8ad7, 2024-10-11)" sodipodi:docname="19KüsteAngora.svg" xmlns:inkscape="http://www.inkscape.org/namespaces/inkscape" xmlns:sodipodi="http://sodipodi.sourceforge.net/DTD/sodipodi-0.dtd" xmlns="http://www.w3.org/2000/svg" xmlns:svg="http://www.w3.org/2000/svg" viewBox="75.62 255.73 12.6 12.47"><sodipodi:namedview id="namedview1" pagecolor="#ffffff" bordercolor="#000000" borderopacity="0.25" inkscape:showpageshadow="2" inkscape:pageopacity="0.0" inkscape:pagecheckerboard="0" inkscape:deskcolor="#d1d1d1" inkscape:document-units="mm" inkscape:zoom="0.71891835" inkscape:cx="396.42889" inkscape:cy="561.25984" inkscape:window-width="1920" inkscape:window-height="1009" inkscape:window-x="-8" inkscape:window-y="-8" inkscape:window-maximized="1" inkscape:current-layer="layer1"/><defs id="defs1"/><g inkscape:label="Ebene 1" inkscape:groupmode="layer" id="layer1"><path id="KüsteAngora" fill="none" stroke="#000000" stroke-width="1" d="m 82.542036,258.5752 c 0,0 1.016,-0.33867 1.016,-0.33867 -0.13039,0.48091 -0.44958,0.75523 -0.42164,1.05156 -0.007,0.57489 0.41063,0.51816 0.71797,0.70527 0.16933,0.2557 1.61121,1.56464 1.8415,1.88892 -0.90593,0.60282 -0.80433,0.43434 -1.63491,0.80941 0,0 -1.74668,0.99568 -1.74668,0.99568 -0.51223,0.24807 -1.11675,0.23283 -1.55024,0.58335 -0.48938,0.39624 -0.62908,0.88477 -0.92626,1.40632 -0.3175,-0.2286 -1.10151,-1.17433 -1.29116,-1.50368 0,0 0.0262,-0.28025 0.0262,-0.28025 0,0 -0.41994,-0.35729 -0.41994,-0.35729 -0.10245,-0.23284 0.19219,-0.43688 0.40216,-0.39963 0.29549,0.0533 0.45212,0.59605 0.66379,0.66717 0.10668,0.0669 0.29549,-0.0415 0.40217,-0.0847 0.4064,-0.30734 -0.12362,-0.67225 -0.12531,-0.90508 0.0178,-0.0847 0.0491,-0.14648 0.1143,-0.20066 0.27855,-0.23114 0.66379,0.18288 1.23867,-0.0838 0.18627,-0.0864 0.46059,-0.21252 0.5715,-0.38778 0.11346,-0.17864 0.0449,-0.46905 0.28787,-0.54102 0.18881,-0.0567 0.41571,0.14224 0.59605,0.18712 0.27348,0.0686 0.75692,-0.0322 0.98976,-0.20151 0.34459,-0.25061 0.28532,-0.67903 -0.41318,-0.62569 -0.51223,0.0398 -0.84412,0.23284 -1.18533,-0.26839 0.72813,-0.33697 0.94657,0.0102 1.23021,-0.23537 0.28194,-0.243 -0.033,-0.5351 -0.11684,-0.78063 0,0 -0.0737,-0.59267 -0.0737,-0.59267 z m 1.87282,2.4765 m -1.39107,1.60866 m 1.24883,-0.28532"/></g></svg>