<svg version="1.1" id="svg1" xml:space="preserve" inkscape:version="1.4 (86a8ad7, 2024-10-11)" sodipodi:docname="05Angora.svg" xmlns:inkscape="http://www.inkscape.org/namespaces/inkscape" xmlns:sodipodi="http://sodipodi.sourceforge.net/DTD/sodipodi-0.dtd" xmlns="http://www.w3.org/2000/svg" xmlns:svg="http://www.w3.org/2000/svg" viewBox="30.12 82.62 17.45 14.17"><sodipodi:namedview id="namedview1" pagecolor="#ffffff" bordercolor="#000000" borderopacity="0.25" inkscape:showpageshadow="2" inkscape:pageopacity="0.0" inkscape:pagecheckerboard="0" inkscape:deskcolor="#d1d1d1" inkscape:document-units="mm" inkscape:zoom="0.71891835" inkscape:cx="396.42889" inkscape:cy="561.25984" inkscape:window-width="1920" inkscape:window-height="1009" inkscape:window-x="-8" inkscape:window-y="-8" inkscape:window-maximized="1" inkscape:current-layer="layer1"/><defs id="defs1"/><g inkscape:label="Ebene 1" inkscape:groupmode="layer" id="layer1"><path id="Angora" fill="none" stroke="#000000" stroke-width="1" d="m 32.842371,91.137302 c -0.41826,-0.301413 -0.0847,-0.714586 -0.0957,-0.910166 0.0288,-0.01439 0.002,-1.322494 -0.0195,-1.312334 0.072,-0.461433 0.60198,-1.292013 0.97536,-1.565486 0.45381,-0.33274 1.12183,-0.258234 1.76953,-0.672254 0,0 1.60867,-0.93218 1.60867,-0.93218 0,0 0.59267,-0.19558 0.59267,-0.19558 0.24807,-0.09229 0.54102,-0.40386 0.77216,-0.423333 0.18457,-0.01609 0.4826,0.169333 0.66717,0.216747 0,0 -0.0847,0.592666 -0.0847,0.592666 0.81704,-0.140546 0.46736,0.22606 0.77978,0.377614 0.18796,0.06773 0.37,-0.03641 0.65448,0.07366 0.29464,0.112606 0.32004,0.2921 0.47328,0.432646 0.22606,0.20828 0.36068,0.09313 0.64093,0.64008 0.33528,0.65786 -0.0847,0.72644 0.42079,1.26238 0,0 0.53764,0.52324 0.53764,0.52324 0,0 1.34535,1.495214 1.34535,1.495214 0.45805,0.471593 1.31826,1.143 1.15909,1.4605 -0.79248,0.179493 -0.82635,-0.5334 -2.11667,-0.4572 -0.35221,0.08043 -0.46143,0.06519 -0.72983,0.309033 -0.22013,0.199813 -0.61468,0.7366 -0.98975,0.890693 0.0186,0.0076 -3.11658,0.3937 -3.175,0.458894 -0.52155,0.08297 -0.84667,0.338666 -1.40801,0.470746 -0.34882,0.12192 -1.10744,0.298874 -1.4605,0.354754 -0.17018,0.02709 -0.48175,0.0889 -0.60875,-0.05842 -0.0906,-0.105834 -0.0542,-0.258234 -0.0737,-0.38608 0.0186,-0.186267 0.002,-0.24638 -0.0313,-0.43434 -0.13716,-0.422487 -0.7366,-1.350434 -1.0651,-1.644227 -0.13716,-0.211667 -0.0914,-0.08467 -0.53848,-0.567267 z m 0.14816,-1.921086 m 3.14876,4.080086 m 3.1479,-0.408093 m 2.51376,-1.078653"/></g></svg>