<svg xmlns="http://www.w3.org/2000/svg" viewBox="375.42 481.98 105.08 94.52">
  <path id="Armagh Küste" fill="none" stroke="black" stroke-width="1" d="M 383.00,496.00            C 383.00,496.00 393.69,489.79 393.69,489.79              393.69,489.79 397.57,482.48 397.57,482.48              397.57,482.48 408.00,485.99 408.00,485.99              408.00,485.99 418.00,484.74 418.00,484.74              418.00,484.74 448.00,498.00 448.00,498.00              448.00,498.00 448.00,500.00 448.00,500.00              448.00,500.00 440.00,504.00 440.00,504.00              438.34,501.04 438.13,500.99 434.98,499.80              426.91,496.08 428.94,499.51 419.00,499.80              419.00,499.80 420.00,505.00 420.00,505.00              420.00,505.00 416.00,504.00 416.00,504.00              414.83,510.68 412.74,507.84 407.00,508.00              406.52,502.22 403.09,498.62 397.00,500.74              397.00,500.74 389.00,505.00 389.00,505.00              389.00,505.00 392.00,515.00 392.00,515.00              392.00,515.00 382.00,515.00 382.00,515.00              382.00,515.00 384.00,517.00 384.00,517.00              384.00,517.00 384.00,518.00 384.00,518.00              384.00,518.00 381.00,522.00 381.00,522.00              379.78,521.79 378.66,521.84 377.60,520.98              375.49,519.28 375.46,511.63 377.02,509.59              378.70,507.41 382.88,508.14 384.44,503.94              385.45,501.22 384.02,498.48 383.00,496.00 Z            M 444.00,513.00            C 444.04,505.96 442.24,504.08 450.00,501.00              450.00,501.00 477.00,541.00 477.00,541.00              477.00,541.00 463.00,546.00 463.00,546.00              463.00,546.00 460.27,538.00 460.27,538.00              460.27,538.00 459.28,529.09 459.28,529.09              459.28,529.09 455.78,522.91 455.78,522.91              455.78,522.91 451.73,515.60 451.73,515.60              451.73,515.60 444.00,513.00 444.00,513.00 Z            M 477.00,576.00            C 472.71,574.99 463.21,571.14 459.00,569.23              457.20,568.41 453.10,566.80 451.99,565.30              449.94,562.54 450.25,554.50 453.69,551.57              456.27,549.37 458.65,550.55 461.83,549.07              468.74,545.86 465.30,543.01 480.00,543.00              480.00,543.00 477.00,576.00 477.00,576.00 Z"/>
</svg>