<svg xmlns="http://www.w3.org/2000/svg" viewBox="373.5 485.5 130 108">
  <path id="Armagh" fill="none" stroke="black" stroke-width="1" d="M 451.00,490.00            C 451.00,490.00 460.00,486.00 460.00,486.00              460.00,486.00 456.00,496.00 456.00,496.00              456.00,496.00 456.00,495.00 456.00,495.00              456.00,495.00 454.00,494.00 454.00,494.00              451.80,502.30 447.34,501.50 444.69,505.34              442.86,507.97 444.61,509.09 442.00,515.00              446.07,514.01 451.32,512.89 453.99,517.15              453.99,517.15 456.15,522.96 456.15,522.96              457.67,525.97 459.74,527.04 460.51,531.02              461.37,535.48 457.76,539.53 463.30,542.47              466.62,544.22 468.92,541.81 474.00,541.09              474.00,541.09 486.00,541.09 486.00,541.09              486.00,541.09 503.00,538.00 503.00,538.00              503.00,538.00 495.00,546.00 495.00,546.00              491.97,541.47 484.89,542.98 480.00,543.00              467.68,543.06 468.49,546.76 462.72,548.76              460.55,549.19 455.47,549.00 453.00,548.76              450.19,560.26 451.00,555.30 451.00,567.00              434.09,567.84 441.21,582.72 437.00,593.00              437.00,593.00 432.00,583.00 432.00,583.00              432.00,583.00 436.00,583.00 436.00,583.00              436.00,583.00 440.00,566.85 440.00,566.85              440.00,566.85 423.00,566.85 423.00,566.85              423.00,566.85 415.00,565.29 415.00,565.29              415.00,565.29 374.00,562.00 374.00,562.00              377.19,555.30 381.10,555.04 381.69,549.99              382.71,541.11 374.17,532.65 376.31,525.14              377.42,521.26 379.39,523.79 384.00,517.00              384.00,517.00 382.00,515.00 382.00,515.00              382.00,515.00 392.00,514.00 392.00,514.00              392.00,514.00 389.00,506.00 389.00,506.00              395.52,501.23 406.60,494.09 407.00,508.00              409.85,506.62 410.60,505.78 412.00,509.00              412.00,509.00 416.00,504.00 416.00,504.00              416.00,504.00 420.00,500.00 420.00,500.00              420.00,500.00 432.00,497.00 432.00,497.00              434.80,499.76 435.12,499.68 439.00,500.00              439.00,500.00 439.00,503.00 439.00,503.00              446.09,501.56 449.43,498.10 453.00,492.00              453.00,492.00 451.00,490.00 451.00,490.00 Z"/>
</svg>