<svg xmlns:inkscape="http://www.inkscape.org/namespaces/inkscape" xmlns:sodipodi="http://sodipodi.sourceforge.net/DTD/sodipodi-0.dtd" xmlns="http://www.w3.org/2000/svg" xmlns:svg="http://www.w3.org/2000/svg" version="1.1" id="svg1" sodipodi:docname="barcelona_coast.svg" inkscape:version="1.3.2 (091e20e, 2023-11-25, custom)" viewBox="796.44 965.68 89.06 159.57">
  <defs id="defs1"/>
  <sodipodi:namedview id="namedview1" pagecolor="#ffffff" bordercolor="#999999" borderopacity="1" inkscape:showpageshadow="2" inkscape:pageopacity="0" inkscape:pagecheckerboard="0" inkscape:deskcolor="#d1d1d1" inkscape:document-units="in" inkscape:zoom="1.6768791" inkscape:cx="326.20121" inkscape:cy="244.8" inkscape:window-width="1920" inkscape:window-height="1017" inkscape:window-x="-8" inkscape:window-y="-8" inkscape:window-maximized="1" inkscape:current-layer="svg1"/>
  <path id="Barcelona Küste" fill="none" stroke="black" stroke-width="1" d="M 832.02,966.18            C 832.02,966.18 850.64,976.13 850.64,976.13              850.64,976.13 854.29,979.40 857.56,982.09              860.51,984.52 863.92,985.61 863.98,985.56              863.98,985.56 868.98,987.00 873.13,984.44              878.58,981.42 885.00,983.00 885.00,983.00              883.90,986.13 881.77,987.74 879.17,988.84              874.33,990.38 867.96,991.27 863.18,996.07              860.15,998.93 858.62,1002.68 859.06,1006.38              859.30,1008.30 859.89,1010.56 861.22,1012.47              863.02,1014.77 865.07,1017.20 869.16,1016.47              871.96,1015.61 873.98,1009.69 880.04,1009.00              878.93,1012.47 878.78,1014.09 874.84,1015.92              874.11,1016.62 871.56,1017.29 870.11,1021.67              869.68,1023.85 870.46,1026.09 871.27,1028.34              872.31,1031.23 874.20,1033.96 872.20,1036.98              867.56,1041.36 868.22,1039.29 865.58,1043.04              864.26,1044.87 864.55,1046.60 863.87,1048.47              863.09,1051.29 861.69,1052.02 860.73,1052.67              856.07,1055.04 852.44,1056.00 851.00,1062.93              850.64,1065.91 851.00,1068.27 851.29,1071.00              851.78,1074.57 852.91,1078.13 853.00,1082.02              847.36,1081.58 843.84,1082.17 841.71,1084.16              839.83,1085.87 839.04,1088.09 838.47,1090.98              838.35,1092.56 838.36,1095.22 839.72,1097.48              840.71,1098.62 841.31,1099.27 842.00,1099.64              841.11,1100.78 841.45,1100.33 840.93,1101.07              840.93,1101.07 835.00,1094.00 835.00,1094.00              836.89,1092.47 835.02,1093.96 837.11,1092.33              834.44,1088.69 832.51,1086.00 831.16,1082.96              831.16,1082.96 830.00,1094.00 830.00,1094.00              831.98,1094.09 830.64,1094.11 832.98,1094.09              834.01,1094.69 834.86,1096.62 836.02,1098.06              837.48,1099.87 837.60,1100.02 839.87,1102.62              836.82,1107.11 835.45,1109.32 833.00,1113.00              829.84,1117.74 829.40,1118.24 824.75,1124.75              824.75,1124.75 821.32,1119.62 817.20,1114.00              812.00,1106.91 805.98,1098.96 805.98,1098.96              805.98,1098.96 800.64,1091.98 797.04,1089.04              796.84,1087.34 797.00,1087.00 797.00,1087.00              801.19,1085.18 804.91,1083.94 807.86,1080.24              808.91,1077.62 807.78,1074.25 812.59,1073.00              816.91,1069.56 821.63,1069.42 823.61,1068.02              826.00,1066.33 825.48,1063.56 827.81,1061.78              829.43,1060.54 832.74,1060.44 835.91,1057.66              840.82,1053.35 846.28,1043.06 849.02,1037.00              849.94,1034.98 852.07,1031.00 852.30,1029.00              852.75,1025.15 849.99,1023.40 849.68,1020.00              849.68,1020.00 851.00,1010.00 851.00,1010.00              851.06,1006.22 851.64,1001.44 848.69,998.64              846.20,996.27 842.02,995.71 840.17,992.73              838.19,989.53 839.69,984.75 838.26,981.00              835.55,973.89 832.14,976.74 832.02,966.18 Z"/>
</svg>