<svg xmlns:inkscape="http://www.inkscape.org/namespaces/inkscape" xmlns:sodipodi="http://sodipodi.sourceforge.net/DTD/sodipodi-0.dtd" xmlns="http://www.w3.org/2000/svg" xmlns:svg="http://www.w3.org/2000/svg" version="1.1" id="svg1" sodipodi:docname="barcelona.svg" inkscape:version="1.3.2 (091e20e, 2023-11-25, custom)" viewBox="734.14 948.52 118.67 141.01">
  <defs id="defs1"/>
  <sodipodi:namedview id="namedview1" pagecolor="#ffffff" bordercolor="#999999" borderopacity="1" inkscape:showpageshadow="2" inkscape:pageopacity="0" inkscape:pagecheckerboard="0" inkscape:deskcolor="#d1d1d1" inkscape:document-units="in" inkscape:zoom="1.6768791" inkscape:cx="326.20121" inkscape:cy="244.8" inkscape:window-width="1920" inkscape:window-height="1017" inkscape:window-x="-8" inkscape:window-y="-8" inkscape:window-maximized="1" inkscape:current-layer="svg1"/>
  <path id="Barcelona" fill="none" stroke="black" stroke-width="1" d="M 796.13,970.79            C 799.66,970.25 802.43,969.35 804.70,967.87              807.30,966.17 808.70,963.58 810.31,960.86              811.25,959.14 811.98,957.16 813.11,955.41              814.28,953.57 815.06,951.80 817.95,949.02              818.85,950.92 820.15,952.75 821.62,954.44              825.20,959.14 827.69,961.41 830.99,965.00              831.47,965.34 831.41,965.28 832.05,965.92              832.02,967.59 831.85,970.40 833.11,973.06              834.53,976.08 836.98,977.22 838.25,981.00              838.25,981.00 838.75,982.49 838.95,984.34              838.98,986.89 839.23,989.99 839.23,989.99              839.55,991.55 840.08,992.88 840.53,993.34              843.15,996.47 848.05,996.61 849.91,1000.33              850.38,1001.28 850.97,1002.64 850.95,1004.17              850.95,1004.17 851.18,1007.20 850.91,1010.39              850.59,1014.08 849.66,1019.97 849.66,1019.97              850.05,1022.75 850.64,1022.55 851.70,1025.31              852.21,1026.45 852.64,1028.28 851.97,1030.38              851.33,1032.40 849.23,1036.59 847.05,1041.11              845.44,1044.06 843.85,1047.14 842.19,1049.72              840.43,1052.45 838.75,1054.71 837.75,1055.78              836.14,1057.50 834.92,1058.57 833.42,1059.39              832.09,1060.12 828.84,1060.88 827.45,1062.06              827.45,1062.06 826.48,1062.83 825.28,1065.98              824.57,1068.03 821.75,1069.06 821.62,1068.86              821.81,1068.76 819.28,1069.70 816.50,1070.64              814.48,1071.57 812.95,1072.80 812.67,1072.95              810.11,1073.89 810.12,1074.05 809.02,1075.55              808.25,1077.22 808.42,1079.17 807.94,1080.19              807.16,1081.19 806.75,1081.45 805.72,1082.47              802.48,1085.14 800.08,1085.58 797.03,1087.00              796.84,1088.33 796.98,1087.69 796.98,1088.94              796.89,1089.20 796.39,1088.76 796.16,1089.00              796.00,1088.73 796.50,1087.62 794.48,1086.27              792.58,1084.89 790.23,1084.25 788.08,1083.42              786.08,1082.94 784.77,1082.40 782.44,1081.89              781.84,1081.76 780.58,1082.47 778.61,1082.14              775.80,1080.83 777.31,1080.38 775.09,1078.95              773.23,1078.88 772.88,1079.01 770.03,1078.95              770.03,1078.95 736.55,1079.00 736.55,1079.00              737.62,1076.18 738.89,1074.60 739.72,1073.19              741.27,1070.77 741.87,1068.91 742.00,1063.00              739.26,1064.23 737.63,1064.32 736.75,1063.69              735.60,1062.88 735.07,1061.85 734.97,1060.73              734.90,1059.92 734.72,1059.56 734.64,1058.59              734.73,1058.34 734.84,1058.08 734.97,1057.82              737.86,1056.89 738.05,1053.91 738.61,1053.00              739.34,1050.88 739.41,1050.34 741.30,1048.05              743.53,1045.83 745.48,1045.06 750.03,1045.00              750.03,1045.00 747.30,1037.42 747.30,1037.42              750.14,1035.75 751.87,1034.11 752.99,1032.37              753.50,1031.57 754.30,1029.94 753.58,1029.05              754.44,1026.00 754.95,1023.45 756.22,1018.91              756.22,1018.91 757.08,1015.55 758.05,1012.08              757.97,1011.81 757.58,1011.92 757.91,1010.69              758.86,1008.09 762.06,1005.45 762.66,1005.92              761.51,1005.25 761.41,1004.58 760.55,1003.44              760.17,1002.73 759.59,1002.17 758.98,1000.34              760.48,997.36 763.72,997.20 764.22,994.73              764.22,994.73 764.33,994.09 763.62,993.55              762.19,992.03 761.69,989.73 761.69,989.73              761.64,988.34 761.85,987.31 762.16,986.37              763.11,984.39 763.94,982.78 764.28,980.41              764.50,979.38 764.33,978.53 764.00,977.00              765.07,976.92 767.30,976.52 769.92,975.94              772.21,975.29 774.79,974.58 777.27,973.90              779.91,973.10 782.43,972.42 784.36,971.92              786.62,971.33 788.08,970.99 788.00,971.00              789.76,973.80 790.84,975.48 792.41,978.02              792.38,978.46 792.10,978.82 791.48,979.11              791.00,979.34 791.06,979.44 789.95,979.12              792.38,979.64 798.11,983.58 800.52,986.08              800.52,986.08 798.28,974.70 798.28,974.70              797.08,976.98 796.62,977.72 796.11,977.95              793.83,975.78 791.78,973.47 789.84,970.86              792.16,971.07 794.24,971.04 796.13,970.79 Z"/>
</svg>