<svg xmlns:inkscape="http://www.inkscape.org/namespaces/inkscape" xmlns:sodipodi="http://sodipodi.sourceforge.net/DTD/sodipodi-0.dtd" xmlns="http://www.w3.org/2000/svg" xmlns:svg="http://www.w3.org/2000/svg" version="1.1" id="svg1" sodipodi:docname="bari_coast.svg" inkscape:version="1.3.2 (091e20e, 2023-11-25, custom)" viewBox="1207.25 907.5 108.25 212.88">
  <defs id="defs1"/>
  <sodipodi:namedview id="namedview1" pagecolor="#ffffff" bordercolor="#999999" borderopacity="1" inkscape:showpageshadow="2" inkscape:pageopacity="0" inkscape:pagecheckerboard="0" inkscape:deskcolor="#d1d1d1" inkscape:document-units="in" inkscape:zoom="1.6768791" inkscape:cx="326.20121" inkscape:cy="244.8" inkscape:window-width="1920" inkscape:window-height="1017" inkscape:window-x="-8" inkscape:window-y="-8" inkscape:window-maximized="1" inkscape:current-layer="svg1"/>
  <path id="Bari Küste" fill="none" stroke="black" stroke-width="1" d="M 1218.00,908.00            C 1218.00,908.00 1220.00,908.00 1220.00,908.00              1221.43,912.12 1233.19,917.97 1236.00,918.76              1236.00,918.76 1247.00,921.52 1247.00,921.52              1247.00,921.52 1262.67,928.70 1262.67,928.70              1263.51,929.39 1264.25,930.19 1264.84,931.11              1264.84,931.11 1265.81,933.06 1265.81,933.06              1267.86,941.78 1259.61,934.92 1256.44,936.53              1251.67,939.03 1254.94,944.24 1258.34,946.16              1261.90,947.82 1266.27,946.60 1270.00,945.99              1280.46,944.90 1294.74,939.14 1302.38,949.06              1307.32,955.48 1302.42,957.15 1304.03,964.03              1304.03,964.03 1311.00,981.09 1311.00,981.09              1312.10,985.30 1310.72,987.13 1311.12,991.00              1311.65,994.25 1313.82,997.78 1315.00,1001.00              1310.23,1001.87 1305.11,1007.00 1305.31,1014.00              1305.31,1014.00 1306.88,1020.88 1306.88,1020.88              1294.19,1020.25 1292.96,1030.71 1299.64,1038.87              1303.37,1043.43 1309.69,1044.31 1312.69,1045.25              1312.62,1046.12 1312.39,1047.68 1312.00,1050.00              1312.00,1050.00 1305.94,1048.66 1305.94,1048.66              1303.96,1048.80 1302.38,1049.72 1300.94,1051.03              1294.71,1058.37 1299.05,1064.87 1296.25,1069.50              1294.07,1072.38 1282.82,1075.15 1284.97,1086.44              1285.97,1092.07 1289.52,1093.29 1293.94,1096.03              1289.09,1097.47 1283.80,1102.71 1279.44,1104.25              1275.47,1105.65 1272.28,1102.37 1267.53,1103.00              1257.38,1104.34 1256.56,1114.22 1250.44,1119.88              1244.37,1115.43 1235.78,1102.53 1231.31,1096.81              1231.31,1096.81 1240.84,1092.25 1240.84,1092.25              1240.45,1094.39 1241.03,1096.81 1241.75,1102.16              1243.29,1101.97 1249.91,1094.97 1251.91,1091.97              1256.52,1087.63 1256.49,1089.75 1260.06,1087.12              1264.91,1083.57 1263.55,1081.03 1270.66,1081.12              1280.30,1081.26 1275.25,1077.87 1275.94,1071.34              1275.94,1071.34 1278.66,1057.97 1278.66,1057.97              1277.48,1058.51 1274.34,1051.50 1277.91,1050.25              1284.12,1046.78 1275.44,1037.09 1272.56,1032.69              1264.69,1034.15 1260.96,1020.70 1260.00,1010.00              1248.03,1010.41 1254.74,999.69 1254.98,993.00              1255.09,990.12 1254.56,983.85 1256.81,981.75              1259.11,979.60 1262.37,980.85 1264.62,982.06              1269.51,984.69 1274.25,988.59 1274.59,994.56              1274.59,994.56 1278.50,996.47 1278.50,996.47              1281.44,997.43 1283.87,996.63 1286.57,998.89              1289.59,1001.40 1289.48,1008.16 1294.75,1009.25              1298.52,1010.03 1302.35,1005.08 1301.34,1000.47              1301.34,1000.47 1298.05,992.00 1298.05,992.00              1297.14,988.92 1298.09,986.59 1296.47,984.31              1296.47,984.31 1290.16,978.97 1290.16,978.97              1287.84,977.31 1285.84,970.25 1285.00,970.66              1273.22,971.94 1273.78,966.31 1266.00,959.72              1259.41,955.56 1252.05,951.43 1248.91,948.62              1245.90,945.94 1245.65,943.42 1242.81,941.50              1240.85,940.17 1237.95,940.12 1235.50,939.09              1235.50,939.09 1229.06,935.91 1229.06,935.91              1218.47,929.75 1224.62,933.91 1222.00,929.00              1223.40,927.99 1224.53,925.57 1224.75,923.69              1225.09,920.78 1221.45,921.34 1219.09,922.06              1215.20,923.26 1217.33,924.31 1207.75,924.44              1208.10,922.49 1209.82,916.72 1210.88,915.31              1213.31,912.31 1217.08,917.79 1218.00,908.00 Z            M 1225.19,1012.22            C 1235.88,1012.42 1232.11,1028.83 1233.06,1032.47              1232.69,1040.32 1240.44,1040.75 1246.53,1044.09              1237.06,1046.91 1246.48,1051.09 1252.03,1057.53              1248.18,1068.85 1253.42,1065.82 1249.44,1072.75              1244.89,1082.62 1245.05,1080.30 1239.72,1079.44              1238.38,1079.94 1238.72,1090.31 1239.59,1089.56              1239.59,1089.56 1229.94,1094.59 1229.94,1094.59              1228.49,1092.58 1224.40,1089.47 1225.12,1086.84              1227.53,1084.72 1233.20,1080.60 1231.41,1075.03              1228.83,1067.03 1217.53,1067.44 1216.44,1057.81              1215.61,1050.49 1227.28,1043.38 1216.89,1033.28              1215.31,1032.20 1211.26,1031.65 1209.50,1031.00              1209.50,1031.00 1225.19,1012.22 1225.19,1012.22 Z            M 1239.88,1079.56M 1257.59,1059.81"/>
</svg>