<svg xmlns:inkscape="http://www.inkscape.org/namespaces/inkscape" xmlns:sodipodi="http://sodipodi.sourceforge.net/DTD/sodipodi-0.dtd" xmlns="http://www.w3.org/2000/svg" xmlns:svg="http://www.w3.org/2000/svg" version="1.1" id="svg1" sodipodi:docname="bari.svg" inkscape:version="1.3.2 (091e20e, 2023-11-25, custom)" viewBox="1203.5 921.12 98.39 186.38">
  <defs id="defs1"/>
  <sodipodi:namedview id="namedview1" pagecolor="#ffffff" bordercolor="#999999" borderopacity="1" inkscape:showpageshadow="2" inkscape:pageopacity="0" inkscape:pagecheckerboard="0" inkscape:deskcolor="#d1d1d1" inkscape:document-units="in" inkscape:zoom="1.6768791" inkscape:cx="326.20121" inkscape:cy="244.8" inkscape:window-width="1920" inkscape:window-height="1017" inkscape:window-x="-8" inkscape:window-y="-8" inkscape:window-maximized="1" inkscape:current-layer="svg1"/>
  <path id="Bari" fill="none" stroke="black" stroke-width="1" d="M 1207.00,941.00            C 1207.00,937.55 1207.44,927.94 1207.56,925.44              1209.50,924.12 1214.13,924.74 1216.50,924.00              1218.39,923.41 1220.73,921.09 1222.68,921.73              1226.66,923.03 1222.68,927.23 1222.11,929.15              1221.33,931.82 1222.89,933.30 1225.06,934.55              1222.45,933.05 1239.27,941.37 1236.04,940.12              1238.39,941.03 1240.83,940.85 1242.59,942.02              1244.91,943.56 1245.11,946.23 1249.05,949.62              1249.05,949.62 1263.83,958.94 1263.83,958.94              1263.83,958.94 1274.04,967.94 1274.04,967.94              1279.42,973.71 1281.65,969.64 1284.69,971.21              1287.07,972.65 1286.86,975.24 1288.73,977.68              1291.30,981.01 1295.72,981.92 1297.02,986.09              1297.79,988.58 1296.91,988.53 1299.31,994.99              1299.98,996.80 1301.49,1000.35 1301.38,1002.17              1301.12,1006.14 1297.56,1011.01 1293.21,1008.64              1289.45,1006.60 1289.52,1001.99 1287.28,999.50              1284.00,995.85 1279.50,997.46 1276.72,995.33              1273.70,993.01 1274.74,989.23 1269.81,985.40              1261.38,977.80 1253.54,977.86 1254.70,991.00              1254.76,992.91 1255.01,994.00 1254.70,996.00              1253.86,1001.14 1248.24,1010.66 1260.00,1010.00              1260.00,1010.00 1261.47,1022.00 1261.47,1022.00              1261.47,1022.00 1267.00,1033.00 1267.00,1033.00              1267.00,1033.00 1272.00,1033.00 1272.00,1033.00              1272.00,1033.00 1276.83,1039.26 1276.83,1039.26              1276.83,1039.26 1280.00,1048.00 1280.00,1048.00              1275.73,1050.65 1274.42,1054.07 1278.00,1058.00              1276.54,1066.15 1274.53,1071.77 1276.00,1080.00              1272.41,1080.82 1271.22,1081.17 1269.00,1078.00              1269.00,1078.00 1258.72,1087.44 1258.72,1087.44              1259.29,1087.56 1252.00,1091.16 1251.25,1091.00              1251.80,1091.36 1243.55,1102.80 1241.75,1101.62              1241.75,1101.62 1241.00,1092.00 1241.00,1092.00              1241.00,1092.00 1226.00,1099.00 1226.00,1099.00              1225.28,1099.68 1228.13,1102.60 1228.50,1102.25              1228.50,1102.25 1225.12,1102.12 1225.12,1102.12              1225.12,1102.12 1217.00,1107.00 1217.00,1107.00              1217.00,1107.00 1222.00,1096.00 1222.00,1096.00              1222.11,1096.11 1221.90,1098.53 1223.06,1098.75              1224.71,1097.95 1238.26,1090.69 1239.81,1089.75              1240.82,1087.14 1237.56,1085.93 1240.00,1080.00              1241.53,1080.46 1243.11,1081.20 1244.74,1080.60              1247.12,1079.73 1252.01,1071.53 1252.20,1069.00              1252.20,1069.00 1251.00,1062.00 1251.00,1062.00              1256.42,1056.23 1248.55,1052.35 1244.00,1049.00              1244.00,1049.00 1244.00,1047.00 1244.00,1047.00              1244.00,1047.00 1247.62,1044.25 1247.62,1044.25              1248.62,1042.84 1236.80,1037.70 1236.19,1038.56              1234.60,1040.66 1232.77,1021.74 1233.33,1021.00              1235.12,1019.97 1228.45,1009.69 1225.62,1011.31              1225.62,1011.31 1225.06,1000.50 1225.06,1000.50              1215.56,995.08 1211.59,990.03 1210.81,989.00              1210.81,989.00 1208.31,990.50 1208.31,990.50              1208.31,990.50 1204.00,980.00 1204.00,980.00              1204.00,980.00 1214.00,985.00 1214.00,985.00              1205.84,988.66 1219.98,995.33 1225.00,998.00              1225.00,998.00 1225.06,993.00 1225.06,993.00              1225.06,993.00 1219.25,989.12 1219.25,989.12              1216.89,984.75 1222.69,972.50 1230.19,962.50              1230.19,962.50 1218.94,962.19 1218.94,962.19              1219.50,962.18 1211.04,947.68 1210.69,947.69              1210.69,947.69 1210.00,941.00 1210.00,941.00              1210.00,941.00 1207.00,941.00 1207.00,941.00 Z"/>
</svg>