<svg xmlns:inkscape="http://www.inkscape.org/namespaces/inkscape" xmlns:sodipodi="http://sodipodi.sourceforge.net/DTD/sodipodi-0.dtd" xmlns="http://www.w3.org/2000/svg" xmlns:svg="http://www.w3.org/2000/svg" version="1.1" id="svg1" sodipodi:docname="belgrad_coast.svg" inkscape:version="1.3.2 (091e20e, 2023-11-25, custom)" viewBox="1274.5 885.5 48 65">
  <defs id="defs1"/>
  <sodipodi:namedview id="namedview1" pagecolor="#ffffff" bordercolor="#999999" borderopacity="1" inkscape:showpageshadow="2" inkscape:pageopacity="0" inkscape:pagecheckerboard="0" inkscape:deskcolor="#d1d1d1" inkscape:document-units="in" inkscape:zoom="1.6768791" inkscape:cx="326.20121" inkscape:cy="244.8" inkscape:window-width="1920" inkscape:window-height="1017" inkscape:window-x="-8" inkscape:window-y="-8" inkscape:window-maximized="1" inkscape:current-layer="svg1"/>
  <path id="belgrad küste" fill="none" stroke="black" stroke-width="1" d="M 1275.00,924.00            C 1278.39,924.00 1283.68,924.56 1286.04,921.66              1288.11,919.11 1285.95,917.61 1290.14,912.00              1294.76,905.81 1307.79,889.00 1314.00,886.00              1316.74,890.21 1317.34,890.31 1322.00,892.00              1322.00,892.00 1320.19,902.58 1320.19,902.58              1320.19,902.58 1313.76,914.00 1313.76,914.00              1313.76,914.00 1306.00,950.00 1306.00,950.00              1299.25,945.93 1302.71,942.85 1301.74,938.83              1301.11,936.22 1298.96,934.02 1296.98,932.33              1294.60,930.29 1292.12,928.75 1289.00,928.22              1283.23,927.24 1278.59,929.98 1275.00,924.00 Z"/>
</svg>