<svg xmlns:inkscape="http://www.inkscape.org/namespaces/inkscape" xmlns:sodipodi="http://sodipodi.sourceforge.net/DTD/sodipodi-0.dtd" xmlns="http://www.w3.org/2000/svg" xmlns:svg="http://www.w3.org/2000/svg" version="1.1" id="svg1" sodipodi:docname="belgrad.svg" inkscape:version="1.3.2 (091e20e, 2023-11-25, custom)" viewBox="1224.1 707 135.04 185.06">
  <defs id="defs1"/>
  <sodipodi:namedview id="namedview1" pagecolor="#ffffff" bordercolor="#999999" borderopacity="1" inkscape:showpageshadow="2" inkscape:pageopacity="0" inkscape:pagecheckerboard="0" inkscape:deskcolor="#d1d1d1" inkscape:document-units="in" inkscape:zoom="1.6768791" inkscape:cx="326.20121" inkscape:cy="244.8" inkscape:window-width="1920" inkscape:window-height="1017" inkscape:window-x="-8" inkscape:window-y="-8" inkscape:window-maximized="1" inkscape:current-layer="svg1"/>
  <path id="Belgrad" fill="none" stroke="black" stroke-width="1" d="M 1251.00,733.00            C 1250.17,731.32 1248.75,728.97 1249.01,727.04              1249.71,721.87 1263.17,715.23 1268.00,714.31              1283.31,711.39 1288.69,718.67 1300.00,717.82              1303.01,717.59 1316.41,714.88 1319.00,713.78              1323.43,711.88 1326.02,708.49 1330.00,707.66              1335.68,706.47 1349.87,712.03 1353.89,716.10              1355.40,717.63 1356.46,719.02 1357.30,721.00              1363.61,735.83 1345.76,739.99 1344.26,752.00              1343.03,761.86 1353.01,772.05 1353.61,781.00              1353.99,786.71 1348.37,795.69 1346.67,804.00              1344.25,815.74 1347.09,819.68 1350.00,830.00              1342.11,830.00 1336.99,828.77 1333.00,837.00              1333.00,837.00 1328.00,832.00 1328.00,832.00              1328.00,832.00 1331.00,830.00 1331.00,830.00              1331.00,830.00 1319.00,827.00 1319.00,827.00              1319.00,827.00 1326.12,837.12 1326.12,837.12              1326.12,837.12 1327.38,833.94 1327.38,833.94              1329.87,834.43 1331.31,844.89 1329.43,844.38              1329.43,844.38 1325.65,869.00 1325.65,869.00              1325.65,869.00 1323.39,876.00 1323.39,876.00              1323.39,876.00 1322.31,891.56 1322.31,891.56              1318.09,890.11 1316.39,889.45 1314.38,885.44              1314.38,885.44 1307.31,890.19 1307.31,890.19              1308.40,882.91 1305.37,880.83 1305.48,874.01              1305.46,868.89 1308.48,869.35 1305.48,863.00              1302.25,855.92 1293.28,846.87 1292.28,842.00              1291.35,837.50 1292.99,832.50 1292.28,829.00              1290.97,822.52 1286.03,815.58 1285.35,812.00              1284.36,806.90 1287.05,801.69 1282.57,796.44              1277.66,790.67 1272.88,788.76 1268.01,784.73              1261.81,779.59 1260.08,772.91 1251.00,775.00              1250.00,772.70 1248.80,769.42 1246.61,768.02              1244.04,766.38 1241.02,767.65 1237.00,765.91              1231.95,763.73 1224.01,754.82 1224.64,749.00              1224.87,746.81 1226.35,744.82 1227.48,743.00              1228.55,741.26 1230.01,738.66 1231.39,737.22              1235.93,732.49 1238.05,735.76 1244.00,729.00              1244.00,729.00 1250.00,736.00 1250.00,736.00              1240.67,736.47 1250.63,738.38 1258.00,745.00              1255.29,738.70 1254.18,738.08 1254.00,731.00              1254.00,731.00 1251.00,733.00 1251.00,733.00 Z"/>
</svg>