<svg xmlns="http://www.w3.org/2000/svg" viewBox="558.43 43.5 189.07 220">
  <path id="Bergen Küste" fill="none" stroke="black" stroke-width="1" d="M 694.00,44.00            C 694.00,44.00 729.00,44.00 729.00,44.00              729.00,44.00 727.00,56.00 727.00,56.00              727.00,56.00 721.00,56.00 721.00,56.00              721.00,56.00 721.00,65.00 721.00,65.00              721.00,65.00 706.00,66.00 706.00,66.00              706.00,66.00 706.00,70.00 706.00,70.00              699.65,72.03 701.00,76.31 701.00,82.00              701.00,82.00 704.00,84.00 704.00,84.00              704.00,84.00 698.00,84.00 698.00,84.00              698.00,84.00 698.00,88.00 698.00,88.00              698.00,88.00 707.00,87.00 707.00,87.00              705.13,92.20 698.04,93.83 693.00,94.00              693.00,94.00 693.00,101.00 693.00,101.00              685.72,102.22 686.06,106.72 686.00,113.00              690.74,113.10 694.60,113.20 698.13,116.86              703.10,122.00 697.42,124.32 694.32,123.47              694.32,123.47 687.00,119.00 687.00,119.00              685.66,122.83 684.91,122.67 681.00,123.00              681.00,123.00 681.00,126.00 681.00,126.00              687.66,126.56 686.84,128.16 687.71,133.83              687.95,135.41 688.46,136.53 688.37,138.17              688.37,138.17 687.75,143.00 687.75,143.00              687.75,143.00 687.75,150.00 687.75,150.00              687.75,150.00 691.00,150.00 691.00,150.00              691.00,150.00 691.00,164.00 691.00,164.00              695.23,165.51 696.83,169.54 700.00,165.00              702.29,165.83 704.52,166.93 707.01,166.89              715.79,166.76 719.48,156.54 722.81,150.00              726.69,142.39 723.49,140.63 731.00,140.00              731.00,140.00 727.00,154.00 727.00,154.00              736.39,157.01 732.84,154.26 742.00,154.00              742.00,154.00 742.00,157.00 742.00,157.00              742.00,157.00 747.00,158.00 747.00,158.00              740.72,164.15 736.36,164.07 728.04,162.86              724.58,162.36 723.10,160.55 721.33,161.32              717.96,162.77 719.16,167.47 720.00,170.00              720.00,170.00 713.00,170.00 713.00,170.00              713.00,170.00 709.00,185.00 709.00,185.00              709.00,185.00 721.00,179.00 721.00,179.00              721.00,179.00 721.00,184.00 721.00,184.00              717.33,184.19 717.53,184.36 715.00,187.00              715.00,187.00 712.00,186.00 712.00,186.00              712.00,186.00 707.00,193.00 707.00,193.00              707.00,193.00 720.00,196.00 720.00,196.00              725.00,201.49 726.39,201.03 733.00,199.00              733.00,199.00 733.83,213.00 733.83,213.00              734.49,221.61 729.99,219.77 726.45,222.58              726.45,222.58 721.87,227.10 721.87,227.10              717.12,230.77 704.85,237.56 699.00,237.00              699.00,237.00 698.00,224.00 698.00,224.00              705.87,233.96 713.66,229.22 712.82,220.00              712.31,214.30 707.65,205.19 703.79,201.11              700.56,197.69 697.79,197.37 696.60,194.73              695.17,191.57 697.59,184.42 691.61,178.34              681.56,168.13 675.03,185.40 668.01,185.63              663.05,185.79 660.47,179.20 655.00,178.98              652.55,178.88 649.59,180.78 647.00,181.45              643.73,182.29 641.10,181.70 638.05,183.74              627.06,191.09 638.47,199.51 639.96,202.37              641.12,204.61 640.29,206.57 640.88,209.00              640.88,209.00 644.00,217.00 644.00,217.00              637.50,219.24 638.50,221.54 632.00,222.28              625.79,223.16 623.53,219.98 619.02,222.28              614.22,224.54 613.85,228.72 611.45,231.68              609.00,234.69 604.85,236.29 605.18,241.00              605.40,244.11 608.46,247.09 610.00,250.00              604.45,249.01 598.45,248.09 595.17,254.05              593.75,256.65 594.32,259.44 592.40,260.98              591.12,262.01 585.85,262.67 584.00,263.00              581.79,259.21 577.00,244.32 578.61,240.39              580.31,236.25 588.98,233.68 593.00,234.00              593.00,234.00 596.00,224.00 596.00,224.00              596.00,224.00 587.00,229.00 587.00,229.00              587.00,229.00 588.00,232.00 588.00,232.00              588.00,232.00 577.00,237.00 577.00,237.00              573.03,224.75 561.89,222.06 559.21,215.01              557.77,211.26 562.18,204.13 566.04,203.54              566.04,203.54 572.00,203.54 572.00,203.54              572.00,203.54 580.00,202.00 580.00,202.00              580.00,202.00 580.62,191.00 580.62,191.00              579.28,182.01 571.85,179.77 564.00,181.00              564.22,180.36 564.13,179.76 564.98,178.62              566.71,176.30 576.99,169.73 579.79,170.66              583.46,171.88 583.88,178.10 591.00,180.99              603.40,186.04 616.77,173.33 615.91,161.00              615.46,154.53 612.43,151.85 611.00,146.00              611.00,146.00 618.00,141.00 618.00,141.00              623.62,143.78 631.46,155.53 637.93,146.77              637.93,146.77 641.00,141.00 641.00,141.00              651.62,144.68 662.61,149.58 670.15,137.00              671.32,135.05 671.74,133.24 671.90,131.00              672.40,124.32 669.72,118.76 663.00,116.65              659.77,115.64 656.54,116.43 654.30,114.98              650.68,112.64 652.20,107.57 647.78,103.27              643.29,98.92 636.67,99.38 631.00,98.00              634.64,91.55 638.62,95.45 650.00,94.44              658.75,93.66 657.76,100.77 668.00,99.89              676.59,99.16 677.49,92.58 681.37,90.17              683.81,88.67 699.31,89.25 695.26,79.09              692.95,73.31 686.40,74.85 682.00,72.00              682.00,72.00 690.00,69.46 690.00,69.46              696.81,67.89 709.64,67.62 704.18,56.00              703.47,54.51 702.23,52.39 701.21,51.10              701.21,51.10 694.00,44.00 694.00,44.00 Z"/>
</svg>