<svg xmlns="http://www.w3.org/2000/svg" viewBox="680.5 42.38 164.63 175.12">
  <path id="Bergen" fill="none" stroke="black" stroke-width="1" d="M 729.00,43.00            C 733.14,43.00 744.55,42.32 747.70,44.17              751.78,46.58 750.66,49.82 758.00,53.12              766.77,57.07 776.33,59.35 784.00,65.48              784.00,65.48 800.01,81.61 800.01,81.61              807.97,88.01 815.33,88.95 825.00,89.00              827.53,89.01 830.53,88.94 832.91,89.89              837.43,91.68 845.31,100.92 844.58,106.00              844.03,109.82 837.56,115.47 834.80,118.42              826.79,127.00 822.25,140.38 810.00,143.00              810.00,143.00 812.00,139.00 812.00,139.00              812.00,139.00 802.00,134.00 802.00,134.00              802.00,134.00 806.00,144.00 806.00,144.00              806.00,144.00 809.00,143.00 809.00,143.00              806.30,149.46 797.30,141.06 795.60,150.04              795.11,152.62 797.12,159.25 794.83,162.69              791.68,167.40 783.09,163.39 780.93,163.86              779.41,164.19 772.93,170.06 771.67,171.49              765.37,178.64 769.77,182.85 767.78,188.00              766.59,191.07 762.84,194.72 760.56,197.17              760.56,197.17 747.09,210.58 747.09,210.58              745.42,212.14 742.53,215.63 740.68,216.43              739.14,217.09 736.68,216.98 735.00,217.00              735.00,217.00 733.00,199.00 733.00,199.00              722.58,203.39 723.79,198.13 717.83,195.58              717.83,195.58 707.00,193.00 707.00,193.00              709.58,187.75 715.39,185.37 721.00,185.00              721.00,185.00 720.00,178.00 720.00,178.00              720.00,178.00 711.00,183.00 711.00,183.00              711.00,183.00 713.00,170.00 713.00,170.00              713.00,170.00 720.00,170.00 720.00,170.00              717.00,158.01 731.23,164.21 738.00,163.15              741.89,162.54 744.59,159.88 747.00,157.00              747.00,157.00 742.00,157.00 742.00,157.00              742.00,157.00 742.00,154.00 742.00,154.00              742.00,154.00 728.00,155.00 728.00,155.00              728.00,155.00 731.00,140.00 731.00,140.00              729.14,140.31 727.98,140.28 726.42,141.60              726.42,141.60 716.30,161.81 716.30,161.81              711.35,168.14 697.80,166.05 691.00,164.00              691.00,164.00 691.00,150.00 691.00,150.00              691.00,150.00 688.00,150.00 688.00,150.00              688.11,145.27 688.71,130.91 685.40,127.60              684.07,126.27 682.69,126.28 681.00,126.00              681.00,126.00 681.00,123.00 681.00,123.00              681.00,123.00 686.00,123.00 686.00,123.00              686.00,123.00 687.00,119.00 687.00,119.00              696.00,123.14 691.32,124.23 701.00,122.00              696.65,114.50 694.51,113.08 686.00,113.00              686.03,105.97 685.88,101.96 694.00,101.00              694.00,101.00 693.00,94.00 693.00,94.00              698.66,93.68 704.13,92.25 707.00,87.00              707.00,87.00 698.00,88.00 698.00,88.00              698.00,88.00 698.00,84.00 698.00,84.00              698.00,84.00 704.00,84.00 704.00,84.00              700.18,79.26 698.92,73.26 706.00,71.00              706.00,71.00 706.00,66.00 706.00,66.00              706.00,66.00 721.00,65.00 721.00,65.00              721.00,65.00 721.00,56.00 721.00,56.00              721.00,56.00 727.00,56.00 727.00,56.00              727.00,56.00 727.00,50.00 727.00,50.00              727.00,50.00 729.00,43.00 729.00,43.00 Z"/>
</svg>