<svg version="1.1" id="svg1" xml:space="preserve" inkscape:version="1.4 (86a8ad7, 2024-10-11)" sodipodi:docname="20SchwarzesMeer.svg" xmlns:inkscape="http://www.inkscape.org/namespaces/inkscape" xmlns:sodipodi="http://sodipodi.sourceforge.net/DTD/sodipodi-0.dtd" xmlns="http://www.w3.org/2000/svg" xmlns:svg="http://www.w3.org/2000/svg" viewBox="93.15 113.52 34.62 23.05"><sodipodi:namedview id="namedview1" pagecolor="#ffffff" bordercolor="#000000" borderopacity="0.25" inkscape:showpageshadow="2" inkscape:pageopacity="0.0" inkscape:pagecheckerboard="0" inkscape:deskcolor="#d1d1d1" inkscape:document-units="mm" inkscape:zoom="0.71891835" inkscape:cx="396.42889" inkscape:cy="561.25984" inkscape:window-width="1920" inkscape:window-height="1009" inkscape:window-x="-8" inkscape:window-y="-8" inkscape:window-maximized="1" inkscape:current-layer="layer1"/><defs id="defs1"/><g inkscape:label="Ebene 1" inkscape:groupmode="layer" id="layer1"><path id="SchwarzesMeer" fill="none" stroke="#000000" stroke-width="1" d="m 98.119082,119.40802 c -0.0483,-0.32343 -0.34205,-1.00415 -0.2794,-1.17602 0.0999,-0.27348 0.3937,0.0237 0.73491,-0.44027 0.34205,-0.46567 0.18034,-0.65193 0.40132,-1.34366 0.25061,-0.35306 1.084578,-0.67395 1.280998,-0.13801 0.11515,0.24638 -0.0474,0.70697 -0.0533,0.98468 0,0 0.37084,0.14816 0.37084,0.14816 -0.12954,0.17272 -0.49868,0.50716 -0.40216,0.72814 0.13631,0.31326 1.09304,0.29464 1.25899,0.76369 0.16256,0.4572 -0.52239,1.28439 -0.46736,1.72551 0.0559,0.44958 0.61129,0.85598 1.02108,0.54186 0.21336,-0.1634 0.35221,-0.54948 0.45212,-0.79586 0.70781,0.41317 0.19812,0.7112 0.74507,1.42832 0.3429,0.44874 0.71458,0.23368 1.01684,0.38947 0.49361,0.30565 0.30226,0.53001 0,0.66125 -0.1143,0.088 -0.19727,0.1016 -0.32258,0.14562 0.0669,0.1397 0.0855,0.20574 0.19389,0.32936 0.0677,0.077 0.14563,0.14562 0.23114,0.2015 0.73829,0.4843 0.96181,-0.28702 1.31064,-0.48852 0.35814,-0.0178 1.20227,0.45804 1.38599,-0.0466 0.14055,-0.38524 -0.44873,-0.37254 -0.72982,-0.90594 0.48937,0.077 1.4351,0.43773 1.89992,0.13378 0.22013,-0.14394 0.14308,-0.33274 0.44958,-0.66294 0.34882,0.42926 0.5334,0.55287 1.0143,0.18203 0.14309,-0.11007 0.31496,-0.25993 0.36576,-0.43942 0.24977,-0.28279 -0.52662,-0.73999 -0.11006,-1.09728 0.26416,0 0.78909,0.39963 0.99483,0.34883 0.29295,-0.0711 0.41825,-0.48176 0.58251,-0.67564 0.22098,-0.26078 0.26416,-0.29803 0.63415,-0.31835 -0.0203,-0.46567 0.004,-0.63077 0.49784,-0.79417 -0.0186,0.81364 -0.20743,0.76708 -0.59267,1.43933 0,0 0.67734,0.12446 0.67734,0.12446 0,0 0.67733,-0.36407 0.67733,-0.36407 0,0 0.71967,0.007 0.71967,0.007 0,0 -0.0102,-0.9 -0.0102,-0.9 0.45466,0.14901 0.97112,0.73744 1.27762,1.13284 0.15155,0.19558 0.35644,0.69934 0.55287,0.80433 0.22267,0.34205 0.91017,-0.64601 1.31233,-0.13716 0.27856,0.34459 -0.1651,0.71882 -0.12615,1.02616 0.0457,0.36153 0.84413,0.92879 1.17687,1.04563 0.70358,0.24808 0.45466,-0.92625 0.96012,-0.91863 0.35475,0.006 0.50038,0.4826 0.70781,0.67649 0.24045,0.22436 0.45551,0.16256 0.70697,0.29718 0.27178,0.14562 0.39454,0.40978 0.6841,0.46312 0.54864,0.0999 1.17687,-0.80687 1.71112,-0.52662 0.74252,0.33443 -0.0271,0.81195 -0.41233,0.91016 0.46143,0.94234 1.08543,-0.0339 1.91347,0.56304 0.12276,0.0889 0.26924,0.22352 0.32088,0.36999 0.14309,0.4064 -0.4174,0.72729 -0.41571,1.09897 0.002,0.41995 0.67056,0.75692 0.79502,1.12184 0.12192,0.35814 -0.26755,0.41486 -0.39201,0.71966 0,0 -0.22182,1.18534 -0.22182,1.18534 -0.17865,0.41148 -0.68919,0.36406 -0.97282,0.0694 -0.17442,-0.18034 -0.1905,-0.4064 -0.21252,-0.64093 -0.25061,0.0449 -0.61552,0.26755 -0.84666,0.23283 -0.50038,-0.0745 -0.254,-0.60367 -1.16417,-0.392 0,0 0.91017,0.73744 0.91017,0.73744 -0.18966,0.53425 -1.18026,0.45805 -1.51638,0 -0.19728,-0.29125 -0.116,-0.75438 -0.30396,-0.98044 -0.13716,-0.16594 -0.34628,-0.10668 -0.55033,-0.088 -0.42333,0.0381 -0.80772,0.38947 -1.17517,0.49022 -0.45043,0.12446 -0.67226,-0.15579 -1.02616,-0.12615 -0.41826,0.0347 -0.65871,0.41402 -1.3335,0.44365 -0.40302,0.0178 -0.91186,-0.0508 -1.132,-0.4445 -0.1253,-0.32766 -0.0813,-1.49775 -0.83481,-1.16755 -0.9906,0.23368 0.20743,1.4986 -0.84836,1.37414 -0.14732,-0.0178 -0.9652,-0.18288 -1.04987,-0.25062 -0.19812,-0.15832 -0.0906,-0.51816 -0.40132,-0.5842 -0.52578,-0.1126 -0.45889,0.60198 -0.57996,0.78994 0,0 -0.59352,0.64262 -0.59352,0.64262 -0.57827,-0.23283 -0.3175,-0.41317 -0.3175,-1.03716 -0.0787,-0.61638 -0.39962,-0.16341 -0.52916,0.10922 -0.0686,0.10414 -0.10922,0.22013 -0.15494,0.33528 0,0 -0.18373,0.42333 -0.18373,0.42333 -0.60537,-0.34459 -0.59097,-0.72051 -0.59267,-1.35467 -0.80264,0.0931 -0.84412,0.5842 -0.84666,1.27 -1.05326,-0.46228 -0.56981,-0.8619 -0.254,-1.69333 0,0 -1.016,0.254 -1.016,0.254 0.0491,0.32173 0.19727,1.06511 0.29633,1.35467 0.072,0.18034 0.18119,0.42756 0,0.57742 -0.1016,0.0762 -0.92287,0.1397 -1.143,0.18458 0.48175,0.61976 0.63077,0.37676 1.27,0.42841 0.15833,0.0127 0.39878,0.0483 0.39455,0.25993 -0.0119,0.74591 -1.20735,0.27601 -1.71704,0.26416 -0.25316,0.15155 -0.16934,0.63839 -0.7112,0.87969 -0.52324,0.23283 -1.14808,-0.10838 -1.37414,0.14732 -0.25316,0.28617 0.48598,0.90424 -0.011,1.11082 -0.46651,0.19389 -0.79417,-0.72305 -1.20989,-0.46905 -0.3175,0.19389 0.0737,0.53425 0.22606,0.85005 0,0 -0.0847,0.0847 -0.0847,0.0847 -0.44112,-0.16171 -0.77216,-0.44196 -1.27,-0.3048 -0.4081,0.11261 -0.67141,0.4826 -1.016,0.49022 -0.32682,0.008 -0.60876,-0.32258 -0.931338,-0.38185 -0.67394,-0.12446 -1.29032,0.63839 -1.43933,1.21243 -0.35729,-0.003 -0.87545,-0.0229 -1.17687,-0.23114 -0.50546,-0.35137 -0.4191,-0.93726 -1.53246,-1.03886 0,0 0.36322,-0.93133 0.36322,-0.93133 0.0499,-0.19389 0.0457,-0.5732 0.14393,-0.70104 0.13547,-0.17526 0.70612,-0.24384 0.75269,-0.69004 0.0559,-0.52239 -0.7239,-0.99906 -0.55542,-1.65184 0.12192,-0.47244 0.64686,-0.28618 0.93811,-0.63331 0.31242,-0.37169 -0.0186,-1.57734 -0.40471,-1.82541 0,0 -0.81449,-0.2557 -0.81449,-0.2557 0,0 0.63669,-1.10066 0.63669,-1.10066 0.1668,-0.41318 0.0864,-0.60114 0.17865,-0.93134 0.066,-0.23452 0.20066,-0.42248 0.19473,-0.67733 -0.0135,-0.62484 -0.71374,-0.90763 -0.54694,-1.778 0.0212,-0.10922 0.0652,-0.28956 0.14054,-0.37338 0.50631,-0.62315 0.59098,0.381 0.497,0.62738 0.18796,-0.20489 0.38608,-0.37846 0.39539,-0.67733 0.011,-0.47752 -1.0033,-1.59597 0.1143,-1.76022 0.13377,-0.0195 0.28363,-0.0144 0.42164,0 z m 18.320168,2.10904 m 6.49732,1.83134 m -11.79999,4.67784"/></g></svg>