<svg xmlns:inkscape="http://www.inkscape.org/namespaces/inkscape" xmlns:sodipodi="http://sodipodi.sourceforge.net/DTD/sodipodi-0.dtd" xmlns="http://www.w3.org/2000/svg" xmlns:svg="http://www.w3.org/2000/svg" version="1.1" id="svg1" sodipodi:docname="bordeaux_coast.svg" inkscape:version="1.3.2 (091e20e, 2023-11-25, custom)" viewBox="627.5 831.5 83 94">
  <defs id="defs1"/>
  <sodipodi:namedview id="namedview1" pagecolor="#ffffff" bordercolor="#999999" borderopacity="1" inkscape:showpageshadow="2" inkscape:pageopacity="0" inkscape:pagecheckerboard="0" inkscape:deskcolor="#d1d1d1" inkscape:document-units="in" inkscape:zoom="1.6768791" inkscape:cx="326.20121" inkscape:cy="244.8" inkscape:window-width="1920" inkscape:window-height="1017" inkscape:window-x="-8" inkscape:window-y="-8" inkscape:window-maximized="1" inkscape:current-layer="svg1"/>
  <path id="Bordeaux Küste" fill="none" stroke="black" stroke-width="1" d="M 628.00,858.00            C 628.00,858.00 640.72,844.08 640.72,844.08              640.72,844.08 655.00,832.00 655.00,832.00              656.99,838.98 654.83,842.89 663.00,846.47              672.29,850.54 686.03,841.00 685.83,853.00              685.80,854.57 685.41,855.55 685.00,857.00              685.00,857.00 682.00,857.00 682.00,857.00              682.00,857.00 692.45,869.74 692.45,869.74              692.45,869.74 699.55,877.09 699.55,877.09              699.55,877.09 701.72,884.00 701.72,884.00              701.72,884.00 705.42,891.00 705.42,891.00              705.42,891.00 706.46,900.00 706.46,900.00              706.46,900.00 710.00,918.00 710.00,918.00              706.40,915.53 706.46,912.06 705.29,908.00              703.00,900.05 700.88,891.22 692.00,889.00              691.47,898.62 693.03,895.58 693.45,901.00              694.13,909.97 691.73,916.27 695.00,925.00              695.00,925.00 671.00,919.88 671.00,919.88              668.25,919.23 663.92,918.83 662.14,916.52              661.22,915.33 660.77,913.43 660.43,912.00              658.19,902.49 661.48,901.71 661.51,896.00              661.53,893.01 655.83,882.44 653.70,880.28              652.43,878.98 650.77,878.02 649.00,877.61              645.51,876.82 642.21,878.86 639.00,880.00              639.00,880.00 637.00,876.00 637.00,876.00              638.42,874.90 639.29,874.42 640.42,872.89              642.99,869.38 647.64,858.31 641.85,855.74              637.54,853.82 632.18,856.82 628.00,858.00 Z"/>
</svg>