<svg xmlns:inkscape="http://www.inkscape.org/namespaces/inkscape" xmlns:sodipodi="http://sodipodi.sourceforge.net/DTD/sodipodi-0.dtd" xmlns="http://www.w3.org/2000/svg" xmlns:svg="http://www.w3.org/2000/svg" version="1.1" id="svg1" sodipodi:docname="cagliori_coast.svg" inkscape:version="1.3.2 (091e20e, 2023-11-25, custom)" viewBox="958.5 896.13 132.48 228.41">
  <defs id="defs1"/>
  <sodipodi:namedview id="namedview1" pagecolor="#ffffff" bordercolor="#999999" borderopacity="1" inkscape:showpageshadow="2" inkscape:pageopacity="0" inkscape:pagecheckerboard="0" inkscape:deskcolor="#d1d1d1" inkscape:document-units="in" inkscape:zoom="1.6768791" inkscape:cx="326.20121" inkscape:cy="244.8" inkscape:window-width="1920" inkscape:window-height="1017" inkscape:window-x="-8" inkscape:window-y="-8" inkscape:window-maximized="1" inkscape:current-layer="svg1"/>
  <path id="Cagliori Küste" fill="none" stroke="black" stroke-width="1" d="M 987.09,951.04            C 985.76,943.65 986.58,940.22 983.52,932.91              982.39,930.20 978.57,925.68 979.32,923.00              980.14,920.05 991.21,909.79 994.00,907.00              997.12,903.88 1002.57,895.05 1007.48,896.87              1010.72,898.07 1023.32,907.84 1024.31,911.04              1025.15,913.76 1023.58,916.71 1023.60,920.00              1023.42,925.05 1025.02,928.75 1029.00,932.00              1024.63,919.09 1025.39,924.42 1026.39,912.09              1026.39,912.09 1040.00,921.00 1040.00,921.00              1037.07,927.70 1031.21,939.95 1039.96,955.52              1041.32,957.25 1043.71,959.34 1045.52,960.57              1049.42,963.21 1061.09,963.38 1060.00,965.09              1059.57,967.47 1051.53,963.78 1048.13,965.83              1043.89,968.37 1044.52,974.21 1048.22,976.52              1052.24,979.04 1061.24,978.00 1066.00,978.00              1066.00,978.00 1066.00,982.00 1066.00,982.00              1055.96,980.00 1052.94,976.14 1051.57,990.22              1051.57,990.22 1058.00,990.00 1058.00,990.00              1058.00,990.00 1058.26,995.96 1058.26,995.96              1059.89,996.09 1060.74,997.55 1062.17,998.52              1064.32,999.97 1068.98,1006.20 1069.26,1008.83              1069.45,1010.59 1069.31,1013.23 1069.00,1014.88              1067.25,1014.86 1062.99,1013.61 1061.48,1014.17              1057.75,1015.16 1056.17,1020.02 1057.48,1023.35              1059.21,1025.55 1070.65,1037.34 1072.35,1038.17              1075.28,1039.03 1078.55,1036.35 1081.00,1035.00              1080.11,1039.74 1074.21,1049.42 1081.39,1051.78              1084.32,1053.07 1086.22,1051.28 1090.48,1051.22              1085.16,1053.35 1083.71,1054.34 1083.00,1058.61              1080.24,1056.05 1072.40,1045.03 1065.74,1054.70              1065.24,1055.54 1064.89,1057.09 1064.65,1058.04              1062.89,1065.02 1069.11,1074.27 1075.26,1076.78              1078.23,1078.00 1080.92,1077.23 1083.83,1077.43              1090.18,1077.88 1089.83,1082.32 1087.61,1084.30              1085.86,1085.87 1083.56,1085.80 1081.39,1085.78              1074.05,1085.74 1069.68,1086.77 1065.52,1093.43              1062.58,1098.15 1063.81,1101.17 1059.87,1103.00              1055.90,1104.84 1052.56,1103.04 1047.00,1104.43              1040.28,1106.12 1039.56,1109.94 1034.00,1110.52              1029.01,1111.05 1025.09,1108.65 1020.00,1110.30              1010.78,1113.28 1012.07,1120.18 1003.17,1124.04              1000.77,1123.54 1023.40,1104.74 1009.83,1093.52              1007.82,1092.33 1006.50,1090.60 1004.26,1089.70              1003.09,1084.23 1008.05,1081.46 1008.57,1076.17              1008.79,1073.88 1007.98,1071.75 1006.39,1070.13              997.95,1061.53 987.94,1071.47 983.65,1074.30              981.83,1075.21 980.10,1077.05 978.30,1074.91              976.64,1073.28 977.31,1070.49 978.57,1068.52              979.76,1066.57 981.91,1065.35 983.65,1063.91              989.01,1059.50 999.91,1047.43 989.65,1042.00              988.36,1041.32 986.40,1041.02 984.96,1040.96              984.96,1040.96 978.00,1042.00 978.00,1042.00              979.88,1037.63 982.57,1033.92 982.78,1029.04              982.96,1024.97 981.61,1019.62 983.52,1015.96              986.32,1010.60 995.53,1007.32 994.04,1000.00              993.61,997.88 992.54,995.64 990.78,994.39              985.29,990.50 980.95,994.39 975.96,995.87              974.08,996.13 972.50,996.98 970.57,996.78              972.90,993.22 977.46,991.35 977.96,987.22              978.41,983.40 975.19,980.89 973.91,978.39              972.70,976.01 973.61,973.77 972.61,971.48              970.38,966.37 963.87,966.12 959.00,966.00              962.14,956.57 967.51,957.47 969.24,950.20              973.26,944.49 966.52,940.19 966.35,936.17              966.66,932.41 973.99,927.15 977.00,925.00              977.00,925.00 983.51,939.00 983.51,939.00              983.03,939.38 986.83,951.25 987.09,951.04 Z            M 1012.00,914.00            C 1008.68,922.35 1014.11,932.31 1000.00,935.00              1000.00,935.00 1000.00,946.00 1000.00,946.00              991.40,951.15 999.59,959.35 1000.56,962.09              1001.43,965.08 999.76,967.12 1000.56,969.91              1000.56,969.91 1007.33,980.45 1007.33,980.45              1007.33,980.45 1012.49,984.42 1012.49,984.42              1013.99,985.72 1015.70,988.09 1017.95,987.85              1020.60,987.56 1022.88,982.19 1023.46,979.91              1025.46,972.10 1020.04,966.26 1030.00,961.00              1030.00,961.00 1030.00,944.00 1030.00,944.00              1030.00,944.00 1020.52,943.96 1020.52,943.96              1022.22,942.93 1024.61,941.95 1023.61,939.43              1022.92,935.55 1016.68,933.09 1015.67,929.91              1014.39,925.74 1018.45,920.71 1012.00,914.00 Z            M 1032.00,1001.00            C 1032.00,1001.00 1028.00,1001.00 1028.00,1001.00              1028.00,1001.00 1023.00,1012.00 1023.00,1012.00              1023.00,1012.00 1019.00,1011.00 1019.00,1011.00              1013.39,1017.26 1010.85,1017.28 1008.99,1009.00              1006.54,1012.34 1006.52,1020.89 1008.99,1024.32              1010.29,1026.14 1013.04,1026.76 1014.83,1030.05              1014.83,1030.05 1019.04,1044.00 1019.04,1044.00              1019.38,1045.83 1019.10,1048.13 1019.04,1050.00              1019.04,1050.00 1015.00,1048.00 1015.00,1048.00              1015.24,1055.54 1017.06,1055.47 1017.22,1059.00              1017.22,1059.00 1016.27,1066.00 1016.27,1066.00              1016.27,1066.00 1022.00,1084.83 1022.00,1084.83              1022.00,1084.83 1025.34,1089.16 1025.34,1089.16              1027.84,1092.52 1033.00,1099.59 1036.00,1092.00              1036.00,1092.00 1049.39,1088.98 1049.39,1088.98              1051.60,1087.16 1049.80,1084.43 1051.06,1081.09              1051.91,1078.84 1053.54,1077.97 1053.83,1074.91              1054.32,1069.59 1050.24,1065.95 1049.48,1060.00              1048.43,1054.43 1049.75,1051.67 1049.48,1047.00              1049.57,1042.19 1048.04,1038.08 1051.00,1034.00              1051.00,1034.00 1051.00,1026.00 1051.00,1026.00              1043.76,1021.75 1048.77,1018.24 1046.04,1013.60              1042.97,1008.37 1035.66,1008.05 1032.00,1001.00 Z"/>
</svg>