<svg xmlns:inkscape="http://www.inkscape.org/namespaces/inkscape" xmlns:sodipodi="http://sodipodi.sourceforge.net/DTD/sodipodi-0.dtd" xmlns="http://www.w3.org/2000/svg" xmlns:svg="http://www.w3.org/2000/svg" version="1.1" id="svg1" sodipodi:docname="cagliori.svg" inkscape:version="1.3.2 (091e20e, 2023-11-25, custom)" viewBox="963.91 888.53 89.86 206.93">
  <defs id="defs1"/>
  <sodipodi:namedview id="namedview1" pagecolor="#ffffff" bordercolor="#999999" borderopacity="1" inkscape:showpageshadow="2" inkscape:pageopacity="0" inkscape:pagecheckerboard="0" inkscape:deskcolor="#d1d1d1" inkscape:document-units="in" inkscape:zoom="1.6768791" inkscape:cx="326.20121" inkscape:cy="244.8" inkscape:window-width="1920" inkscape:window-height="1017" inkscape:window-x="-8" inkscape:window-y="-8" inkscape:window-maximized="1" inkscape:current-layer="svg1"/>
  <path id="Cagliori" fill="none" stroke="black" stroke-width="1" d="M 1026.16,889.03            C 1026.16,889.03 1032.22,897.91 1032.22,897.91              1027.37,895.53 1028.32,903.62 1027.44,908.34              1025.92,919.46 1023.22,918.66 1028.94,931.88              1019.29,925.09 1026.03,910.55 1026.53,903.16              1026.53,903.16 1026.16,889.03 1026.16,889.03 Z            M 964.41,912.28            C 964.41,912.28 975.47,917.38 975.47,917.38              975.47,917.38 973.00,919.00 973.00,919.00              973.00,919.00 973.19,919.94 973.19,919.94              977.72,922.97 980.78,927.98 983.16,932.75              985.47,936.34 986.49,945.88 987.09,951.06              984.63,943.46 976.67,913.41 969.00,923.00              969.00,923.00 964.41,912.28 964.41,912.28 Z            M 1000.00,935.00            C 1002.48,934.66 1006.38,933.21 1008.19,931.34              1013.05,922.98 1008.92,923.56 1011.91,914.38              1017.99,919.56 1014.29,927.31 1015.73,930.86              1016.17,930.93 1024.57,939.62 1023.44,939.44              1024.61,941.91 1022.03,943.09 1020.09,943.91              1024.25,944.44 1025.97,943.72 1029.84,944.25              1029.84,944.25 1029.88,960.97 1029.88,960.97              1029.79,960.31 1024.31,965.36 1024.34,965.62              1023.38,966.01 1023.21,977.75 1023.59,977.59              1024.65,978.76 1019.34,989.79 1017.34,987.59              1016.37,987.87 1006.45,979.16 1007.00,979.00              1007.00,979.00 1003.00,973.00 1003.00,973.00              1003.00,973.00 1001.75,971.31 1001.75,971.31              1001.75,971.31 1001.00,970.00 1001.00,970.00              1001.00,970.00 1001.00,965.00 1001.00,965.00              1001.35,964.58 1000.72,961.88 1000.19,960.50              997.47,958.00 997.72,956.00 996.66,954.25              996.25,950.66 996.05,948.51 1000.91,946.59              999.43,940.96 1000.65,940.83 1000.00,935.00 Z            M 978.94,926.97            C 978.94,926.97 979.00,927.00 979.00,927.00              979.00,927.00 978.97,927.03 978.97,927.03              978.97,927.03 978.94,926.97 978.94,926.97 Z            M 1019.94,973.38            C 1019.94,973.38 1019.94,973.34 1019.94,973.34              1019.94,973.34 1019.97,973.41 1019.97,973.41              1019.97,973.41 1019.94,973.38 1019.94,973.38 Z            M 1028.00,1001.00            C 1029.92,1000.39 1036.85,1006.34 1035.87,1006.65              1036.45,1006.23 1047.44,1013.66 1046.26,1014.52              1046.03,1016.83 1046.57,1021.33 1046.91,1023.22              1048.22,1024.58 1053.70,1028.42 1049.13,1034.26              1049.13,1034.26 1048.61,1040.00 1048.61,1040.00              1048.29,1043.38 1048.52,1044.40 1048.83,1047.26              1049.28,1051.55 1048.13,1053.22 1048.61,1058.09              1049.38,1066.02 1053.76,1069.66 1053.22,1074.78              1052.98,1076.97 1051.52,1078.67 1050.61,1080.52              1050.17,1087.78 1047.64,1090.77 1036.00,1091.09              1032.02,1098.80 1029.26,1093.52 1025.35,1087.96              1022.13,1084.78 1022.47,1082.46 1020.35,1077.13              1018.93,1073.58 1017.37,1070.07 1017.13,1066.00              1016.91,1062.33 1018.14,1060.70 1017.70,1057.43              1017.70,1057.43 1016.00,1050.17 1016.00,1050.17              1022.51,1055.33 1019.68,1044.66 1017.02,1034.00              1017.02,1034.00 1014.91,1028.23 1014.91,1028.23              1009.87,1025.18 1005.76,1022.31 1008.30,1010.78              1009.58,1017.02 1015.53,1018.03 1019.30,1011.61              1019.30,1011.61 1022.69,1012.00 1022.69,1012.00              1024.69,1010.17 1027.06,1003.68 1028.00,1001.00 Z            M 1013.28,983.97M 999.22,940.47            C 999.91,940.56 998.81,941.06 999.28,941.09M 987.31,951.25M 1048.52,1027.17"/>
</svg>