<svg xmlns="http://www.w3.org/2000/svg" viewBox="518.5 468.5 84.06 174.08">
  <path id="Chester" fill="none" stroke="black" stroke-width="1" d="M 538.00,469.00            C 544.22,472.74 543.98,477.59 547.26,484.00              547.26,484.00 563.32,514.00 563.32,514.00              563.32,514.00 575.14,534.00 575.14,534.00              575.14,534.00 583.11,550.00 583.11,550.00              583.11,550.00 593.26,569.00 593.26,569.00              595.39,573.17 603.09,584.97 601.95,589.00              601.13,591.93 597.11,596.58 595.16,599.00              592.62,602.16 586.51,609.97 583.49,612.27              580.10,614.85 576.55,613.20 573.60,617.15              570.11,621.81 573.59,629.15 572.61,631.86              571.70,634.33 569.12,634.69 567.41,635.96              565.32,637.52 565.02,639.28 562.73,640.57              559.17,642.57 548.46,642.00 544.00,642.00              544.00,642.00 553.85,624.00 553.85,624.00              553.85,624.00 552.69,616.00 552.69,616.00              552.69,616.00 552.69,612.00 552.69,612.00              552.69,612.00 548.00,585.00 548.00,585.00              548.00,585.00 559.00,575.00 559.00,575.00              559.00,575.00 563.00,576.00 563.00,576.00              563.00,576.00 563.00,567.00 563.00,567.00              554.91,574.17 559.58,575.02 547.00,583.00              547.00,583.00 542.00,562.00 542.00,562.00              542.00,562.00 539.00,562.00 539.00,562.00              539.00,562.00 540.00,556.00 540.00,556.00              540.00,556.00 549.00,559.00 549.00,559.00              549.00,559.00 550.61,550.00 550.61,550.00              551.86,543.12 551.81,540.57 544.00,540.00              544.00,540.00 544.00,536.00 544.00,536.00              544.00,536.00 528.00,536.00 528.00,536.00              528.00,536.00 528.00,521.00 528.00,521.00              528.00,521.00 524.00,521.00 524.00,521.00              524.00,521.00 524.00,514.00 524.00,514.00              524.00,514.00 519.00,514.00 519.00,514.00              519.00,514.00 524.40,504.00 524.40,504.00              524.40,504.00 525.88,496.00 525.88,496.00              525.88,496.00 538.00,469.00 538.00,469.00 Z            M 542.00,473.00            C 542.00,473.00 541.00,473.00 541.00,473.00              541.00,473.00 542.00,474.00 542.00,474.00              542.00,474.00 542.00,473.00 542.00,473.00 Z            M 543.00,475.00            C 543.00,475.00 542.00,475.00 542.00,475.00              542.00,475.00 543.00,476.00 543.00,476.00              543.00,476.00 543.00,475.00 543.00,475.00 Z"/>
</svg>