<svg xmlns:inkscape="http://www.inkscape.org/namespaces/inkscape" xmlns:sodipodi="http://sodipodi.sourceforge.net/DTD/sodipodi-0.dtd" xmlns="http://www.w3.org/2000/svg" xmlns:svg="http://www.w3.org/2000/svg" version="1.1" id="svg1" sodipodi:docname="Chester Küste NordWest1.svg" inkscape:version="1.3.2 (091e20e, 2023-11-25, custom)" viewBox="473.36 496.5 78.14 73">
  <defs id="defs1"/>
  <sodipodi:namedview id="namedview1" pagecolor="#ffffff" bordercolor="#999999" borderopacity="1" inkscape:showpageshadow="2" inkscape:pageopacity="0" inkscape:pagecheckerboard="0" inkscape:deskcolor="#d1d1d1" inkscape:document-units="in" inkscape:zoom="18.971721" inkscape:cx="168.56667" inkscape:cy="174.28571" inkscape:window-width="1904" inkscape:window-height="1001" inkscape:window-x="644" inkscape:window-y="112" inkscape:window-maximized="0" inkscape:current-layer="svg1"/>
  <path id="Chester Küste Nordwest" fill="none" stroke="#000000" stroke-width="1" d="m 524,497 c 2.35,5.99 -0.5,11.22 -6,14 v 2 c 4.9,2.06 5.56,2.66 6,8 l 2.98,1.59 1.02,13.41 12.83,0.58 10.17,6.42 -2,15 -13,-5 3,3 -1,6 c 4.04,1.46 3.76,3 4,7 L 525,563 498,551.23 482,543 c 4.21,0 11.09,-1.59 13,3 l 9,-8 c -9.23,0.42 -9.44,2.35 -14.09,2.66 -1.99,0.45 -7.87,0.51 -9.61,0 -2.38,-1.26 -6.86,-7.05 -6.41,-9.73 0.32,-1.87 1.86,-3.27 3.17,-4.5 3.4,-3.2 11.59,-9.35 15.94,-10.8 4.21,-1.39 8.98,-1.05 13,-3.08 3.68,-1.86 14.02,-12.03 18,-15.55 z" sodipodi:nodetypes="ccccccccccccccccccccccccc"/>
</svg>