<svg xmlns="http://www.w3.org/2000/svg" viewBox="519.79 642.5 86.71 72">   <path id="mit Pfeilen" fill="none" stroke="black" stroke-width="1" d="M 559.00,643.00            C 559.00,643.00 561.00,651.00 561.00,651.00              555.57,653.37 544.26,661.21 540.97,666.05              538.91,669.07 538.37,671.47 538.00,675.00              542.48,673.53 542.23,672.44 542.00,668.00              542.00,668.00 547.00,669.00 547.00,669.00              547.00,669.00 548.00,664.00 548.00,664.00              548.00,664.00 560.00,670.82 560.00,670.82              563.87,672.11 566.27,670.70 568.74,671.63              573.26,673.34 570.50,676.73 581.00,677.00              581.37,686.96 582.25,689.96 571.00,690.00              571.79,695.44 571.54,695.74 568.00,700.00              583.10,700.00 589.17,700.17 601.00,689.00              594.94,686.75 604.62,686.04 606.00,686.00              606.00,686.00 604.00,693.00 604.00,693.00              599.38,693.47 598.29,695.81 594.00,697.70              586.01,701.22 582.71,702.15 574.00,702.00              571.04,701.94 570.02,702.25 568.00,700.00              568.00,700.00 558.91,696.96 558.91,696.96              558.91,696.96 551.00,698.00 551.00,698.00              551.00,698.00 551.00,713.00 551.00,713.00              551.00,713.00 533.00,713.00 533.00,713.00              533.00,713.00 529.00,708.00 529.00,708.00              529.00,708.00 524.00,714.00 524.00,714.00              517.05,711.56 521.80,707.52 522.86,702.91              522.86,702.91 522.86,696.00 522.86,696.00              522.86,696.00 529.00,695.00 529.00,695.00              527.94,686.96 525.23,679.64 536.00,679.00              536.00,674.91 535.76,670.80 537.57,667.00              540.75,660.33 549.90,655.01 552.58,652.10              554.82,649.67 553.78,648.70 559.00,643.00 Z"></path> </svg>