<svg xmlns="http://www.w3.org/2000/svg" viewBox="485.89 654.95 99.61 86.55">
  <path id="Cornwall Küste" fill="none" stroke="black" stroke-width="1" d="M 514.00,664.00            C 517.45,662.09 530.62,655.82 534.00,655.48              536.72,655.21 541.76,656.72 541.81,660.10              541.84,662.37 539.02,664.90 537.57,668.00              535.85,671.66 536.01,675.09 536.00,679.00              526.28,681.07 527.58,687.09 529.00,695.00              529.00,695.00 523.00,695.00 523.00,695.00              522.99,708.62 518.74,708.81 525.00,714.00              528.69,707.50 531.41,712.10 537.00,712.93              537.00,712.93 551.00,712.93 551.00,712.93              551.00,712.93 551.00,698.00 551.00,698.00              560.18,696.79 558.72,696.45 567.00,701.00              567.00,701.00 571.00,690.00 571.00,690.00              571.00,690.00 583.00,690.00 583.00,690.00              583.00,690.00 584.00,699.00 584.00,699.00              584.00,699.00 568.00,701.00 568.00,701.00              568.00,701.00 585.00,703.00 585.00,703.00              583.53,706.84 579.11,715.12 574.96,716.30              571.61,717.25 568.20,714.39 565.00,713.72              562.09,713.12 555.06,714.85 552.00,715.67              543.49,717.95 544.14,722.70 539.82,724.39              535.58,726.04 527.75,721.19 522.32,727.23              520.72,729.00 520.21,730.67 520.70,733.00              520.70,733.00 524.00,741.00 524.00,741.00              514.25,740.43 514.44,736.32 510.47,729.00              508.87,726.05 505.89,722.13 502.02,723.40              494.00,726.04 496.60,737.43 490.00,740.00              489.25,731.81 485.97,729.66 486.44,726.01              487.02,721.54 492.84,719.48 494.73,715.00              496.20,711.54 493.11,704.72 492.00,701.00              498.96,701.90 505.73,702.26 508.35,694.00              509.44,690.56 508.55,686.85 509.60,684.00              511.02,680.11 515.13,677.63 516.16,674.00              516.99,671.09 514.84,666.98 514.00,664.00 Z            M 538.00,675.00            C 538.35,668.77 540.51,662.08 548.00,663.00              548.00,663.00 547.00,669.00 547.00,669.00              547.00,669.00 542.00,668.00 542.00,668.00              542.00,668.00 542.00,675.00 542.00,675.00              542.00,675.00 538.00,675.00 538.00,675.00 Z"/>
</svg>