<svg xmlns="http://www.w3.org/2000/svg" viewBox="484.91 654.29 100.59 87.58">   <path id="Cornwall Küste" fill="none" stroke="black" stroke-width="1" d="M 513.00,664.00            C 513.00,664.00 534.00,654.83 534.00,654.83              537.37,654.29 546.06,659.87 547.06,663.24              547.61,664.82 547.18,667.33 547.06,669.00              547.06,669.00 542.00,668.00 542.00,668.00              542.00,668.00 542.00,675.00 542.00,675.00              542.00,675.00 536.00,675.00 536.00,675.00              536.00,675.00 536.00,679.00 536.00,679.00              524.71,679.39 528.33,686.78 529.00,695.00              521.85,696.20 523.90,698.65 522.73,703.83              521.64,708.66 517.78,710.48 524.00,714.00              529.01,705.43 533.14,712.10 538.04,712.93              538.04,712.93 551.00,712.93 551.00,712.93              551.00,712.93 551.00,698.00 551.00,698.00              560.01,696.43 558.32,695.18 566.00,701.00              569.93,694.38 571.70,696.89 571.00,690.00              571.00,690.00 583.00,690.00 583.00,690.00              583.00,690.00 585.00,705.00 585.00,705.00              580.06,709.81 578.57,716.38 574.90,717.26              570.52,718.30 568.68,712.40 562.00,713.36              562.00,713.36 556.00,715.18 556.00,715.18              552.37,716.09 549.53,715.12 546.22,717.70              542.92,720.28 542.96,724.06 539.78,725.16              537.19,726.06 534.10,724.21 531.00,723.85              524.67,723.12 517.40,727.95 520.90,734.83              520.90,734.83 525.00,741.00 525.00,741.00              513.48,743.87 511.86,729.26 508.49,725.10              504.50,720.17 499.95,722.37 497.07,727.02              496.27,728.32 495.38,730.53 494.90,732.00              494.90,732.00 493.00,740.00 493.00,740.00              493.00,740.00 490.00,740.00 490.00,740.00              489.62,737.95 489.32,734.38 488.61,732.72              487.58,730.28 484.58,727.25 485.63,724.41              486.59,721.82 492.66,720.60 495.01,715.83              497.36,711.05 493.17,709.16 492.00,701.00              498.87,701.56 506.30,703.04 508.67,694.00              509.44,690.45 507.63,687.13 508.67,684.21              509.77,681.68 512.59,680.42 514.57,677.90              518.78,672.53 515.95,668.91 513.00,664.00 Z"></path> </svg>