<svg xmlns:inkscape="http://www.inkscape.org/namespaces/inkscape" xmlns:sodipodi="http://sodipodi.sourceforge.net/DTD/sodipodi-0.dtd" xmlns="http://www.w3.org/2000/svg" xmlns:svg="http://www.w3.org/2000/svg" version="1.1" id="svg1" sodipodi:docname="dubrovnik_coast.svg" inkscape:version="1.3.2 (091e20e, 2023-11-25, custom)" viewBox="1136.43 778.03 169.45 138.47">
  <defs id="defs1"/>
  <sodipodi:namedview id="namedview1" pagecolor="#ffffff" bordercolor="#999999" borderopacity="1" inkscape:showpageshadow="2" inkscape:pageopacity="0" inkscape:pagecheckerboard="0" inkscape:deskcolor="#d1d1d1" inkscape:document-units="in" inkscape:zoom="1.6768791" inkscape:cx="326.20121" inkscape:cy="244.8" inkscape:window-width="1920" inkscape:window-height="1017" inkscape:window-x="-8" inkscape:window-y="-8" inkscape:window-maximized="1" inkscape:current-layer="svg1"/>
  <path id="Dubrovnik Küste" fill="none" stroke="black" stroke-width="1" d="M 1136.93,778.53            C 1149.04,783.33 1142.56,785.20 1143.01,790.00              1144.40,797.75 1150.73,797.62 1154.00,796.13              1156.11,799.49 1160.82,804.13 1162.96,806.96              1151.58,808.84 1153.93,802.80 1143.89,798.89              1145.22,803.71 1147.69,808.45 1152.40,810.89              1155.04,812.84 1157.58,811.00 1160.42,811.69              1163.98,813.29 1173.58,819.51 1172.89,822.84              1172.89,822.84 1166.91,822.96 1166.91,822.96              1167.69,827.35 1174.94,832.72 1179.18,834.18              1179.18,834.18 1176.02,826.02 1176.02,826.02              1179.93,825.29 1186.93,824.40 1187.04,827.62              1188.09,830.20 1184.60,831.71 1182.80,837.07              1182.80,837.07 1196.93,836.51 1196.93,836.51              1196.93,836.51 1199.96,839.09 1199.96,839.09              1207.67,837.60 1212.78,840.11 1215.98,841.04              1215.98,841.04 1213.98,845.96 1213.98,845.96              1204.66,843.10 1208.37,842.82 1196.76,842.89              1199.98,849.38 1208.38,849.25 1216.89,848.13              1215.58,857.38 1231.66,856.58 1220.07,845.96              1228.04,846.78 1226.67,850.58 1228.09,855.20              1237.31,854.31 1237.82,855.87 1242.98,850.16              1242.98,850.16 1239.75,859.31 1239.75,859.31              1247.38,858.19 1250.56,856.88 1250.88,866.44              1250.91,865.95 1260.15,863.39 1260.50,865.62              1264.00,866.56 1260.19,873.88 1258.81,874.00              1262.50,880.38 1265.36,879.22 1268.06,880.50              1268.06,880.50 1269.25,875.56 1269.25,875.56              1269.25,875.56 1276.75,882.00 1276.75,882.00              1276.75,882.00 1283.31,883.94 1283.31,883.94              1283.31,883.94 1289.00,887.19 1289.00,887.19              1296.47,889.75 1298.50,883.00 1305.38,892.50              1305.38,892.50 1286.94,916.00 1286.94,916.00              1286.94,916.00 1280.00,910.73 1280.00,910.73              1280.00,910.73 1271.70,910.04 1271.70,910.04              1271.70,910.04 1264.00,905.72 1264.00,905.72              1260.69,904.54 1257.17,906.16 1253.51,903.38              1249.26,897.96 1242.14,883.70 1238.09,881.51              1234.60,879.63 1230.83,884.98 1227.96,886.76              1228.22,881.09 1232.07,876.22 1227.38,872.11              1225.79,870.97 1224.11,870.73 1222.31,871.42              1219.98,872.00 1217.71,875.40 1216.98,876.87              1209.11,871.47 1217.09,866.51 1213.91,861.67              1210.37,857.05 1205.61,860.48 1201.27,859.56              1198.03,858.87 1196.65,856.41 1194.29,855.44              1191.95,854.47 1189.33,855.58 1187.47,855.53              1184.71,851.56 1185.02,849.62 1177.20,850.51              1174.27,837.72 1169.67,841.53 1164.13,836.76              1161.78,835.44 1159.29,828.47 1157.36,824.82              1155.40,823.67 1147.04,823.04 1142.93,821.84              1142.93,821.84 1140.11,825.56 1140.11,825.56              1137.03,819.12 1138.96,816.00 1138.19,809.50              1138.19,809.50 1136.93,778.53 1136.93,778.53 Z"/>
</svg>