<svg xmlns:inkscape="http://www.inkscape.org/namespaces/inkscape" xmlns:sodipodi="http://sodipodi.sourceforge.net/DTD/sodipodi-0.dtd" xmlns="http://www.w3.org/2000/svg" xmlns:svg="http://www.w3.org/2000/svg" version="1.1" id="svg1" sodipodi:docname="dubrovnik.svg" inkscape:version="1.3.2 (091e20e, 2023-11-25, custom)" viewBox="1135.94 746.15 171.34 146.35">
  <defs id="defs1"/>
  <sodipodi:namedview id="namedview1" pagecolor="#ffffff" bordercolor="#999999" borderopacity="1" inkscape:showpageshadow="2" inkscape:pageopacity="0" inkscape:pagecheckerboard="0" inkscape:deskcolor="#d1d1d1" inkscape:document-units="in" inkscape:zoom="1.6768791" inkscape:cx="326.20121" inkscape:cy="244.8" inkscape:window-width="1920" inkscape:window-height="1017" inkscape:window-x="-8" inkscape:window-y="-8" inkscape:window-maximized="1" inkscape:current-layer="svg1"/>
  <path id="Dubrovnik" fill="none" stroke="black" stroke-width="1" d="M 1136.44,748.75            C 1144.07,747.67 1160.59,744.77 1167.67,748.48              1171.95,750.73 1173.79,758.31 1177.27,761.72              1180.44,764.83 1192.59,767.93 1197.00,767.28              1197.00,767.28 1204.00,765.00 1204.00,765.00              1204.00,765.00 1205.00,772.00 1205.00,772.00              1205.00,772.00 1201.38,772.25 1201.38,772.25              1201.38,772.25 1211.00,779.00 1211.00,779.00              1211.00,779.00 1209.75,767.88 1209.75,767.88              1204.56,774.44 1205.51,763.23 1207.60,760.44              1210.40,756.70 1219.62,750.98 1224.00,749.00              1224.87,756.75 1230.92,763.54 1238.00,766.64              1238.00,766.64 1245.94,767.88 1245.94,767.88              1248.91,769.61 1249.20,773.54 1251.41,774.98              1253.58,776.39 1254.80,773.75 1258.06,775.81              1258.06,775.81 1268.00,785.54 1268.00,785.54              1272.26,789.03 1277.67,791.55 1281.25,795.81              1286.19,801.69 1283.65,805.20 1284.94,811.19              1286.32,817.58 1291.80,822.67 1291.94,833.00              1291.99,837.23 1290.88,841.06 1292.75,845.00              1295.24,850.24 1302.83,858.10 1304.94,864.00              1306.20,867.94 1305.03,871.01 1304.94,875.00              1305.90,875.79 1307.88,890.19 1306.00,892.00              1306.00,892.00 1299.78,886.69 1299.78,886.69              1299.78,886.69 1290.00,887.31 1290.00,887.31              1290.00,887.31 1283.00,883.17 1283.00,883.17              1283.00,883.17 1276.04,880.99 1276.04,880.99              1276.04,880.99 1269.00,875.00 1269.00,875.00              1269.00,875.00 1268.00,880.00 1268.00,880.00              1262.93,879.18 1262.01,878.06 1258.89,874.00              1261.86,871.34 1264.14,866.06 1258.89,864.51              1257.37,864.10 1252.86,865.64 1251.00,866.00              1250.45,856.68 1247.48,858.40 1240.00,859.00              1240.00,859.00 1243.00,850.00 1243.00,850.00              1243.00,850.00 1238.00,854.00 1238.00,854.00              1238.00,854.00 1228.00,855.00 1228.00,855.00              1227.10,848.78 1226.70,846.55 1220.00,846.00              1220.96,847.30 1223.90,850.64 1224.09,852.02              1224.49,854.87 1220.81,854.59 1219.18,853.67              1216.68,852.25 1216.96,850.46 1217.00,848.00              1211.35,849.01 1199.33,849.45 1197.00,843.00              1206.71,843.00 1204.91,842.85 1214.00,846.00              1214.00,846.00 1216.00,841.00 1216.00,841.00              1207.86,838.77 1208.44,837.92 1200.00,839.00              1200.00,839.00 1196.89,836.47 1196.89,836.47              1196.89,836.47 1183.00,837.00 1183.00,837.00              1184.55,832.10 1186.93,831.32 1187.23,829.02              1187.95,823.52 1178.78,825.50 1176.00,826.00              1176.00,826.00 1179.00,834.00 1179.00,834.00              1174.21,831.78 1168.68,828.19 1167.00,823.00              1167.00,823.00 1173.00,823.00 1173.00,823.00              1172.77,821.63 1172.83,820.68 1171.98,819.43              1171.46,818.65 1161.94,812.10 1160.99,811.59              1158.67,810.98 1156.55,811.63 1155.00,811.59              1149.40,810.59 1145.09,804.11 1144.00,799.00              1152.22,801.69 1151.87,809.43 1163.00,807.00              1163.00,807.00 1154.00,796.00 1154.00,796.00              1149.11,798.20 1143.56,795.75 1143.26,790.07              1143.12,787.49 1144.98,785.46 1144.27,783.09              1142.94,778.62 1136.86,781.61 1136.56,773.81              1136.17,763.59 1140.78,763.07 1141.12,758.50              1141.32,755.91 1137.44,751.50 1136.44,748.75 Z"/>
</svg>