<svg xmlns="http://www.w3.org/2000/svg" viewBox="373.5 303.5 189 226">
  <path id="Edinburg Küste" fill="none" stroke="black" stroke-width="1" d="M 456.84,314.00            C 464.49,318.01 460.18,323.39 466.05,325.16              469.96,326.33 473.63,322.32 474.12,318.73              474.99,312.47 469.14,305.42 479.00,304.00              479.00,304.00 477.40,309.00 477.40,309.00              477.31,310.03 477.09,310.91 477.40,311.98              477.50,313.45 478.20,314.57 479.26,315.65              485.32,321.25 490.07,313.20 494.96,315.65              497.91,317.27 505.12,327.77 507.00,331.00              497.90,343.09 502.39,358.43 519.00,358.43              527.51,358.43 532.96,353.48 536.69,355.36              539.14,356.59 538.78,359.67 539.73,361.90              539.73,361.90 545.00,369.00 545.00,369.00              539.58,374.90 543.21,383.64 550.00,384.68              553.25,385.18 558.51,382.82 562.00,382.00              562.00,382.00 549.47,397.00 549.47,397.00              549.47,397.00 550.00,404.00 550.00,404.00              541.35,411.41 546.61,414.73 548.46,420.17              549.32,422.71 548.81,425.11 550.74,427.87              552.70,430.67 555.56,431.24 556.32,433.41              557.10,435.63 553.86,443.43 553.00,446.00              553.00,446.00 541.00,440.58 541.00,440.58              541.00,440.58 529.00,444.00 529.00,444.00              525.17,441.91 524.80,443.91 521.00,444.50              517.28,445.08 510.14,444.03 507.00,442.00              507.00,442.00 527.00,435.00 527.00,435.00              521.70,435.00 515.61,435.99 511.00,433.00              511.00,433.00 523.00,431.00 523.00,431.00              523.00,431.00 517.00,428.00 517.00,428.00              519.83,425.94 523.34,424.71 525.56,421.89              529.27,417.17 526.05,415.20 533.00,411.00              531.19,403.76 534.35,405.31 535.69,399.91              535.69,399.91 536.70,389.00 536.70,389.00              537.34,386.43 539.98,381.85 538.22,379.60              536.65,377.60 528.52,377.03 526.00,377.25              526.00,377.25 510.00,377.25 510.00,377.25              504.99,371.98 504.90,375.90 499.00,377.25              496.56,378.26 494.67,377.79 492.49,379.59              489.96,381.70 490.87,382.72 487.00,385.00              486.30,391.40 483.07,391.75 478.00,394.23              478.00,394.23 471.00,398.00 471.00,398.00              471.00,398.00 481.00,385.00 481.00,385.00              481.00,385.00 480.00,383.00 480.00,383.00              480.00,383.00 487.00,375.00 487.00,375.00              487.00,375.00 483.00,376.00 483.00,376.00              483.00,376.00 481.00,372.00 481.00,372.00              484.02,369.89 487.55,368.27 489.43,364.95              493.08,358.47 488.01,353.28 499.00,352.00              499.00,352.00 497.00,341.00 497.00,341.00              497.00,341.00 485.00,345.78 485.00,345.78              485.00,345.78 477.01,350.52 477.01,350.52              477.01,350.52 468.95,350.52 468.95,350.52              468.95,350.52 462.63,355.83 462.63,355.83              462.63,355.83 455.00,357.00 455.00,357.00              455.00,357.00 438.00,356.00 438.00,356.00              438.00,356.00 439.00,372.00 439.00,372.00              431.77,372.25 431.55,373.99 428.00,380.00              428.00,380.00 433.00,380.00 433.00,380.00              431.66,383.33 431.53,383.39 427.77,384.00              427.77,384.00 427.77,392.58 427.77,392.58              427.77,392.58 429.53,397.04 429.53,397.04              429.53,397.04 430.89,401.94 430.89,401.94              433.66,408.32 438.94,403.82 437.00,413.00              441.48,415.61 443.61,420.09 445.00,425.00              445.00,425.00 440.00,425.00 440.00,425.00              441.34,431.21 443.27,431.57 449.00,433.00              449.00,433.00 451.00,431.00 451.00,431.00              453.12,439.19 450.32,441.94 449.41,449.00              448.96,451.70 449.34,452.53 449.41,455.00              449.84,460.98 447.84,464.72 447.77,468.00              447.77,468.00 447.77,485.00 447.77,485.00              447.77,485.00 450.00,484.00 450.00,484.00              450.00,484.00 451.00,485.00 451.00,485.00              451.00,485.00 454.75,468.00 454.75,468.00              455.42,461.03 450.91,459.52 459.00,449.00              459.00,449.00 461.00,455.00 461.00,455.00              461.00,455.00 468.00,450.00 468.00,450.00              468.00,450.00 465.86,458.91 465.86,458.91              463.33,466.03 462.00,460.25 462.00,474.00              467.34,471.02 468.68,468.83 475.00,470.00              472.25,472.94 472.03,473.12 468.00,473.00              468.00,475.17 467.83,478.93 468.59,480.87              469.15,482.29 477.24,489.97 468.00,492.00              465.90,500.61 468.44,497.20 463.00,505.00              467.97,506.79 466.30,509.04 468.00,516.00              474.78,512.59 474.71,513.30 482.00,513.00              482.00,513.00 482.00,505.00 482.00,505.00              482.00,505.00 494.00,501.00 494.00,501.00              494.00,501.00 492.00,508.00 492.00,508.00              492.00,508.00 500.00,500.00 500.00,500.00              505.43,506.04 508.42,500.85 513.37,498.47              515.62,497.38 518.54,497.20 521.00,497.00              518.10,500.66 509.02,509.78 505.00,511.49              500.90,513.24 495.50,512.61 490.00,515.55              490.00,515.55 471.00,529.00 471.00,529.00              471.00,529.00 457.00,510.00 457.00,510.00              453.94,505.71 451.15,503.41 451.00,498.00              451.00,498.00 427.00,487.25 427.00,487.25              421.15,484.32 418.52,484.58 418.49,477.98              418.45,470.05 413.43,467.53 409.31,462.00              405.79,457.28 407.97,455.22 405.26,451.02              402.13,446.14 396.94,445.17 392.00,443.00              395.69,436.71 400.46,435.81 402.88,428.00              405.12,420.79 400.46,419.05 398.59,414.00              397.59,411.29 398.31,408.27 394.85,405.74              392.32,403.88 387.44,403.98 384.00,403.00              385.30,400.28 387.36,396.91 387.76,394.00              389.05,384.70 381.76,381.10 374.00,380.00              374.49,379.25 374.27,378.95 375.54,377.91              374.39,378.86 390.02,370.46 388.42,371.16              389.66,370.57 390.66,370.70 391.78,371.16              395.44,373.51 395.52,385.35 403.89,380.82              408.41,378.38 407.80,373.31 409.93,370.39              412.52,366.84 418.05,366.76 419.57,360.98              421.58,353.29 408.67,345.58 419.02,344.16              423.88,343.49 428.14,346.57 432.98,343.40              442.75,337.02 436.55,326.45 427.00,324.00              429.35,318.76 431.01,315.48 437.00,315.00              437.06,316.73 437.01,318.33 437.59,320.00              437.59,320.00 445.30,333.57 445.30,333.57              448.54,336.59 454.12,336.13 456.84,332.44              460.22,327.37 455.37,320.95 456.84,314.00 Z            M 451.00,432.00            C 451.00,432.00 450.00,432.00 450.00,432.00              450.00,432.00 451.00,433.00 451.00,433.00              451.00,433.00 451.00,432.00 451.00,432.00 Z"/>
</svg>