<svg xmlns="http://www.w3.org/2000/svg" viewBox="425.5 341.5 128 174">
  <path id="Edinburg" fill="none" stroke="black" stroke-width="1" d="M 466.00,352.00            C 466.00,352.00 475.00,350.69 475.00,350.69              475.00,350.69 484.09,346.03 484.09,346.03              484.09,346.03 491.00,344.60 491.00,344.60              491.00,344.60 498.00,342.00 498.00,342.00              498.00,342.00 499.00,352.00 499.00,352.00              488.12,353.26 492.98,358.30 489.59,364.82              487.65,368.53 484.81,369.86 481.00,371.00              481.00,371.00 483.00,376.00 483.00,376.00              483.00,376.00 487.00,375.00 487.00,375.00              487.00,375.00 480.54,384.17 480.54,384.17              480.54,384.17 477.42,390.00 477.42,390.00              477.42,390.00 471.00,398.00 471.00,398.00              471.00,398.00 484.90,389.81 484.90,389.81              484.90,389.81 492.47,379.02 492.47,379.02              492.47,379.02 499.00,377.11 499.00,377.11              499.00,377.11 508.00,372.00 508.00,372.00              514.77,379.51 522.47,376.27 531.00,377.42              532.77,377.66 537.13,378.10 538.41,379.17              541.57,381.81 536.96,386.14 535.94,392.00              535.94,392.00 535.94,399.91 535.94,399.91              535.94,399.91 529.11,415.00 529.11,415.00              527.86,417.90 528.02,420.10 525.73,422.53              523.30,425.10 519.21,426.70 516.00,428.00              516.00,428.00 522.00,432.00 522.00,432.00              522.00,432.00 510.00,432.00 510.00,432.00              510.00,432.00 510.00,435.00 510.00,435.00              510.00,435.00 526.00,435.00 526.00,435.00              526.00,435.00 524.46,437.00 524.46,437.00              524.46,437.00 508.00,441.00 508.00,441.00              508.00,441.00 508.00,444.00 508.00,444.00              508.00,444.00 520.00,444.62 520.00,444.62              523.11,444.19 524.34,442.36 527.72,443.00              527.72,443.00 530.27,443.82 530.27,443.82              533.85,444.20 534.80,440.84 539.04,440.26              545.18,439.43 548.63,443.72 553.00,447.00              553.00,447.00 553.00,449.00 553.00,449.00              553.00,449.00 549.00,450.00 549.00,450.00              548.43,456.98 546.63,455.72 543.26,461.00              539.99,466.14 529.37,483.09 528.07,488.00              527.57,490.22 527.83,491.79 528.07,494.00              528.07,494.00 515.00,498.00 515.00,498.00              512.51,495.44 511.16,499.90 510.00,502.00              504.30,502.17 504.06,503.44 499.00,500.00              496.80,504.04 496.18,504.97 492.00,507.00              492.00,507.00 494.00,501.00 494.00,501.00              494.00,501.00 482.00,505.00 482.00,505.00              482.00,505.00 482.00,513.00 482.00,513.00              472.06,512.58 477.17,512.22 468.00,515.00              466.63,510.23 467.67,508.72 464.00,505.00              464.00,505.00 464.00,503.00 464.00,503.00              468.73,498.25 466.49,498.52 468.85,494.46              470.55,491.51 478.68,485.48 470.94,483.16              470.94,483.16 468.00,483.16 468.00,483.16              468.00,483.16 468.00,475.00 468.00,475.00              468.00,475.00 477.00,472.00 477.00,472.00              477.00,472.00 477.00,470.00 477.00,470.00              469.72,467.50 469.99,469.97 463.00,472.00              463.00,472.00 463.00,463.00 463.00,463.00              463.00,463.00 467.00,463.00 467.00,463.00              467.00,463.00 469.00,449.00 469.00,449.00              469.00,449.00 464.00,454.00 464.00,454.00              464.00,454.00 458.00,448.00 458.00,448.00              458.00,448.00 454.33,456.04 454.33,456.04              454.33,456.04 454.33,467.00 454.33,467.00              454.33,467.00 451.00,484.00 451.00,484.00              451.00,484.00 448.17,482.43 448.17,482.43              448.17,482.43 448.17,470.00 448.17,470.00              448.17,470.00 450.64,448.00 450.64,448.00              450.64,448.00 453.01,442.09 453.01,442.09              453.01,442.09 453.01,431.00 453.01,431.00              447.48,431.00 443.03,432.12 441.00,426.00              441.00,426.00 446.00,425.00 446.00,425.00              446.00,425.00 446.00,421.00 446.00,421.00              446.00,421.00 443.00,421.00 443.00,421.00              442.25,416.41 441.65,415.84 438.00,413.00              439.63,406.84 436.73,405.66 431.00,405.00              430.16,394.75 428.61,397.58 426.00,390.00              428.69,387.97 428.17,387.26 428.00,384.00              428.00,384.00 433.00,380.00 433.00,380.00              433.00,380.00 428.00,380.00 428.00,380.00              428.00,380.00 431.00,372.00 431.00,372.00              431.00,372.00 439.00,372.00 439.00,372.00              439.00,372.00 438.00,356.75 438.00,356.75              438.00,356.75 461.83,356.75 461.83,356.75              461.83,356.75 467.00,354.00 467.00,354.00              467.00,354.00 466.00,352.00 466.00,352.00 Z"/>
</svg>