<svg version="1.1" id="svg1" xml:space="preserve" inkscape:version="1.4 (86a8ad7, 2024-10-11)" sodipodi:docname="07Erzerum.svg" xmlns:inkscape="http://www.inkscape.org/namespaces/inkscape" xmlns:sodipodi="http://sodipodi.sourceforge.net/DTD/sodipodi-0.dtd" xmlns="http://www.w3.org/2000/svg" xmlns:svg="http://www.w3.org/2000/svg" viewBox="31.93 87.15 13.38 18.32"><sodipodi:namedview id="namedview1" pagecolor="#ffffff" bordercolor="#000000" borderopacity="0.25" inkscape:showpageshadow="2" inkscape:pageopacity="0.0" inkscape:pagecheckerboard="0" inkscape:deskcolor="#d1d1d1" inkscape:document-units="mm" inkscape:zoom="0.71891835" inkscape:cx="396.42889" inkscape:cy="561.25984" inkscape:window-width="1920" inkscape:window-height="1009" inkscape:window-x="-8" inkscape:window-y="-8" inkscape:window-maximized="1" inkscape:current-layer="layer1"/><defs id="defs1"/><g inkscape:label="Ebene 1" inkscape:groupmode="layer" id="layer1"><path id="Erzerum" fill="none" stroke="#000000" stroke-width="1" d="m 42.770108,102.14289 c -0.76454,-0.16171 -1.14131,-0.66463 -1.77038,-0.6079 -0.95843,0.0855 -2.01168,1.23444 -3.00905,1.408 -0.73322,0.12785 -0.82381,-0.62314 -1.82457,-0.58674 -0.70951,-0.0406 -1.41563,0.85768 -1.62391,-0.0517 -0.0178,-0.11514 -0.11514,-0.31411 -0.0923,-0.43095 0.0423,-0.38777 0.71289,-1.66201 1.03124,-1.877907 0.28024,-0.1905 0.50376,0.01185 0.93895,-0.232833 0,0 2.05486,-1.345354 2.05486,-1.345354 0.57743,-0.530013 0.8509,0.2159 1.13961,-0.423333 0.41741,-0.436033 0.88816,-1.242907 0.86614,-1.862667 -0.0195,-0.534247 -0.27432,-0.729827 -0.21251,-1.03124 0.0449,-0.21336 0.24977,-0.313267 0.32597,-0.600287 -0.0102,-0.03895 -0.2413,-0.76962 0.29802,-0.877993 0.0229,-0.230293 -0.15917,-0.4572 -0.12954,-0.707813 0.022,-0.1905 0.16849,-0.351367 0.13547,-0.762 -0.0457,-0.575734 -0.46567,-0.889 -0.59267,-1.693334 0.0643,-0.176106 -0.10329,-0.466513 0,-0.607906 0.2286,-0.422487 0.67903,0.03725 1.41055,-0.115994 0.3302,0.75438 0.88053,2.663614 0.84667,3.440854 0,0 -0.10076,1.716193 -0.10076,1.716193 -0.061,0.115993 0.35476,4.041987 0.35476,4.04114 z m -4.26381,-3.279137 m 2.68562,-4.240954"/></g></svg>