<svg version="1.1" id="svg1" xml:space="preserve" inkscape:version="1.4 (86a8ad7, 2024-10-11)" sodipodi:docname="17KüsteErzerum.svg" xmlns:inkscape="http://www.inkscape.org/namespaces/inkscape" xmlns:sodipodi="http://sodipodi.sourceforge.net/DTD/sodipodi-0.dtd" xmlns="http://www.w3.org/2000/svg" xmlns:svg="http://www.w3.org/2000/svg" viewBox="134.73 238.17 7.82 10.05"><sodipodi:namedview id="namedview1" pagecolor="#ffffff" bordercolor="#000000" borderopacity="0.25" inkscape:showpageshadow="2" inkscape:pageopacity="0.0" inkscape:pagecheckerboard="0" inkscape:deskcolor="#d1d1d1" inkscape:document-units="mm" inkscape:zoom="0.71891835" inkscape:cx="396.42889" inkscape:cy="561.25984" inkscape:window-width="1920" inkscape:window-height="1009" inkscape:window-x="-8" inkscape:window-y="-8" inkscape:window-maximized="1" inkscape:current-layer="layer1"/><defs id="defs1"/><g inkscape:label="Ebene 1" inkscape:groupmode="layer" id="layer1"><path id="KüsteErzerum" fill="none" stroke="#000000" stroke-width="1" d="m 137.62503,244.91555 c 0.005,-0.23537 -8.5e-4,-0.43603 0.10753,-0.65362 0.0957,-0.19135 0.40978,-0.30734 0.40047,-0.57912 -0.0161,-0.47583 -0.75861,-0.71205 -0.87122,-1.13623 -0.0889,-0.3302 0.22945,-0.46143 0.38693,-0.69003 0.127,-0.18288 0.13208,-0.3573 0.2777,-0.50038 0.23792,-0.23284 1.13792,-0.61045 1.47659,-0.67395 0,0 0.16595,0.84667 0.16595,0.84667 0.12276,0.35221 0.36745,0.59436 0.43688,1.00584 0.0737,0.43095 -0.1016,0.72644 -0.083,0.9906 -0.0135,0.18626 0.1397,0.39878 0.0728,0.58589 0,0 -0.28956,0.38862 -0.28956,0.38862 -0.0601,0.30311 0.16256,0.64347 -0.37169,1.18787 -0.18119,0.0601 -0.44958,-0.20743 -0.60875,-0.28532 -0.38439,-0.18796 -0.68326,-0.36746 -1.10067,-0.48684 z m 1.59258,0.32851"/></g></svg>