<svg xmlns:inkscape="http://www.inkscape.org/namespaces/inkscape" xmlns:sodipodi="http://sodipodi.sourceforge.net/DTD/sodipodi-0.dtd" xmlns="http://www.w3.org/2000/svg" xmlns:svg="http://www.w3.org/2000/svg" version="1.1" id="svg1" sodipodi:docname="fez.svg" inkscape:version="1.4 (e7c3feb1, 2024-10-09)" viewBox="647.5 1349.28 126.42 53.2">
  <defs id="defs1"/>
  <sodipodi:namedview id="namedview1" pagecolor="#ffffff" bordercolor="#000000" borderopacity="0.25" inkscape:showpageshadow="2" inkscape:pageopacity="0.0" inkscape:pagecheckerboard="0" inkscape:deskcolor="#d1d1d1" inkscape:document-units="in" inkscape:zoom="15.403943" inkscape:cx="234.74509" inkscape:cy="445.85987" inkscape:window-width="1464" inkscape:window-height="677" inkscape:window-x="1166" inkscape:window-y="1723" inkscape:window-maximized="0" inkscape:current-layer="svg1"/>
  <path id="Fez" fill="none" stroke="black" stroke-width="1" d="M 668.00,1361.00            C 674.14,1362.75 679.61,1366.75 686.00,1367.66              686.00,1367.66 706.00,1366.00 706.00,1366.00              715.83,1365.95 723.39,1360.92 732.00,1356.82              732.00,1356.82 739.00,1353.97 739.00,1353.97              739.00,1353.97 746.91,1349.93 746.91,1349.93              751.07,1348.87 754.90,1353.66 759.00,1354.24              762.70,1354.78 766.48,1351.22 773.24,1350.00              773.24,1350.00 773.24,1361.00 773.24,1361.00              773.76,1365.24 773.35,1375.46 769.72,1378.07              767.34,1379.78 763.56,1379.55 761.78,1381.58              759.18,1384.55 762.41,1387.66 758.70,1390.87              755.21,1393.90 740.15,1397.61 735.00,1398.87              729.13,1400.30 718.92,1402.19 713.00,1401.96              713.00,1401.96 701.00,1401.00 701.00,1401.00              701.00,1401.00 672.00,1399.83 672.00,1399.83              672.00,1399.83 648.00,1397.00 648.00,1397.00              649.96,1386.05 647.75,1384.67 648.75,1380.00              650.74,1370.60 655.60,1368.19 659.40,1362.82              662.76,1358.09 661.81,1356.22 668.00,1354.00              668.00,1354.00 668.00,1361.00 668.00,1361.00 Z"/>
</svg>