<svg xmlns:inkscape="http://www.inkscape.org/namespaces/inkscape" xmlns:sodipodi="http://sodipodi.sourceforge.net/DTD/sodipodi-0.dtd" xmlns="http://www.w3.org/2000/svg" xmlns:svg="http://www.w3.org/2000/svg" version="1.1" id="svg1" sodipodi:docname="firenze.svg" inkscape:version="1.3.2 (091e20e, 2023-11-25, custom)" viewBox="1007.5 813.14 133 84.86">
  <defs id="defs1"/>
  <sodipodi:namedview id="namedview1" pagecolor="#ffffff" bordercolor="#999999" borderopacity="1" inkscape:showpageshadow="2" inkscape:pageopacity="0" inkscape:pagecheckerboard="0" inkscape:deskcolor="#d1d1d1" inkscape:document-units="in" inkscape:zoom="1.6768791" inkscape:cx="326.20121" inkscape:cy="244.8" inkscape:window-width="1920" inkscape:window-height="1017" inkscape:window-x="-8" inkscape:window-y="-8" inkscape:window-maximized="1" inkscape:current-layer="svg1"/>
  <path id="Firenze" fill="none" stroke="black" stroke-width="1" d="M 1008.00,831.00            C 1016.95,826.50 1016.86,828.88 1021.00,826.83              1021.00,826.83 1031.83,819.05 1031.83,819.05              1034.82,816.85 1037.73,812.72 1041.91,813.83              1050.46,816.11 1053.52,832.88 1058.50,838.89              1063.44,844.87 1068.04,840.70 1073.00,841.38              1075.27,841.70 1076.90,842.86 1079.00,843.46              1079.00,843.46 1086.00,844.32 1086.00,844.32              1092.71,845.41 1093.00,847.06 1098.00,841.00              1098.00,841.00 1100.00,841.00 1100.00,841.00              1100.00,841.00 1110.63,848.00 1110.63,848.00              1110.63,848.00 1115.21,852.52 1115.21,852.52              1115.21,852.52 1122.99,856.81 1122.99,856.81              1122.99,856.81 1131.09,863.55 1131.09,863.55              1131.09,863.55 1140.00,866.00 1140.00,866.00              1140.00,866.00 1140.00,868.00 1140.00,868.00              1135.65,870.46 1122.51,876.66 1118.00,877.82              1118.00,877.82 1108.00,879.37 1108.00,879.37              1108.00,879.37 1081.00,886.03 1081.00,886.03              1072.73,889.18 1072.52,897.97 1066.91,897.48              1056.80,896.59 1054.84,881.65 1050.59,877.64              1050.59,877.64 1031.37,866.51 1031.37,866.51              1026.17,861.93 1022.94,855.65 1019.20,850.00              1019.20,850.00 1014.50,844.00 1014.50,844.00              1014.50,844.00 1008.00,831.00 1008.00,831.00 Z"/>
</svg>