<svg xmlns:inkscape="http://www.inkscape.org/namespaces/inkscape" xmlns:sodipodi="http://sodipodi.sourceforge.net/DTD/sodipodi-0.dtd" xmlns="http://www.w3.org/2000/svg" xmlns:svg="http://www.w3.org/2000/svg" version="1.1" id="svg1" sodipodi:docname="firenze_coast.svg" inkscape:version="1.3.2 (091e20e, 2023-11-25, custom)" viewBox="1097.36 829.56 57.14 36.37">
  <defs id="defs1"/>
  <sodipodi:namedview id="namedview1" pagecolor="#ffffff" bordercolor="#999999" borderopacity="1" inkscape:showpageshadow="2" inkscape:pageopacity="0" inkscape:pagecheckerboard="0" inkscape:deskcolor="#d1d1d1" inkscape:document-units="in" inkscape:zoom="1.6768791" inkscape:cx="326.20121" inkscape:cy="244.8" inkscape:window-width="1920" inkscape:window-height="1017" inkscape:window-x="-8" inkscape:window-y="-8" inkscape:window-maximized="1" inkscape:current-layer="svg1"/>
  <path id="Firenze Küste" fill="none" stroke="black" stroke-width="1" d="M 1103.94,830.06            C 1108.81,832.25 1111.48,835.31 1116.00,836.78              1121.93,838.70 1125.84,837.33 1128.70,839.17              1132.68,841.74 1130.74,847.26 1134.31,850.74              1137.72,853.70 1140.70,851.34 1143.00,850.74              1146.69,850.25 1148.22,852.35 1154.00,853.00              1153.56,859.45 1150.96,866.54 1143.00,865.29              1143.00,865.29 1137.00,863.43 1137.00,863.43              1126.41,860.14 1130.10,860.26 1124.06,856.06              1124.06,856.06 1117.09,851.29 1117.09,851.29              1117.09,851.29 1111.83,846.79 1111.83,846.79              1107.66,843.63 1102.06,843.00 1101.41,839.85              1093.19,839.69 1101.47,833.37 1103.94,830.06 Z"/>
</svg>