<svg xmlns:inkscape="http://www.inkscape.org/namespaces/inkscape" xmlns:sodipodi="http://sodipodi.sourceforge.net/DTD/sodipodi-0.dtd" xmlns="http://www.w3.org/2000/svg" xmlns:svg="http://www.w3.org/2000/svg" version="1.1" id="svg1" sodipodi:docname="genoa_coast.svg" inkscape:version="1.3.2 (091e20e, 2023-11-25, custom)" viewBox="968.34 857.31 112.94 89.67">
  <defs id="defs1"/>
  <sodipodi:namedview id="namedview1" pagecolor="#ffffff" bordercolor="#999999" borderopacity="1" inkscape:showpageshadow="2" inkscape:pageopacity="0" inkscape:pagecheckerboard="0" inkscape:deskcolor="#d1d1d1" inkscape:document-units="in" inkscape:zoom="1.6768791" inkscape:cx="326.20121" inkscape:cy="244.8" inkscape:window-width="1920" inkscape:window-height="1017" inkscape:window-x="-8" inkscape:window-y="-8" inkscape:window-maximized="1" inkscape:current-layer="svg1"/>
  <path id="Genoa Küste" fill="none" stroke="black" stroke-width="1" d="M 968.84,905.00            C 970.92,900.26 972.06,894.59 973.44,890.06              974.03,887.65 974.44,885.26 974.58,882.09              975.76,879.08 979.71,879.30 979.49,874.82              978.65,872.76 978.62,869.30 980.34,867.47              981.56,865.91 984.05,864.21 985.84,863.28              989.36,861.46 992.68,858.33 995.38,858.41              1001.49,856.76 1000.06,865.01 1000.22,867.69              1000.32,869.05 1001.06,871.84 1001.06,871.84              1006.69,875.09 1007.84,876.20 1013.62,878.47              1024.21,882.62 1025.98,880.14 1034.56,890.64              1041.86,896.65 1043.56,907.21 1050.41,911.50              1050.41,911.50 1065.31,917.34 1065.31,917.34              1070.73,919.80 1071.39,921.54 1075.38,924.84              1078.62,927.54 1081.03,929.91 1080.76,934.91              1080.56,938.67 1073.41,945.29 1070.00,946.24              1068.12,946.88 1066.27,946.05 1064.34,945.94              1060.71,945.52 1057.22,946.52 1056.56,941.91              1055.84,936.83 1059.60,931.11 1055.06,925.25              1048.73,916.92 1044.94,923.00 1033.01,914.63              1031.01,913.09 1028.63,911.52 1028.04,908.91              1029.16,905.36 1026.09,896.48 1032.48,897.96              1032.48,897.96 1026.00,888.65 1026.00,888.65              1026.18,888.20 1026.28,907.33 1026.00,908.00              1020.59,905.90 1016.70,902.31 1012.00,898.99              1010.25,897.76 1007.42,895.38 1005.17,895.76              1000.84,896.49 989.15,914.69 983.94,914.94              981.26,915.07 971.98,906.80 968.84,905.00 Z            M 1001.84,857.81"/>
</svg>