<svg xmlns:inkscape="http://www.inkscape.org/namespaces/inkscape" xmlns:sodipodi="http://sodipodi.sourceforge.net/DTD/sodipodi-0.dtd" xmlns="http://www.w3.org/2000/svg" xmlns:svg="http://www.w3.org/2000/svg" version="1.1" id="svg1" sodipodi:docname="genoa.svg" inkscape:version="1.3.2 (091e20e, 2023-11-25, custom)" viewBox="943.12 821.19 145.2 112.69">
  <defs id="defs1"/>
  <sodipodi:namedview id="namedview1" pagecolor="#ffffff" bordercolor="#999999" borderopacity="1" inkscape:showpageshadow="2" inkscape:pageopacity="0" inkscape:pagecheckerboard="0" inkscape:deskcolor="#d1d1d1" inkscape:document-units="in" inkscape:zoom="1.6768791" inkscape:cx="326.20121" inkscape:cy="244.8" inkscape:window-width="1920" inkscape:window-height="1017" inkscape:window-x="-8" inkscape:window-y="-8" inkscape:window-maximized="1" inkscape:current-layer="svg1"/>
  <path id="Ganoa" fill="none" stroke="black" stroke-width="1" d="M 959.00,828.00            C 960.11,821.19 962.32,824.57 967.00,824.24              972.47,821.39 973.13,820.88 979.09,822.96              984.38,824.53 987.27,828.39 993.04,829.78              997.72,830.91 1002.56,828.91 1005.87,830.87              1009.77,833.18 1010.60,839.34 1012.61,842.83              1012.61,842.83 1028.71,865.94 1028.71,865.94              1032.88,870.79 1044.33,874.59 1048.78,878.49              1052.38,881.66 1054.05,889.68 1059.21,894.79              1062.18,897.73 1064.90,898.34 1067.83,900.63              1071.01,903.11 1071.25,904.54 1076.00,907.53              1079.00,909.42 1083.21,910.90 1084.98,914.10              1086.77,917.36 1085.35,921.32 1085.71,924.00              1086.06,926.60 1087.54,928.38 1087.77,929.94              1088.23,933.00 1085.46,934.07 1083.71,932.95              1082.28,932.03 1081.88,929.59 1079.70,927.26              1079.70,927.26 1069.91,918.69 1069.91,918.69              1063.62,914.17 1056.47,914.44 1051.04,911.47              1046.24,908.84 1045.52,905.36 1042.91,901.00              1039.85,895.88 1036.35,891.04 1032.20,886.75              1021.98,876.23 1020.61,882.32 1008.00,875.09              1006.44,874.20 1002.09,871.86 1001.21,870.48              1001.21,870.48 1000.00,858.00 1000.00,858.00              991.88,857.75 993.89,857.78 987.00,862.05              979.65,866.61 976.70,867.41 979.00,877.00              970.74,882.25 976.56,883.58 971.88,894.17              971.27,895.55 971.16,899.32 970.00,900.17              969.26,904.60 960.32,894.94 960.39,892.87              956.37,890.30 950.89,892.85 948.78,891.01              947.15,889.60 947.74,886.90 947.44,885.00              946.66,884.65 946.95,878.78 947.44,879.00              946.94,874.01 950.15,873.19 951.78,868.74              951.78,868.74 946.70,868.00 946.70,868.00              946.67,865.66 946.45,860.24 945.83,858.09              945.83,858.09 943.66,850.00 943.66,850.00              943.18,845.70 947.08,838.29 950.39,835.70              953.50,833.26 955.65,833.91 958.13,832.78              961.43,831.28 960.91,830.40 959.00,828.00 Z"/>
</svg>