<svg xmlns="http://www.w3.org/2000/svg" viewBox="335.5 190.5 158.44 191.96">
  <path id="Grönlandsee" fill="none" stroke="black" stroke-width="1" d="M 336.00,191.00            C 345.90,191.58 344.67,196.09 351.00,197.88              354.54,198.87 358.45,196.78 362.00,196.00              362.00,196.00 364.00,203.00 364.00,203.00              365.21,212.32 378.99,212.66 384.87,207.58              388.39,204.55 388.02,201.70 391.00,198.00              395.06,204.37 397.85,204.61 405.00,204.00              404.38,208.86 401.75,213.98 402.43,219.00              403.81,229.17 421.02,235.45 430.00,234.76              433.71,234.56 436.13,233.45 440.00,234.76              447.17,237.00 457.00,247.19 466.00,248.00              467.67,249.67 470.28,251.32 471.31,253.25              472.41,255.33 472.57,259.43 476.21,262.57              481.48,267.11 486.47,262.60 489.00,270.00              479.36,270.78 479.36,277.14 489.00,280.00              489.00,280.00 488.30,293.96 488.30,293.96              489.28,298.42 496.45,303.81 492.00,308.00              491.99,311.55 492.04,312.06 489.00,314.00              489.00,314.00 490.00,316.00 490.00,316.00              479.33,319.03 474.62,314.53 479.00,304.00              467.54,307.49 478.73,321.15 469.83,324.12              467.83,324.93 464.15,324.25 462.00,324.12              463.17,318.46 462.18,318.84 460.00,314.00              451.89,318.84 463.07,330.82 454.67,334.60              453.29,335.22 450.61,335.68 449.12,335.40              446.33,334.89 446.17,332.87 443.00,332.00              443.00,332.00 437.00,316.00 437.00,316.00              431.01,318.23 430.68,318.58 427.00,324.00              441.76,326.82 439.76,341.46 431.98,344.40              426.86,346.34 418.16,341.89 416.03,346.31              414.26,349.98 420.35,352.07 419.87,359.00              419.38,366.22 413.44,367.12 410.55,370.39              406.90,374.50 407.26,383.72 399.13,381.67              393.38,380.22 391.16,365.75 388.48,361.00              388.48,361.00 362.18,327.00 362.18,327.00              356.82,319.78 355.76,312.35 343.00,311.00              343.00,311.00 347.27,303.00 347.27,303.00              351.17,292.23 340.45,288.38 336.00,283.00              341.21,283.00 345.23,283.21 350.00,280.59              359.07,275.59 362.50,263.42 358.79,254.00              356.31,247.69 347.81,238.96 347.37,233.00              346.74,224.55 359.78,219.83 355.26,208.00              351.52,198.21 340.54,199.61 336.00,191.00 Z            M 457.00,311.00            C 462.06,309.80 461.94,304.43 462.00,300.00              462.10,291.51 464.37,275.92 454.98,272.01              452.20,270.85 448.96,271.00 446.00,271.00              446.00,271.00 395.00,271.00 395.00,271.00              389.70,271.01 384.31,270.92 380.42,275.22              375.41,280.75 376.78,295.89 377.72,303.00              378.18,306.48 378.16,309.81 380.80,312.52              383.44,315.22 387.52,314.98 391.00,315.00              391.00,315.00 444.00,315.00 444.00,315.00              449.01,314.99 453.99,315.63 457.00,311.00 Z"/>
</svg>