<svg xmlns:inkscape="http://www.inkscape.org/namespaces/inkscape" xmlns:sodipodi="http://sodipodi.sourceforge.net/DTD/sodipodi-0.dtd" xmlns="http://www.w3.org/2000/svg" xmlns:svg="http://www.w3.org/2000/svg" version="1.1" id="svg1" sodipodi:docname="Grenada.svg" inkscape:version="1.3.2 (091e20e, 2023-11-25, custom)" viewBox="667.76 1153.55 93.88 157.95">
  <defs id="defs1"/>
  <sodipodi:namedview id="namedview1" pagecolor="#ffffff" bordercolor="#999999" borderopacity="1" inkscape:showpageshadow="2" inkscape:pageopacity="0" inkscape:pagecheckerboard="0" inkscape:deskcolor="#d1d1d1" inkscape:document-units="in" inkscape:zoom="1.6768791" inkscape:cx="326.49938" inkscape:cy="244.8" inkscape:window-width="1920" inkscape:window-height="1017" inkscape:window-x="-8" inkscape:window-y="-8" inkscape:window-maximized="1" inkscape:current-layer="svg1"/>
  <path id="Grenada" fill="none" stroke="black" stroke-width="1" d="M 713.44,1162.56            C 714.48,1158.68 715.80,1154.49 715.97,1154.05              718.14,1158.91 719.44,1162.28 721.03,1166.01              721.03,1166.01 729.00,1185.00 729.00,1185.00              729.00,1185.00 737.31,1204.02 737.31,1204.02              737.70,1204.96 738.19,1206.19 739.34,1207.44              740.48,1208.61 741.84,1209.77 742.97,1211.12              744.41,1214.66 743.69,1217.28 744.91,1221.06              746.72,1225.81 751.22,1226.34 752.91,1229.22              754.94,1232.81 753.41,1235.53 753.41,1238.69              753.36,1240.12 753.67,1241.57 754.47,1242.70              756.05,1245.20 758.72,1247.32 761.14,1249.74              752.94,1253.68 750.74,1256.64 746.49,1263.91              744.37,1267.55 743.00,1268.42 742.27,1273.00              742.04,1274.39 741.19,1278.75 744.69,1281.03              742.88,1282.03 740.46,1282.93 739.88,1283.88              746.59,1288.22 741.60,1289.37 740.63,1290.26              738.70,1292.03 735.37,1291.81 733.00,1292.73              729.47,1294.11 727.25,1297.08 724.00,1297.92              720.67,1298.96 718.57,1297.14 715.00,1297.92              710.67,1298.65 705.09,1304.33 700.00,1306.13              693.43,1308.46 690.30,1306.92 684.00,1307.54              681.03,1307.83 677.79,1309.76 675.00,1311.00              675.00,1311.00 668.79,1295.00 668.79,1295.00              668.79,1295.00 668.26,1284.00 668.26,1284.00              668.26,1284.00 669.74,1268.09 669.74,1268.09              669.74,1268.09 677.40,1259.00 677.40,1259.00              677.40,1259.00 680.26,1252.16 680.26,1252.16              680.72,1253.09 687.69,1241.34 688.38,1239.16              689.81,1236.12 692.23,1221.99 691.38,1220.62              691.38,1220.62 691.13,1217.68 691.99,1216.73              693.20,1216.39 693.68,1216.31 695.00,1215.78              696.45,1215.25 697.32,1214.51 698.07,1213.73              699.03,1212.60 699.31,1211.52 699.31,1211.52              699.36,1211.51 699.65,1210.52 699.85,1209.27              699.96,1208.42 700.07,1207.55 700.13,1206.72              700.23,1205.42 700.45,1204.10 700.74,1203.07              701.11,1201.89 701.54,1201.15 701.68,1200.85              701.95,1200.17 704.57,1195.54 707.53,1191.27              709.47,1187.80 710.89,1184.65 710.84,1184.00              710.84,1184.00 711.82,1181.11 711.93,1177.20              711.98,1173.22 712.09,1169.00 712.09,1169.00              712.06,1168.10 712.66,1165.39 713.44,1162.56 Z            M 694.50,1229.94"/>
</svg>