<svg xmlns:inkscape="http://www.inkscape.org/namespaces/inkscape" xmlns:sodipodi="http://sodipodi.sourceforge.net/DTD/sodipodi-0.dtd" xmlns="http://www.w3.org/2000/svg" xmlns:svg="http://www.w3.org/2000/svg" version="1.1" id="svg1" sodipodi:docname="grenada_coast.svg" inkscape:version="1.3.2 (091e20e, 2023-11-25, custom)" viewBox="674.5 1249.24 112.82 91.57">
  <defs id="defs1"/>
  <sodipodi:namedview id="namedview1" pagecolor="#ffffff" bordercolor="#999999" borderopacity="1" inkscape:showpageshadow="2" inkscape:pageopacity="0" inkscape:pagecheckerboard="0" inkscape:deskcolor="#d1d1d1" inkscape:document-units="in" inkscape:zoom="1.6768791" inkscape:cx="326.49938" inkscape:cy="244.8" inkscape:window-width="1920" inkscape:window-height="1017" inkscape:window-x="-8" inkscape:window-y="-8" inkscape:window-maximized="1" inkscape:current-layer="svg1"/>
  <path id="Grenada Küste" fill="none" stroke="black" stroke-width="1" d="M 744.69,1281.04            C 742.53,1279.38 742.20,1277.93 742.02,1276.00              741.92,1273.46 742.58,1271.08 743.46,1268.84              744.54,1266.94 745.79,1265.14 746.87,1263.28              748.18,1261.18 749.33,1258.93 751.09,1256.93              751.88,1255.91 753.32,1254.53 755.00,1253.28              757.38,1251.59 758.92,1250.83 761.14,1249.74              763.16,1251.80 766.39,1255.09 768.17,1256.98              770.43,1259.39 775.41,1264.55 778.39,1266.34              781.07,1268.13 785.46,1270.25 786.50,1271.95              787.11,1272.85 787.05,1274.97 784.44,1274.87              781.35,1274.55 779.49,1273.45 777.80,1272.59              774.58,1270.95 771.86,1269.52 769.11,1271.04              766.38,1272.58 765.62,1276.31 763.42,1280.09              761.02,1282.98 758.76,1285.09 758.58,1287.07              757.92,1290.10 760.62,1293.13 758.58,1296.00              756.44,1298.76 751.18,1299.31 748.16,1303.02              745.04,1306.64 747.04,1309.40 743.69,1312.24              741.16,1314.09 735.92,1314.08 732.93,1315.20              727.70,1317.16 726.13,1320.00 725.20,1324.19              725.07,1325.44 725.14,1326.61 725.78,1328.19              725.78,1328.19 701.09,1336.59 701.09,1336.59              701.09,1336.59 689.06,1340.31 689.06,1340.31              689.06,1340.31 685.25,1332.00 685.25,1332.00              685.25,1332.00 675.00,1311.00 675.00,1311.00              679.83,1308.61 682.70,1307.39 685.39,1307.43              687.31,1307.33 689.34,1307.44 692.14,1307.49              693.88,1307.43 695.69,1307.43 697.99,1306.75              699.47,1306.38 700.78,1305.89 701.99,1305.26              703.88,1304.30 705.51,1303.16 707.04,1302.12              708.15,1301.39 709.17,1300.68 710.18,1300.05              711.45,1299.31 712.56,1298.66 713.76,1298.24              715.05,1297.81 715.81,1297.79 716.33,1297.73              717.46,1297.65 718.43,1297.84 719.16,1297.95              720.32,1298.08 720.94,1298.29 722.14,1298.24              723.03,1298.19 724.11,1298.01 725.47,1297.38              726.13,1297.08 726.54,1296.79 727.11,1296.43              728.38,1295.59 729.51,1294.65 730.73,1293.90              731.57,1293.35 732.28,1293.06 733.02,1292.72              734.43,1292.19 735.08,1292.25 735.87,1292.02              736.71,1291.89 738.14,1291.59 739.05,1291.23              740.14,1290.76 740.37,1290.46 740.75,1290.16              741.68,1289.56 741.95,1289.55 742.84,1288.76              743.28,1288.27 743.42,1287.91 743.27,1287.29              743.06,1286.23 741.92,1285.32 739.89,1283.87              740.49,1282.84 742.88,1282.05 744.69,1281.04 Z"/>
</svg>