<svg xmlns="http://www.w3.org/2000/svg" viewBox="378.36 271.34 83.31 43.16">
  <path id="Iceland" fill="none" stroke="black" stroke-width="1" d="M 385.43,272.82            C 390.34,271.31 400.45,272.00 406.00,272.00              406.00,272.00 445.00,272.00 445.00,272.00              447.47,272.00 450.65,271.90 452.98,272.65              463.01,275.88 461.01,289.75 461.00,298.00              460.99,302.10 461.32,305.48 458.57,308.90              454.52,313.91 449.85,313.99 444.00,314.00              444.00,314.00 394.00,314.00 394.00,314.00              389.48,313.99 385.72,314.33 382.28,310.77              379.21,307.61 379.05,304.12 379.00,300.00              378.95,295.32 378.34,281.61 380.17,278.04              381.47,275.51 383.14,274.31 385.43,272.82 Z"/>
</svg>