<svg version="1.1" id="svg1" xml:space="preserve" inkscape:version="1.4 (86a8ad7, 2024-10-11)" sodipodi:docname="02Kaffa.svg" xmlns:inkscape="http://www.inkscape.org/namespaces/inkscape" xmlns:sodipodi="http://sodipodi.sourceforge.net/DTD/sodipodi-0.dtd" xmlns="http://www.w3.org/2000/svg" xmlns:svg="http://www.w3.org/2000/svg" viewBox="91.58 140.07 25.62 17.2"><sodipodi:namedview id="namedview1" pagecolor="#ffffff" bordercolor="#000000" borderopacity="0.25" inkscape:showpageshadow="2" inkscape:pageopacity="0.0" inkscape:pagecheckerboard="0" inkscape:deskcolor="#d1d1d1" inkscape:document-units="mm" inkscape:zoom="0.71891835" inkscape:cx="396.42889" inkscape:cy="561.25984" inkscape:window-width="1920" inkscape:window-height="1009" inkscape:window-x="-8" inkscape:window-y="-8" inkscape:window-maximized="1" inkscape:current-layer="layer1"/><defs id="defs1"/><g inkscape:label="Ebene 1" inkscape:groupmode="layer" id="layer1"><path id="Kaffa" fill="none" stroke="#000000" stroke-width="1" d="m 107.94532,142.99161 c 0,0 0.72474,-0.40725 0.72474,-0.40725 0,0 -0.40216,0.80941 -0.40216,0.80941 0,0 -0.3573,0.69596 -0.3573,0.69596 0.46313,0.0982 0.57235,-0.0626 0.9923,-0.254 -0.46652,1.0668 1.06595,0.75608 1.63237,0.59267 -0.0525,0.15325 -0.13547,0.32681 -0.0652,0.48853 0.0931,0.2159 0.85936,0.49953 1.08119,0.46058 0.43603,-0.0771 0.79841,-0.60113 1.016,-0.94911 0,0 -0.254,-0.0847 -0.254,-0.0847 0,0 0.762,-0.42333 0.762,-0.42333 0,0 -0.16933,0.762 -0.16933,0.762 0,0 -0.254,-0.0847 -0.254,-0.0847 -0.28025,0.55795 -0.47329,0.62145 -0.93134,1.016 0,0 0.59267,0.762 0.59267,0.762 -0.70781,0.53932 -0.92033,0.4047 -1.69333,0.64516 -0.37677,0.11684 -0.41826,0.24299 -0.84667,0.2015 0,0 0.254,-0.33866 0.254,-0.33866 0,0 -0.59267,0.0847 -0.59267,0.0847 0,0 -0.33866,-0.254 -0.33866,-0.254 0,0 -0.16934,0.67733 -0.16934,0.67733 0,0 -0.16933,0 -0.16933,0 0,0 -0.254,-0.33867 -0.254,-0.33867 0,0 0,-0.59266 0,-0.59266 -0.22606,0.6714 -0.5715,1.32757 -1.35467,1.35466 0,0 0.16934,-0.33866 0.16934,-0.33866 0,0 -0.33867,0.254 -0.33867,0.254 0,0 -0.762,0.0847 -0.762,0.0847 0.0246,0.29548 0.003,0.33951 0.254,0.508 0,0 -0.16933,0.762 -0.16933,0.762 0,0 0.93133,0 0.93133,0 0,0 0,0.33866 0,0.33866 0.48175,-0.22775 0.45297,-0.37422 0.93133,0 0,0 0,-0.0847 0,-0.0847 0,0 0.16934,-0.0847 0.16934,-0.0847 0.31411,0.53171 0.84412,0.45636 1.2556,0.79841 0.34714,0.28787 0.46144,0.71035 0.86445,0.96689 0.18627,0.11854 0.65109,0.25993 0.70612,-0.0838 0.0516,-0.32088 -0.40301,-0.43603 -0.59013,-0.57742 0,0 -0.39624,-0.47414 -0.39624,-0.47414 -0.3175,-0.3302 -0.68495,-0.44365 -0.48514,-0.96858 0.36322,0.67648 1.01262,1.17009 1.60867,1.63237 0.37084,0.28787 0.69681,0.59013 1.016,0.061 0,0 0.33867,0.254 0.33867,0.254 0,0 0.16933,0 0.16933,0 0.41825,-0.79079 1.16501,-0.43095 1.86267,-0.33867 0,0 -0.508,0.33867 -0.508,0.33867 0.24299,0.4953 -0.15579,0.63839 -0.59267,0.762 -0.53086,-0.52324 -0.82042,-0.0499 -1.35467,0.0864 -0.22182,0.0567 -0.45381,-0.0246 -0.66294,0.0864 -0.36152,0.1905 -0.71712,0.88307 -0.89577,1.03801 0,0 -0.98129,0.47837 -0.98129,0.47837 0,0 -1.17348,0.73491 -1.17348,0.73491 -0.25908,0.21505 -0.25654,0.39454 -0.46058,0.48852 -0.16849,0.0779 -0.4953,0.0305 -0.72898,0.0728 0,0 -0.51562,0.14732 -0.51562,0.14732 0,0 0.59266,-1.60866 0.59266,-1.60866 0,0 -0.55118,-0.60622 -0.55118,-0.60622 0,0 -1.14215,-0.45974 -1.14215,-0.45974 0,0 -0.59267,-0.35644 -0.59267,-0.35644 0,0 -0.84666,0.57573 -0.84666,0.57573 0.1761,-0.56557 0.24214,-1.35297 0.84666,-1.60867 0,0 -0.0847,-0.33866 -0.0847,-0.33866 0.84666,-0.76624 0.67818,-0.64008 0.59266,-1.69334 0.42418,-0.254 0.43858,-0.73406 0.42334,-1.18533 -0.16849,0.17272 -0.31073,0.38185 -0.51224,0.51731 -0.24638,0.16595 -0.45889,0.15748 -0.63669,0.3065 -0.18881,0.15748 -0.18203,0.3556 -0.39878,0.4826 -0.30988,0.18034 -0.76793,0.1143 -0.48429,-0.54441 0,0 -0.508,0.254 -0.508,0.254 0,0 -0.33867,-0.33867 -0.33867,-0.33867 0,0 0.0847,-0.508 0.0847,-0.508 0,0 0.93133,-0.84666 0.93133,-0.84666 -0.20659,0.0787 -0.94149,0.42333 -1.09982,0.5444 -0.47159,0.35899 -0.47244,0.73914 -1.09813,0.6494 -0.0923,-0.0136 -0.20489,-0.0313 -0.2794,-0.0923 -0.1761,-0.14394 -0.0948,-0.42842 -0.40132,-0.93218 0,0 -0.33866,1.18533 -0.33866,1.18533 0,0 -0.16934,0 -0.16934,0 0,0 0,-1.10067 0,-1.10067 0,0 -0.254,0.508 -0.254,0.508 0,0 -0.33866,-0.16933 -0.33866,-0.16933 0,0 0.0847,0.59267 0.0847,0.59267 0,0 -0.254,0 -0.254,0 0,0 -0.0847,-0.508 -0.0847,-0.508 0,0 -0.13039,1.43933 -0.13039,1.43933 0,0 -0.0711,0.42333 -0.0711,0.42333 0,0 -0.0525,0.67734 -0.0525,0.67734 -0.17018,-0.3319 -0.24977,-0.26332 -0.61553,-0.32343 -0.0246,-0.0753 -0.67056,0.65617 -0.51562,0.84667 0.38608,-0.4335 0.68665,0.75014 0.41741,0.86021 -0.14563,0.0593 -0.47752,-0.0364 -0.64093,-0.0669 0,0 -0.42333,0 -0.42333,0 -0.64686,-0.0136 -0.94743,-0.20151 -1.07019,0.61637 -0.033,0.21675 -0.0119,0.23792 0.0542,0.43773 0,0 -0.67733,0.42333 -0.67733,0.42333 0,0 0.254,-0.84666 0.254,-0.84666 0,0 0.26755,0.0847 0.26755,0.0847 -0.003,-0.14563 0.0415,-0.45297 0,-0.57828 -0.0423,-0.25569 -0.45297,-0.71712 -0.69427,-0.81026 -0.29718,-0.1143 -0.82127,0.0499 -0.96266,-0.25654 -0.10753,-0.23283 0.0999,-0.5842 0.18119,-0.80264 0.12954,-0.35052 0.38692,-1.26746 0.33274,-1.61628 -0.12277,-0.78825 -1.26069,-1.48675 -1.49522,-2.286 0.762,-0.18542 1.25222,0.0246 2.20134,-0.33613 0,0 1.778,-0.94996 1.778,-0.94996 0.39963,-0.1397 0.69681,0.005 1.18533,-0.14478 0.50377,-0.15494 0.6875,-0.37084 1.270001,-0.3429 0.61722,0.0288 0.96351,0.51223 1.69334,0.73914 0.53509,0.16679 0.85259,0.0643 1.18533,0.12615 0.26755,0.0499 0.39793,0.16934 0.67733,0.17018 0.0203,0.009 0.77216,-0.11091 0.82042,-0.21166 0.36407,0.0178 0.57489,0.3793 1.08712,0.36237 1.05326,-0.45805 0.73745,-0.36491 1.11676,-0.66379 0,0 0.57996,-0.31411 0.57996,-0.31411 0.2921,-0.27432 0.39201,-0.77555 0.24046,-1.14131 z m 3.77528,2.70679 c 0,0 -0.0847,0 -0.0847,0 0,0 0.0847,0.0847 0.0847,0.0847 z"/></g></svg>