<svg version="1.1" id="svg1" xml:space="preserve" inkscape:version="1.4 (86a8ad7, 2024-10-11)" sodipodi:docname="13KüsteKaffa.svg" xmlns:inkscape="http://www.inkscape.org/namespaces/inkscape" xmlns:sodipodi="http://sodipodi.sourceforge.net/DTD/sodipodi-0.dtd" xmlns="http://www.w3.org/2000/svg" xmlns:svg="http://www.w3.org/2000/svg" viewBox="110.62 230 21.78 16.27"><sodipodi:namedview id="namedview1" pagecolor="#ffffff" bordercolor="#000000" borderopacity="0.25" inkscape:showpageshadow="2" inkscape:pageopacity="0.0" inkscape:pagecheckerboard="0" inkscape:deskcolor="#d1d1d1" inkscape:document-units="mm" inkscape:zoom="0.71891835" inkscape:cx="396.42889" inkscape:cy="561.25984" inkscape:window-width="1920" inkscape:window-height="1009" inkscape:window-x="-8" inkscape:window-y="-8" inkscape:window-maximized="1" inkscape:current-layer="layer1"/><defs id="defs1"/><g inkscape:label="Ebene 1" inkscape:groupmode="layer" id="layer1"><path id="KüsteKaffa" fill="none" stroke="#000000" stroke-width="1" d="m 126.66952,232.50274 c 0,0 1.00246,2.25298 1.00246,2.25298 0,0 0.77554,0.39963 0.77554,0.39963 0,0 1.43934,0.48006 1.43934,0.48006 0,0 -0.39201,2.87528 -0.39201,2.87528 -0.15917,0.68834 -0.54187,0.21759 -0.45466,1.10405 -0.27855,0.0229 -0.43857,0.033 -0.62992,0.2667 -0.17526,0.21252 -0.21421,0.57997 -0.5588,0.67141 -0.42503,0.11176 -0.86529,-0.51647 -1.11929,-0.15155 -0.24215,0.34713 0.43264,0.65701 0.21336,1.0524 -0.20574,0.37 -1.0812,1.0795 -1.37668,0.10838 -0.3192,0.28871 -0.32428,0.33866 -0.33867,0.762 -0.32427,0.0584 -0.77639,0.13038 -1.10067,0.0593 -0.5063,-0.11007 -0.33782,-0.31073 -1.016,-0.2286 0.31496,0.57404 0.94912,0.39793 0.89324,0.8509 -0.0864,0.69934 -1.32165,0.0753 -1.39785,0.0804 -0.28279,0.0186 -0.37931,0.38269 -0.56473,0.54186 -0.39454,0.34036 -1.07272,-0.0186 -1.21666,-0.4572 0,0 0.33698,-0.16086 0.33698,-0.16086 0.52662,-0.30904 0.30734,-0.75015 -0.20236,-0.84667 -0.20235,-0.0381 -0.46228,0.10583 -0.69088,-0.0745 -0.26077,-0.2049 -0.0779,-0.3954 -0.45974,-0.78063 0.12954,-0.54187 0.10922,-0.70781 -0.42333,-0.93133 -0.0923,0.22944 -0.28533,0.79925 -0.47752,0.93218 -0.26247,0.18118 -0.88138,0.0127 -0.94827,-0.5097 -0.0762,-0.59351 0.57235,-1.27169 0.46398,-1.76784 -0.0796,-0.36745 -0.67564,-0.46397 -0.98383,-0.56726 -0.14309,-0.0483 -0.37507,-0.10753 -0.37338,-0.29888 0.002,-0.27093 0.44789,-0.37084 0.48853,-0.58758 0.0381,-0.20405 -0.2413,-0.22691 -0.37084,-0.24892 0.0212,-0.24977 0.1507,-0.72898 0.0686,-0.92964 -0.27178,-0.6621 -1.0668,-0.36915 -1.37245,0.0864 -0.34629,0.51731 0.20574,1.19803 -0.72813,1.59258 -0.43858,0.18457 -1.20904,-0.36915 -1.60867,-0.57997 0.13462,-0.56219 0.1016,-0.80179 -0.42333,-1.10067 0.3175,-0.58335 0.4445,-0.59182 1.016,-0.33866 0,0 0.254,-1.86267 0.254,-1.86267 0,0 0.42333,0 0.42333,0 0,0 0,-0.508 0,-0.508 0,0 0.254,0 0.254,0 0,0 0.0847,0.67733 0.0847,0.67733 0.40132,-0.26162 0.43434,-0.38015 0.508,-0.84666 0,0 0.16933,0 0.16933,0 0.0753,0.64008 0.56896,0.75184 1.10067,0.48175 0,0 0.93133,-0.65109 0.93133,-0.65109 0,0 -0.67733,0.84667 -0.67733,0.84667 0.49868,0.2159 0.57319,0.39709 1.10066,0.254 0.1668,1.02277 0.92795,0.28956 2.159,-0.77216 0.13886,0.17526 -0.30734,1.08289 -0.43349,1.00499 0,0 -0.0643,1.08966 -0.0643,1.08966 0,0 -0.47582,0.57235 -0.47582,0.57235 -0.45805,0.48599 -0.64008,1.39361 -0.8255,2.08449 0.19812,-0.11938 0.6333,-0.55287 0.84666,-0.56049 0.21675,-0.12869 0.59521,0.22013 0.79333,0.32766 0.47837,0.25823 1.2065,0.41317 1.40801,1.016 0.0991,0.29464 -0.43011,1.30387 -0.52917,1.67217 0.82635,-0.30142 1.16417,-0.0991 1.4605,-0.28618 0.18373,-0.11599 0.26501,-0.3031 0.50461,-0.50715 0,0 1.67556,-1.02955 1.67556,-1.02955 0,0 1.2175,-1.18279 1.2175,-1.18279 0.13801,0.0423 1.39446,-0.2413 1.49183,-0.32089 0.33782,0.0144 0.46736,0.26501 0.77555,0.12277 0.65024,-0.32343 0.30903,-0.45466 0.51562,-0.77555 0,0 0.41232,-0.37084 0.41232,-0.37084 0,0 -1.19549,-0.21505 -1.19549,-0.21505 -0.61383,0.0931 -0.58759,0.59013 -1.27,0.16256 -0.45551,0.52747 -0.76539,0.2286 -1.18533,-0.17018 0,0 -1.524,-1.43849 -1.524,-1.43849 0.0212,1.03802 1.13876,1.25307 1.43933,2.11667 -0.68919,0.11599 -0.9906,-0.57827 -1.46304,-0.96266 0,0 -0.65363,-0.38862 -0.65363,-0.38862 -0.75438,-0.48683 -0.61722,-0.53594 -1.60866,-0.42672 0,0 0,-0.33867 0,-0.33867 0,0 -0.84667,0.16934 -0.84667,0.16934 0.13123,-0.69935 0.0999,-0.47498 -0.16933,-1.10067 0.29379,-0.0779 0.61468,-0.24638 0.762,0.0847 0.86529,-0.28871 0.71289,-0.2286 1.27,-1.016 0.15409,0.24977 0.92456,0.90847 0.67733,0.508 0,0 0.0847,-0.59267 0.0847,-0.59267 0,0 0.67733,0.0847 0.67733,0.0847 -0.17865,0.52578 0.38354,0.34798 0.762,0.21675 0.61214,-0.20997 1.20227,-0.30226 1.69333,-0.72475 z m -7.65217,6.32884 m 0.42333,-0.40217"/></g></svg>