<svg version="1.1" id="svg1" xml:space="preserve" inkscape:version="1.4 (86a8ad7, 2024-10-11)" sodipodi:docname="10Kamish.svg" xmlns:inkscape="http://www.inkscape.org/namespaces/inkscape" xmlns:sodipodi="http://sodipodi.sourceforge.net/DTD/sodipodi-0.dtd" xmlns="http://www.w3.org/2000/svg" xmlns:svg="http://www.w3.org/2000/svg" viewBox="190.8 252.43 11.9 11.2"><sodipodi:namedview id="namedview1" pagecolor="#ffffff" bordercolor="#000000" borderopacity="0.25" inkscape:showpageshadow="2" inkscape:pageopacity="0.0" inkscape:pagecheckerboard="0" inkscape:deskcolor="#d1d1d1" inkscape:document-units="mm" inkscape:zoom="0.71891835" inkscape:cx="396.42889" inkscape:cy="561.25984" inkscape:window-width="1920" inkscape:window-height="1009" inkscape:window-x="-8" inkscape:window-y="-8" inkscape:window-maximized="1" inkscape:current-layer="layer1"/><defs id="defs1"/><g inkscape:label="Ebene 1" inkscape:groupmode="layer" id="layer1"><path id="Kamish" fill="none" stroke="#000000" stroke-width="1" d="m 199.58169,254.9345 c 0,0 0.59266,0 0.59266,0 -0.39624,0.5461 -1.04224,0.67902 -1.42917,1.15908 -0.0483,0.0271 -0.35899,0.70866 -0.34883,1.04733 0.16426,0.0322 0.34375,0.0999 0.46059,0.35475 0,0 0.22183,0.59775 0.22183,0.59775 0.0762,0.29125 0.31242,0.48514 0.50292,0.73575 0,0 -2.11667,0.96097 -2.11667,0.96097 -0.23283,0.13801 -0.62315,0.53763 -0.84667,0.53425 -0.29887,-0.003 -1.20226,-0.92033 -1.43933,-1.15655 -0.0296,0.64939 -0.30057,1.03124 -0.0847,1.60867 0,0 -0.67733,0.33866 -0.67733,0.33866 0,0 0.16933,-0.762 0.16933,-0.762 0,0 0.254,0.0847 0.254,0.0847 0,0 0.26416,-1.44441 0.26416,-1.44441 0,0 -0.72898,-0.68665 -0.72898,-0.68665 0,0 -0.35644,-0.83227 -0.35644,-0.83227 0,0 -0.70274,-1.016 -0.70274,-1.016 0.57997,-0.22606 1.49352,-0.40555 2.37067,-0.41317 1.33604,-0.0152 1.45457,-0.0466 2.66192,-0.60283 0.99991,-0.52155 0.40217,0.60621 1.23275,-0.508 z m -1.0685,3.21733 m 1.29625,-2.37067 m 0.17949,-0.18542"/></g></svg>