<svg xmlns:inkscape="http://www.inkscape.org/namespaces/inkscape" xmlns:sodipodi="http://sodipodi.sourceforge.net/DTD/sodipodi-0.dtd" xmlns="http://www.w3.org/2000/svg" xmlns:svg="http://www.w3.org/2000/svg" version="1.1" id="svg1" sodipodi:docname="kanarisches Becken.svg" inkscape:version="1.3.2 (091e20e, 2023-11-25, custom)" viewBox="425.94 1329.66 206.07 78.98">
  <defs id="defs1"/>
  <sodipodi:namedview id="namedview1" pagecolor="#ffffff" bordercolor="#999999" borderopacity="1" inkscape:showpageshadow="2" inkscape:pageopacity="0" inkscape:pagecheckerboard="0" inkscape:deskcolor="#d1d1d1" inkscape:document-units="in" inkscape:zoom="6.7075165" inkscape:cx="195.82509" inkscape:cy="437.19609" inkscape:window-width="1904" inkscape:window-height="1001" inkscape:window-x="950" inkscape:window-y="38" inkscape:window-maximized="0" inkscape:current-layer="svg1"/>
  <path id="Kanarisches Becken2" fill="none" stroke="black" stroke-width="1" d="M 552.00,1341.36            C 552.00,1338.87 551.92,1335.50 549.69,1334.07              546.18,1331.71 541.75,1334.70 538.00,1334.07              535.11,1334.50 534.38,1333.31 533.38,1330.69              530.29,1331.78 525.64,1332.12 523.16,1332.13              519.58,1332.31 516.58,1332.11 512.96,1332.11              506.91,1332.07 501.98,1331.33 499.09,1333.18              497.64,1334.31 496.60,1336.67 496.04,1340.93              496.53,1341.53 496.51,1341.53 496.84,1341.98              496.84,1341.98 551.96,1341.98 551.96,1341.98              551.96,1341.92 552.04,1342.36 552.26,1343.01              552.48,1343.27 552.57,1343.49 553.17,1343.79              554.64,1344.41 556.78,1343.67 558.14,1344.39              559.18,1344.74 559.93,1345.56 560.42,1346.18              561.16,1347.16 561.57,1348.14 562.16,1348.94              562.54,1349.42 562.72,1349.69 563.11,1350.08              564.12,1352.86 564.07,1353.24 564.07,1353.24              565.09,1356.70 565.21,1365.82 565.08,1370.02              564.95,1373.04 565.15,1376.14 563.99,1379.00              562.70,1382.50 560.06,1385.19 556.96,1386.51              553.61,1387.94 549.57,1388.09 546.00,1388.09              546.00,1388.09 521.00,1388.00 521.00,1388.00              521.00,1388.00 495.00,1388.00 495.00,1388.00              490.49,1387.99 484.94,1388.01 481.10,1385.28              478.32,1383.29 476.74,1380.34 476.21,1377.00              475.39,1371.77 475.62,1353.04 476.86,1347.95              477.13,1346.61 477.44,1344.97 478.08,1344.34              474.51,1345.99 473.05,1346.67 469.02,1348.61              466.73,1348.51 457.83,1348.12 455.03,1348.01              454.82,1350.57 455.24,1354.94 453.82,1357.92              451.72,1362.52 444.66,1361.83 444.02,1362.01              444.11,1365.56 445.23,1368.41 446.53,1371.19              448.29,1374.96 450.00,1377.96 448.60,1381.96              447.77,1384.13 447.24,1385.06 444.59,1386.51              443.80,1386.91 443.01,1387.25 442.22,1387.54              437.21,1389.24 432.34,1389.67 428.97,1392.49              427.72,1393.53 426.66,1395.23 426.46,1396.98              426.32,1398.99 427.01,1399.91 428.14,1400.83              428.76,1401.20 429.30,1401.49 430.08,1401.69              432.63,1401.84 435.28,1401.99 436.99,1402.07              436.99,1402.07 444.60,1402.48 453.99,1403.01              467.10,1403.00 483.01,1402.99 483.01,1402.99              483.01,1402.99 511.78,1405.00 511.78,1405.00              511.78,1405.00 536.06,1405.02 536.06,1405.02              536.06,1405.02 569.33,1407.03 569.33,1407.03              569.33,1407.03 598.02,1406.98 598.02,1406.98              598.02,1406.98 612.49,1407.98 612.49,1407.98              618.18,1408.14 622.61,1408.22 626.00,1408.00              630.58,1399.01 627.05,1398.00 619.35,1395.74              619.35,1395.74 619.00,1393.00 619.00,1393.00              622.47,1392.80 625.90,1393.07 628.66,1390.57              634.40,1385.36 630.44,1377.35 625.96,1375.50              621.88,1373.81 618.75,1377.20 614.00,1377.77              611.77,1378.04 607.23,1377.64 606.61,1374.90              606.20,1373.10 607.96,1372.23 609.45,1372.15              611.63,1372.02 615.95,1374.39 619.50,1370.69              623.75,1366.27 623.10,1357.12 613.00,1359.61              613.00,1359.61 606.00,1362.00 606.00,1362.00              606.00,1358.72 605.80,1355.19 606.61,1352.00              607.39,1348.87 609.46,1345.31 608.36,1342.02              606.65,1336.90 599.83,1335.58 597.74,1340.23              596.11,1343.86 598.81,1348.10 599.00,1353.00              596.28,1349.46 595.53,1347.86 591.00,1347.00              591.00,1347.00 588.83,1332.31 588.83,1332.31              587.10,1329.72 582.05,1329.17 580.81,1332.31              578.88,1336.11 582.74,1338.79 580.81,1346.00              578.90,1343.37 572.73,1331.85 568.17,1337.57              566.61,1339.54 567.17,1344.39 566.74,1347.00              566.74,1347.00 566.24,1349.43 565.79,1351.09              563.32,1347.14 561.31,1342.98 552.00,1341.36 Z"/>
</svg>