<svg version="1.1" id="svg1" xml:space="preserve" inkscape:version="1.4 (86a8ad7, 2024-10-11)" sodipodi:docname="01Kiev.svg" xmlns:inkscape="http://www.inkscape.org/namespaces/inkscape" xmlns:sodipodi="http://sodipodi.sourceforge.net/DTD/sodipodi-0.dtd" xmlns="http://www.w3.org/2000/svg" xmlns:svg="http://www.w3.org/2000/svg" viewBox="95.15 137 19.23 22.85"><sodipodi:namedview id="namedview1" pagecolor="#ffffff" bordercolor="#000000" borderopacity="0.25" inkscape:showpageshadow="2" inkscape:pageopacity="0.0" inkscape:pagecheckerboard="0" inkscape:deskcolor="#d1d1d1" inkscape:document-units="mm" inkscape:zoom="5.7513468" inkscape:cx="430.16012" inkscape:cy="578.82095" inkscape:window-width="1904" inkscape:window-height="884" inkscape:window-x="81" inkscape:window-y="85" inkscape:window-maximized="0" inkscape:current-layer="layer1"/><defs id="defs1"/><g inkscape:label="Ebene 1" inkscape:groupmode="layer" id="layer1"><path id="Kiev" fill="none" stroke="#000000" stroke-width="1" d="m 98.586303,139.92261 c 0.78147,0.0195 0.4953,0.17357 1.523997,0.16933 0.33189,-0.002 1.22258,-0.0957 1.52061,-0.19134 0.36915,-0.11854 0.8128,-0.37762 1.21835,-0.37931 0.38947,0.004 0.65278,0.22945 0.98637,0.38269 0.60283,0.27602 1.59597,0.30396 1.50029,1.33266 -0.0262,0.37168 -0.2921,1.09558 -0.2269,1.10066 -0.009,0.62908 0.5825,1.20989 1.09728,1.4876 0.27347,0.14732 0.4826,0.1778 0.762,0.28532 0.42164,0.16002 1.70603,0.7002 2.02438,0.95504 -0.044,-0.15155 1.67724,1.7797 1.59427,1.8034 0.42587,0.40302 1.28185,0.71036 1.28439,1.35128 0.004,0.73491 -0.89408,1.56295 -1.24036,2.22589 -0.2413,0.60452 -0.66464,1.7907 -0.82127,2.20895 -0.11684,0.48514 -0.002,0.97367 -0.28871,1.40716 -0.18288,0.27602 -0.7366,0.68072 -0.9906,0.91948 -0.18712,0.1778 -0.44958,0.41995 -0.55372,0.52748 -0.38439,0.2523 -0.32597,0.57573 -0.79841,0.51477 -0.23283,0.31919 -0.42333,0.2921 -0.80264,0.32427 0.0288,-0.004 0.6985,-1.52654 0.67733,-1.524 0,0 -0.762,0.42334 -0.762,0.42334 0.24046,0.36999 0.009,0.68749 -0.0847,1.10066 -0.20828,0.0398 -0.3192,0.0576 -0.508,0.17018 -0.38693,0.22945 -1.30895,1.30218 -2.00745,0.57235 -0.11091,-0.11599 -0.10245,-0.12531 -0.16849,-0.25993 0.58336,-0.51562 0.61214,-0.9508 1.25561,-1.45118 1.0795,-0.65617 2.26568,-0.69342 3.08102,-1.81441 0.18119,-0.24892 0.45381,-0.72475 0.51901,-1.02362 0.0787,-0.35814 -0.0373,-0.94319 0.31834,-1.61205 0.47414,-0.8907 1.43595,-1.23868 1.4859,-2.37067 0.0686,-1.55871 -1.31487,-1.38007 -2.19794,-2.06502 -0.40725,-0.31581 -0.83143,-0.88985 -1.27,-1.11421 -0.47244,-0.2413 -1.2082,-0.18542 -1.86267,-0.53764 -0.50123,-0.26924 -1.24121,-0.84751 -1.86267,-0.71458 -0.37168,0.0796 -0.62145,0.42756 -0.84666,0.70612 -0.92795,0.97536 -1.04648,1.49436 -1.30641,1.60104 -0.40725,-0.18626 -1.358047,-0.62399 -1.585807,-1.01769 -0.20658,-0.36999 -0.13038,-0.58081 -0.23706,-0.90763 -0.10838,-0.33189 -0.34714,-0.56726 -0.28025,-0.94572 0.10583,-0.45043 0.81449,-1.31572 0.78317,-1.5875 0.0474,-0.29888 -0.18542,-0.51816 -0.27602,-0.78317 -0.077,-0.22521 -0.061,-0.52324 -0.061,-0.762 -0.42502,0.0136 -0.49191,-0.11345 -0.59266,-0.508 z m 0.508,1.35467 c 0,0 -0.762,-0.14902 -0.762,-0.14902 -0.1524,-0.0347 -0.28194,-0.0567 -0.41064,-0.15494 -0.60198,-0.45889 0.0152,-1.44187 0.47922,-0.85513 0.0542,0.0686 0.13462,0.22945 0.17356,0.31242 0.0516,0.19219 0.0322,0.23537 0,0.42333 z m 1.792387,5.35262"/></g></svg>