<svg xmlns="http://www.w3.org/2000/svg" viewBox="727.49 110.13 150.04 182.23">
  <path id="Königsberg" fill="none" stroke="black" stroke-width="1" d="M 810.00,143.00            C 820.24,142.40 824.05,134.48 829.44,127.01              829.44,127.01 836.28,118.92 836.28,118.92              838.48,116.50 842.75,111.29 846.00,110.71              848.76,110.21 850.42,112.03 851.90,114.06              851.90,114.06 860.45,129.96 860.45,129.96              862.36,133.04 865.44,137.38 868.05,139.82              870.60,142.21 873.95,143.88 875.57,147.09              877.26,150.45 877.03,156.24 877.00,160.00              877.00,160.00 876.02,177.00 876.02,177.00              876.02,177.00 876.02,196.00 876.02,196.00              863.96,198.04 868.63,210.71 865.18,218.96              862.73,224.82 860.01,224.64 857.00,231.00              854.04,230.94 847.64,229.59 845.61,231.61              843.29,233.94 845.26,237.42 844.55,241.00              844.24,242.54 840.15,251.40 839.21,253.00              832.35,264.66 820.61,260.24 817.00,274.00              812.86,274.02 810.52,273.66 807.00,276.31              801.31,280.60 796.32,290.90 789.01,291.81              785.45,292.25 784.82,289.42 780.91,288.30              780.91,288.30 771.17,286.75 771.17,286.75              768.03,285.81 765.68,282.87 760.00,280.95              755.87,279.56 749.48,280.00 745.00,280.00              745.00,280.00 745.00,274.00 745.00,274.00              747.71,273.99 752.36,274.43 753.92,271.69              755.41,269.07 753.10,265.99 752.41,263.00              752.41,263.00 751.00,242.00 751.00,242.00              747.80,243.58 743.26,247.46 741.31,250.51              739.52,253.31 740.40,256.04 737.71,257.24              731.77,259.90 726.13,250.42 728.57,245.43              730.40,241.70 733.79,244.93 736.00,238.00              736.00,238.00 739.00,238.00 739.00,238.00              737.95,234.27 735.48,231.10 736.28,227.02              737.27,221.95 740.62,222.29 743.04,218.78              743.04,218.78 745.58,214.00 745.58,214.00              747.27,211.51 752.63,206.32 755.00,204.01              758.86,200.25 763.93,196.62 766.66,192.00              769.70,186.85 768.40,181.94 769.50,178.00              770.53,174.29 775.28,168.64 778.29,166.34              782.97,162.75 789.04,168.15 794.28,164.75              799.25,161.52 795.39,151.93 798.02,148.60              799.42,146.83 806.28,146.66 809.00,146.00              809.00,146.00 809.00,144.00 809.00,144.00              804.97,141.66 804.24,139.34 803.00,135.00              803.00,135.00 812.00,139.00 812.00,139.00              812.00,139.00 810.00,143.00 810.00,143.00 Z"/>
</svg>