<svg xmlns="http://www.w3.org/2000/svg" viewBox="694.5 196.5 180.82 144.28">
  <path id="Königsberg Küste" fill="none" stroke="black" stroke-width="1" d="M 873.00,197.00            C 875.85,200.90 874.61,202.56 874.17,207.00              874.17,207.00 872.42,226.00 872.42,226.00              872.42,226.00 869.20,250.00 869.20,250.00              868.80,252.11 868.03,257.15 866.99,258.78              864.69,262.39 860.19,261.84 855.30,266.38              855.30,266.38 842.57,281.54 842.57,281.54              842.57,281.54 823.00,295.81 823.00,295.81              814.63,301.63 813.95,296.05 808.00,295.81              800.31,295.48 796.28,303.74 795.00,310.00              789.24,310.15 787.74,310.38 784.00,315.00              776.19,312.42 770.36,305.43 763.85,316.02              760.98,320.69 761.43,331.60 760.43,334.98              759.70,337.46 757.37,340.93 754.31,340.18              749.59,339.03 755.92,332.91 756.91,330.00              757.88,327.13 756.96,325.41 757.87,322.00              757.87,322.00 760.43,315.00 760.43,315.00              761.59,309.82 759.26,303.64 754.00,301.75              744.09,298.20 739.74,312.43 730.00,314.00              732.17,306.42 741.14,296.59 731.81,289.89              727.91,287.09 724.19,288.80 721.95,286.26              720.61,284.74 720.64,281.67 719.07,279.02              717.24,275.94 714.96,274.72 712.00,273.00              714.59,267.49 717.58,265.88 719.15,262.00              719.80,260.38 719.97,258.73 719.89,257.00              719.16,241.64 700.29,245.10 695.00,243.00              695.00,243.00 718.91,230.08 718.91,230.08              726.30,225.47 733.65,219.36 742.00,217.00              739.99,220.98 738.11,221.74 736.93,224.18              735.00,228.20 736.83,233.96 738.00,238.00              734.34,239.96 727.60,243.66 727.19,248.00              726.70,253.13 733.54,261.08 738.69,257.96              739.92,257.21 743.81,248.17 745.00,246.00              745.00,246.00 751.00,247.00 751.00,247.00              751.00,247.00 752.00,273.00 752.00,273.00              752.00,273.00 745.00,274.00 745.00,274.00              745.00,274.00 745.00,280.00 745.00,280.00              749.26,280.00 753.91,279.71 758.00,280.99              758.00,280.99 770.00,286.79 770.00,286.79              770.00,286.79 779.00,289.06 779.00,289.06              782.78,290.09 785.94,293.06 790.00,292.34              799.22,290.70 800.30,282.26 807.00,277.30              811.10,274.27 812.75,275.55 815.90,273.83              819.14,272.06 820.00,269.00 825.02,265.61              828.66,263.14 830.88,263.12 834.96,259.95              839.39,256.49 846.28,245.53 846.70,240.00              846.89,237.36 845.81,234.49 845.00,232.00              845.00,232.00 859.00,232.00 859.00,232.00              860.92,225.50 865.08,224.33 867.00,219.34              871.08,208.68 864.75,208.11 873.00,197.00 Z"/>
</svg>