<svg xmlns:inkscape="http://www.inkscape.org/namespaces/inkscape" xmlns:sodipodi="http://sodipodi.sourceforge.net/DTD/sodipodi-0.dtd" xmlns="http://www.w3.org/2000/svg" xmlns:svg="http://www.w3.org/2000/svg" version="1.1" id="svg1" sodipodi:docname="leon_coast.svg" inkscape:version="1.3.2 (091e20e, 2023-11-25, custom)" viewBox="445.5 951.44 170 132.66">
  <defs id="defs1"/>
  <sodipodi:namedview id="namedview1" pagecolor="#ffffff" bordercolor="#999999" borderopacity="1" inkscape:showpageshadow="2" inkscape:pageopacity="0" inkscape:pagecheckerboard="0" inkscape:deskcolor="#d1d1d1" inkscape:document-units="in" inkscape:zoom="1.6768791" inkscape:cx="326.20121" inkscape:cy="244.8" inkscape:window-width="1920" inkscape:window-height="1017" inkscape:window-x="-8" inkscape:window-y="-8" inkscape:window-maximized="1" inkscape:current-layer="svg1"/>
  <path id="Leon Küste" fill="none" stroke="black" stroke-width="1" d="M 546.00,973.04            C 547.65,969.74 555.57,979.48 564.57,977.48              567.05,976.56 568.67,975.05 570.04,972.83              572.70,968.53 571.30,963.43 574.52,960.00              579.33,953.36 591.18,945.91 593.82,959.73              592.04,959.74 588.28,959.79 586.64,960.45              581.98,962.33 582.35,967.61 585.27,971.09              591.55,978.56 599.46,972.08 603.18,973.73              605.60,974.80 606.46,979.67 607.40,982.00              609.84,988.07 613.89,996.85 615.00,1003.00              609.50,1001.88 604.16,999.74 599.00,997.54              596.07,996.29 593.24,994.13 590.00,994.20              587.30,994.26 581.85,996.70 579.00,997.65              579.00,997.65 564.00,1001.95 564.00,1001.95              557.42,1004.72 551.26,1009.44 544.00,1010.50              540.48,1011.01 534.29,1009.84 531.00,1008.47              527.14,1006.87 524.35,1004.21 520.10,1006.87              515.30,1009.88 515.10,1016.05 512.30,1019.95              509.60,1023.70 506.77,1023.98 504.72,1026.41              502.49,1029.06 503.23,1031.57 498.88,1036.98              497.74,1038.40 496.20,1040.11 494.71,1041.16              494.71,1041.16 479.00,1049.16 479.00,1049.16              477.45,1049.76 476.58,1049.78 475.00,1050.00              477.80,1055.72 482.64,1064.13 490.00,1063.77              492.45,1063.64 496.08,1061.76 499.00,1061.00              498.58,1064.12 496.57,1068.54 497.40,1071.00              498.61,1074.63 504.49,1078.12 502.83,1081.69              501.15,1085.32 491.26,1082.74 488.00,1082.27              484.83,1081.81 476.72,1081.04 474.28,1079.71              470.87,1077.85 469.26,1073.39 462.00,1071.89              456.43,1071.35 451.02,1071.91 446.00,1071.91              446.30,1072.22 459.01,1060.75 458.65,1060.39              462.72,1054.36 462.00,1048.85 462.00,1042.00              465.53,1043.52 469.22,1047.65 474.83,1045.87              480.02,1044.08 479.52,1037.07 480.74,1034.52              481.57,1031.74 483.91,1030.91 486.96,1028.87              488.86,1025.57 486.22,1022.21 485.00,1019.00              489.55,1019.22 499.05,1019.35 497.70,1012.39              497.13,1009.50 491.65,1004.13 493.26,1001.26              495.42,997.42 504.51,1002.85 508.91,1000.22              514.22,996.89 507.35,987.61 507.17,982.09              507.68,982.47 515.52,982.00 517.91,980.55              523.91,978.39 523.69,971.95 527.00,973.00              530.73,979.55 532.23,985.85 539.83,988.96              547.99,992.30 555.14,987.72 553.83,982.09              553.96,975.91 544.86,976.42 546.00,973.04 Z"/>
</svg>