<svg xmlns:inkscape="http://www.inkscape.org/namespaces/inkscape" xmlns:sodipodi="http://sodipodi.sourceforge.net/DTD/sodipodi-0.dtd" xmlns="http://www.w3.org/2000/svg" xmlns:svg="http://www.w3.org/2000/svg" version="1.1" id="svg1" sodipodi:docname="leon.svg" inkscape:version="1.3.2 (091e20e, 2023-11-25, custom)" viewBox="474.54 993.69 189.01 113.81">
  <defs id="defs1"/>
  <sodipodi:namedview id="namedview1" pagecolor="#ffffff" bordercolor="#999999" borderopacity="1" inkscape:showpageshadow="2" inkscape:pageopacity="0" inkscape:pagecheckerboard="0" inkscape:deskcolor="#d1d1d1" inkscape:document-units="in" inkscape:zoom="1.6768791" inkscape:cx="326.20121" inkscape:cy="244.8" inkscape:window-width="1920" inkscape:window-height="1017" inkscape:window-x="-8" inkscape:window-y="-8" inkscape:window-maximized="1" inkscape:current-layer="svg1"/>
  <path id="Leon" fill="none" stroke="black" stroke-width="1" d="M 495.18,1062.22            C 486.11,1066.78 480.13,1060.20 475.04,1050.09              478.64,1049.73 482.59,1047.42 486.49,1045.42              493.60,1042.02 495.60,1041.00 498.38,1037.90              502.91,1032.67 502.60,1028.81 504.89,1026.22              505.26,1025.49 511.58,1021.64 512.07,1020.36              515.64,1016.07 514.56,1010.44 520.58,1006.62              527.69,1003.62 527.47,1009.76 540.53,1010.62              548.23,1011.15 552.32,1007.42 559.00,1004.47              560.19,1003.64 562.01,1002.76 564.19,1001.89              568.45,1000.87 574.20,999.04 579.38,997.53              584.29,995.73 588.26,994.24 589.89,994.20              593.64,994.04 596.47,996.87 600.00,998.07              604.51,999.87 609.18,1001.60 615.16,1003.20              617.10,1004.31 618.32,1006.54 619.71,1008.04              623.01,1011.60 630.06,1021.31 633.38,1024.75              637.62,1023.50 644.90,1021.62 648.00,1021.00              648.00,1021.00 647.00,1018.00 647.00,1018.00              647.00,1018.00 655.00,1023.00 655.00,1023.00              655.00,1023.00 652.75,1023.66 649.22,1024.88              648.56,1022.72 649.00,1024.09 648.53,1022.16              642.61,1023.04 635.00,1026.00 635.00,1026.00              635.00,1026.00 643.17,1034.98 643.17,1034.98              643.17,1034.98 659.00,1036.00 659.00,1036.00              659.00,1036.00 663.00,1046.00 663.00,1046.00              663.94,1046.68 650.47,1051.38 647.84,1050.62              647.84,1050.62 643.00,1053.91 643.00,1053.91              643.00,1053.91 637.00,1055.61 637.00,1055.61              637.00,1055.61 621.00,1065.00 621.00,1065.00              621.00,1065.00 621.00,1067.00 621.00,1067.00              621.00,1067.00 630.00,1073.00 630.00,1073.00              630.00,1073.00 630.72,1069.84 630.72,1069.84              630.72,1069.84 636.00,1078.00 636.00,1078.00              636.00,1078.00 626.00,1075.00 626.00,1075.00              626.00,1075.00 628.81,1073.44 628.81,1073.44              624.89,1071.53 620.40,1068.33 616.00,1067.67              609.63,1066.72 600.43,1072.54 597.41,1078.00              593.91,1084.34 595.39,1090.33 589.81,1095.79              586.07,1099.45 571.13,1104.44 566.00,1104.73              563.71,1104.86 558.50,1103.83 556.00,1103.41              553.03,1102.91 548.66,1102.40 546.10,1100.86              543.61,1099.37 540.22,1094.47 538.00,1092.00              538.46,1093.89 538.37,1098.99 539.12,1100.03              541.34,1098.44 539.28,1099.78 542.09,1097.91              542.09,1097.91 543.00,1107.00 543.00,1107.00              543.00,1107.00 535.38,1100.44 535.38,1100.44              537.94,1100.19 535.31,1100.41 537.84,1100.16              536.47,1091.62 537.47,1090.46 534.09,1090.06              530.25,1089.61 527.24,1097.52 521.53,1096.97              514.72,1096.31 514.85,1088.45 512.42,1086.93              509.94,1085.30 506.04,1089.53 503.03,1087.44              501.57,1086.31 500.03,1086.22 500.78,1083.84              503.00,1082.75 503.45,1080.72 503.12,1079.41              502.23,1077.03 498.40,1073.82 497.31,1070.55              496.34,1067.85 499.14,1063.97 499.04,1060.82              497.73,1061.33 496.39,1061.74 495.18,1062.22 Z"/>
</svg>