<svg xmlns:inkscape="http://www.inkscape.org/namespaces/inkscape" xmlns:sodipodi="http://sodipodi.sourceforge.net/DTD/sodipodi-0.dtd" xmlns="http://www.w3.org/2000/svg" xmlns:svg="http://www.w3.org/2000/svg" version="1.1" id="svg1" sodipodi:docname="lisboa.svg" inkscape:version="1.3.2 (091e20e, 2023-11-25, custom)" viewBox="499.94 1085.06 97.38 191.28">
  <defs id="defs1"/>
  <sodipodi:namedview id="namedview1" pagecolor="#ffffff" bordercolor="#999999" borderopacity="1" inkscape:showpageshadow="2" inkscape:pageopacity="0" inkscape:pagecheckerboard="0" inkscape:deskcolor="#d1d1d1" inkscape:document-units="in" inkscape:zoom="1.6768791" inkscape:cx="326.20121" inkscape:cy="244.8" inkscape:window-width="1920" inkscape:window-height="1017" inkscape:window-x="-8" inkscape:window-y="-8" inkscape:window-maximized="1" inkscape:current-layer="svg1"/>
  <path id="Lisboa" fill="none" stroke="black" stroke-width="1" d="M 559.67,1104.04            C 559.74,1104.01 566.49,1106.27 574.89,1102.73              574.89,1102.73 580.39,1132.00 580.39,1132.00              580.39,1132.00 590.61,1186.00 590.61,1186.00              590.61,1186.00 594.80,1208.00 594.80,1208.00              594.80,1208.00 596.81,1220.16 596.81,1220.16              597.12,1221.21 583.20,1234.25 583.09,1234.22              583.09,1234.22 579.81,1237.81 576.09,1241.38              571.97,1244.28 568.44,1245.97 565.38,1248.47              565.38,1248.47 555.69,1258.88 555.69,1258.88              554.87,1259.22 534.05,1275.21 534.56,1275.84              534.56,1275.84 536.11,1272.98 535.38,1269.78              533.82,1266.66 529.73,1261.52 529.97,1261.31              529.44,1258.47 530.31,1256.06 527.78,1254.34              526.16,1254.19 522.12,1254.94 520.03,1255.97              520.03,1255.97 519.53,1244.50 519.53,1244.50              519.53,1244.50 515.91,1245.97 515.91,1245.97              514.66,1240.85 512.74,1236.83 514.94,1232.69              515.78,1230.78 520.00,1228.69 519.88,1227.28              519.91,1225.22 517.88,1224.53 517.19,1222.72              516.41,1220.32 518.88,1219.09 519.84,1215.09              519.84,1215.09 518.62,1209.31 518.62,1209.31              518.22,1208.08 521.03,1205.56 521.72,1196.75              524.56,1181.09 522.51,1182.53 523.09,1175.00              523.31,1168.03 526.23,1167.08 525.82,1161.00              525.82,1161.00 523.82,1154.44 522.53,1148.16              521.97,1142.19 520.92,1137.00 520.92,1137.00              519.59,1133.69 516.56,1130.38 515.03,1127.56              515.03,1127.56 514.15,1121.00 514.15,1121.00              513.91,1119.03 510.62,1116.59 509.44,1113.38              509.19,1112.22 509.06,1107.09 507.79,1104.00              505.56,1098.28 502.74,1095.60 501.12,1089.97              500.76,1088.70 500.69,1087.18 500.44,1085.56              500.44,1085.56 502.15,1087.74 504.69,1088.03              507.59,1087.95 509.50,1086.56 511.47,1086.50              514.34,1087.69 513.91,1090.66 515.25,1092.25              517.07,1095.31 518.89,1096.66 520.70,1096.97              525.07,1097.47 527.59,1094.56 530.62,1091.72              533.16,1089.50 533.54,1090.50 535.00,1090.00              536.62,1091.34 536.75,1091.09 537.00,1094.03              537.44,1095.63 537.34,1097.38 537.78,1100.16              535.62,1100.31 537.75,1100.09 535.25,1100.44              535.25,1100.44 543.00,1107.00 543.00,1107.00              543.00,1107.00 542.24,1099.38 542.07,1097.89              541.13,1098.40 541.00,1098.60 541.00,1098.60              541.00,1098.60 541.00,1098.56 540.13,1099.24              539.20,1099.96 539.30,1099.69 539.18,1100.07              538.60,1099.83 538.00,1092.14 538.12,1092.19              538.12,1092.19 543.04,1098.18 543.04,1098.18              547.47,1102.56 546.96,1101.33 554.16,1103.20              556.58,1103.27 554.96,1103.44 559.67,1104.04 Z            M 542.20,1097.87"/>
</svg>