<svg xmlns="http://www.w3.org/2000/svg" viewBox="635.5 513.5 78.33 155.05">
  <path id="London Küste" fill="none" stroke="black" stroke-width="1" d="M 686.00,514.00            C 686.00,514.00 688.00,514.00 688.00,514.00              687.71,519.98 682.45,537.11 682.40,538.00              682.17,542.01 685.17,545.03 689.01,545.57              690.86,545.83 694.86,545.17 697.00,545.00              694.71,551.19 690.71,555.47 699.02,559.69              702.02,561.21 705.08,560.60 706.41,563.31              708.32,567.24 705.21,576.06 706.41,581.00              707.81,586.70 712.39,588.74 713.22,592.09              714.05,595.41 709.80,603.62 708.45,607.00              708.45,607.00 698.05,635.00 698.05,635.00              696.78,638.47 694.91,645.13 693.01,647.90              690.49,651.54 686.79,652.64 683.00,654.52              683.00,654.52 665.00,663.31 665.00,663.31              662.30,664.76 656.99,668.47 654.00,668.01              649.82,667.38 647.22,662.56 646.00,659.00              650.27,658.65 651.75,658.63 652.00,654.00              658.07,654.00 668.66,654.73 674.00,652.52              680.55,649.81 680.97,646.04 684.90,641.21              684.90,641.21 690.61,635.79 690.61,635.79              693.55,632.46 693.56,629.68 695.13,627.26              697.21,624.04 701.81,622.49 703.00,611.00              698.49,613.60 690.33,617.48 685.00,616.27              685.00,616.27 675.00,612.00 675.00,612.00              672.59,616.02 670.06,617.03 667.00,613.00              668.85,610.20 668.53,609.93 667.00,607.00              670.36,604.40 671.85,604.35 676.00,604.00              673.27,598.69 674.95,596.05 675.00,590.00              683.80,591.95 684.65,588.29 689.36,582.25              691.26,579.81 693.59,577.35 693.41,574.00              693.28,571.51 690.04,565.78 689.03,563.00              687.75,559.46 688.00,556.67 688.00,553.00              681.06,551.85 682.71,549.46 677.96,547.02              674.34,545.16 662.70,546.97 659.00,548.65              655.63,550.17 652.56,553.21 651.28,556.71              650.70,558.32 650.86,560.25 649.93,561.45              647.76,564.24 639.24,565.58 636.00,565.00              639.30,560.88 640.84,559.98 646.00,559.00              646.00,559.00 642.00,552.00 642.00,552.00              649.22,549.33 643.24,549.01 654.00,541.02              654.00,541.02 669.00,530.95 669.00,530.95              678.67,525.37 683.58,526.60 686.00,514.00 Z"/>
</svg>