<svg xmlns:inkscape="http://www.inkscape.org/namespaces/inkscape" xmlns:sodipodi="http://sodipodi.sourceforge.net/DTD/sodipodi-0.dtd" xmlns="http://www.w3.org/2000/svg" xmlns:svg="http://www.w3.org/2000/svg" version="1.1" id="svg1" sodipodi:docname="London.svg" inkscape:version="1.3.2 (091e20e, 2023-11-25, custom)" viewBox="621.49 544.5 81.01 114.49">
  <defs id="defs1"/>
  <sodipodi:namedview id="namedview1" pagecolor="#ffffff" bordercolor="#999999" borderopacity="1" inkscape:showpageshadow="2" inkscape:pageopacity="0" inkscape:pagecheckerboard="0" inkscape:deskcolor="#d1d1d1" inkscape:document-units="in" inkscape:zoom="1.6768791" inkscape:cx="326.20121" inkscape:cy="244.50182" inkscape:window-width="1346" inkscape:window-height="1040" inkscape:window-x="787" inkscape:window-y="96" inkscape:window-maximized="0" inkscape:current-layer="svg1"/>
  <path id="London" fill="none" stroke="black" stroke-width="1" d="M 653.00,657.00            C 650.51,657.81 646.58,659.14 644.01,658.11              641.55,657.12 639.72,654.06 638.11,652.03              634.23,647.17 629.59,643.52 628.34,637.00              627.69,633.65 628.41,630.69 627.06,626.00              625.11,619.18 621.53,618.08 622.04,608.00              622.35,601.98 624.31,602.17 624.79,589.00              624.79,589.00 623.37,573.00 623.37,573.00              623.19,562.35 628.67,565.80 633.07,559.62              634.66,557.38 634.64,554.47 635.70,552.00              638.48,545.54 642.04,545.42 648.00,545.00              648.00,545.00 646.00,551.00 646.00,551.00              646.00,551.00 642.00,551.00 642.00,551.00              642.00,551.00 645.00,559.00 645.00,559.00              639.94,560.38 637.58,561.87 636.00,567.00              636.00,567.00 648.56,561.73 648.56,561.73              648.56,561.73 653.30,553.62 653.30,553.62              653.30,553.62 658.17,549.45 658.17,549.45              658.17,549.45 674.99,546.20 674.99,546.20              674.99,546.20 688.00,553.00 688.00,553.00              688.02,559.22 688.53,562.14 690.83,568.00              692.19,571.46 694.36,573.97 692.95,577.90              692.32,579.66 684.62,588.26 682.87,588.96              679.95,590.13 676.73,589.05 675.02,591.40              672.67,594.63 674.63,600.76 676.00,604.00              676.00,604.00 667.00,605.00 667.00,605.00              667.01,607.53 666.68,612.52 668.74,614.30              671.26,616.48 674.20,613.30 678.00,613.68              678.00,613.68 686.00,616.43 686.00,616.43              689.99,617.05 698.37,613.83 702.00,612.00              701.74,623.45 698.79,621.95 695.00,628.04              695.00,628.04 691.28,635.79 691.28,635.79              691.28,635.79 685.61,641.21 685.61,641.21              682.20,645.18 681.47,649.71 675.98,651.99              672.46,653.46 656.54,654.00 652.00,654.00              652.00,654.00 653.00,657.00 653.00,657.00 Z"/>
</svg>