<svg xmlns:inkscape="http://www.inkscape.org/namespaces/inkscape" xmlns:sodipodi="http://sodipodi.sourceforge.net/DTD/sodipodi-0.dtd" xmlns="http://www.w3.org/2000/svg" xmlns:svg="http://www.w3.org/2000/svg" version="1.1" id="svg1" sodipodi:docname="lyon.svg" inkscape:version="1.3.2 (091e20e, 2023-11-25, custom)" viewBox="781.5 788.98 185 69.52">
  <defs id="defs1"/>
  <sodipodi:namedview id="namedview1" pagecolor="#ffffff" bordercolor="#999999" borderopacity="1" inkscape:showpageshadow="2" inkscape:pageopacity="0" inkscape:pagecheckerboard="0" inkscape:deskcolor="#d1d1d1" inkscape:document-units="in" inkscape:zoom="1.6768791" inkscape:cx="326.20121" inkscape:cy="244.8" inkscape:window-width="1920" inkscape:window-height="1017" inkscape:window-x="-8" inkscape:window-y="-8" inkscape:window-maximized="1" inkscape:current-layer="svg1"/>
  <path id="Lyon" fill="none" stroke="black" stroke-width="1" d="M 782.00,836.00            C 782.00,836.00 800.22,834.57 800.22,834.57              800.22,834.57 806.78,834.00 806.78,834.00              808.72,835.18 821.66,830.88 821.83,829.83              826.82,828.67 828.33,830.97 835.26,826.91              842.76,824.18 848.73,823.21 855.22,818.39              862.76,814.41 861.98,811.10 870.22,806.61              873.35,804.94 875.70,804.47 878.87,803.39              878.87,803.39 886.52,800.57 886.52,800.57              896.22,798.45 905.77,796.26 915.00,793.73              920.98,792.80 934.99,787.63 939.96,790.18              944.35,792.43 945.81,797.26 948.48,801.00              948.48,801.00 954.25,808.00 954.25,808.00              958.23,812.76 964.09,817.46 966.00,823.00              966.00,823.00 959.04,822.22 959.04,822.22              957.85,822.51 958.20,831.44 960.00,831.00              954.45,832.65 951.60,832.38 947.27,837.17              944.07,840.72 944.38,843.94 940.87,845.40              933.63,848.41 932.52,839.45 926.00,847.14              912.68,845.24 917.90,847.11 912.00,847.14              909.08,847.36 907.61,845.81 905.00,845.95              899.58,846.24 903.62,848.27 894.00,846.97              885.05,844.97 889.03,852.71 887.00,858.00              887.00,858.00 878.21,856.90 876.04,856.57              876.04,856.57 854.00,852.46 854.00,852.46              854.00,852.46 846.17,852.07 846.17,852.07              846.59,852.90 839.70,855.04 837.30,853.68              834.91,854.52 829.04,852.00 829.13,851.45              829.13,851.45 813.00,851.11 813.00,851.11              813.66,852.87 786.83,854.53 786.65,854.04              786.65,854.04 782.00,836.00 782.00,836.00 Z            M 854.00,837.00            C 854.00,837.00 853.00,837.00 853.00,837.00              853.00,837.00 854.00,838.00 854.00,838.00              854.00,838.00 854.00,837.00 854.00,837.00 Z"/>
</svg>