<svg xmlns:inkscape="http://www.inkscape.org/namespaces/inkscape" xmlns:sodipodi="http://sodipodi.sourceforge.net/DTD/sodipodi-0.dtd" xmlns="http://www.w3.org/2000/svg" xmlns:svg="http://www.w3.org/2000/svg" version="1.1" id="svg1" sodipodi:docname="marseille_coast.svg" inkscape:version="1.3.2 (091e20e, 2023-11-25, custom)" viewBox="892.53 905.12 90.88 65">
  <defs id="defs1"/>
  <sodipodi:namedview id="namedview1" pagecolor="#ffffff" bordercolor="#999999" borderopacity="1" inkscape:showpageshadow="2" inkscape:pageopacity="0" inkscape:pagecheckerboard="0" inkscape:deskcolor="#d1d1d1" inkscape:document-units="in" inkscape:zoom="1.6768791" inkscape:cx="326.20121" inkscape:cy="244.8" inkscape:window-width="1920" inkscape:window-height="1017" inkscape:window-x="-8" inkscape:window-y="-8" inkscape:window-maximized="1" inkscape:current-layer="svg1"/>
  <path id="Marseille Küste" fill="none" stroke="black" stroke-width="1" d="M 935.84,930.76            C 940.78,923.74 941.27,926.16 944.87,919.91              945.06,918.41 947.60,913.91 949.91,912.73              951.21,911.69 958.00,910.73 958.00,910.73              962.06,908.91 964.08,905.49 967.13,905.62              971.03,905.79 980.34,913.99 982.91,917.02              978.57,921.14 977.65,923.11 972.91,919.02              972.91,919.02 975.82,917.31 975.82,917.31              975.82,917.31 964.00,912.00 964.00,912.00              964.00,912.00 969.12,923.59 969.12,923.59              974.37,918.47 975.97,923.85 971.48,928.09              967.15,932.36 965.17,935.36 959.00,935.37              945.93,934.75 937.76,946.08 932.72,951.78              928.93,954.74 927.37,953.73 924.13,954.21              915.91,952.89 914.96,963.50 915.81,969.62              907.62,964.81 920.07,952.67 911.61,946.54              902.05,941.18 896.63,956.12 893.74,942.52              893.34,937.62 891.82,931.55 895.02,927.60              896.88,925.30 905.07,925.96 908.00,926.00              915.64,926.13 916.93,928.53 924.00,930.36              924.00,930.36 935.84,930.76 935.84,930.76 Z"/>
</svg>