<svg xmlns:inkscape="http://www.inkscape.org/namespaces/inkscape" xmlns:sodipodi="http://sodipodi.sourceforge.net/DTD/sodipodi-0.dtd" xmlns="http://www.w3.org/2000/svg" xmlns:svg="http://www.w3.org/2000/svg" version="1.1" id="svg1" sodipodi:docname="marseille.svg" inkscape:version="1.3.2 (091e20e, 2023-11-25, custom)" viewBox="888.16 844.03 80.34 86.62">
  <defs id="defs1"/>
  <sodipodi:namedview id="namedview1" pagecolor="#ffffff" bordercolor="#999999" borderopacity="1" inkscape:showpageshadow="2" inkscape:pageopacity="0" inkscape:pagecheckerboard="0" inkscape:deskcolor="#d1d1d1" inkscape:document-units="in" inkscape:zoom="1.6768791" inkscape:cx="326.20121" inkscape:cy="244.8" inkscape:window-width="1920" inkscape:window-height="1017" inkscape:window-x="-8" inkscape:window-y="-8" inkscape:window-maximized="1" inkscape:current-layer="svg1"/>
  <path id="Marseille" fill="none" stroke="black" stroke-width="1" d="M 895.31,925.00            C 895.31,925.00 893.59,915.03 893.59,915.03              893.59,915.03 891.50,888.97 891.50,888.97              891.50,888.97 889.19,873.31 889.19,873.31              889.19,873.31 888.66,855.06 888.66,855.06              888.66,855.06 889.66,848.62 889.66,848.62              890.09,847.15 897.61,847.71 897.38,848.53              897.38,848.53 905.50,846.81 905.50,846.81              905.77,846.60 908.81,846.94 911.06,847.97              911.06,847.97 918.41,847.25 918.41,847.25              918.57,846.94 925.02,847.97 924.79,848.41              924.42,848.50 930.07,844.70 930.75,844.53              930.62,845.22 941.89,848.56 942.00,848.00              942.00,848.00 944.99,858.00 944.99,858.00              944.99,858.00 946.00,869.00 946.00,869.00              946.65,868.67 951.54,869.05 951.08,869.28              951.43,871.25 947.89,872.39 947.82,872.00              945.87,877.11 944.88,889.63 949.29,891.98              950.69,893.00 956.80,892.03 959.66,892.84              959.66,892.84 959.47,894.91 959.47,894.91              959.47,894.91 964.59,898.88 964.59,898.88              964.59,898.88 968.00,903.00 968.00,903.00              965.06,905.10 960.96,909.13 958.00,910.26              954.28,911.69 951.67,909.97 947.48,913.86              944.04,917.06 944.49,919.28 943.00,921.83              941.19,923.84 937.00,928.88 934.87,929.69              928.17,931.55 921.15,927.32 915.00,925.63              911.32,924.62 899.73,925.00 895.31,925.00 Z            M 951.03,869.89"/>
</svg>