<svg xmlns:inkscape="http://www.inkscape.org/namespaces/inkscape" xmlns:sodipodi="http://sodipodi.sourceforge.net/DTD/sodipodi-0.dtd" xmlns="http://www.w3.org/2000/svg" xmlns:svg="http://www.w3.org/2000/svg" version="1.1" id="svg1" sodipodi:docname="mauritanien.svg" inkscape:version="1.3.2 (091e20e, 2023-11-25, custom)" viewBox="475.4 1340.5 90.22 48.11">
  <defs id="defs1"/>
  <sodipodi:namedview id="namedview1" pagecolor="#ffffff" bordercolor="#999999" borderopacity="1" inkscape:showpageshadow="2" inkscape:pageopacity="0" inkscape:pagecheckerboard="0" inkscape:deskcolor="#d1d1d1" inkscape:document-units="in" inkscape:zoom="1.7238562" inkscape:cx="326.30331" inkscape:cy="244.8" inkscape:window-width="1920" inkscape:window-height="1017" inkscape:window-x="-8" inkscape:window-y="-8" inkscape:window-maximized="1" inkscape:current-layer="svg1"/>
  <path id="Mauritanien" fill="none" stroke="black" stroke-width="1" d="M 495.96,1341.00            C 496.27,1340.99 496.70,1342.04 497.02,1342.02              503.76,1341.96 511.78,1342.02 511.78,1342.02              525.49,1341.93 535.84,1342.04 547.42,1341.98              549.31,1341.98 550.31,1341.92 551.96,1342.00              551.98,1342.09 552.24,1342.90 552.25,1342.99              552.42,1343.21 552.77,1343.74 553.66,1343.95              554.31,1344.09 554.61,1344.04 555.24,1344.05              556.39,1344.08 557.29,1343.91 558.68,1344.61              559.64,1345.22 560.44,1346.01 561.13,1347.28              561.78,1348.24 561.81,1348.68 563.11,1350.10              565.69,1356.18 565.07,1367.68 565.00,1373.09              564.95,1376.87 563.81,1381.42 560.58,1383.99              556.26,1388.85 546.82,1388.13 540.91,1388.00              540.91,1388.00 493.52,1388.00 493.52,1388.00              482.81,1388.27 475.89,1384.75 475.91,1372.91              475.90,1369.72 475.83,1363.35 476.13,1357.35              476.34,1352.34 476.58,1346.15 478.09,1344.31              478.81,1343.94 479.52,1343.64 480.21,1343.40              484.03,1342.78 485.94,1342.41 488.31,1342.19              488.31,1342.19 491.82,1341.60 495.96,1341.00 Z"/>
</svg>