<svg xmlns:inkscape="http://www.inkscape.org/namespaces/inkscape" xmlns:sodipodi="http://sodipodi.sourceforge.net/DTD/sodipodi-0.dtd" xmlns="http://www.w3.org/2000/svg" xmlns:svg="http://www.w3.org/2000/svg" version="1.1" id="svg1" sodipodi:docname="milano.svg" inkscape:version="1.3.2 (091e20e, 2023-11-25, custom)" viewBox="940.5 765.5 92.66 64.07">
  <defs id="defs1"/>
  <sodipodi:namedview id="namedview1" pagecolor="#ffffff" bordercolor="#999999" borderopacity="1" inkscape:showpageshadow="2" inkscape:pageopacity="0" inkscape:pagecheckerboard="0" inkscape:deskcolor="#d1d1d1" inkscape:document-units="in" inkscape:zoom="1.6768791" inkscape:cx="326.20121" inkscape:cy="244.8" inkscape:window-width="1920" inkscape:window-height="1017" inkscape:window-x="-8" inkscape:window-y="-8" inkscape:window-maximized="1" inkscape:current-layer="svg1"/>
  <path id="Milano" fill="none" stroke="black" stroke-width="1" d="M 961.00,766.00            C 961.00,766.00 964.00,767.00 964.00,767.00              962.27,772.74 961.75,774.97 957.00,779.00              957.00,779.00 955.22,775.66 955.22,775.66              955.22,775.66 952.09,788.22 952.09,788.22              951.63,787.89 957.69,782.74 960.09,784.22              956.55,777.00 965.29,777.12 966.00,767.00              966.00,767.00 974.00,768.48 974.00,768.48              979.57,770.05 978.03,770.90 985.00,771.00              985.00,771.00 1004.00,770.13 1004.00,770.13              1007.60,770.57 1008.80,771.80 1012.00,772.59              1013.87,773.06 1015.94,772.99 1017.67,773.93              1020.99,775.75 1022.70,785.06 1024.19,789.00              1024.19,789.00 1030.94,807.00 1030.94,807.00              1031.80,809.30 1033.30,813.34 1032.36,815.73              1031.76,817.27 1022.67,824.15 1021.00,824.98              1018.53,826.21 1016.52,825.81 1014.00,826.41              1014.00,826.41 1008.00,828.33 1008.00,828.33              1004.63,829.37 994.28,829.25 991.00,828.33              986.68,826.70 983.90,823.54 980.00,822.00              975.06,820.06 970.65,821.95 967.59,820.01              967.59,820.01 957.92,809.99 957.92,809.99              951.89,802.94 946.16,795.71 941.00,788.00              947.91,785.22 946.63,783.39 950.72,778.46              955.65,772.51 955.43,775.03 961.00,766.00 Z"/>
</svg>