<svg xmlns:inkscape="http://www.inkscape.org/namespaces/inkscape" xmlns:sodipodi="http://sodipodi.sourceforge.net/DTD/sodipodi-0.dtd" xmlns="http://www.w3.org/2000/svg" xmlns:svg="http://www.w3.org/2000/svg" version="1.1" id="svg1" sodipodi:docname="montpellier.svg" inkscape:version="1.3.2 (091e20e, 2023-11-25, custom)" viewBox="787.35 851.49 107.15 99.01">
  <defs id="defs1"/>
  <sodipodi:namedview id="namedview1" pagecolor="#ffffff" bordercolor="#999999" borderopacity="1" inkscape:showpageshadow="2" inkscape:pageopacity="0" inkscape:pagecheckerboard="0" inkscape:deskcolor="#d1d1d1" inkscape:document-units="in" inkscape:zoom="1.6768791" inkscape:cx="326.20121" inkscape:cy="244.8" inkscape:window-width="1920" inkscape:window-height="1017" inkscape:window-x="-8" inkscape:window-y="-8" inkscape:window-maximized="1" inkscape:current-layer="svg1"/>
  <path id="Montpellier" fill="none" stroke="black" stroke-width="1" d="M 788.00,855.00            C 797.22,853.35 797.77,854.53 805.00,853.83              812.71,853.08 813.94,851.90 823.00,852.00              831.92,852.11 831.67,854.37 837.00,854.86              841.67,855.28 844.69,853.29 849.00,853.13              849.00,853.13 864.00,855.08 864.00,855.08              864.00,855.08 879.00,857.92 879.00,857.92              881.78,858.17 885.19,857.97 887.01,860.57              888.24,862.33 888.00,865.89 888.00,868.00              888.00,868.00 888.00,873.00 888.00,873.00              888.11,879.65 889.31,879.15 889.87,884.00              889.87,884.00 892.10,914.00 892.10,914.00              892.10,914.00 894.00,924.00 894.00,924.00              894.00,924.00 886.28,923.26 886.28,923.26              881.59,924.00 880.91,928.81 871.00,926.00              871.00,926.00 872.00,933.00 872.00,933.00              872.00,933.00 865.31,933.62 865.31,933.62              865.31,933.62 865.00,925.00 865.00,925.00              865.00,925.00 860.00,926.00 860.00,926.00              860.00,926.00 860.00,936.00 860.00,936.00              855.46,937.27 856.25,934.35 856.00,930.00              856.00,930.00 852.00,930.00 852.00,930.00              852.00,930.00 854.00,943.00 854.00,943.00              848.36,940.12 843.54,941.61 837.46,946.21              837.46,946.21 832.00,950.00 832.00,950.00              830.39,944.50 825.29,938.62 820.00,936.23              816.15,934.48 813.81,935.98 811.50,933.88              808.73,931.35 807.23,927.68 806.91,924.16              814.00,922.41 825.56,915.07 825.60,920.18              825.60,920.18 830.62,908.78 830.62,908.78              830.09,907.93 812.58,917.04 813.91,919.56              813.91,919.56 805.58,921.98 805.58,921.98              805.58,921.98 802.00,912.16 802.00,912.16              802.00,912.16 796.60,907.02 796.60,907.02              793.02,904.07 795.00,896.43 794.18,892.02              793.47,892.10 786.76,855.14 788.00,855.00 Z"/>
</svg>