<svg xmlns:inkscape="http://www.inkscape.org/namespaces/inkscape" xmlns:sodipodi="http://sodipodi.sourceforge.net/DTD/sodipodi-0.dtd" xmlns="http://www.w3.org/2000/svg" xmlns:svg="http://www.w3.org/2000/svg" version="1.1" id="svg1" sodipodi:docname="napoli_coast_south.svg" inkscape:version="1.3.2 (091e20e, 2023-11-25, custom)" viewBox="1110.94 971 113.56 71.5">
  <defs id="defs1"/>
  <sodipodi:namedview id="namedview1" pagecolor="#ffffff" bordercolor="#999999" borderopacity="1" inkscape:showpageshadow="2" inkscape:pageopacity="0" inkscape:pagecheckerboard="0" inkscape:deskcolor="#d1d1d1" inkscape:document-units="in" inkscape:zoom="1.6768791" inkscape:cx="326.20121" inkscape:cy="244.8" inkscape:window-width="1920" inkscape:window-height="1017" inkscape:window-x="-8" inkscape:window-y="-8" inkscape:window-maximized="1" inkscape:current-layer="svg1"/>
  <path id="Napoli Küste Süd" fill="none" stroke="black" stroke-width="1" d="M 1117.75,985.94            C 1122.13,983.38 1131.03,973.26 1133.88,971.50              1138.57,972.18 1142.57,975.86 1145.12,975.50              1147.19,975.21 1150.39,972.10 1153.44,972.94              1157.90,974.17 1155.63,981.92 1160.14,983.10              1162.65,983.76 1166.75,981.09 1172.56,981.50              1178.41,981.91 1182.55,985.98 1187.00,989.51              1197.47,997.82 1197.16,1000.11 1200.50,1003.62              1202.44,1007.68 1211.30,1012.85 1213.69,1011.62              1216.73,1012.36 1220.84,1012.42 1224.00,1012.00              1224.00,1012.00 1212.00,1027.68 1212.00,1027.68              1212.00,1027.68 1204.31,1033.25 1204.31,1033.25              1204.37,1033.83 1197.10,1041.93 1197.00,1040.94              1195.83,1041.52 1188.85,1039.95 1189.25,1039.75              1189.25,1039.75 1181.00,1042.00 1181.00,1042.00              1181.20,1039.26 1182.29,1036.84 1184.62,1034.94              1186.77,1033.19 1193.36,1032.86 1192.94,1028.44              1192.59,1024.83 1185.33,1017.58 1181.69,1018.00              1178.98,1018.32 1175.53,1020.93 1172.69,1019.75              1169.68,1018.50 1171.20,1015.07 1169.94,1011.81              1168.52,1008.13 1164.43,1004.20 1160.56,1003.31              1154.39,1001.90 1149.15,1008.48 1143.50,1007.81              1139.11,1007.29 1136.96,1002.99 1132.81,1004.12              1128.44,1005.32 1127.70,1010.93 1126.06,1012.69              1122.25,1016.77 1114.19,1012.19 1111.44,1009.12              1120.01,1008.93 1118.76,1006.93 1123.00,1004.31              1123.99,1003.76 1139.20,999.20 1130.69,991.19              1129.63,990.19 1127.67,989.09 1126.38,988.44              1124.17,987.32 1120.12,986.38 1117.75,985.94 Z"/>
</svg>