<svg xmlns:inkscape="http://www.inkscape.org/namespaces/inkscape" xmlns:sodipodi="http://sodipodi.sourceforge.net/DTD/sodipodi-0.dtd" xmlns="http://www.w3.org/2000/svg" xmlns:svg="http://www.w3.org/2000/svg" version="1.1" id="svg1" sodipodi:docname="napoli.svg" inkscape:version="1.3.2 (091e20e, 2023-11-25, custom)" viewBox="1133.87 914.72 94.04 97.25">
  <defs id="defs1"/>
  <sodipodi:namedview id="namedview1" pagecolor="#ffffff" bordercolor="#999999" borderopacity="1" inkscape:showpageshadow="2" inkscape:pageopacity="0" inkscape:pagecheckerboard="0" inkscape:deskcolor="#d1d1d1" inkscape:document-units="in" inkscape:zoom="1.6768791" inkscape:cx="326.20121" inkscape:cy="244.8" inkscape:window-width="1920" inkscape:window-height="1017" inkscape:window-x="-8" inkscape:window-y="-8" inkscape:window-maximized="1" inkscape:current-layer="svg1"/>
  <path id="Napoli" fill="none" stroke="black" stroke-width="1" d="M 1166.53,915.22            C 1165.90,915.62 1175.19,924.65 1176.00,924.12              1175.73,924.58 1192.07,924.04 1192.22,923.78              1191.80,924.51 1206.09,927.59 1207.00,926.00              1207.00,926.00 1207.00,941.00 1207.00,941.00              1207.00,941.00 1210.00,941.00 1210.00,941.00              1209.93,949.16 1210.44,947.99 1214.05,954.00              1215.74,962.49 1217.48,964.44 1227.41,962.94              1226.73,967.92 1223.48,968.80 1221.85,973.00              1219.85,977.25 1220.29,978.06 1219.29,982.00              1217.95,987.32 1215.74,990.15 1224.00,993.00              1224.00,993.00 1224.00,997.00 1224.00,997.00              1219.05,995.10 1206.43,987.67 1214.53,985.34              1214.53,985.34 1204.00,980.00 1204.00,980.00              1204.00,980.00 1208.34,991.19 1208.34,991.19              1210.33,986.76 1213.86,992.63 1216.00,994.68              1221.58,999.17 1225.64,998.66 1224.94,1006.98              1224.82,1008.41 1224.67,1010.02 1223.40,1010.94              1221.42,1012.37 1209.61,1010.59 1207.47,1009.19              1196.14,999.52 1196.12,992.45 1179.19,983.30              1175.82,981.29 1173.17,980.44 1169.22,980.94              1166.26,981.31 1162.99,983.36 1160.06,981.94              1156.80,980.35 1156.95,974.30 1155.78,972.84              1151.27,968.23 1147.35,978.30 1140.25,973.19              1137.93,972.38 1133.40,971.99 1134.56,968.91              1135.68,965.93 1145.52,957.85 1148.16,954.19              1150.64,950.73 1149.80,948.59 1152.28,946.53              1156.59,943.06 1155.72,944.81 1160.78,942.12              1160.78,942.12 1159.00,939.00 1159.00,939.00              1159.00,939.00 1159.00,936.16 1159.00,936.16              1164.40,934.34 1164.47,936.47 1166.84,930.34              1166.84,930.34 1160.28,930.38 1160.28,930.38              1158.88,930.36 1164.16,915.19 1166.53,915.22 Z"/>
</svg>