<svg xmlns:inkscape="http://www.inkscape.org/namespaces/inkscape" xmlns:sodipodi="http://sodipodi.sourceforge.net/DTD/sodipodi-0.dtd" xmlns="http://www.w3.org/2000/svg" xmlns:svg="http://www.w3.org/2000/svg" version="1.1" id="svg1" sodipodi:docname="napoli_coast_north.svg" inkscape:version="1.3.2 (091e20e, 2023-11-25, custom)" viewBox="1167.64 876.5 41.03 49.68">
  <defs id="defs1"/>
  <sodipodi:namedview id="namedview1" pagecolor="#ffffff" bordercolor="#999999" borderopacity="1" inkscape:showpageshadow="2" inkscape:pageopacity="0" inkscape:pagecheckerboard="0" inkscape:deskcolor="#d1d1d1" inkscape:document-units="in" inkscape:zoom="1.6768791" inkscape:cx="326.20121" inkscape:cy="244.8" inkscape:window-width="1920" inkscape:window-height="1017" inkscape:window-x="-8" inkscape:window-y="-8" inkscape:window-maximized="1" inkscape:current-layer="svg1"/>
  <path id="Napoli Küste Nord" fill="none" stroke="black" stroke-width="1" d="M 1179.00,877.00            C 1191.73,879.71 1187.31,889.29 1192.01,895.74              1193.95,898.40 1197.34,899.55 1199.91,901.61              1202.66,903.82 1205.38,907.77 1206.78,911.00              1208.56,915.12 1209.53,923.91 1203.94,925.41              1199.56,926.59 1197.31,923.58 1193.00,923.18              1186.41,922.57 1176.99,927.39 1171.32,919.89              1170.55,918.89 1168.56,916.27 1168.26,915.04              1167.52,912.01 1170.34,909.89 1171.87,907.48              1175.41,901.93 1176.91,896.77 1184.00,899.00              1185.19,886.75 1180.28,886.39 1179.00,877.00 Z"/>
</svg>