<svg xmlns:inkscape="http://www.inkscape.org/namespaces/inkscape" xmlns:sodipodi="http://sodipodi.sourceforge.net/DTD/sodipodi-0.dtd" xmlns="http://www.w3.org/2000/svg" xmlns:svg="http://www.w3.org/2000/svg" version="1.1" id="svg1" sodipodi:docname="palermo_coast.svg" inkscape:version="1.3.2 (091e20e, 2023-11-25, custom)" viewBox="1130.02 1075.56 128.39 152.16">
  <defs id="defs1"/>
  <sodipodi:namedview id="namedview1" pagecolor="#ffffff" bordercolor="#999999" borderopacity="1" inkscape:showpageshadow="2" inkscape:pageopacity="0" inkscape:pagecheckerboard="0" inkscape:deskcolor="#d1d1d1" inkscape:document-units="in" inkscape:zoom="1.6768791" inkscape:cx="326.20121" inkscape:cy="244.8" inkscape:window-width="1920" inkscape:window-height="1017" inkscape:window-x="-8" inkscape:window-y="-8" inkscape:window-maximized="1" inkscape:current-layer="svg1"/>
  <path id="Palermo Küste" fill="none" stroke="black" stroke-width="1" d="M 1176.13,1077.22            C 1181.22,1078.55 1183.59,1081.17 1188.91,1080.04              1193.58,1079.13 1197.44,1075.53 1200.87,1076.13              1204.68,1076.80 1206.55,1083.21 1210.74,1086.39              1215.17,1089.75 1219.18,1087.23 1224.22,1087.00              1223.57,1087.02 1228.52,1094.26 1229.70,1094.96              1226.26,1096.50 1222.30,1101.57 1222.04,1095.35              1222.04,1095.35 1217.00,1107.00 1217.00,1107.00              1219.67,1105.69 1224.35,1101.17 1229.30,1102.57              1223.87,1099.30 1227.01,1098.37 1229.09,1098.05              1232.43,1097.54 1237.38,1104.82 1239.34,1107.28              1241.35,1109.80 1246.70,1117.52 1248.52,1119.52              1249.26,1123.22 1246.01,1125.73 1246.70,1130.91              1247.33,1135.75 1249.97,1138.46 1252.83,1142.04              1250.95,1142.19 1249.97,1142.22 1248.22,1143.13              1246.22,1144.17 1244.57,1146.04 1243.65,1148.09              1240.04,1156.12 1248.84,1162.74 1253.91,1167.17              1251.99,1167.78 1250.34,1168.03 1248.74,1169.09              1240.91,1173.82 1243.08,1183.41 1248.57,1188.78              1248.57,1188.78 1255.48,1193.96 1255.48,1193.96              1256.84,1195.74 1257.61,1198.59 1257.91,1200.78              1256.18,1200.05 1252.63,1197.78 1250.96,1197.48              1248.71,1197.08 1246.39,1197.71 1244.39,1198.78              1237.10,1202.69 1236.97,1209.56 1239.91,1216.30              1241.13,1219.09 1244.22,1224.11 1241.00,1226.43              1239.00,1228.14 1236.16,1226.67 1234.09,1226.00              1228.68,1223.67 1225.38,1221.32 1219.04,1220.78              1211.79,1220.17 1203.25,1225.95 1199.22,1222.83              1195.06,1219.61 1200.21,1215.26 1201.61,1212.13              1203.15,1208.67 1202.22,1205.89 1200.35,1202.74              1195.44,1194.48 1190.16,1194.92 1185.48,1192.13              1181.46,1189.73 1180.59,1186.39 1177.35,1183.74              1174.07,1181.06 1172.01,1181.70 1170.09,1180.30              1168.34,1179.04 1167.12,1175.59 1166.13,1173.61              1166.13,1173.61 1154.61,1149.96 1154.61,1149.96              1154.61,1149.96 1147.22,1138.96 1147.22,1138.96              1144.60,1134.15 1146.26,1130.39 1144.17,1126.35              1141.93,1122.00 1137.50,1121.60 1133.30,1119.96              1138.30,1114.17 1140.84,1117.89 1146.09,1114.17              1146.95,1113.56 1147.49,1112.98 1148.13,1112.13              1155.48,1098.91 1135.22,1098.30 1130.52,1097.04              1130.52,1097.04 1146.09,1095.78 1146.09,1095.78              1146.09,1095.78 1156.09,1084.17 1156.09,1084.17              1154.02,1097.46 1166.17,1103.59 1174.96,1091.87              1176.39,1088.78 1176.58,1082.76 1176.13,1077.22 Z            M 1231.43,1107.74            C 1225.99,1104.94 1219.10,1108.45 1213.83,1111.09              1211.37,1112.32 1210.61,1113.70 1206.22,1113.74              1206.22,1113.74 1190.09,1111.09 1190.09,1111.09              1185.53,1111.34 1184.38,1115.10 1178.48,1113.70              1175.26,1112.93 1164.66,1105.81 1159.00,1107.12              1155.71,1107.88 1151.62,1113.57 1151.83,1117.09              1151.83,1117.09 1154.04,1123.87 1154.04,1123.87              1154.58,1126.73 1152.73,1129.10 1154.74,1131.85              1157.66,1135.85 1162.63,1133.52 1166.61,1135.70              1167.39,1136.45 1178.17,1143.41 1178.17,1143.41              1178.17,1143.41 1189.78,1145.30 1189.78,1145.30              1189.78,1145.30 1198.00,1151.84 1198.00,1151.84              1201.88,1153.63 1204.97,1151.85 1207.74,1152.35              1211.15,1152.96 1216.09,1158.64 1217.70,1161.57              1222.86,1162.31 1228.31,1167.75 1230.86,1167.68              1233.65,1167.60 1234.29,1164.14 1234.74,1162.00              1236.59,1153.03 1234.87,1152.85 1235.26,1148.78              1235.26,1148.78 1236.35,1141.48 1236.35,1141.48              1224.00,1141.04 1229.00,1135.83 1230.43,1130.26              1229.17,1128.96 1222.91,1130.52 1224.96,1128.09              1224.80,1126.75 1235.47,1110.99 1227.39,1112.78              1230.04,1111.09 1232.52,1110.25 1231.43,1107.74 Z            M 1227.00,1112.00            C 1227.00,1112.00 1227.04,1111.96 1227.04,1111.96              1227.04,1111.96 1227.09,1112.00 1227.09,1112.00              1227.09,1112.00 1227.00,1112.00 1227.00,1112.00 Z            M 1173.00,1121.00            C 1173.00,1121.00 1173.04,1121.00 1173.04,1121.00              1173.04,1121.00 1173.13,1121.00 1173.13,1121.00              1173.13,1121.00 1173.00,1121.00 1173.00,1121.00 Z            M 1175.00,1139.00            C 1175.00,1139.00 1174.96,1139.00 1174.96,1139.00              1174.96,1139.00 1174.96,1139.00 1174.96,1139.00              1174.96,1139.00 1175.00,1139.00 1175.00,1139.00 Z            M 1229.00,1194.00            C 1226.39,1194.52 1221.58,1196.29 1218.00,1192.70              1205.28,1201.58 1209.53,1204.43 1210.26,1205.09              1220.31,1207.25 1230.59,1205.96 1229.00,1194.00 Z"/>
</svg>