<svg xmlns:inkscape="http://www.inkscape.org/namespaces/inkscape" xmlns:sodipodi="http://sodipodi.sourceforge.net/DTD/sodipodi-0.dtd" xmlns="http://www.w3.org/2000/svg" xmlns:svg="http://www.w3.org/2000/svg" version="1.1" id="svg1" sodipodi:docname="palermo.svg" inkscape:version="1.3.2 (091e20e, 2023-11-25, custom)" viewBox="1151.87 1106.75 84.63 99.51">
  <defs id="defs1"/>
  <sodipodi:namedview id="namedview1" pagecolor="#ffffff" bordercolor="#999999" borderopacity="1" inkscape:showpageshadow="2" inkscape:pageopacity="0" inkscape:pagecheckerboard="0" inkscape:deskcolor="#d1d1d1" inkscape:document-units="in" inkscape:zoom="1.6768791" inkscape:cx="326.20121" inkscape:cy="244.8" inkscape:window-width="1920" inkscape:window-height="1017" inkscape:window-x="-8" inkscape:window-y="-8" inkscape:window-maximized="1" inkscape:current-layer="svg1"/>
  <path id="Palermo" fill="none" stroke="black" stroke-width="1" d="M 1168.00,1109.00            C 1173.98,1112.76 1177.71,1114.96 1182.99,1114.07              1186.51,1113.43 1187.38,1111.35 1191.09,1111.58              1195.75,1111.87 1205.23,1115.03 1210.00,1113.59              1213.73,1112.46 1221.00,1105.38 1231.00,1108.00              1231.00,1108.00 1231.00,1110.00 1231.00,1110.00              1231.00,1110.00 1227.00,1113.00 1227.00,1113.00              1227.00,1113.00 1230.00,1114.00 1230.00,1114.00              1230.00,1114.00 1226.00,1125.00 1226.00,1125.00              1222.75,1128.68 1224.03,1131.42 1229.00,1130.00              1229.00,1130.00 1230.00,1131.00 1230.00,1131.00              1225.99,1138.37 1227.28,1141.70 1236.00,1142.00              1236.00,1142.00 1234.51,1149.00 1234.51,1149.00              1234.51,1149.00 1235.17,1153.00 1235.17,1153.00              1235.67,1157.15 1233.91,1165.05 1231.00,1168.00              1223.11,1160.74 1222.99,1164.19 1218.09,1160.49              1214.99,1158.15 1212.51,1153.65 1209.00,1152.11              1205.57,1150.62 1203.00,1152.88 1199.00,1150.98              1196.12,1149.61 1193.65,1146.33 1190.00,1144.85              1186.59,1143.47 1182.79,1144.51 1177.00,1142.05              1171.51,1139.71 1169.97,1136.72 1166.91,1135.16              1163.14,1133.24 1159.34,1134.78 1156.51,1132.26              1153.33,1129.43 1155.07,1125.58 1154.73,1123.58              1154.73,1123.58 1152.41,1118.00 1152.41,1118.00              1151.90,1114.73 1156.12,1110.67 1158.00,1108.00              1158.00,1108.00 1161.75,1107.25 1161.75,1107.25              1161.75,1107.25 1168.00,1109.00 1168.00,1109.00 Z            M 1218.00,1193.00            C 1223.44,1195.88 1223.20,1195.44 1229.00,1194.00              1228.83,1200.79 1228.31,1204.12 1221.00,1205.41              1217.98,1205.93 1208.30,1206.67 1209.74,1201.05              1210.33,1198.76 1216.01,1194.79 1218.00,1193.00 Z"/>
</svg>