<svg xmlns:inkscape="http://www.inkscape.org/namespaces/inkscape" xmlns:sodipodi="http://sodipodi.sourceforge.net/DTD/sodipodi-0.dtd" xmlns="http://www.w3.org/2000/svg" xmlns:svg="http://www.w3.org/2000/svg" version="1.1" id="svg1" sodipodi:docname="palma_coast.svg" inkscape:version="1.3.2 (091e20e, 2023-11-25, custom)" viewBox="804.92 1093.57 78.58 93.15">
  <defs id="defs1"/>
  <sodipodi:namedview id="namedview1" pagecolor="#ffffff" bordercolor="#999999" borderopacity="1" inkscape:showpageshadow="2" inkscape:pageopacity="0" inkscape:pagecheckerboard="0" inkscape:deskcolor="#d1d1d1" inkscape:document-units="in" inkscape:zoom="19.503207" inkscape:cx="264.26424" inkscape:cy="362.11994" inkscape:window-width="1920" inkscape:window-height="1017" inkscape:window-x="-8" inkscape:window-y="-8" inkscape:window-maximized="1" inkscape:current-layer="svg1"/>
  <path id="Palma Küste" fill="none" stroke="black" stroke-width="1" d="M 856.87,1107.82            C 862.51,1109.67 869.87,1106.44 870.89,1094.07              873.56,1094.98 875.46,1096.20 875.69,1097.96              876.19,1101.86 871.32,1107.31 870.56,1110.89              869.73,1113.88 870.36,1116.34 870.93,1118.51              872.09,1125.69 876.47,1127.44 883.00,1128.00              882.33,1131.18 881.47,1133.11 879.84,1134.61              877.42,1137.31 875.51,1137.67 873.87,1141.96              872.04,1146.09 874.40,1151.36 869.56,1154.07              866.27,1155.95 861.98,1154.47 857.33,1155.07              854.13,1155.49 850.77,1156.99 847.98,1160.91              844.72,1165.91 842.41,1170.68 840.89,1174.56              839.67,1178.20 839.96,1179.60 838.51,1182.29              836.96,1184.84 834.67,1187.24 830.20,1185.78              829.22,1185.40 827.39,1184.51 825.42,1183.26              823.10,1181.81 820.43,1180.30 819.12,1179.73              817.38,1179.08 815.68,1178.51 812.98,1179.26              812.92,1177.99 812.88,1177.22 812.30,1175.33              811.70,1172.76 810.77,1169.96 810.04,1167.72              809.69,1166.47 809.11,1165.08 808.70,1163.69              808.33,1162.43 807.44,1160.31 807.04,1158.99              807.59,1158.30 808.30,1157.68 809.29,1156.66              809.86,1156.07 810.44,1155.53 811.01,1155.04              812.12,1154.18 813.33,1153.52 814.27,1152.88              816.24,1151.79 818.29,1150.87 820.04,1149.96              823.01,1149.96 825.23,1149.98 828.04,1149.98              829.29,1150.67 828.58,1150.22 829.96,1151.00              828.13,1153.24 825.78,1155.20 824.54,1157.74              823.53,1159.28 823.20,1160.85 824.56,1162.53              826.68,1163.34 828.86,1162.98 830.91,1161.99              835.44,1159.80 837.89,1154.53 840.07,1151.76              845.16,1145.31 856.00,1134.18 859.40,1123.51              859.46,1122.68 859.96,1121.87 860.00,1121.00              858.87,1119.91 858.09,1119.76 857.13,1117.22              856.78,1115.60 856.16,1113.97 856.04,1111.98              855.09,1112.44 851.42,1113.98 849.78,1114.27              849.78,1114.27 847.35,1109.95 845.24,1106.09              843.80,1104.11 841.57,1102.17 840.98,1101.04              841.47,1100.33 842.00,1099.67 842.00,1099.67              845.36,1101.69 847.69,1100.71 853.00,1099.00              853.35,1100.82 853.27,1102.44 854.04,1104.22              854.73,1105.82 855.49,1107.20 856.87,1107.82 Z            M 809.07,1155.00            C 812.58,1152.75 819.98,1149.02 819.98,1149.02              819.98,1149.02 824.09,1149.02 827.94,1149.02              831.64,1149.20 833.92,1147.03 833.92,1147.03              836.05,1145.02 838.92,1142.37 841.08,1139.66              842.56,1137.84 842.80,1137.02 842.70,1136.00              842.36,1134.53 841.34,1134.55 839.39,1133.08              837.83,1132.00 838.05,1130.95 838.08,1130.09              838.52,1127.08 842.13,1125.14 844.44,1122.27              845.70,1120.83 846.40,1119.40 846.91,1118.47              847.40,1117.38 847.74,1116.54 848.14,1115.35              848.05,1114.57 847.75,1113.74 847.61,1113.02              847.15,1110.74 845.67,1108.54 843.38,1106.62              841.81,1105.27 841.03,1103.69 839.86,1102.66              839.86,1102.66 837.36,1106.47 833.59,1112.14              831.10,1115.82 827.96,1120.20 824.84,1124.78              824.03,1127.78 821.18,1130.42 819.66,1132.69              818.09,1134.72 816.89,1136.95 815.62,1138.84              811.31,1145.31 808.50,1150.22 808.50,1150.22              808.69,1150.31 806.64,1153.98 806.64,1153.98              806.64,1153.98 805.42,1156.29 805.42,1156.29              805.42,1156.29 808.57,1155.08 809.07,1155.00 Z"/>
</svg>