<svg xmlns:inkscape="http://www.inkscape.org/namespaces/inkscape" xmlns:sodipodi="http://sodipodi.sourceforge.net/DTD/sodipodi-0.dtd" xmlns="http://www.w3.org/2000/svg" xmlns:svg="http://www.w3.org/2000/svg" version="1.1" id="svg1" sodipodi:docname="palma.svg" inkscape:version="1.3.2 (091e20e, 2023-11-25, custom)" viewBox="789.43 1082.5 71.07 83">
  <defs id="defs1"/>
  <sodipodi:namedview id="namedview1" pagecolor="#ffffff" bordercolor="#999999" borderopacity="1" inkscape:showpageshadow="2" inkscape:pageopacity="0" inkscape:pagecheckerboard="0" inkscape:deskcolor="#d1d1d1" inkscape:document-units="in" inkscape:zoom="1.6768791" inkscape:cx="326.20121" inkscape:cy="244.8" inkscape:window-width="1920" inkscape:window-height="1017" inkscape:window-x="-8" inkscape:window-y="-8" inkscape:window-maximized="1" inkscape:current-layer="svg1"/>
  <path id="Palma" fill="none" stroke="black" stroke-width="1" d="M 849.75,1114.31            C 851.81,1114.02 856.00,1112.00 856.00,1112.00              856.72,1115.67 856.85,1118.73 860.00,1121.00              858.85,1126.45 855.90,1131.64 852.38,1136.52              848.90,1141.35 844.86,1145.86 841.44,1150.00              839.14,1152.78 834.99,1159.41 832.79,1161.01              830.08,1162.98 822.48,1165.12 823.87,1159.07              824.38,1156.82 828.38,1152.80 830.00,1151.00              830.00,1151.00 828.06,1149.97 828.06,1149.97              828.06,1149.97 820.08,1149.94 820.08,1149.94              820.08,1149.94 814.31,1152.83 814.31,1152.83              814.31,1152.83 811.00,1155.00 811.00,1155.00              809.71,1156.29 808.39,1157.46 806.98,1159.00              803.66,1159.67 803.14,1159.00 799.96,1159.95              799.98,1162.32 800.00,1165.00 800.00,1165.00              796.67,1163.13 794.93,1162.40 789.93,1160.04              789.93,1160.04 799.93,1156.40 799.93,1156.40              799.93,1156.40 799.94,1157.43 800.26,1158.64              801.02,1158.43 805.01,1157.70 805.46,1156.21              805.46,1156.21 809.00,1155.00 809.00,1155.00              814.66,1151.70 816.00,1151.00 816.00,1151.00              816.00,1151.00 818.03,1150.03 818.03,1150.03              818.03,1150.03 820.00,1149.00 820.00,1149.00              831.82,1149.00 831.13,1150.42 838.99,1142.00              840.15,1140.76 842.20,1138.75 842.66,1137.10              843.67,1133.55 836.99,1134.06 838.16,1129.75              839.36,1125.28 845.13,1124.66 848.16,1115.34              848.16,1115.34 847.66,1112.38 846.66,1110.31              845.12,1107.89 842.48,1106.15 839.84,1102.50              836.44,1099.19 835.38,1096.59 833.12,1094.09              831.38,1093.81 831.38,1093.97 830.00,1094.00              830.00,1094.00 831.22,1083.00 831.22,1083.00              833.44,1087.22 833.62,1087.91 837.06,1092.28              835.47,1093.41 836.19,1092.81 834.91,1094.00              836.25,1095.69 836.50,1095.44 837.66,1097.19              839.64,1100.29 844.07,1103.83 846.07,1107.55              846.85,1109.01 849.75,1114.31 849.75,1114.31 Z"/>
</svg>