<svg xmlns="http://www.w3.org/2000/svg" viewBox="584.5 661.63 69 42.87">
  <path id="Portsmouth Küste Süd 2" fill="none" stroke="black" stroke-width="1" d="M 607.00,665.00            C 612.70,665.47 618.27,667.59 624.00,666.98              636.03,665.59 641.88,656.81 650.03,666.98              651.53,668.90 652.01,669.88 653.00,672.00              653.00,672.00 617.00,689.53 617.00,689.53              617.00,689.53 606.00,697.69 606.00,697.69              606.00,697.69 596.00,699.63 596.00,699.63              596.00,699.63 586.00,704.00 586.00,704.00              586.00,704.00 587.57,700.99 587.57,700.99              587.57,700.99 601.00,693.14 601.00,693.14              601.00,693.14 604.00,693.14 604.00,693.14              604.00,693.14 609.00,683.00 609.00,683.00              609.00,683.00 606.00,682.00 606.00,682.00              608.91,674.25 608.04,672.86 607.00,665.00 Z            M 585.00,687.00            C 585.00,687.00 603.00,687.00 603.00,687.00              603.00,687.00 596.86,693.47 596.86,693.47              596.86,693.47 585.00,699.00 585.00,699.00              585.00,699.00 585.00,687.00 585.00,687.00 Z"/>
</svg>