<svg xmlns="http://www.w3.org/2000/svg" viewBox="549.5 566.5 92.49 121">
  <path id="Portsmouth 2" fill="none" stroke="black" stroke-width="1" d="M 574.00,629.00            C 574.00,629.00 574.00,624.00 574.00,624.00              574.07,613.00 576.02,619.65 587.00,609.83              594.23,603.36 602.15,591.59 606.82,583.00              610.82,575.66 611.75,568.97 621.00,567.00              624.35,578.60 624.05,581.27 624.00,593.00              624.00,593.00 622.13,610.00 622.13,610.00              622.32,615.12 625.70,620.75 627.08,626.00              627.08,626.00 628.85,638.00 628.85,638.00              630.91,644.18 635.77,648.02 639.28,653.00              640.85,655.23 642.43,657.92 640.81,660.59              639.32,663.03 634.62,664.26 632.00,665.00              617.39,669.13 620.45,665.12 607.08,665.00              607.08,665.00 607.08,681.46 607.08,681.46              607.08,681.46 609.00,683.00 609.00,683.00              609.00,683.00 607.00,687.00 607.00,687.00              607.00,687.00 581.00,687.00 581.00,687.00              581.00,687.00 581.00,677.00 581.00,677.00              578.47,676.99 574.66,677.26 572.52,675.83              570.75,674.65 570.47,672.67 567.86,671.59              565.70,670.71 562.39,671.22 560.00,670.72              555.91,669.89 552.70,667.00 550.00,664.00              561.82,664.00 566.15,662.55 574.13,653.21              574.13,653.21 578.02,648.63 578.02,648.63              580.50,644.16 579.67,635.05 586.00,631.00              586.00,631.00 586.00,629.00 586.00,629.00              586.00,629.00 574.00,629.00 574.00,629.00 Z"/>
</svg>