<svg version="1.1" id="svg1" xml:space="preserve" inkscape:version="1.4 (86a8ad7, 2024-10-11)" sodipodi:docname="08Poti.svg" xmlns:inkscape="http://www.inkscape.org/namespaces/inkscape" xmlns:sodipodi="http://sodipodi.sourceforge.net/DTD/sodipodi-0.dtd" xmlns="http://www.w3.org/2000/svg" xmlns:svg="http://www.w3.org/2000/svg" viewBox="185.88 229.95 12.57 12.12"><sodipodi:namedview id="namedview1" pagecolor="#ffffff" bordercolor="#000000" borderopacity="0.25" inkscape:showpageshadow="2" inkscape:pageopacity="0.0" inkscape:pagecheckerboard="0" inkscape:deskcolor="#d1d1d1" inkscape:document-units="mm" inkscape:zoom="0.71891835" inkscape:cx="396.42889" inkscape:cy="561.25984" inkscape:window-width="1920" inkscape:window-height="1009" inkscape:window-x="-8" inkscape:window-y="-8" inkscape:window-maximized="1" inkscape:current-layer="layer1"/><defs id="defs1"/><g inkscape:label="Ebene 1" inkscape:groupmode="layer" id="layer1"><path id="Poti" fill="none" stroke="#000000" stroke-width="1" d="m 191.88282,232.54886 c 0.18542,-0.18542 0.53255,0.0161 0.84667,0.16087 1.07526,0.49445 0.9398,1.18025 1.62475,1.96596 0.34967,0.40132 0.9017,0.66379 1.11083,1.18025 0.27516,0.54018 0.0212,0.71459 0.18542,1.34959 0.27008,0.94742 0.41317,0.74591 0.0847,1.69333 -0.044,0.18966 -0.0102,0.64516 -0.254,0.60283 -0.19134,0.0931 -0.51477,-0.0432 -0.71966,-0.0567 -0.44112,-0.0212 -0.52155,0.20151 -0.84667,0.0643 -0.66125,-0.3937 -0.57658,-1.40462 -1.27169,-1.93463 -0.65786,-0.45466 -0.89408,-0.19897 -1.43764,-0.30734 -0.28364,-0.0567 -0.34883,-0.16849 -0.60283,-0.2413 0,0 -0.64601,-0.0906 -0.64601,-0.0906 -0.65108,-0.1414 -0.53255,-0.30819 -1.54008,-0.3175 0.25654,-0.87122 1.09558,-0.6985 0.75692,-1.44442 0,0 1.10828,-0.79586 1.10828,-0.79586 0.25654,-0.088 1.48082,0.16086 1.62306,-0.39878 0.0804,-0.3175 -0.3285,-0.61638 -0.34967,-0.91694 -0.0178,-0.2557 0.19727,-0.33528 0.41317,-0.28364 0.40386,0.0948 0.71882,0.35814 0.42249,0.70189 0,0 1.016,0.16933 1.016,0.16933 0,0 -0.508,-0.762 -0.508,-0.762 0,0 -0.16933,0.16934 -0.16933,0.16934 0,0 -0.0847,0 -0.0847,0 0.0627,-0.066 -0.83651,-0.50208 -0.762,-0.508 z m 3.37058,6.51934"/></g></svg>