<svg version="1.1" id="svg1" xml:space="preserve" inkscape:version="1.4 (86a8ad7, 2024-10-11)" sodipodi:docname="16KüstePoti.svg" xmlns:inkscape="http://www.inkscape.org/namespaces/inkscape" xmlns:sodipodi="http://sodipodi.sourceforge.net/DTD/sodipodi-0.dtd" xmlns="http://www.w3.org/2000/svg" xmlns:svg="http://www.w3.org/2000/svg" viewBox="98.05 276.73 10.8 8.92"><sodipodi:namedview id="namedview1" pagecolor="#ffffff" bordercolor="#000000" borderopacity="0.25" inkscape:showpageshadow="2" inkscape:pageopacity="0.0" inkscape:pagecheckerboard="0" inkscape:deskcolor="#d1d1d1" inkscape:document-units="mm" inkscape:zoom="0.71891835" inkscape:cx="396.42889" inkscape:cy="561.25984" inkscape:window-width="1920" inkscape:window-height="1009" inkscape:window-x="-8" inkscape:window-y="-8" inkscape:window-maximized="1" inkscape:current-layer="layer1"/><defs id="defs1"/><g inkscape:label="Ebene 1" inkscape:groupmode="layer" id="layer1"><path id="KüstePoti" fill="none" stroke="#000000" stroke-width="1" d="m 100.66818,279.24093 c 1.12945,0 1.79832,0.35983 2.85242,0.59774 0.53594,0.0584 0.91948,-0.0787 1.37583,0.31242 0.68495,0.58505 0.44873,1.43172 1.44441,1.9685 0,0 0,0.254 0,0.254 0,0 -1.524,0.762 -1.524,0.762 -0.27262,-0.33951 -0.56303,-0.60113 -1.016,-0.6587 -0.56896,-0.072 -1.03716,0.42756 -1.27,-0.27263 0.28702,-0.11769 0.87207,-0.26077 0.62992,-0.67225 -0.0576,-0.0965 -0.22606,-0.2413 -0.3285,-0.29126 -0.45466,-0.22013 -0.95928,0.5351 -1.48675,0.58082 -0.37677,0.033 -0.69342,-0.27517 -0.7493,-0.63331 -0.0881,-0.55965 0.0593,-1.3843 0.072,-1.94733 z m 2.794,0.77216"/></g></svg>