<svg version="1.1" id="svg1" xml:space="preserve" inkscape:version="1.4 (86a8ad7, 2024-10-11)" sodipodi:docname="06Rebinzond.svg" xmlns:inkscape="http://www.inkscape.org/namespaces/inkscape" xmlns:sodipodi="http://sodipodi.sourceforge.net/DTD/sodipodi-0.dtd" xmlns="http://www.w3.org/2000/svg" xmlns:svg="http://www.w3.org/2000/svg" viewBox="94.08 141.8 21.52 13.58"><sodipodi:namedview id="namedview1" pagecolor="#ffffff" bordercolor="#000000" borderopacity="0.25" inkscape:showpageshadow="2" inkscape:pageopacity="0.0" inkscape:pagecheckerboard="0" inkscape:deskcolor="#d1d1d1" inkscape:document-units="mm" inkscape:zoom="0.71891835" inkscape:cx="396.42889" inkscape:cy="561.25984" inkscape:window-width="1920" inkscape:window-height="1009" inkscape:window-x="-8" inkscape:window-y="-8" inkscape:window-maximized="1" inkscape:current-layer="layer1"/><defs id="defs1"/><g inkscape:label="Ebene 1" inkscape:groupmode="layer" id="layer1"><path id="Rebinzond" fill="none" stroke="#000000" stroke-width="1" d="m 112.7857,144.30653 c 0.58336,0.85937 0.25908,1.59682 -0.26416,2.37067 -0.10075,0.14901 -0.3285,0.57658 -0.47498,0.65447 -0.23368,0.12446 -0.38438,-0.254 -0.78486,0.0635 0,0 -2.032,1.28016 -2.032,1.28016 -0.51562,0.41233 -0.76962,0.24046 -1.08542,0.36661 -0.29803,0.19389 -0.40217,0.55711 -0.56642,0.85259 -0.18204,0.32597 -0.60706,0.80942 -0.56896,1.18534 0.0178,0.18118 0.19134,0.50038 0.27347,0.67733 0,0 -0.91609,-0.0229 -0.91609,-0.0229 0,0 -0.69258,-0.0635 -0.69258,-0.0635 -0.38184,-0.0491 -0.75014,-0.18034 -1.13114,-0.0288 -0.44112,0.18119 -0.9415,0.88138 -1.40886,1.21581 0,0 -2.92608,-3.13266 -2.92608,-3.13266 -0.734905,-0.878 -0.231145,-0.85514 -0.622305,-1.513 -0.11091,-0.33951 -0.8619,-0.9762 -1.1557,-1.0287 0,0 -0.53086,-0.13208 -0.53086,-0.13208 -0.35475,-0.17441 -0.18372,-0.39285 -0.77639,-0.37422 0.066,-0.47922 0.16849,-0.62654 -0.508,-0.762 0.22775,-0.66548 0.64516,-0.21167 1.06511,-0.10076 0,0 0.79586,0.0457 0.79586,0.0457 0.52494,-0.0271 0.55711,-0.75268 1.26746,-0.69003 0.414025,0.0364 0.347985,0.40809 0.699355,0.66971 0.16425,0.12277 0.37592,0.17272 0.57489,0.20744 0.7476,0.13123 0.79756,-0.15748 1.35466,-0.55542 0.22268,0.40894 0.32597,0.71544 0.84667,0.75692 0.46821,0.0373 0.70189,-0.12615 0.93133,-0.10075 0.28194,0.0313 0.55457,0.30395 0.84667,0.35983 0,0 1.18533,0 1.18533,0 0,0 0.59267,0.11176 0.59267,0.11176 0.27432,-0.006 0.82719,-0.36745 1.18533,-0.45127 0,0 1.016,0 1.016,0 0,0 1.18534,-0.34544 1.18534,-0.34544 0.32596,-0.0923 0.72474,-0.1524 1.016,-0.31665 0,0 0.42333,-0.26924 0.42333,-0.26924 0.38354,-0.18966 0.7239,-0.0711 1.18533,-0.93049 z"/></g></svg>