<svg version="1.1" id="svg1" xml:space="preserve" inkscape:version="1.4 (86a8ad7, 2024-10-11)" sodipodi:docname="18KüsteRebinzond.svg" xmlns:inkscape="http://www.inkscape.org/namespaces/inkscape" xmlns:sodipodi="http://sodipodi.sourceforge.net/DTD/sodipodi-0.dtd" xmlns="http://www.w3.org/2000/svg" xmlns:svg="http://www.w3.org/2000/svg" viewBox="91.15 230.5 22.93 9.43"><sodipodi:namedview id="namedview1" pagecolor="#ffffff" bordercolor="#000000" borderopacity="0.25" inkscape:showpageshadow="2" inkscape:pageopacity="0.0" inkscape:pagecheckerboard="0" inkscape:deskcolor="#d1d1d1" inkscape:document-units="mm" inkscape:zoom="0.71891835" inkscape:cx="396.42889" inkscape:cy="561.25984" inkscape:window-width="1920" inkscape:window-height="1009" inkscape:window-x="-8" inkscape:window-y="-8" inkscape:window-maximized="1" inkscape:current-layer="layer1"/><defs id="defs1"/><g inkscape:label="Ebene 1" inkscape:groupmode="layer" id="layer1"><path id="KüsteRebinzond" fill="none" stroke="#000000" stroke-width="1" d="m 97.600586,233.64415 c -0.0186,0.91948 0.33867,0.59521 1.01515,0.7493 0.19643,0.0279 0.49361,0.22267 0.6858,0.0669 0.53256,-0.35645 -0.50715,-1.07188 0.33444,-1.39531 0.0745,-0.0279 0.17102,-0.0516 0.25061,-0.0516 0.662944,8.5e-4 0.465674,0.85429 0.562194,1.07696 0.10752,0.25146 0.29125,0.43604 0.5461,0.51562 0.30988,0.0974 1.04817,0.0516 1.34704,-0.0737 0.26924,-0.11176 0.41826,-0.30818 0.67734,-0.32596 0.29972,-0.0212 0.65447,0.28871 1.10066,0.1524 0.36068,-0.11092 0.70697,-0.5351 1.27,-0.53256 0.80942,0.003 0.22945,0.79164 0.762,1.24206 0.41826,0.35391 1.44696,0.30396 1.44696,-0.0466 0,-0.25484 -0.47583,-0.36322 -0.84413,-0.83735 0.66971,-0.26247 0.59605,0.27263 1.09051,0.381 0.21505,0.0466 0.53932,-0.17611 0.762,-0.24384 0.15324,0.39455 0.0864,0.76877 0.56049,0.84667 0.13293,0.0483 0.41063,0.0643 0.53001,0.0102 0.22945,-0.16426 0.2176,-0.63839 0.52748,-0.66802 0.1888,-0.0178 1.09558,0.46566 1.34535,0.57319 -0.16087,0.75438 -0.38185,0.69342 -0.92117,0.9525 -0.55711,0.26839 -0.42249,0.29633 -1.28016,0.51816 0,0 -1.48167,0.46652 -1.48167,0.46652 0,0 -0.97367,-0.0229 -0.97367,-0.0229 -0.46736,0.11938 -0.76962,0.46058 -1.27,0.41402 0,0 -0.51816,-0.0745 -0.51816,-0.0745 0,0 -1.17517,0 -1.17517,0 0,0 -0.67733,-0.29041 -0.67733,-0.29041 -0.74084,-0.19304 -1.38684,0.56642 -1.92617,-0.75692 -0.62399,0.48683 -0.61299,0.69596 -1.450344,0.59267 -0.22521,-0.0279 -0.31157,-0.14563 -0.50969,-0.27602 -0.31412,-0.20574 -0.39201,-0.53678 -0.68919,-0.6096 -0.39793,-0.0982 -0.83312,0.46228 -1.06511,0.64262 -0.83989,0.28787 -1.29963,-0.48344 -2.14884,-0.0322 0,0 -1.10066,-1.09305 -1.10066,-1.09305 -0.19643,-0.18288 -0.56388,-0.45042 -0.68665,-0.6858 -0.0398,-0.138 -0.0237,-0.27686 0,-0.42248 -0.011,-0.54441 0.15325,-0.94827 0.75269,-0.84667 0,0.15409 -0.0373,0.35645 0,0.508 -0.004,0.12277 0.0347,0.22775 0.0897,0.33867 0.0373,0.0745 0.0974,0.1778 0.15156,0.2413 0.57742,0.67648 0.62907,-0.46228 0.7349,-0.65956 0.0703,-0.13038 0.25824,-0.34967 0.42926,-0.24468 0.1651,0.10244 0.0229,0.43095 0,0.57827 -0.0737,0.46651 0.004,0.80687 0.47583,0.67733 0.14309,-0.65108 0.44619,-0.29294 0.635,-0.61383 0.0762,-0.15748 -0.0237,-0.48345 -0.0533,-0.65617 0.0152,-0.17272 0.70104,-0.2269 0.68834,-0.0847 z"/></g></svg>