<svg xmlns:inkscape="http://www.inkscape.org/namespaces/inkscape" xmlns:sodipodi="http://sodipodi.sourceforge.net/DTD/sodipodi-0.dtd" xmlns="http://www.w3.org/2000/svg" xmlns:svg="http://www.w3.org/2000/svg" version="1.1" id="svg1" sodipodi:docname="roma.svg" inkscape:version="1.3.2 (091e20e, 2023-11-25, custom)" viewBox="1069.8 867.88 96.7 102.57">
  <defs id="defs1"/>
  <sodipodi:namedview id="namedview1" pagecolor="#ffffff" bordercolor="#999999" borderopacity="1" inkscape:showpageshadow="2" inkscape:pageopacity="0" inkscape:pagecheckerboard="0" inkscape:deskcolor="#d1d1d1" inkscape:document-units="in" inkscape:zoom="1.6768791" inkscape:cx="326.20121" inkscape:cy="244.8" inkscape:window-width="1920" inkscape:window-height="1017" inkscape:window-x="-8" inkscape:window-y="-8" inkscape:window-maximized="1" inkscape:current-layer="svg1"/>
  <path id="Roma" fill="none" stroke="black" stroke-width="1" d="M 1083.56,935.69            C 1085.44,936.01 1089.30,931.91 1088.38,931.75              1088.90,929.23 1087.53,926.92 1086.81,924.62              1085.29,919.74 1088.58,916.52 1084.75,912.19              1081.02,907.97 1069.95,905.76 1070.31,899.56              1070.63,894.06 1079.26,887.32 1084.12,886.06              1084.12,886.06 1099.06,882.75 1099.06,882.75              1099.06,882.75 1109.56,880.31 1109.56,880.31              1109.56,880.31 1119.12,878.62 1119.12,878.62              1119.12,878.62 1141.94,868.38 1141.94,868.38              1147.50,878.80 1144.53,880.76 1147.60,890.00              1149.24,894.93 1151.95,897.74 1154.54,902.00              1158.85,909.10 1157.75,910.37 1165.00,916.00              1163.80,915.98 1158.03,930.97 1160.00,931.00              1160.00,931.00 1166.00,931.00 1166.00,931.00              1163.29,939.21 1154.20,930.35 1160.00,942.00              1157.05,943.17 1153.61,944.25 1151.31,946.53              1148.89,948.94 1149.20,950.85 1147.36,953.72              1145.22,957.02 1135.26,967.35 1132.00,968.98              1130.25,969.85 1127.93,970.11 1126.00,969.85              1119.47,968.96 1116.09,962.21 1112.19,957.81              1103.78,948.35 1095.93,939.48 1083.56,935.69 Z"/>
</svg>