<svg xmlns:inkscape="http://www.inkscape.org/namespaces/inkscape" xmlns:sodipodi="http://sodipodi.sourceforge.net/DTD/sodipodi-0.dtd" xmlns="http://www.w3.org/2000/svg" xmlns:svg="http://www.w3.org/2000/svg" version="1.1" id="svg1" sodipodi:docname="roma_coast_north.svg" inkscape:version="1.3.2 (091e20e, 2023-11-25, custom)" viewBox="1142.94 864.5 34.75 50.01">
  <defs id="defs1"/>
  <sodipodi:namedview id="namedview1" pagecolor="#ffffff" bordercolor="#999999" borderopacity="1" inkscape:showpageshadow="2" inkscape:pageopacity="0" inkscape:pagecheckerboard="0" inkscape:deskcolor="#d1d1d1" inkscape:document-units="in" inkscape:zoom="1.6768791" inkscape:cx="326.20121" inkscape:cy="244.8" inkscape:window-width="1920" inkscape:window-height="1017" inkscape:window-x="-8" inkscape:window-y="-8" inkscape:window-maximized="1" inkscape:current-layer="svg1"/>
  <path id="Roma Küste Nord" fill="none" stroke="black" stroke-width="1" d="M 1151.00,865.00            C 1152.03,866.65 1152.96,868.44 1154.29,869.87              1156.34,872.08 1157.67,872.37 1159.41,873.85              1159.41,873.85 1164.10,878.90 1164.10,878.90              1168.81,883.53 1174.44,886.02 1176.86,893.00              1178.56,897.89 1173.28,904.07 1170.69,908.00              1169.77,909.39 1167.92,913.02 1166.38,913.69              1161.62,915.75 1158.21,907.19 1156.69,904.19              1156.69,904.19 1149.31,892.25 1149.31,892.25              1148.97,892.69 1145.31,870.12 1143.44,867.62              1143.44,867.62 1151.00,865.00 1151.00,865.00 Z"/>
</svg>