<svg xmlns:inkscape="http://www.inkscape.org/namespaces/inkscape" xmlns:sodipodi="http://sodipodi.sourceforge.net/DTD/sodipodi-0.dtd" xmlns="http://www.w3.org/2000/svg" xmlns:svg="http://www.w3.org/2000/svg" version="1.1" id="svg1" sodipodi:docname="roma_coast_south.svg" inkscape:version="1.3.2 (091e20e, 2023-11-25, custom)" viewBox="1071.19 935.5 60.33 50.47">
  <defs id="defs1"/>
  <sodipodi:namedview id="namedview1" pagecolor="#ffffff" bordercolor="#999999" borderopacity="1" inkscape:showpageshadow="2" inkscape:pageopacity="0" inkscape:pagecheckerboard="0" inkscape:deskcolor="#d1d1d1" inkscape:document-units="in" inkscape:zoom="1.6768791" inkscape:cx="326.20121" inkscape:cy="244.8" inkscape:window-width="1920" inkscape:window-height="1017" inkscape:window-x="-8" inkscape:window-y="-8" inkscape:window-maximized="1" inkscape:current-layer="svg1"/>
  <path id="Roma Küste Süd" fill="none" stroke="black" stroke-width="1" d="M 1076.00,961.00            C 1076.91,951.92 1072.33,949.71 1071.69,946.59              1075.09,945.47 1079.30,937.77 1083.04,936.00              1091.42,938.44 1094.14,941.29 1100.16,946.24              1108.06,950.61 1116.38,966.77 1123.16,969.69              1125.10,970.41 1128.92,970.46 1131.02,970.47              1129.42,973.85 1127.57,975.28 1125.00,978.00              1122.62,980.51 1120.15,985.37 1116.49,985.47              1112.01,985.61 1109.28,981.39 1106.11,977.84              1101.86,973.68 1096.81,973.04 1090.07,975.13              1089.99,965.57 1085.91,961.55 1076.00,961.00 Z"/>
</svg>