<svg xmlns:inkscape="http://www.inkscape.org/namespaces/inkscape" xmlns:sodipodi="http://sodipodi.sourceforge.net/DTD/sodipodi-0.dtd" xmlns="http://www.w3.org/2000/svg" xmlns:svg="http://www.w3.org/2000/svg" version="1.1" id="svg1" sodipodi:docname="san_sebastian.svg" inkscape:version="1.3.2 (091e20e, 2023-11-25, custom)" viewBox="614.67 976.5 150.16 83.92">
  <defs id="defs1"/>
  <sodipodi:namedview id="namedview1" pagecolor="#ffffff" bordercolor="#999999" borderopacity="1" inkscape:showpageshadow="2" inkscape:pageopacity="0" inkscape:pagecheckerboard="0" inkscape:deskcolor="#d1d1d1" inkscape:document-units="in" inkscape:zoom="1.6768791" inkscape:cx="326.20121" inkscape:cy="244.8" inkscape:window-width="1920" inkscape:window-height="1017" inkscape:window-x="-8" inkscape:window-y="-8" inkscape:window-maximized="1" inkscape:current-layer="svg1"/>
  <path id="san sebastian" fill="none" stroke="black" stroke-width="1" d="M 764.00,977.00            C 766.02,984.49 757.86,987.20 764.00,994.00              765.17,996.52 759.91,997.57 759.04,1000.30              758.48,1000.27 761.77,1005.86 762.57,1005.91              761.83,1005.15 756.63,1010.61 758.01,1012.04              758.01,1012.04 753.56,1029.00 753.56,1029.00              755.01,1031.52 750.39,1035.65 747.26,1037.39              747.26,1037.39 750.00,1045.00 750.00,1045.00              745.26,1045.16 742.60,1045.66 739.85,1050.02              737.93,1053.07 738.30,1057.47 733.95,1058.09              733.95,1058.09 728.00,1058.09 728.00,1058.09              724.35,1058.06 722.50,1060.14 717.00,1059.90              717.00,1059.90 681.00,1050.33 681.00,1050.33              681.00,1050.33 664.41,1045.52 664.41,1045.52              660.92,1043.49 661.48,1040.96 659.26,1035.87              656.74,1035.57 647.22,1035.17 643.22,1034.96              639.96,1031.43 639.13,1029.96 635.00,1026.09              644.16,1023.09 644.94,1022.78 648.47,1022.28              649.00,1024.25 648.44,1023.59 649.19,1024.88              650.14,1025.06 653.62,1023.20 655.22,1023.09              655.22,1023.09 647.00,1018.00 647.00,1018.00              647.38,1019.62 647.06,1018.12 647.88,1020.94              642.47,1022.19 636.91,1023.56 633.31,1024.72              629.37,1019.67 620.00,1007.81 615.34,1003.09              614.74,1002.26 615.91,1001.16 615.97,1001.91              619.12,1003.75 631.57,1003.34 635.09,1002.34              641.22,1000.91 644.47,996.62 648.12,996.59              648.12,996.59 667.00,999.62 667.00,999.62              672.40,999.20 677.85,996.89 682.28,994.12              684.67,992.64 686.81,991.69 687.94,989.72              687.44,987.72 682.36,984.95 681.16,984.72              683.81,986.18 687.91,986.66 693.31,987.01              697.84,987.12 701.51,986.91 703.94,986.47              703.94,986.47 699.00,996.00 699.00,996.00              699.00,996.00 710.88,989.69 710.88,989.69              710.88,989.69 707.59,987.88 707.59,987.88              707.59,987.88 708.94,986.34 710.38,985.56              712.94,986.72 719.72,985.12 719.72,985.12              720.09,985.55 764.35,977.40 764.00,977.00 Z"/>
</svg>