<svg xmlns:inkscape="http://www.inkscape.org/namespaces/inkscape" xmlns:sodipodi="http://sodipodi.sourceforge.net/DTD/sodipodi-0.dtd" xmlns="http://www.w3.org/2000/svg" xmlns:svg="http://www.w3.org/2000/svg" version="1.1" id="svg1" sodipodi:docname="san_sebastian_coast.svg" inkscape:version="1.3.2 (091e20e, 2023-11-25, custom)" viewBox="600.81 951.5 87.46 52.08">
  <defs id="defs1"/>
  <sodipodi:namedview id="namedview1" pagecolor="#ffffff" bordercolor="#999999" borderopacity="1" inkscape:showpageshadow="2" inkscape:pageopacity="0" inkscape:pagecheckerboard="0" inkscape:deskcolor="#d1d1d1" inkscape:document-units="in" inkscape:zoom="1.6768791" inkscape:cx="326.20121" inkscape:cy="244.8" inkscape:window-width="1920" inkscape:window-height="1017" inkscape:window-x="-8" inkscape:window-y="-8" inkscape:window-maximized="1" inkscape:current-layer="svg1"/>
  <path id="San sebastian küste" fill="none" stroke="black" stroke-width="1" d="M 612.67,968.80            C 617.51,962.27 615.69,958.17 614.13,952.00              617.89,957.08 618.72,966.59 630.39,967.13              635.10,967.31 638.92,964.07 643.70,965.52              643.70,965.52 669.22,979.52 669.22,979.52              674.86,982.35 691.54,987.75 687.00,991.00              681.07,994.71 674.36,999.63 667.00,999.54              667.00,999.54 648.00,996.56 648.00,996.56              641.45,997.40 641.39,1002.85 629.00,1003.00              626.12,1003.03 618.63,1003.45 616.42,1001.98              615.18,1000.80 614.98,1003.33 614.82,1001.73              614.42,999.51 612.83,995.65 612.19,994.00              612.19,994.00 607.38,981.24 605.09,975.42              603.51,972.82 601.31,973.29 601.31,973.29              607.06,972.72 609.93,971.42 612.67,968.80 Z"/>
</svg>