<svg version="1.1" id="svg1" xml:space="preserve" inkscape:version="1.4 (86a8ad7, 2024-10-11)" sodipodi:docname="03Varna.svg" xmlns:inkscape="http://www.inkscape.org/namespaces/inkscape" xmlns:sodipodi="http://sodipodi.sourceforge.net/DTD/sodipodi-0.dtd" xmlns="http://www.w3.org/2000/svg" xmlns:svg="http://www.w3.org/2000/svg" viewBox="98.52 143.07 12.58 10.72"><sodipodi:namedview id="namedview1" pagecolor="#ffffff" bordercolor="#000000" borderopacity="0.25" inkscape:showpageshadow="2" inkscape:pageopacity="0.0" inkscape:pagecheckerboard="0" inkscape:deskcolor="#d1d1d1" inkscape:document-units="mm" inkscape:zoom="0.71891835" inkscape:cx="396.42889" inkscape:cy="561.25984" inkscape:window-width="1920" inkscape:window-height="1009" inkscape:window-x="-8" inkscape:window-y="-8" inkscape:window-maximized="1" inkscape:current-layer="layer1"/><defs id="defs1"/><g inkscape:label="Ebene 1" inkscape:groupmode="layer" id="layer1"><path id="Sarai" fill="none" stroke="#000000" stroke-width="1" d="m 101.72643,147.31804 c -0.31581,-0.38862 0.26585,-0.56642 0.64008,-0.83058 1.06002,-0.7493 1.22851,-0.79078 2.50867,-0.889 0.67479,-0.0525 0.94742,0.37169 1.19041,0.92541 0.3065,0.70019 0.37338,1.36906 0.79333,2.06925 0.16849,0.28025 0.4445,0.57574 0.68326,0.80434 0.21929,0.20997 1.3335,0.86952 0.95673,1.18533 0.0737,0.0432 -0.6079,0.33189 -0.65024,0.30734 -0.46905,0.18034 -0.7239,0.40471 -1.28608,0.37507 -0.38524,-0.0195 -0.84413,-0.14139 -1.20058,-0.25908 -0.41656,-0.13716 -1.18618,-0.51816 -2.18016,-0.508 -0.31327,-0.003 -0.63077,0.21336 -0.93134,0.0533 -0.8238,-0.3666 -0.35983,-1.3953 -1.20142,-1.54008 0.0533,-0.31835 0.0288,-0.3954 0.31242,-0.55542 -0.42841,-0.55287 1.15486,-1.09304 1.54517,-1.662 0,0 -0.67225,0.0161 -0.67225,0.0161 -0.0737,0.33443 -0.20574,0.37676 -0.508,0.508 z"/></g></svg>