<svg xmlns:inkscape="http://www.inkscape.org/namespaces/inkscape" xmlns:sodipodi="http://sodipodi.sourceforge.net/DTD/sodipodi-0.dtd" xmlns="http://www.w3.org/2000/svg" xmlns:svg="http://www.w3.org/2000/svg" version="1.1" id="svg1" sodipodi:docname="sevilla_coast.svg" inkscape:version="1.3.2 (091e20e, 2023-11-25, custom)" viewBox="532.88 1281.72 156.7 82.8">
  <defs id="defs1"/>
  <sodipodi:namedview id="namedview1" pagecolor="#ffffff" bordercolor="#999999" borderopacity="1" inkscape:showpageshadow="2" inkscape:pageopacity="0" inkscape:pagecheckerboard="0" inkscape:deskcolor="#d1d1d1" inkscape:document-units="in" inkscape:zoom="1.6768791" inkscape:cx="326.49938" inkscape:cy="244.8" inkscape:window-width="1920" inkscape:window-height="1017" inkscape:window-x="-8" inkscape:window-y="-8" inkscape:window-maximized="1" inkscape:current-layer="svg1"/>
  <path id="Sevilla Küste" fill="none" stroke="black" stroke-width="1" d="M 534.00,1316.00            C 534.04,1313.60 533.88,1311.91 534.62,1310.14              535.20,1308.70 536.09,1307.97 536.94,1307.42              538.99,1306.06 541.02,1304.98 541.61,1302.12              542.12,1299.96 541.21,1298.17 539.95,1296.30              539.17,1295.20 538.11,1293.79 537.79,1292.63              537.54,1291.69 537.62,1290.91 537.84,1290.16              538.27,1288.84 539.86,1286.93 542.50,1284.65              543.79,1283.55 544.58,1282.96 545.55,1282.22              545.52,1283.93 547.77,1286.03 550.02,1287.91              551.09,1288.77 552.07,1289.62 552.91,1290.31              554.56,1291.81 556.03,1293.36 556.42,1294.88              556.59,1295.50 556.95,1296.96 556.29,1298.61              555.91,1299.77 555.19,1300.90 554.99,1302.14              554.83,1303.00 555.02,1303.94 555.38,1304.69              555.81,1305.59 556.28,1306.15 556.99,1307.00              555.18,1307.93 552.88,1309.06 551.00,1310.01              551.34,1311.32 553.22,1318.17 554.00,1320.98              555.22,1321.00 556.81,1320.74 558.20,1320.51              562.66,1319.61 565.54,1317.48 567.02,1316.80              569.59,1315.52 571.87,1315.12 573.64,1315.07              577.43,1314.98 579.60,1316.75 582.31,1317.35              584.59,1317.84 587.13,1317.40 591.12,1315.06              594.76,1312.92 597.66,1310.70 599.50,1308.62              600.06,1307.98 600.54,1307.40 601.03,1306.89              601.68,1306.22 602.31,1305.66 602.98,1305.30              604.54,1304.50 606.42,1304.61 609.18,1305.92              610.51,1306.60 611.55,1307.41 612.47,1308.33              613.92,1309.80 615.06,1311.57 615.90,1313.43              616.91,1315.60 617.24,1317.24 618.20,1319.57              619.68,1321.41 622.06,1324.23 623.05,1325.52              624.05,1326.51 624.96,1327.08 625.87,1327.51              627.11,1328.14 628.23,1328.42 629.61,1328.91              630.32,1329.16 631.13,1329.43 632.03,1329.93              633.78,1330.87 634.89,1332.32 635.38,1334.16              635.80,1335.31 635.84,1335.99 636.00,1337.00              638.58,1338.04 642.12,1339.46 644.72,1340.50              646.17,1341.46 647.64,1342.97 649.14,1344.19              650.45,1345.23 651.75,1346.07 653.18,1346.08              654.58,1346.06 655.70,1345.29 656.64,1344.03              657.38,1343.08 657.90,1341.90 658.39,1340.64              659.09,1338.20 659.71,1335.73 660.24,1333.99              660.76,1332.94 661.99,1330.75 663.12,1328.59              663.73,1325.96 664.10,1324.19 664.37,1323.23              664.37,1323.23 664.16,1322.50 664.76,1322.07              665.24,1321.68 665.82,1321.45 666.38,1321.22              667.67,1320.74 668.87,1320.48 668.87,1320.48              669.34,1317.18 670.38,1315.68 671.19,1314.49              672.32,1312.98 673.31,1312.16 675.00,1311.00              675.00,1311.00 681.38,1323.99 685.56,1332.68              687.62,1337.10 689.08,1340.33 689.08,1340.33              689.08,1340.33 621.95,1364.02 621.95,1364.02              621.56,1360.79 619.55,1359.49 616.88,1359.21              613.37,1359.13 612.96,1359.68 606.00,1362.00              606.00,1362.00 605.98,1360.82 605.98,1359.06              605.97,1357.50 606.01,1355.48 606.30,1353.47              606.54,1352.00 607.04,1350.51 607.48,1349.25              607.77,1348.43 608.01,1347.65 608.23,1346.98              608.73,1345.18 608.68,1343.93 608.68,1343.93              608.62,1341.17 606.98,1339.15 605.05,1338.09              602.11,1336.58 598.16,1337.32 597.30,1341.66              597.08,1342.89 597.31,1344.64 597.73,1346.38              598.25,1348.49 598.95,1350.77 598.99,1352.99              597.96,1351.64 597.07,1350.31 595.81,1349.11              594.76,1348.19 593.41,1347.43 591.00,1346.98              590.77,1345.43 590.63,1344.47 590.50,1343.63              589.91,1339.74 589.37,1335.88 588.81,1332.29              588.43,1331.80 588.09,1331.39 587.51,1331.06              585.30,1329.63 582.27,1329.89 581.04,1331.80              580.76,1332.40 580.39,1333.12 580.28,1334.07              580.20,1335.13 580.41,1336.20 580.68,1337.36              581.34,1339.92 581.77,1342.50 580.81,1346.00              580.81,1346.00 579.62,1344.20 578.62,1342.70              577.91,1341.64 577.25,1340.76 577.25,1340.76              576.55,1339.91 575.73,1338.73 574.41,1337.60              573.58,1336.97 573.31,1336.66 572.26,1336.25              571.47,1335.99 570.62,1335.74 569.32,1336.50              568.79,1336.87 568.13,1337.45 567.79,1338.21              567.55,1338.75 567.44,1339.06 567.23,1340.08              566.86,1342.17 567.11,1344.48 566.74,1347.01              566.54,1348.10 566.19,1349.46 565.78,1351.08              564.37,1348.58 563.00,1346.76 561.56,1345.45              558.67,1342.92 555.66,1342.05 552.01,1341.35              552.00,1339.18 551.91,1338.56 551.66,1337.20              551.25,1335.37 550.12,1333.73 547.83,1333.30              546.66,1332.98 544.93,1333.18 542.62,1333.68              541.58,1333.89 540.50,1334.14 539.30,1334.16              538.87,1334.16 538.44,1334.14 538.00,1334.07              537.39,1334.16 536.84,1334.19 536.34,1334.11              534.43,1333.88 533.94,1331.95 533.38,1330.68              534.06,1330.39 535.05,1329.86 535.98,1329.17              536.62,1328.74 537.88,1327.69 538.95,1326.25              539.27,1325.80 539.59,1325.34 539.87,1324.83              540.14,1324.33 540.40,1323.77 540.57,1323.18              540.96,1321.96 541.09,1320.57 540.48,1319.28              540.10,1318.51 539.36,1317.66 538.36,1317.16              537.27,1316.49 535.30,1316.06 534.00,1316.00 Z"/>
</svg>