<svg xmlns:inkscape="http://www.inkscape.org/namespaces/inkscape" xmlns:sodipodi="http://sodipodi.sourceforge.net/DTD/sodipodi-0.dtd" xmlns="http://www.w3.org/2000/svg" xmlns:svg="http://www.w3.org/2000/svg" version="1.1" id="svg1" sodipodi:docname="Sevilla.svg" inkscape:version="1.3.2 (091e20e, 2023-11-25, custom)" viewBox="545.08 1216.23 147.4 130.35">
  <defs id="defs1"/>
  <sodipodi:namedview id="namedview1" pagecolor="#ffffff" bordercolor="#999999" borderopacity="1" inkscape:showpageshadow="2" inkscape:pageopacity="0" inkscape:pagecheckerboard="0" inkscape:deskcolor="#d1d1d1" inkscape:document-units="in" inkscape:zoom="4.7429304" inkscape:cx="166.45827" inkscape:cy="412.71953" inkscape:window-width="1920" inkscape:window-height="1017" inkscape:window-x="-8" inkscape:window-y="-8" inkscape:window-maximized="1" inkscape:current-layer="svg1"/>
  <path id="Sevilla" fill="none" stroke="#000000" stroke-width="1" d="m 557,1307 c -5.01,-5.52 0.84,-6.91 -0.55,-12 -1.31,-4.82 -10.87,-8.74 -10.87,-12.78 1.76,-1.41 3.89,-2.84 5.97,-4.39 1.04,-0.78 1.91,-1.58 2.6,-2.14 0,0 0.98,-0.82 2.49,-2.09 0.78,-0.66 1.71,-1.43 2.7,-2.28 1.12,-0.92 2.31,-1.94 3.56,-2.98 0.99,-0.84 2,-1.68 3,-2.52 1.14,-0.95 2.25,-1.89 3.29,-2.77 3.36,-2.82 5.94,-4.99 5.94,-4.99 0,0 1.96,-1.65 4.56,-3.84 0.34,-0.26 0.52,-0.47 0.81,-0.72 5.51,-5.17 13.5,-12.67 13.5,-12.67 1.24,-1.12 2.56,-2.41 3.86,-3.74 1.15,-1.17 2.3,-2.36 3.47,-3.43 1.13,-0.98 2.19,-1.77 3.46,-2.46 1.17,-0.61 2.01,-0.98 3.81,-1.49 0.35,-0.08 0.46,-0.1 1.17,-0.2 0.78,-0.11 1.62,-0.21 2.46,-0.33 1.55,-0.23 3.22,-0.43 4.95,-0.67 1.36,-0.2 2.71,-0.37 4.11,-0.57 3.82,-0.51 7.64,-1.01 10.89,-1.44 2.82,-0.36 5.18,-0.68 6.77,-0.88 0,0 1.99,-0.24 5.22,-0.68 1.41,-0.19 3.06,-0.39 4.91,-0.64 1.23,-0.17 2.52,-0.3 3.92,-0.51 2.04,-0.46 4.64,-1.05 7,-1.59 1.14,-0.2 2.01,-0.36 3.11,-0.54 2.53,-0.44 5.07,-0.9 7.56,-1.33 2.62,-0.46 5.17,-0.92 7.55,-1.33 0.89,-0.13 1.58,-0.37 2.79,-0.57 0.92,-0.16 1.32,-0.21 1.95,-0.3 2.6,-0.36 4.75,-0.61 6.31,-0.88 1.73,-0.28 2.71,-0.52 2.71,-0.52 -0.27,0.4 -0.79,1.2 -0.6,3.89 0.05,0.14 0.08,0.18 0.12,0.44 0.04,0.35 0.07,0.53 0.05,1.11 -0.11,3.37 -0.85,7.46 -1.52,10.88 -0.42,2.32 -0.95,4.43 -1.64,6.07 0,0 -0.22,0.62 -0.68,1.54 -1.01,1.99 -3.01,5.54 -4.86,8.36 -1.31,1.98 -2.34,3.44 -2.58,3.15 -1.56,3.67 -2.89,6.88 -2.89,6.88 -2.85,3.34 -4.9,5.75 -7.65,9.04 -0.21,2.14 -0.95,10.61 -1.45,15.88 0.2,4.71 0.42,9.02 0.52,11.02 1.31,3.46 4.37,11.24 5.43,14.05 0.18,0.49 0.51,1.29 0.77,1.95 -1.88,1.38 -5.22,3.36 -6.13,9.49 -5.66,1.42 -4.33,2.42 -4.54,2.81 l -1.21,5.29 -2.9,5.43 -1.89,6.82 c -1,2.64 -3.06,6.15 -6.38,5.04 -2.51,-0.83 -5.04,-3.93 -7.23,-5.36 L 636,1337 c -1.15,-9.88 -8.2,-6.61 -12.97,-11.5 l -4.83,-5.93 c -1.06,-1.86 -2.48,-11.99 -11.2,-14.48 -4.46,-1.28 -5.69,1.81 -8.37,4.45 -2.54,2.5 -7.33,5.76 -10.63,7.1 -7.32,2.97 -8.38,-2.49 -16,-1.42 -6.72,0.94 -7.95,5.31 -18,5.78 l -3,-11 z" sodipodi:nodetypes="ccccccccccccccccccsccccccccccccccccccccccccccccccccccccccccccccccc"/>
</svg>