<svg xmlns="http://www.w3.org/2000/svg" viewBox="481.5 202.5 99.69 130.65">
  <path id="Shetland Islands Küste" fill="none" stroke="black" stroke-width="1" d="M 532.00,203.00            C 532.00,203.00 534.00,203.00 534.00,203.00              537.41,209.37 540.68,216.03 549.00,216.49              551.29,216.62 554.65,215.53 557.00,215.00              557.00,215.00 570.89,229.00 570.89,229.00              572.67,231.00 575.05,233.89 574.60,236.79              574.21,239.27 570.91,241.25 569.21,243.10              566.03,246.57 564.55,249.33 565.00,254.00              566.83,246.22 568.64,243.37 576.00,240.00              577.08,245.35 581.48,260.70 580.57,265.00              577.97,277.34 560.26,282.63 569.31,293.96              570.68,295.67 572.26,296.74 574.00,298.00              574.00,298.00 573.00,305.00 573.00,305.00              569.35,302.98 568.91,301.30 566.68,300.02              564.97,299.03 554.13,297.88 552.00,298.16              544.01,299.22 545.41,307.52 541.69,309.98              539.17,311.65 535.94,310.21 531.00,313.65              528.32,315.51 525.15,318.86 524.09,322.00              522.98,325.32 524.44,328.44 523.39,330.68              521.57,334.57 515.34,331.80 513.00,330.00              517.80,326.03 521.25,322.56 520.00,316.00              519.18,321.00 514.90,331.15 508.09,327.93              505.29,326.62 500.43,319.68 498.34,317.00              491.03,307.61 494.97,310.69 493.33,304.00              492.47,300.50 490.56,298.89 490.17,294.00              490.17,294.00 490.17,284.09 490.17,284.09              489.08,280.23 484.63,279.59 482.99,277.32              481.90,275.80 482.06,273.77 482.00,272.00              488.56,271.61 492.37,269.58 486.00,264.00              488.26,260.64 490.36,257.51 494.04,255.55              498.66,253.10 505.01,252.15 507.57,246.95              511.18,239.61 504.81,235.20 503.85,231.00              503.16,227.96 506.03,223.34 507.00,220.00              508.87,221.16 512.11,223.43 514.00,224.15              516.36,225.04 518.62,224.95 521.00,224.15              529.52,221.27 529.75,210.33 532.00,203.00 Z            M 519.00,231.00            C 519.00,231.00 516.00,231.00 516.00,231.00              516.68,240.55 524.97,246.52 513.00,253.00              513.00,253.00 513.00,255.00 513.00,255.00              519.03,256.92 520.18,256.07 520.00,262.00              528.00,263.12 528.91,267.97 533.86,266.67              537.65,265.67 536.19,261.81 535.94,259.00              535.11,249.40 533.46,248.72 533.29,246.88              533.29,246.88 536.00,236.00 536.00,236.00              529.48,236.98 527.19,239.21 523.00,233.00              523.00,233.00 522.00,233.00 522.00,233.00              522.00,233.00 520.00,235.00 520.00,235.00              520.00,235.00 519.00,231.00 519.00,231.00 Z"/>
</svg>