<svg xmlns="http://www.w3.org/2000/svg" viewBox="491.48 223.5 105.02 122">
  <path id="Shetland Islands" fill="none" stroke="black" stroke-width="1" d="M 564.00,254.00            C 565.41,238.88 576.91,238.35 583.86,233.65              588.62,230.44 586.75,227.92 596.00,224.00              596.00,224.00 593.00,234.00 593.00,234.00              585.89,234.08 573.83,240.65 569.22,246.02              569.22,246.02 564.00,254.00 564.00,254.00 Z            M 516.00,231.00            C 516.00,231.00 519.00,231.00 519.00,231.00              519.00,231.00 520.00,235.00 520.00,235.00              520.00,235.00 522.00,233.00 522.00,233.00              522.00,233.00 523.00,233.00 523.00,233.00              528.04,239.10 529.01,237.57 536.00,236.00              536.00,236.00 533.56,246.00 533.56,246.00              533.56,246.00 535.77,255.00 535.77,255.00              535.77,255.00 535.77,266.00 535.77,266.00              527.84,268.13 529.80,263.34 520.00,262.00              520.00,262.00 521.00,256.00 521.00,256.00              521.00,256.00 514.00,255.00 514.00,255.00              514.00,255.00 514.00,253.00 514.00,253.00              525.33,246.29 516.59,240.10 516.00,231.00 Z            M 520.00,316.00            C 523.91,326.71 506.79,335.99 499.00,336.00              499.00,336.00 499.00,342.00 499.00,342.00              499.00,342.00 492.00,345.00 492.00,345.00              492.01,340.73 491.59,338.72 494.00,335.00              496.70,337.67 500.01,334.61 503.00,333.08              512.01,328.50 516.72,326.16 520.00,316.00 Z"/>
</svg>