<svg version="1.1" id="svg1" xml:space="preserve" inkscape:version="1.4 (86a8ad7, 2024-10-11)" sodipodi:docname="14KüsteTana.svg" xmlns:inkscape="http://www.inkscape.org/namespaces/inkscape" xmlns:sodipodi="http://sodipodi.sourceforge.net/DTD/sodipodi-0.dtd" xmlns="http://www.w3.org/2000/svg" xmlns:svg="http://www.w3.org/2000/svg" viewBox="103.3 266.4 11.95 19.02"><sodipodi:namedview id="namedview1" pagecolor="#ffffff" bordercolor="#000000" borderopacity="0.25" inkscape:showpageshadow="2" inkscape:pageopacity="0.0" inkscape:pagecheckerboard="0" inkscape:deskcolor="#d1d1d1" inkscape:document-units="mm" inkscape:zoom="0.71891835" inkscape:cx="396.42889" inkscape:cy="561.25984" inkscape:window-width="1920" inkscape:window-height="1009" inkscape:window-x="-8" inkscape:window-y="-8" inkscape:window-maximized="1" inkscape:current-layer="layer1"/><defs id="defs1"/><g inkscape:label="Ebene 1" inkscape:groupmode="layer" id="layer1"><path id="KüsteTana" fill="none" stroke="#000000" stroke-width="1" d="m 111.79766,269.08335 c 0,0 0.15409,-0.15409 0.15409,-0.15409 0.22267,0.73914 0.19304,1.24206 -0.3556,1.84742 0,0 -0.5334,0.46567 -0.5334,0.46567 0,0 -0.65786,0.87376 -0.65786,0.87376 -0.33105,0.40725 -0.66125,0.0567 -0.89323,0.0643 -0.30819,-0.0339 -0.13124,0.39709 -0.93134,0.0508 0.0533,0.25993 0.0991,0.52917 0.29041,0.72898 0.17526,0.18457 0.66887,0.30141 0.90255,0.40217 0.75692,0.32681 1.027,0.54102 1.85504,0.39285 -0.34798,0.52663 -1.26238,0.77809 -1.6239,0.51562 0,0 -0.0229,0.84667 -0.0229,0.84667 -0.29295,-0.0305 -0.49107,-0.65278 -0.46228,-0.66972 -0.19982,0.39286 -0.34629,0.7002 -0.0694,1.08543 -0.15409,0.3683 -0.62823,0.78317 0.39285,1.18533 0.0161,0.23707 0.11684,0.6621 0.0542,0.87715 -0.11769,0.33359 -0.73575,0.45127 -0.42333,0.70866 0,0 0.23791,-0.0466 0.23791,-0.0466 0,0 -0.28448,0.23876 -0.28448,0.23876 0.1397,0.002 0.38862,-0.072 0.51562,-0.0152 0.0771,0.16171 1.01431,1.08119 1.20142,1.28185 0.44365,0.47414 0.93557,0.7493 1.58496,0.76539 0,0 -0.0847,1.94733 -0.0847,1.94733 -0.46312,0.14563 -0.40047,0.32512 -0.61468,0.40979 -0.36576,0.14393 -0.53086,-0.35052 -0.66548,-0.57912 -0.11684,-0.19897 -1.00076,-1.17856 -1.18279,-1.30471 -0.13208,-0.0914 -0.18796,-0.0923 -0.33105,-0.13462 0,0 0,0.93133 0,0.93133 -0.94742,-0.33359 -0.78062,0.27093 -1.35805,0.39539 -0.21082,0.0449 -0.55626,-0.044 -0.56049,-0.30818 -0.006,-0.2921 0.51646,-0.47837 0.56218,-0.93388 0,0 -0.0745,-0.762 -0.0745,-0.762 0,0 0.41486,-2.794 0.41486,-2.794 0,0 -1.35466,-0.53509 -1.35466,-0.53509 -0.26501,-0.0982 -0.6858,-0.22521 -0.8763,-0.43095 -0.17442,-0.18796 -0.38947,-0.8018 -0.4953,-1.06596 -0.0974,-0.24299 -0.36153,-0.77216 -0.28787,-1.016 0.16256,-0.54186 0.96181,-0.74676 1.31233,-1.10998 0.6477,-0.37592 -0.16425,-0.7857 0.36238,-0.99906 0.061,-0.23622 0.0516,-0.12023 0.15409,-0.60029 0.75353,-0.0627 0.39116,-0.43011 0.95419,-0.69257 0.48091,-0.22437 0.65024,0.0677 1.24545,-0.2557 0.59521,-0.32258 0.50207,-0.69257 1.04817,-1.18364 0,0 -0.11514,0.60791 -0.11514,0.60791 z m -2.05486,5.34924"/></g></svg>