<svg version="1.1" id="svg1" xml:space="preserve" inkscape:version="1.4 (86a8ad7, 2024-10-11)" sodipodi:docname="11Tana.svg" xmlns:inkscape="http://www.inkscape.org/namespaces/inkscape" xmlns:sodipodi="http://sodipodi.sourceforge.net/DTD/sodipodi-0.dtd" xmlns="http://www.w3.org/2000/svg" xmlns:svg="http://www.w3.org/2000/svg" viewBox="96.58 138.95 16.18 18.93"><sodipodi:namedview id="namedview1" pagecolor="#ffffff" bordercolor="#000000" borderopacity="0.25" inkscape:showpageshadow="2" inkscape:pageopacity="0.0" inkscape:pagecheckerboard="0" inkscape:deskcolor="#d1d1d1" inkscape:document-units="mm" inkscape:zoom="0.71891835" inkscape:cx="396.42889" inkscape:cy="561.25984" inkscape:window-width="1920" inkscape:window-height="1009" inkscape:window-x="-8" inkscape:window-y="-8" inkscape:window-maximized="1" inkscape:current-layer="layer1"/><defs id="defs1"/><g inkscape:label="Ebene 1" inkscape:groupmode="layer" id="layer1"><path id="Tana" fill="none" stroke="#000000" stroke-width="1" d="m 100.92805,147.05679 c 0.49953,0.19304 -0.62061,1.34535 -1.152325,0.94573 -0.21928,-0.0804 -0.77131,-0.33867 -0.65532,-0.6367 0.0787,-0.2015 0.54187,-0.24045 0.72898,-0.29802 0.392015,-0.12023 0.640085,-0.2032 0.901705,-0.52663 0.22437,-0.29041 0.84921,-1.60951 1.05749,-2.00999 0.15833,-0.35898 0.25231,-0.81618 0.57319,-1.06764 0.57235,-0.44874 1.72212,-0.12362 2.23436,-0.29803 0.34628,-0.12954 1.15062,-0.81703 1.4986,-1.08966 0.16594,-0.14647 0.49699,-0.56642 0.71797,-0.59605 0.24638,-0.004 0.7239,0.81364 0.8636,1.10405 0.14309,0.29718 0.15917,0.47244 0.38439,0.74337 0.18711,0.22606 0.54864,0.39878 0.61044,0.69258 0.0381,0.1761 -0.19473,1.0795 -0.22775,1.32842 0,0 -0.254,-0.0804 -0.254,-0.0804 0,0 -0.14732,0.7874 -0.14732,0.7874 0.72559,-0.37169 0.7493,-0.14902 0.60706,-0.89832 0,0 0.15833,-1.01261 0.15833,-1.01261 0.33528,0.30141 1.0795,0.99737 1.43594,1.31826 -0.75776,0.99399 -0.43942,1.46558 -0.82126,2.11667 0,0 -1.15147,1.4969 -1.15147,1.4969 -0.35137,0.34629 -0.75269,0.54864 -0.79925,1.12776 -0.0449,0.56727 0.47159,0.85598 0.72813,1.27085 0.23537,0.38269 0.15071,0.60452 0.0965,1.01515 -0.87799,-0.54017 -0.31327,-0.8636 -1.43933,-1.18533 0.0923,0.23114 0.19304,0.54525 0.37338,0.71628 0.1634,0.15494 0.90678,0.51985 1.07018,1.06172 0.0898,0.29464 -0.28363,1.1049 -0.3666,1.43933 -0.0711,0.28702 0.0457,0.56812 0.10837,0.84667 -0.67733,-0.0152 -1.1049,-0.16256 -1.56379,-0.69173 0,0 -0.34968,-0.45212 -0.34968,-0.45212 -0.31665,-0.31834 -0.49699,-0.2269 -0.79586,-0.88815 0,0 -0.508,0 -0.508,0 0,0 0.0847,0 0.0847,0 0,0 0.16934,-0.16933 0.16934,-0.16933 0,0 -0.33867,0 -0.33867,0 0,0 0,-0.16934 0,-0.16934 0.69765,-0.21674 0.57912,-0.84666 0.508,-1.43933 -0.7239,0.0898 -0.33528,-0.39963 -0.67733,-0.67733 0,0 0.254,-0.42334 0.254,-0.42334 -0.32004,-0.33612 -0.18288,-0.62907 0,-1.016 0.13208,0.36576 0.1524,0.48768 0.508,0.67734 0,0 0,-0.84667 0,-0.84667 0.71966,0.23453 1.0668,-0.12192 1.69333,-0.42333 0,0 -0.0847,-0.254 -0.0847,-0.254 -0.35898,0.16594 -0.67648,0.29633 -0.93133,-0.0796 0,0 -0.33867,0 -0.33867,0 0,0 -0.59266,-0.27009 -0.59266,-0.27009 0,0 -0.93134,-0.32766 -0.93134,-0.32766 0,0 -0.16933,-0.67733 -0.16933,-0.67733 0.3683,0.11006 0.53679,0.19473 0.762,-0.16934 1.01177,0.55711 1.10744,-0.21336 1.57057,-0.7349 0.36999,-0.41572 1.04817,-0.78571 1.12606,-1.5511 0.0203,-0.2032 -0.11599,-0.77724 -0.15663,-1.016 0,0 -1.10067,1.18534 -1.10067,1.18534 0,0 0.0847,-0.59267 0.0847,-0.59267 -0.62145,0.48937 -0.55965,0.89916 -0.94911,1.16586 -0.66633,0.4572 -1.67048,-0.18203 -1.92956,1.03547 0,0 -0.42333,-0.0847 -0.42333,-0.0847 0,0 -0.16933,0.67734 -0.16933,0.67734 -0.35476,0.21505 -0.2413,0.34459 -0.0847,0.67733 -0.71205,0.90678 -0.43773,0.31919 -1.02362,0.77639 -0.2159,0.16849 -0.41148,0.58251 -0.71797,0.4572 -0.10922,-0.0457 -0.24638,-0.27432 -0.31581,-0.3683 -0.0694,-0.0931 -0.23199,-0.265 -0.30988,-0.35729 0.24638,-0.12615 0.91355,-0.75946 0.89831,-0.9906 0.0923,-0.022 0.12531,0.0483 0.28702,0.0669 0,0 0.18796,-0.79925 0.18796,-0.79925 z"/></g></svg>