<svg xmlns:inkscape="http://www.inkscape.org/namespaces/inkscape" xmlns:sodipodi="http://sodipodi.sourceforge.net/DTD/sodipodi-0.dtd" xmlns="http://www.w3.org/2000/svg" xmlns:svg="http://www.w3.org/2000/svg" version="1.1" id="svg1" sodipodi:docname="toledo.svg" inkscape:version="1.3.2 (091e20e, 2023-11-25, custom)" viewBox="574.47 1043 168.03 177.44">
  <defs id="defs1"/>
  <sodipodi:namedview id="namedview1" pagecolor="#ffffff" bordercolor="#999999" borderopacity="1" inkscape:showpageshadow="2" inkscape:pageopacity="0" inkscape:pagecheckerboard="0" inkscape:deskcolor="#d1d1d1" inkscape:document-units="in" inkscape:zoom="1.6768791" inkscape:cx="326.20121" inkscape:cy="244.8" inkscape:window-width="1920" inkscape:window-height="1017" inkscape:window-x="-8" inkscape:window-y="-8" inkscape:window-maximized="1" inkscape:current-layer="svg1"/>
  <path id="Toledo" fill="none" stroke="black" stroke-width="1" d="M 658.36,1048.39            C 659.68,1047.79 660.75,1047.56 663.08,1046.33              663.34,1046.05 661.86,1043.81 662.14,1043.50              661.95,1043.43 663.47,1045.20 664.45,1045.52              666.94,1046.27 674.38,1048.50 674.38,1048.50              674.38,1048.50 685.94,1051.69 685.94,1051.69              685.94,1051.69 705.31,1056.81 705.31,1056.81              709.82,1057.79 715.02,1060.45 719.19,1060.06              722.10,1059.54 727.78,1057.54 730.44,1058.38              731.84,1058.59 733.90,1058.02 734.62,1058.69              735.06,1062.06 735.73,1066.03 742.00,1063.00              741.78,1072.53 740.55,1070.63 736.96,1078.00              735.60,1080.79 736.05,1081.78 733.69,1084.41              733.69,1084.41 724.17,1092.32 724.17,1092.32              724.17,1092.32 716.83,1100.46 716.83,1100.46              714.31,1102.49 705.46,1107.99 703.80,1110.30              702.40,1112.90 703.20,1117.13 703.80,1120.00              705.09,1131.46 701.72,1127.32 709.00,1138.00              703.03,1144.84 705.71,1144.83 703.30,1152.00              704.57,1152.50 701.02,1161.13 700.38,1160.88              701.37,1161.23 696.94,1177.22 696.32,1177.00              696.32,1177.00 690.99,1189.00 690.99,1189.00              689.69,1192.14 687.28,1201.18 685.31,1203.25              681.62,1207.14 666.73,1207.32 661.00,1208.25              661.00,1208.25 624.56,1212.81 624.56,1212.81              624.56,1212.81 619.19,1212.75 614.57,1215.20              610.96,1216.02 607.10,1216.66 604.19,1216.56              598.46,1218.13 597.03,1219.94 597.03,1219.94              597.03,1219.94 581.31,1136.31 581.31,1136.31              581.31,1136.31 577.16,1114.44 577.16,1114.44              576.74,1112.11 575.34,1105.16 574.97,1102.78              578.73,1101.42 576.07,1102.44 580.04,1101.02              583.47,1099.40 587.29,1098.47 590.62,1095.00              593.78,1091.41 594.25,1088.06 595.00,1084.87              595.61,1082.28 596.43,1079.73 598.08,1077.04              599.68,1074.44 601.50,1073.11 603.98,1071.44              608.12,1068.66 611.82,1067.47 615.18,1067.62              619.16,1068.09 622.81,1069.91 628.73,1073.44              628.73,1073.44 625.89,1075.00 625.89,1075.00              625.89,1075.00 636.00,1078.00 636.00,1078.00              636.00,1078.00 630.76,1069.80 630.76,1069.80              630.09,1072.00 630.53,1070.82 630.02,1073.02              626.27,1070.33 624.47,1069.30 621.00,1067.00              621.00,1067.00 621.02,1065.02 621.02,1065.02              621.02,1065.02 633.00,1057.98 633.00,1057.98              633.13,1058.07 634.95,1056.87 637.06,1055.59              639.66,1054.89 641.44,1054.45 643.12,1053.89              645.70,1052.16 647.86,1050.69 647.86,1050.69              649.69,1050.86 654.22,1049.86 658.36,1048.39 Z"/>
</svg>