<svg xmlns:inkscape="http://www.inkscape.org/namespaces/inkscape" xmlns:sodipodi="http://sodipodi.sourceforge.net/DTD/sodipodi-0.dtd" xmlns="http://www.w3.org/2000/svg" xmlns:svg="http://www.w3.org/2000/svg" version="1.1" id="svg1" sodipodi:docname="toulouse.svg" inkscape:version="1.3.2 (091e20e, 2023-11-25, custom)" viewBox="692.5 901.5 138 95">
  <defs id="defs1"/>
  <sodipodi:namedview id="namedview1" pagecolor="#ffffff" bordercolor="#999999" borderopacity="1" inkscape:showpageshadow="2" inkscape:pageopacity="0" inkscape:pagecheckerboard="0" inkscape:deskcolor="#d1d1d1" inkscape:document-units="in" inkscape:zoom="1.6768791" inkscape:cx="326.20121" inkscape:cy="244.8" inkscape:window-width="1920" inkscape:window-height="1017" inkscape:window-x="-8" inkscape:window-y="-8" inkscape:window-maximized="1" inkscape:current-layer="svg1"/>
  <path id="Toulouse" fill="none" stroke="black" stroke-width="1" d="M 729.00,902.00            C 729.00,902.00 736.00,910.00 736.00,910.00              732.18,913.29 739.62,919.06 742.64,922.73              745.47,925.96 747.72,927.97 751.01,929.27              754.57,930.65 759.33,929.74 763.00,929.27              770.81,928.32 781.23,928.03 787.89,923.27              791.51,920.68 791.70,918.03 792.00,914.00              792.13,912.27 792.07,909.34 794.31,908.90              795.54,908.66 796.93,909.38 797.96,909.96              803.29,912.98 803.28,917.70 805.00,923.00              805.00,923.00 820.97,916.97 820.97,916.97              821.64,917.21 821.12,914.97 819.41,914.34              819.41,914.34 830.00,909.00 830.00,909.00              830.00,909.00 825.88,919.09 825.88,919.09              823.94,915.34 811.76,922.75 805.88,924.09              805.88,924.09 809.52,936.00 809.52,936.00              809.52,936.00 801.72,953.00 801.72,953.00              801.72,953.00 797.73,958.84 797.73,958.84              797.73,958.84 786.00,962.00 786.00,962.00              788.09,969.69 790.57,972.35 796.06,977.97              796.68,978.03 798.46,974.71 798.22,974.69              798.22,974.69 800.47,986.03 800.47,986.03              801.04,986.16 793.36,979.87 790.03,979.12              791.47,979.88 792.93,978.06 792.25,977.72              792.25,977.72 784.30,965.33 784.30,965.33              784.30,965.33 780.96,963.60 780.96,963.60              780.96,963.60 759.00,967.79 759.00,967.79              759.00,967.79 720.04,975.03 720.04,975.03              720.04,975.03 707.62,987.84 707.62,987.84              707.62,987.84 710.75,989.62 710.75,989.62              710.75,989.62 699.00,996.00 699.00,996.00              699.00,996.00 704.34,985.84 704.34,985.84              707.43,990.90 712.11,979.76 714.00,975.00              714.00,975.00 693.72,976.00 693.72,976.00              693.72,976.00 693.72,969.00 693.72,969.00              693.72,969.00 693.72,961.00 693.72,961.00              693.72,961.00 693.00,952.00 693.00,952.00              693.00,952.00 697.00,952.00 697.00,952.00              697.00,952.00 695.67,948.00 695.67,948.00              695.67,948.00 696.46,941.00 696.46,941.00              696.46,941.00 696.46,935.00 696.46,935.00              696.46,935.00 697.00,928.00 697.00,928.00              697.00,928.00 710.00,931.77 710.00,931.77              710.00,931.77 725.00,929.20 725.00,929.20              725.00,929.20 733.00,930.78 733.00,930.78              733.00,930.78 747.00,930.00 747.00,930.00              743.38,925.22 732.39,909.45 729.00,913.00              729.00,913.00 729.00,902.00 729.00,902.00 Z"/>
</svg>