<svg xmlns:inkscape="http://www.inkscape.org/namespaces/inkscape" xmlns:sodipodi="http://sodipodi.sourceforge.net/DTD/sodipodi-0.dtd" xmlns="http://www.w3.org/2000/svg" xmlns:svg="http://www.w3.org/2000/svg" version="1.1" id="svg1" sodipodi:docname="toulouse_coast.svg" inkscape:version="1.3.2 (091e20e, 2023-11-25, custom)" viewBox="631.9 918.68 64.88 56.09">
  <defs id="defs1"/>
  <sodipodi:namedview id="namedview1" pagecolor="#ffffff" bordercolor="#999999" borderopacity="1" inkscape:showpageshadow="2" inkscape:pageopacity="0" inkscape:pagecheckerboard="0" inkscape:deskcolor="#d1d1d1" inkscape:document-units="in" inkscape:zoom="1.6768791" inkscape:cx="326.20121" inkscape:cy="244.8" inkscape:window-width="1920" inkscape:window-height="1017" inkscape:window-x="-8" inkscape:window-y="-8" inkscape:window-maximized="1" inkscape:current-layer="svg1"/>
  <path id="Toulouse Küste" fill="none" stroke="black" stroke-width="1" d="M 662.90,919.18            C 662.90,919.18 696.28,926.55 696.28,926.55              696.28,926.55 693.77,948.83 693.77,948.83              693.77,948.83 692.20,955.01 692.20,955.01              692.80,955.26 693.28,974.36 693.06,974.27              683.88,973.76 672.24,966.06 664.00,961.97              660.29,960.13 656.13,959.11 653.31,955.87              649.75,951.79 650.57,945.40 646.58,941.42              639.43,935.34 635.93,938.77 632.40,937.55              637.67,930.41 638.64,927.50 642.47,927.31              647.36,926.76 652.04,937.72 659.41,932.81              660.34,932.19 661.17,931.37 661.84,930.47              662.78,929.20 662.89,927.55 663.07,926.00              663.40,924.51 662.92,920.79 662.90,919.18 Z            M 637.53,932.28M 636.06,942.22M 635.19,941.95"/>
</svg>