<svg xmlns:inkscape="http://www.inkscape.org/namespaces/inkscape" xmlns:sodipodi="http://sodipodi.sourceforge.net/DTD/sodipodi-0.dtd" xmlns="http://www.w3.org/2000/svg" xmlns:svg="http://www.w3.org/2000/svg" version="1.1" id="svg1" sodipodi:docname="valencia_coast.svg" inkscape:version="1.3.2 (091e20e, 2023-11-25, custom)" viewBox="769.12 1088.5 56.07 168.88">
  <defs id="defs1"/>
  <sodipodi:namedview id="namedview1" pagecolor="#ffffff" bordercolor="#999999" borderopacity="1" inkscape:showpageshadow="2" inkscape:pageopacity="0" inkscape:pagecheckerboard="0" inkscape:deskcolor="#d1d1d1" inkscape:document-units="in" inkscape:zoom="1.6768791" inkscape:cx="326.20121" inkscape:cy="244.8" inkscape:window-width="1920" inkscape:window-height="1017" inkscape:window-x="-8" inkscape:window-y="-8" inkscape:window-maximized="1" inkscape:current-layer="svg1"/>
  <path id="Valencia Küste" fill="none" stroke="black" stroke-width="1" d="M 797.00,1089.00            C 802.87,1093.89 812.09,1107.34 817.13,1114.00              819.27,1116.83 822.06,1120.59 824.69,1124.75              824.45,1127.24 820.06,1131.84 818.66,1134.00              818.66,1134.00 809.22,1148.97 809.22,1148.97              809.22,1148.97 805.12,1156.78 805.12,1156.78              804.30,1157.63 800.74,1158.58 800.25,1158.66              799.91,1157.03 800.22,1158.62 799.91,1156.41              799.91,1156.41 790.00,1160.00 790.00,1160.00              790.00,1160.00 800.00,1165.00 800.00,1165.00              800.47,1162.30 799.84,1162.91 800.03,1159.97              801.07,1159.35 804.84,1159.47 807.00,1159.00              808.11,1162.02 813.36,1176.74 812.94,1179.22              811.62,1179.78 806.34,1181.91 806.88,1191.16              806.19,1196.16 812.69,1203.00 810.84,1206.62              808.56,1210.00 796.44,1212.88 794.38,1220.81              792.88,1225.03 794.59,1236.00 802.06,1236.47              805.88,1236.88 809.39,1233.16 812.00,1232.06              811.44,1241.94 804.29,1237.13 800.53,1242.56              798.11,1246.07 800.54,1252.93 800.72,1256.88              798.34,1254.38 794.30,1251.71 792.00,1251.56              789.21,1251.28 787.25,1253.83 783.94,1252.53              779.41,1250.86 773.31,1243.76 770.52,1239.87              781.38,1234.56 779.43,1232.43 780.04,1224.30              779.91,1224.59 778.31,1225.11 776.56,1225.87              775.46,1226.36 774.02,1225.97 774.27,1225.33              773.99,1225.02 774.74,1221.82 776.15,1219.09              777.17,1212.98 778.49,1205.04 778.49,1205.04              779.59,1201.92 781.20,1201.87 782.27,1198.87              781.99,1198.55 782.94,1185.99 783.13,1186.22              783.12,1186.18 783.99,1182.67 784.84,1180.42              786.36,1177.93 786.64,1175.27 786.64,1175.27              786.37,1170.92 781.19,1170.54 778.42,1167.71              776.19,1165.43 773.96,1161.42 772.09,1156.91              770.89,1154.07 769.31,1151.56 769.67,1149.29              769.67,1149.29 770.01,1147.51 770.60,1145.73              771.51,1143.44 772.42,1141.00 772.42,1141.00              772.90,1138.44 773.01,1136.41 773.16,1134.18              773.28,1132.34 773.30,1130.36 774.67,1127.89              774.67,1127.89 775.98,1125.33 778.31,1122.78              780.22,1120.64 782.95,1118.39 784.87,1116.07              788.51,1112.80 790.24,1109.60 790.24,1109.60              791.40,1105.31 790.73,1102.43 792.02,1098.62              792.02,1098.62 797.00,1089.00 797.00,1089.00 Z"/>
</svg>