<svg xmlns:inkscape="http://www.inkscape.org/namespaces/inkscape" xmlns:sodipodi="http://sodipodi.sourceforge.net/DTD/sodipodi-0.dtd" xmlns="http://www.w3.org/2000/svg" xmlns:svg="http://www.w3.org/2000/svg" version="1.1" id="svg1" sodipodi:docname="valencia.svg" inkscape:version="1.3.2 (091e20e, 2023-11-25, custom)" viewBox="702.66 1078.41 94 161.91">
  <defs id="defs1"/>
  <sodipodi:namedview id="namedview1" pagecolor="#ffffff" bordercolor="#999999" borderopacity="1" inkscape:showpageshadow="2" inkscape:pageopacity="0" inkscape:pagecheckerboard="0" inkscape:deskcolor="#d1d1d1" inkscape:document-units="in" inkscape:zoom="0.83843956" inkscape:cx="234.96029" inkscape:cy="-502.7196" inkscape:window-width="1920" inkscape:window-height="1017" inkscape:window-x="-8" inkscape:window-y="-8" inkscape:window-maximized="1" inkscape:current-layer="svg1"/>
  <path id="Valencia" fill="none" stroke="black" stroke-width="1" d="M 729.47,1088.04            C 732.97,1085.16 736.07,1082.50 736.64,1079.04              736.64,1079.04 760.00,1079.00 760.00,1079.00              760.00,1079.00 774.93,1078.91 774.93,1078.91              777.52,1080.15 776.29,1083.29 782.29,1081.87              785.43,1082.74 795.46,1084.84 796.09,1088.47              796.71,1092.00 792.64,1095.79 791.55,1100.00              790.57,1103.81 791.55,1106.85 789.98,1110.00              788.01,1113.93 779.66,1120.68 776.42,1125.00              771.89,1131.02 773.59,1135.40 772.61,1140.00              771.85,1143.61 769.65,1146.52 769.65,1150.00              769.65,1153.37 775.83,1165.35 778.22,1167.61              781.23,1170.44 785.19,1170.82 786.35,1174.09              787.38,1177.00 784.69,1179.07 783.40,1185.00              782.25,1190.33 782.26,1198.76 782.23,1198.83              781.52,1201.29 779.31,1202.39 778.43,1205.04              778.43,1205.04 777.24,1213.00 777.24,1213.00              777.24,1213.00 776.08,1218.83 776.08,1218.83              775.05,1222.92 770.83,1229.13 779.91,1224.39              779.91,1233.16 779.87,1235.33 770.44,1239.82              769.44,1238.42 768.91,1237.13 768.87,1235.89              768.53,1232.49 771.62,1228.97 769.89,1225.00              767.83,1220.73 762.71,1218.20 759.20,1214.16              757.17,1210.89 758.30,1206.99 756.49,1203.80              756.82,1203.42 749.73,1196.57 748.96,1195.04              748.96,1195.04 741.78,1180.00 741.78,1180.00              738.57,1173.19 735.20,1166.17 732.89,1159.00              731.64,1155.14 731.28,1151.16 729.56,1146.81              728.58,1145.25 726.52,1143.48 724.56,1141.62              722.07,1139.27 719.53,1136.94 717.22,1136.31              711.78,1134.98 709.87,1137.96 709.29,1138.07              708.71,1137.97 707.59,1135.40 707.02,1135.07              706.19,1133.93 704.96,1131.89 704.11,1129.22              704.31,1125.35 704.00,1120.31 703.18,1116.93              703.12,1115.34 703.17,1112.51 703.31,1111.56              705.20,1107.44 711.14,1104.85 714.89,1102.04              718.80,1099.12 720.47,1096.07 723.98,1092.84              725.69,1091.26 727.65,1089.54 729.47,1088.04 Z"/>
</svg>