<svg version="1.1" id="svg1" xml:space="preserve" inkscape:version="1.4 (86a8ad7, 2024-10-11)" sodipodi:docname="12KüsteVarna.svg" xmlns:inkscape="http://www.inkscape.org/namespaces/inkscape" xmlns:sodipodi="http://sodipodi.sourceforge.net/DTD/sodipodi-0.dtd" xmlns="http://www.w3.org/2000/svg" xmlns:svg="http://www.w3.org/2000/svg" viewBox="99.52 138.35 10.42 20.37"><sodipodi:namedview id="namedview1" pagecolor="#ffffff" bordercolor="#000000" borderopacity="0.25" inkscape:showpageshadow="2" inkscape:pageopacity="0.0" inkscape:pagecheckerboard="0" inkscape:deskcolor="#d1d1d1" inkscape:document-units="mm" inkscape:zoom="0.71891835" inkscape:cx="396.42889" inkscape:cy="561.25984" inkscape:window-width="1920" inkscape:window-height="1009" inkscape:window-x="-8" inkscape:window-y="-8" inkscape:window-maximized="1" inkscape:current-layer="layer1"/><defs id="defs1"/><g inkscape:label="Ebene 1" inkscape:groupmode="layer" id="layer1"><path id="KüsteVarna" fill="none" stroke="#000000" stroke-width="1" d="m 105.88159,140.86405 c 0.28363,0.0898 0.93387,0.40301 1.10151,0.64431 0,0 0.1651,0.45636 0.1651,0.45636 0.116,0.26585 0.16849,0.27516 0.25739,0.59266 -0.23622,0.0559 -0.65786,0.0677 -0.82042,0.20998 -0.66209,0.5842 0.89577,1.67301 -0.044,2.24536 0.0144,-0.13801 0.0195,-0.28787 0,-0.42249 -0.16933,-0.53425 -0.72728,-0.55118 -0.80179,0.42249 -0.0635,0.84074 0.77047,1.19041 0.6223,1.85504 -0.0559,0.25146 -0.23368,0.3302 -0.29633,0.60368 -0.0627,0.27432 0.0728,0.53932 -0.17696,1.01261 -0.2523,0.47837 -0.5842,0.64347 -0.5825,0.84921 0.003,0.41656 0.6731,0.0855 0.97282,0.36576 0.13292,0.1253 0.40047,1.20057 0.4064,1.4097 0.0262,0.91101 -1.28863,0.10244 -1.12946,1.27 0.0677,0.50038 1.259,1.37922 0.23961,1.78731 -0.13631,0.055 -0.27771,0.0618 -0.42164,0.0753 -0.0423,0.5207 -0.0703,1.38091 -0.55203,1.69418 -0.29718,0.19389 -1.36059,0.14139 -1.81864,0.25315 -0.14817,0.0195 -0.005,-0.49614 0.0847,-0.508 -0.48345,-0.27516 -0.0965,-0.52662 -0.10245,-1.10066 0,0 -0.22521,-1.43934 -0.22521,-1.43934 -0.007,-0.31411 0.0474,-0.52662 0.0948,-0.8365 0,0 -0.4445,-0.0948 -0.4445,-0.0948 -0.0127,-0.2811 -0.077,-0.83651 -0.1507,-1.10067 -0.12362,-0.43942 -0.30734,-0.60706 -0.21506,-1.10067 0.0762,-0.40724 0.22691,-0.85259 0.44027,-1.2065 0.127,-0.21166 0.47583,-0.57404 0.45805,-0.8255 -0.0169,-0.25908 -0.32851,-0.381 -0.46906,-0.5825 -0.27093,-0.38608 -0.27855,-0.92541 -0.0635,-1.34366 0.5715,0.16933 0.27263,0.4809 0.42334,1.0795 0.25569,-0.66887 1.10405,-1.56972 1.00668,-2.286 -0.044,-0.32258 -0.26077,-0.46059 -0.43095,-0.70104 -0.1778,-0.25146 -0.32258,-0.61299 -0.4064,-0.90763 0.41656,-0.15917 1.61883,-0.77216 1.88384,-1.04817 0.0779,-0.16256 -0.072,-0.23284 -0.10499,-0.39116 0.65532,-0.22098 0.78486,-0.28956 1.09982,-0.93134 z m -1.86267,14.74216"/></g></svg>