<svg version="1.1" id="svg1" xml:space="preserve" inkscape:version="1.4 (86a8ad7, 2024-10-11)" sodipodi:docname="03Varna.svg" xmlns:inkscape="http://www.inkscape.org/namespaces/inkscape" xmlns:sodipodi="http://sodipodi.sourceforge.net/DTD/sodipodi-0.dtd" xmlns="http://www.w3.org/2000/svg" xmlns:svg="http://www.w3.org/2000/svg" viewBox="98.47 137.45 12.6 21.37"><sodipodi:namedview id="namedview1" pagecolor="#ffffff" bordercolor="#000000" borderopacity="0.25" inkscape:showpageshadow="2" inkscape:pageopacity="0.0" inkscape:pagecheckerboard="0" inkscape:deskcolor="#d1d1d1" inkscape:document-units="mm" inkscape:zoom="0.71891835" inkscape:cx="396.42889" inkscape:cy="561.25984" inkscape:window-width="1920" inkscape:window-height="1009" inkscape:window-x="-8" inkscape:window-y="-8" inkscape:window-maximized="1" inkscape:current-layer="layer1"/><defs id="defs1"/><g inkscape:label="Ebene 1" inkscape:groupmode="layer" id="layer1"><path id="Varna" fill="none" stroke="#000000" stroke-width="1" d="m 104.60148,139.96883 c 0.32173,0 0.87122,-0.0161 1.1303,0.18034 0.25231,0.19219 0.77809,0.91948 0.24638,1.15909 0,0 -0.26162,0.86529 -0.26162,0.86529 0,0 0.71035,-0.45297 0.71035,-0.45297 -0.17526,-0.40047 0.002,-1.02531 0.40725,-1.0778 0.2286,0.008 1.45712,0.16256 1.70265,0.20574 0.19643,0.32596 -0.89323,1.24798 -1.03801,0.99398 0,0 -0.0813,0.066 -0.0813,0.066 0,0 0.16933,0.33867 0.16933,0.33867 -0.61976,0.41317 -1.26662,0.93472 -2.032,1.016 0.38269,0.57319 0.27093,0.82804 0.43688,1.07442 0.16848,0.24977 0.4445,0.17526 0.5063,0.53933 0.10669,0.62484 -0.35136,1.13707 -0.62907,1.62729 0,0 -0.31411,0.56896 -0.31411,0.56896 0,0 0,-0.84667 0,-0.84667 0,0 -0.508,-0.254 -0.508,-0.254 0,0 0,0.42334 0,0.42334 0,0 -0.16934,-0.0847 -0.16934,-0.0847 0,0 0.0627,0.84666 0.0627,0.84666 0,0 0.53001,0.84667 0.53001,0.84667 0,0 0.0483,-0.0144 0.0483,-0.0144 0,0 0.10668,0.022 0.10668,0.022 0.0398,0.64431 -0.32512,0.41317 -0.55541,1.00838 -0.14732,0.25485 -0.29634,0.72475 -0.3573,1.016 -0.13123,0.62399 0.0855,0.7747 0.21336,1.29371 0,0 0.12108,1.07696 0.12108,1.07696 0,0 0.42333,0.0847 0.42333,0.0847 -0.23199,1.07188 0.083,1.40716 0.14055,2.36728 0.0203,0.63161 -0.43011,0.43349 0.16848,0.97536 0.12616,0.0466 -0.4555,0.1888 -0.508,0.16933 0.0703,-0.0533 0.46144,0.22691 0.3683,0.29803 -0.21928,0 -0.71628,0.0339 -0.88815,-0.0864 -0.21336,-0.14986 -0.35814,-0.5351 -0.0432,-0.67564 0,0 -0.254,-0.93134 -0.254,-0.93134 0,0 -0.42333,0.84667 -0.42333,0.84667 0.35052,0.13631 0.43349,0.50546 0.33866,0.84667 -0.79248,-1.02024 -1.38768,-0.74846 -2.11666,-0.33867 0.17695,-1.05241 0.86783,-2.61197 0.52662,-3.63728 -0.17441,-0.56219 -0.4318,-0.88138 -0.83566,-1.28778 -0.25315,-0.254 -0.60367,-0.53763 -0.75099,-0.73999 -0.0677,-0.0127 -0.24469,-0.46312 -0.19135,-0.45296 -0.0703,-0.16595 0.84244,-2.12598 0.9652,-2.83972 -0.0305,-0.0229 0.13716,-2.13022 0.39963,-2.84565 0,0 0.75946,-1.40462 0.75946,-1.40462 0.24892,-0.14817 0.27686,-0.18288 0.49615,-0.35391 0.75692,-0.58928 1.04902,-1.17178 0.97959,-2.43247 z"/></g></svg>