<svg xmlns:inkscape="http://www.inkscape.org/namespaces/inkscape" xmlns:sodipodi="http://sodipodi.sourceforge.net/DTD/sodipodi-0.dtd" xmlns="http://www.w3.org/2000/svg" xmlns:svg="http://www.w3.org/2000/svg" version="1.1" id="svg1" sodipodi:docname="venezia.svg" inkscape:version="1.3.2 (091e20e, 2023-11-25, custom)" viewBox="1019.11 714.1 122.01 130.08">
  <defs id="defs1"/>
  <sodipodi:namedview id="namedview1" pagecolor="#ffffff" bordercolor="#999999" borderopacity="1" inkscape:showpageshadow="2" inkscape:pageopacity="0" inkscape:pagecheckerboard="0" inkscape:deskcolor="#d1d1d1" inkscape:document-units="in" inkscape:zoom="1.6768791" inkscape:cx="326.20121" inkscape:cy="244.8" inkscape:window-width="1920" inkscape:window-height="1017" inkscape:window-x="-8" inkscape:window-y="-8" inkscape:window-maximized="1" inkscape:current-layer="svg1"/>
  <path id="Venezia" fill="none" stroke="black" stroke-width="1" d="M 1057.62,745.69            C 1059.85,743.26 1059.47,730.13 1060.73,728.26              1063.24,725.32 1071.42,726.71 1075.00,726.36              1081.36,725.75 1086.96,720.15 1093.00,717.97              1093.00,717.97 1099.00,716.60 1099.00,716.60              1101.30,716.01 1104.56,714.09 1106.79,714.73              1111.69,716.14 1115.18,726.95 1117.75,730.75              1120.91,735.42 1125.21,736.59 1127.73,738.69              1129.62,740.27 1139.13,753.49 1139.96,756.00              1142.57,761.54 1136.66,761.98 1136.31,767.04              1136.31,767.04 1135.57,777.91 1135.57,777.91              1134.58,781.38 1132.03,782.44 1131.40,786.01              1130.82,789.29 1132.32,795.51 1127.93,803.71              1124.82,809.53 1120.62,809.60 1120.00,802.00              1112.42,800.27 1110.80,790.41 1104.00,787.00              1104.00,787.00 1101.43,774.13 1101.43,774.13              1101.43,774.13 1101.39,766.35 1101.39,766.35              1101.39,766.35 1095.00,766.00 1095.00,766.00              1095.00,766.00 1095.00,770.00 1095.00,770.00              1095.00,770.00 1075.00,772.00 1075.00,772.00              1075.00,772.00 1075.00,782.00 1075.00,782.00              1065.18,785.44 1070.58,790.47 1071.00,798.00              1078.30,798.86 1076.94,800.65 1079.95,805.96              1081.67,808.99 1084.02,810.34 1084.63,814.04              1085.49,819.31 1080.11,830.44 1091.00,835.57              1092.90,836.46 1094.96,836.70 1097.00,837.00              1095.95,845.80 1091.63,843.85 1085.00,842.51              1085.00,842.51 1078.28,841.50 1078.28,841.50              1076.45,840.91 1075.17,839.73 1072.96,839.34              1068.35,838.53 1064.42,842.04 1060.27,838.53              1060.27,838.53 1047.32,816.11 1047.32,816.11              1043.38,811.56 1039.82,811.96 1034.39,813.26              1034.39,813.26 1024.46,786.00 1024.46,786.00              1024.46,786.00 1020.65,775.57 1020.65,775.57              1020.65,775.57 1019.61,773.00 1019.61,773.00              1027.03,767.24 1027.49,765.59 1032.52,758.78              1032.30,760.24 1044.88,763.79 1045.00,763.00              1045.00,763.00 1038.00,754.00 1038.00,754.00              1038.00,754.00 1036.00,754.00 1036.00,754.00              1036.00,754.00 1036.00,756.00 1036.00,756.00              1036.00,756.00 1029.12,752.19 1029.12,752.19              1029.12,752.19 1035.00,745.00 1035.00,745.00              1041.16,740.53 1039.42,740.25 1043.38,734.88              1043.38,734.88 1046.44,730.25 1046.44,730.25              1048.68,726.85 1048.79,724.68 1051.31,723.64              1053.56,722.71 1056.88,724.21 1059.00,725.00              1058.39,729.30 1058.42,733.27 1054.00,735.00              1054.49,734.94 1057.91,745.65 1057.62,745.69 Z"/>
</svg>