<svg xmlns:inkscape="http://www.inkscape.org/namespaces/inkscape" xmlns:sodipodi="http://sodipodi.sourceforge.net/DTD/sodipodi-0.dtd" xmlns="http://www.w3.org/2000/svg" xmlns:svg="http://www.w3.org/2000/svg" version="1.1" id="svg1" sodipodi:docname="venezia_coast.svg" inkscape:version="1.3.2 (091e20e, 2023-11-25, custom)" viewBox="1069.27 766.5 69.23 68.9">
  <defs id="defs1"/>
  <sodipodi:namedview id="namedview1" pagecolor="#ffffff" bordercolor="#999999" borderopacity="1" inkscape:showpageshadow="2" inkscape:pageopacity="0" inkscape:pagecheckerboard="0" inkscape:deskcolor="#d1d1d1" inkscape:document-units="in" inkscape:zoom="1.6768791" inkscape:cx="326.20121" inkscape:cy="244.8" inkscape:window-width="1920" inkscape:window-height="1017" inkscape:window-x="-8" inkscape:window-y="-8" inkscape:window-maximized="1" inkscape:current-layer="svg1"/>
  <path id="Venezia Küste" fill="none" stroke="black" stroke-width="1" d="M 1095.00,767.00            C 1095.00,767.00 1100.56,767.06 1100.56,767.06              1100.56,767.06 1101.62,782.75 1101.62,782.75              1101.15,782.84 1105.58,790.71 1106.25,790.59              1106.25,790.59 1118.12,803.62 1118.12,803.62              1119.49,808.19 1119.73,806.61 1125.94,810.69              1126.45,804.15 1128.61,807.10 1130.38,801.81              1135.09,787.69 1130.11,785.73 1136.38,779.88              1136.38,779.88 1137.00,800.00 1137.00,800.00              1137.00,800.00 1138.00,813.00 1138.00,813.00              1138.00,813.00 1128.86,818.56 1128.86,818.56              1128.86,818.56 1122.00,817.27 1122.00,817.27              1122.00,817.27 1113.00,818.00 1113.00,818.00              1113.00,818.00 1110.25,811.00 1110.25,811.00              1106.74,802.01 1100.30,804.22 1098.89,810.02              1097.04,817.66 1106.06,824.20 1100.71,831.85              1099.69,833.32 1098.68,834.25 1096.90,834.65              1089.84,836.20 1085.05,830.16 1084.94,824.00              1084.87,820.36 1086.47,814.20 1085.07,811.01              1083.75,808.02 1081.38,806.96 1079.97,804.40              1077.38,800.01 1078.48,800.00 1073.00,796.56              1071.33,797.87 1069.03,786.78 1070.00,786.00              1077.18,784.61 1075.40,780.24 1075.00,772.00              1075.00,772.00 1095.00,770.00 1095.00,770.00              1095.00,770.00 1095.00,767.00 1095.00,767.00 Z"/>
</svg>