<svg xmlns="http://www.w3.org/2000/svg" viewBox="456.5 566.5 107 77">
  <path id="Wales" fill="none" stroke="black" stroke-width="1" d="M 562.00,567.00            C 562.00,567.00 563.00,576.00 563.00,576.00              557.07,576.25 549.08,582.77 548.86,589.00              548.47,600.09 555.60,617.87 551.52,628.00              550.76,629.87 549.88,631.30 548.82,633.00              547.59,634.96 545.54,638.53 543.61,639.59              538.61,642.78 531.32,638.87 523.00,639.59              517.44,639.88 518.35,642.16 511.00,643.00              511.00,643.00 501.00,633.00 501.00,633.00              511.01,627.62 509.03,628.35 515.12,620.09              516.62,618.06 518.78,616.13 519.86,613.91              521.12,611.36 522.12,598.28 521.98,595.00              521.46,582.38 510.59,590.84 504.00,586.00              513.34,583.22 510.60,585.45 515.00,573.84              515.00,573.84 525.90,573.84 525.90,573.84              529.05,572.87 529.60,570.83 532.21,569.73              533.67,569.12 535.43,569.04 537.00,569.02              543.39,568.93 544.06,571.07 545.33,577.00              545.80,579.17 545.90,580.81 546.00,583.00              554.89,577.81 555.54,573.93 562.00,567.00 Z            M 467.00,606.00            C 476.72,601.51 492.26,599.46 501.00,607.00              501.00,607.00 487.00,604.18 487.00,604.18              479.70,603.48 473.31,605.69 467.00,609.00              467.00,609.00 469.00,612.00 469.00,612.00              469.00,612.00 457.00,613.00 457.00,613.00              458.86,610.40 463.54,603.33 467.00,606.00 Z"/>
</svg>