<svg xmlns="http://www.w3.org/2000/svg" viewBox="472.5 545.5 70 121">
  <path id="Wales Küste" fill="none" stroke="black" stroke-width="1" d="M 482.00,546.00            C 482.00,546.00 519.00,561.58 519.00,561.58              523.51,563.54 530.23,565.03 532.00,570.00              529.97,570.89 527.98,572.21 525.83,572.74              519.14,574.41 510.71,572.90 512.00,583.00              512.00,583.00 502.00,584.00 502.00,584.00              503.36,586.20 504.42,588.26 507.09,589.09              511.29,590.41 519.92,586.24 520.47,594.04              520.90,600.17 520.48,609.06 517.52,614.56              517.52,614.56 513.43,620.28 513.43,620.28              513.43,620.28 510.28,625.39 510.28,625.39              506.24,629.93 501.42,629.51 498.00,636.00              498.00,636.00 510.00,640.00 510.00,640.00              510.00,640.00 509.00,645.00 509.00,645.00              514.04,644.48 516.47,643.75 520.00,639.89              520.00,639.89 530.00,639.89 530.00,639.89              530.00,639.89 542.00,642.00 542.00,642.00              540.54,644.99 538.94,648.20 536.48,650.51              532.32,654.42 517.77,660.64 512.00,662.00              512.00,662.00 510.01,658.06 510.01,658.06              509.39,657.16 508.70,656.26 507.79,655.64              500.52,650.73 499.40,662.74 497.00,666.00              494.85,658.18 500.04,650.03 492.89,646.24              490.61,645.15 488.36,645.38 486.00,646.24              486.00,646.24 479.00,649.00 479.00,649.00              479.00,641.75 479.98,637.19 473.00,633.00              473.00,633.00 476.00,605.00 476.00,605.00              476.00,605.00 488.00,604.17 488.00,604.17              488.00,604.17 501.00,606.00 501.00,606.00              496.28,604.37 492.05,602.46 487.00,602.09              484.70,601.92 479.31,602.40 477.53,600.98              475.78,599.40 477.08,589.59 477.53,587.00              477.53,587.00 482.00,546.00 482.00,546.00 Z"/>
</svg>