<svg xmlns="http://www.w3.org/2000/svg" viewBox="353.5 561.5 98.25 126">
  <path id="Waterford" fill="none" stroke="black" stroke-width="1" d="M 375.00,562.00            C 388.54,562.00 401.67,564.22 415.00,566.29              415.00,566.29 423.00,568.07 423.00,568.07              429.67,568.83 427.90,564.84 440.00,567.00              440.00,567.00 436.00,583.00 436.00,583.00              436.00,583.00 432.00,583.00 432.00,583.00              432.00,583.00 438.00,593.00 438.00,593.00              438.00,593.00 439.00,583.00 439.00,583.00              439.00,583.00 437.00,583.00 437.00,583.00              438.91,573.51 439.23,567.54 450.00,567.00              450.49,574.29 453.47,576.06 448.00,578.00              450.48,583.67 452.59,588.38 450.15,594.83              448.92,598.08 447.00,598.75 446.05,603.00              444.10,614.56 446.44,618.97 446.05,622.91              445.34,626.54 442.78,628.26 441.08,632.42              439.46,636.41 440.51,638.18 438.77,642.00              434.61,651.18 428.35,645.34 427.00,657.00              424.58,657.49 420.21,658.70 418.00,658.62              414.91,658.51 412.30,656.78 410.14,657.12              407.96,657.47 402.87,663.92 402.16,666.05              401.94,667.48 402.01,670.43 402.16,672.00              402.16,672.00 396.00,672.00 396.00,672.00              396.00,672.00 398.00,678.00 398.00,678.00              398.00,678.00 391.74,682.98 391.74,682.98              391.74,682.98 374.00,687.00 374.00,687.00              371.34,681.56 369.47,681.52 364.00,680.00              364.98,671.91 362.01,672.43 362.62,668.00              363.17,664.09 368.52,657.99 366.14,652.00              362.47,642.73 354.15,646.65 354.00,634.00              354.00,634.00 361.00,632.26 361.00,632.26              366.66,631.33 371.96,633.26 377.05,629.37              384.45,623.72 384.96,619.53 385.00,611.00              385.02,607.73 384.93,605.08 386.27,602.00              389.22,595.26 394.03,593.10 393.97,583.00              393.95,579.89 393.68,577.87 391.57,575.44              390.16,573.82 387.84,572.14 386.00,571.03              386.00,571.03 375.00,565.00 375.00,565.00              375.00,565.00 375.00,562.00 375.00,562.00 Z            M 387.00,586.00            C 387.00,586.00 388.00,586.00 388.00,586.00              388.00,586.00 387.00,587.00 387.00,587.00              387.00,587.00 387.00,586.00 387.00,586.00 Z"/>
</svg>