<svg xmlns="http://www.w3.org/2000/svg" viewBox="347.5 567.5 129.39 141.51">
  <path id="Waterford Küste" fill="none" stroke="black" stroke-width="1" d="M 450.00,568.00            C 450.00,568.00 470.00,575.14 470.00,575.14              470.00,575.14 476.39,579.39 476.39,579.39              476.39,579.39 475.72,593.00 475.72,593.00              475.72,593.00 474.01,602.35 474.01,602.35              474.01,602.35 465.04,605.86 465.04,605.86              465.04,605.86 457.00,613.00 457.00,613.00              457.00,613.00 469.00,612.00 469.00,612.00              469.00,612.00 468.00,608.00 468.00,608.00              468.00,608.00 474.00,607.00 474.00,607.00              474.00,607.00 472.00,633.00 472.00,633.00              466.42,633.47 460.67,635.31 458.56,641.17              457.64,643.72 458.43,645.80 457.02,649.00              455.78,651.84 452.93,654.34 453.54,657.96              453.97,660.52 457.34,663.79 459.00,666.00              456.53,665.20 453.63,664.10 451.00,664.30              446.14,664.68 441.36,668.76 442.47,674.00              443.67,679.65 450.02,682.58 455.00,684.00              454.21,690.80 451.46,692.70 445.00,694.29              443.25,694.80 440.19,695.65 438.57,694.29              436.87,692.50 438.51,689.22 438.57,687.00              438.34,682.69 434.94,680.00 431.00,679.10              423.01,677.27 420.49,683.10 416.83,684.51              414.35,685.22 412.02,684.06 409.00,684.51              402.19,685.97 397.46,692.21 398.00,699.00              398.00,699.00 387.00,703.19 387.00,703.19              387.00,703.19 377.00,702.42 377.00,702.42              377.00,702.42 371.00,704.51 371.00,704.51              371.00,704.51 363.00,705.79 363.00,705.79              363.00,705.79 354.00,708.51 354.00,708.51              354.00,708.51 348.00,706.00 348.00,706.00              349.65,697.38 357.93,680.52 362.00,672.00              365.13,675.08 364.65,675.81 364.00,680.00              369.45,681.12 371.69,681.18 373.00,687.00              380.03,686.93 378.72,686.58 385.00,684.78              392.68,682.57 398.35,681.79 396.00,672.00              396.00,672.00 402.00,672.00 402.00,672.00              402.00,672.00 402.59,664.26 402.59,664.26              402.59,664.26 408.00,656.00 408.00,656.00              408.00,656.00 419.00,658.59 419.00,658.59              419.00,658.59 427.00,657.00 427.00,657.00              428.37,646.48 434.71,650.05 438.77,641.00              440.45,637.26 439.60,635.27 440.73,632.44              442.21,628.71 445.23,627.55 445.85,622.99              446.38,619.06 444.85,616.56 444.66,614.00              444.66,614.00 446.13,603.00 446.13,603.00              446.87,597.85 449.26,597.31 450.44,592.96              452.40,585.78 449.66,583.90 448.00,578.00              452.32,575.35 450.36,573.62 450.00,568.00 Z"/>
</svg>