<svg xmlns:inkscape="http://www.inkscape.org/namespaces/inkscape" xmlns:sodipodi="http://sodipodi.sourceforge.net/DTD/sodipodi-0.dtd" xmlns="http://www.w3.org/2000/svg" xmlns:svg="http://www.w3.org/2000/svg" version="1.1" id="svg1" sodipodi:docname="westliches_mittelmeer.svg" inkscape:version="1.3.2 (091e20e, 2023-11-25, custom)" viewBox="730.93 926.5 492.55 401.26">
  <defs id="defs1"/>
  <sodipodi:namedview id="namedview1" pagecolor="#ffffff" bordercolor="#999999" borderopacity="1" inkscape:showpageshadow="2" inkscape:pageopacity="0" inkscape:pagecheckerboard="0" inkscape:deskcolor="#d1d1d1" inkscape:document-units="in" inkscape:zoom="1.6768791" inkscape:cx="326.49938" inkscape:cy="244.8" inkscape:window-width="1920" inkscape:window-height="1017" inkscape:window-x="-8" inkscape:window-y="-8" inkscape:window-maximized="1" inkscape:current-layer="svg1"/>
  <path id="westliches Mittelmeer" fill="none" stroke="black" stroke-width="1" d="M 1044.00,927.00            C 1045.71,927.40 1048.91,927.78 1050.04,930.89              1051.80,935.38 1047.53,943.71 1051.91,948.64              1056.58,953.80 1064.04,951.16 1068.03,955.13              1070.51,958.52 1071.32,961.54 1072.00,965.99              1073.84,966.41 1075.00,966.77 1076.42,967.22              1078.17,967.96 1079.86,968.68 1081.03,969.99              1081.89,970.79 1082.64,972.34 1082.82,973.43              1083.31,975.13 1082.74,977.23 1086.09,979.42              1089.09,981.12 1091.23,980.90 1093.53,980.62              1098.07,979.94 1099.43,981.16 1101.07,982.43              1103.18,984.22 1104.71,986.95 1107.77,989.56              1109.06,990.53 1111.04,991.37 1113.09,991.96              1117.46,993.20 1123.03,993.64 1126.01,994.01              1124.10,997.57 1122.92,997.46 1121.54,998.16              1119.94,998.92 1118.76,999.81 1117.36,1000.63              1115.38,1001.83 1113.92,1003.13 1111.89,1004.03              1109.32,1005.04 1106.99,1005.38 1104.00,1006.02              1104.54,1009.06 1106.02,1011.56 1108.21,1013.91              1110.17,1016.01 1113.58,1018.67 1117.29,1020.21              1120.79,1021.59 1124.36,1022.06 1127.04,1020.81              1129.57,1019.79 1131.09,1018.19 1132.51,1016.06              1133.77,1014.12 1134.30,1012.33 1135.02,1010.86              1137.71,1013.51 1141.10,1014.74 1143.18,1014.93              1146.32,1015.21 1147.91,1014.52 1150.69,1013.56              1152.57,1012.78 1155.47,1010.94 1158.18,1010.64              1159.14,1010.54 1161.20,1010.63 1162.51,1013.31              1163.82,1016.48 1163.78,1017.04 1164.37,1018.79              1165.09,1021.09 1166.01,1022.73 1166.01,1022.73              1167.77,1025.71 1170.64,1026.76 1174.07,1026.86              1177.23,1026.96 1180.56,1026.11 1183.00,1026.00              1183.00,1026.00 1176.75,1035.28 1176.75,1035.28              1176.31,1035.98 1175.88,1036.51 1175.47,1037.21              1175.12,1038.61 1175.07,1040.17 1175.47,1041.89              1175.57,1042.62 1175.58,1043.31 1175.81,1044.11              1176.52,1046.82 1177.87,1049.18 1180.75,1049.44              1184.05,1049.86 1187.55,1048.46 1191.98,1047.86              1194.25,1047.59 1197.53,1047.98 1198.81,1047.44              1203.00,1046.28 1204.58,1042.91 1206.01,1041.32              1207.55,1038.42 1211.86,1037.25 1214.16,1040.14              1217.59,1043.55 1211.16,1049.38 1210.89,1056.04              1210.27,1063.44 1212.08,1069.89 1218.19,1072.61              1220.23,1073.43 1222.01,1074.60 1222.78,1076.09              1223.40,1077.42 1222.53,1078.84 1220.81,1080.23              1217.98,1082.38 1216.16,1081.28 1214.56,1080.55              1209.81,1077.12 1208.22,1073.03 1204.69,1070.63              1202.83,1068.73 1199.22,1068.81 1197.56,1069.31              1193.78,1069.94 1191.98,1072.73 1187.72,1073.47              1185.39,1073.55 1184.67,1072.86 1183.51,1072.47              1179.06,1070.20 1174.52,1069.31 1172.00,1071.94              1169.77,1073.97 1169.97,1079.73 1169.43,1083.00              1168.26,1087.83 1167.59,1090.01 1163.00,1092.00              1162.71,1089.82 1162.38,1086.34 1161.93,1083.00              1161.07,1079.28 1159.24,1076.26 1154.92,1077.19              1151.11,1078.41 1149.39,1081.27 1147.59,1084.31              1146.88,1085.68 1146.00,1087.05 1144.67,1088.25              1143.12,1089.56 1141.59,1089.78 1139.72,1089.92              1135.47,1090.23 1130.51,1089.39 1126.23,1090.86              1121.88,1093.05 1122.52,1097.80 1126.16,1101.19              1127.22,1102.02 1128.52,1103.01 1130.19,1103.50              1133.94,1105.22 1139.05,1105.53 1142.01,1106.00              1142.00,1108.21 1141.98,1107.26 1142.00,1109.00              1141.05,1109.15 1136.89,1109.80 1134.97,1110.71              1132.85,1111.44 1130.66,1112.81 1129.42,1114.71              1128.27,1116.27 1128.03,1118.33 1128.31,1120.31              1128.48,1121.53 1128.89,1122.91 1130.06,1124.40              1131.12,1125.60 1131.96,1126.26 1133.20,1127.09              1134.82,1128.16 1134.45,1127.88 1136.23,1129.30              1136.69,1129.63 1137.61,1130.60 1138.25,1131.70              1138.98,1133.32 1139.42,1134.41 1139.58,1134.89              1140.22,1136.38 1140.32,1136.60 1140.80,1137.62              1140.33,1138.07 1140.67,1138.80 1140.48,1138.98              1140.14,1139.31 1139.51,1138.87 1139.15,1139.26              1137.88,1138.66 1137.04,1138.26 1135.06,1138.33              1132.09,1138.45 1129.64,1139.22 1127.07,1138.96              1123.99,1138.64 1122.02,1137.60 1118.64,1134.06              1117.21,1132.49 1114.74,1131.04 1112.87,1131.80              1111.40,1132.30 1110.47,1133.79 1110.39,1135.61              1110.17,1137.92 1111.40,1140.77 1111.59,1143.12              1111.71,1145.04 1111.09,1147.01 1109.87,1148.52              1105.77,1153.48 1102.72,1151.19 1100.41,1149.28              1098.04,1147.31 1095.84,1145.08 1093.27,1145.73              1091.30,1146.11 1089.98,1148.88 1087.17,1152.09              1085.51,1153.91 1083.76,1155.41 1081.38,1155.17              1080.03,1155.07 1078.78,1154.06 1076.93,1151.97              1075.45,1149.86 1072.83,1148.95 1070.34,1147.78              1066.45,1146.31 1061.99,1144.51 1059.09,1145.62              1057.25,1146.22 1056.42,1147.23 1056.56,1149.09              1056.78,1151.56 1058.80,1154.50 1058.12,1157.09              1057.74,1158.78 1054.91,1160.07 1051.97,1160.08              1046.75,1160.09 1041.55,1156.45 1037.23,1153.66              1035.02,1152.28 1031.27,1149.66 1028.72,1150.92              1026.95,1151.75 1026.44,1153.98 1027.75,1155.72              1029.69,1157.25 1032.94,1159.47 1032.91,1161.48              1032.64,1163.39 1028.41,1164.41 1025.12,1163.58              1022.25,1163.08 1018.97,1160.36 1016.45,1160.77              1013.23,1161.62 1014.50,1165.41 1013.77,1168.42              1013.37,1170.37 1012.69,1171.48 1011.02,1172.61              1009.34,1173.81 1007.06,1173.81 1005.40,1173.94              1002.81,1174.03 1000.81,1174.31 999.08,1175.64              995.14,1178.52 993.83,1183.30 989.93,1185.76              986.20,1188.23 982.25,1186.81 977.89,1183.16              975.93,1181.84 974.28,1181.45 972.36,1182.49              968.33,1184.73 965.56,1189.47 963.09,1192.71              961.13,1195.29 959.48,1197.70 957.41,1199.59              953.36,1203.64 950.48,1204.09 947.00,1203.83              942.16,1203.55 935.03,1203.02 934.60,1202.22              933.43,1200.74 934.65,1197.53 935.16,1195.02              935.68,1192.26 935.55,1190.09 932.37,1190.17              928.40,1190.23 926.36,1193.78 924.52,1197.81              922.88,1201.50 921.10,1205.10 918.36,1206.10              914.78,1207.54 914.16,1206.29 910.27,1208.38              906.84,1210.87 905.08,1212.88 903.00,1213.83              901.70,1214.48 900.58,1214.73 899.03,1214.80              893.88,1215.39 887.12,1210.20 882.72,1211.17              877.80,1212.06 876.65,1216.10 877.77,1218.38              879.38,1221.28 882.42,1221.61 883.98,1222.00              882.48,1226.48 879.87,1227.39 877.97,1228.52              874.27,1230.17 870.86,1230.32 867.41,1231.55              865.73,1232.02 864.09,1232.74 862.53,1234.09              861.04,1235.37 860.22,1237.54 859.81,1238.80              858.94,1241.04 859.22,1243.46 858.82,1246.37              858.77,1247.48 858.42,1249.50 857.59,1250.64              856.61,1252.16 853.89,1253.43 852.11,1252.97              848.51,1251.87 846.73,1248.32 846.30,1244.52              846.01,1242.25 845.97,1239.82 845.20,1237.55              843.91,1234.54 842.24,1232.35 839.56,1232.62              836.56,1233.03 834.95,1237.66 833.67,1240.18              832.53,1242.09 830.81,1243.98 829.85,1245.44              828.44,1247.52 828.14,1249.45 828.22,1250.02              828.26,1252.62 829.64,1255.01 831.08,1256.37              833.58,1259.18 838.07,1261.64 839.29,1264.33              839.91,1265.70 839.90,1266.91 838.49,1268.40              837.79,1269.06 836.06,1269.88 834.40,1270.84              831.33,1272.96 827.72,1274.64 826.62,1273.98              824.71,1273.60 823.53,1269.51 821.07,1266.93              818.82,1265.00 815.18,1264.24 812.56,1266.29              809.16,1268.40 809.79,1274.29 807.31,1277.98              804.07,1282.31 799.18,1279.89 796.71,1285.69              795.33,1288.11 795.93,1292.67 796.13,1294.76              796.01,1298.89 796.20,1302.29 791.02,1304.96              790.38,1302.67 790.27,1300.82 789.07,1298.49              788.49,1297.29 786.73,1294.04 783.24,1294.71              781.40,1295.24 779.67,1296.02 778.11,1298.20              776.48,1300.45 776.07,1304.06 775.11,1306.26              774.36,1310.20 771.85,1313.63 769.73,1315.51              768.53,1316.58 765.02,1319.53 760.69,1321.11              756.11,1322.27 753.71,1322.02 751.02,1322.38              751.02,1322.38 737.28,1327.00 737.28,1327.00              735.34,1327.47 732.48,1327.55 731.72,1325.19              730.67,1322.52 732.70,1320.53 734.84,1319.56              736.16,1318.97 737.63,1318.64 739.14,1318.30              742.59,1317.68 745.28,1317.42 747.36,1316.41              748.85,1315.68 750.12,1314.49 750.72,1312.80              751.33,1308.70 751.19,1307.03 754.22,1305.19              757.42,1303.16 764.12,1301.12 766.28,1296.23              767.48,1293.27 766.44,1290.94 766.05,1288.22              766.01,1287.05 766.36,1286.33 766.72,1285.26              767.44,1282.86 768.42,1280.58 769.59,1278.15              771.20,1274.82 773.82,1275.64 775.76,1276.40              777.31,1276.93 778.78,1277.64 781.17,1278.46              782.48,1278.82 784.13,1279.08 786.37,1279.12              788.44,1279.01 791.47,1278.84 793.00,1276.53              794.04,1274.86 793.79,1272.91 793.52,1271.71              793.02,1269.78 790.96,1267.75 789.29,1266.41              787.07,1264.66 785.74,1264.09 784.04,1262.50              783.74,1262.25 783.47,1262.07 783.29,1261.82              783.76,1262.16 784.78,1262.69 785.82,1263.00              787.18,1263.33 788.65,1263.25 791.15,1262.36              795.26,1260.87 796.95,1261.71 800.28,1262.36              803.86,1262.86 805.96,1261.38 806.62,1259.34              807.34,1257.18 806.86,1254.95 806.77,1253.70              806.42,1251.31 806.24,1250.58 806.14,1249.37              806.03,1248.17 805.84,1246.77 806.77,1245.52              807.92,1244.11 811.70,1243.73 814.05,1241.69              815.58,1240.52 816.74,1238.79 817.37,1236.73              817.68,1235.53 818.10,1233.88 817.79,1232.03              817.35,1229.61 816.57,1228.46 815.52,1227.57              814.18,1226.45 812.48,1225.99 810.46,1226.23              808.37,1226.52 807.41,1227.81 805.97,1228.45              805.48,1228.62 804.23,1229.64 800.03,1230.00              799.92,1228.91 800.02,1228.65 799.99,1227.68              799.92,1225.62 800.09,1223.90 800.40,1222.92              801.00,1220.95 801.98,1219.60 804.00,1218.13              806.33,1216.31 810.34,1214.98 813.23,1213.12              815.94,1211.34 817.26,1209.03 817.73,1206.78              818.22,1203.67 816.75,1201.67 816.08,1200.43              814.66,1198.33 813.10,1196.24 812.47,1194.03              811.70,1190.99 812.16,1188.08 813.70,1186.50              815.02,1185.21 816.68,1185.19 818.33,1185.75              820.29,1186.63 821.92,1187.89 823.33,1188.91              825.00,1190.05 826.76,1191.36 828.77,1192.04              831.22,1192.96 833.62,1193.48 837.07,1192.27              843.05,1189.91 844.08,1186.56 844.55,1182.76              844.95,1180.75 845.19,1178.56 845.82,1176.21              846.81,1173.69 848.30,1170.73 850.96,1166.74              853.46,1163.62 856.08,1162.18 858.90,1162.00              862.16,1161.55 866.25,1162.80 869.98,1161.26              874.31,1159.46 876.37,1156.13 877.33,1151.89              877.68,1149.98 878.05,1148.10 878.49,1146.24              878.83,1144.62 879.46,1143.03 881.01,1141.56              881.69,1140.68 882.82,1139.81 883.41,1139.27              885.66,1137.44 887.56,1135.51 888.24,1133.19              888.89,1130.83 888.61,1128.10 887.00,1126.12              885.87,1124.91 884.94,1124.42 883.67,1123.76              881.60,1122.70 879.45,1121.89 877.99,1120.79              877.08,1119.91 876.37,1119.21 875.96,1118.27              875.31,1117.06 875.20,1115.49 875.27,1114.32              875.48,1111.96 876.54,1110.82 877.34,1109.22              878.26,1107.54 879.29,1105.79 880.29,1104.00              880.69,1102.74 881.00,1101.30 880.94,1099.90              881.23,1096.71 879.64,1091.97 877.57,1090.25              876.36,1089.07 874.69,1088.25 872.44,1088.13              871.12,1088.08 869.88,1088.33 868.97,1088.98              867.12,1090.17 866.62,1091.70 865.84,1093.48              865.28,1094.77 865.08,1096.28 864.69,1097.66              864.22,1099.68 863.56,1100.14 863.00,1100.66              862.72,1100.89 862.41,1101.04 862.18,1101.19              861.80,1101.36 859.80,1102.05 859.93,1101.99              859.92,1100.47 859.96,1098.83 859.92,1097.50              860.00,1096.88 859.82,1096.60 859.71,1096.11              859.10,1093.27 856.81,1092.43 855.75,1092.36              853.56,1092.05 852.41,1092.48 849.53,1093.19              847.65,1093.84 845.69,1094.61 844.00,1095.00              843.94,1091.28 844.62,1089.15 846.03,1087.82              847.88,1086.33 849.44,1086.19 852.12,1085.72              855.61,1084.97 857.50,1083.65 858.40,1080.91              859.75,1077.85 857.70,1073.12 857.16,1069.16              856.39,1065.62 857.41,1062.22 858.27,1060.97              860.92,1057.30 863.73,1058.09 866.66,1055.58              867.72,1054.66 868.30,1054.28 869.33,1052.16              869.85,1051.02 869.90,1049.78 870.48,1046.81              870.64,1045.79 871.45,1044.72 872.48,1043.89              873.27,1043.30 874.39,1042.85 874.98,1042.56              881.20,1040.16 881.84,1036.27 879.17,1031.48              878.58,1030.05 876.48,1027.53 876.88,1024.98              877.62,1021.96 880.19,1020.66 881.43,1019.33              883.36,1017.54 884.57,1015.99 885.24,1014.38              885.71,1013.31 885.91,1012.05 885.95,1011.14              885.89,1009.03 884.92,1006.88 883.90,1005.64              882.12,1003.32 879.59,1002.29 877.70,1002.24              874.60,1002.14 872.96,1003.68 871.39,1004.90              869.53,1006.63 867.71,1007.96 865.98,1009.03              865.93,1007.05 865.79,1002.89 867.19,1000.82              867.90,999.82 869.00,998.40 871.59,997.39              875.50,996.10 878.86,995.34 880.50,994.68              883.02,993.96 886.03,992.41 887.60,991.12              890.35,988.85 891.36,986.42 890.47,982.89              889.06,978.43 885.38,976.39 882.03,976.41              878.79,976.49 876.37,978.12 873.99,978.92              868.32,981.20 866.40,980.59 864.91,980.19              860.77,978.59 859.19,975.40 856.44,972.84              856.28,972.53 856.68,970.45 857.99,969.98              859.43,967.80 860.91,965.63 864.12,965.27              865.97,965.07 868.11,965.83 870.29,966.36              872.09,966.79 873.90,967.17 875.49,966.92              877.39,966.61 879.21,965.91 880.95,964.11              883.89,961.42 883.64,958.19 883.92,956.16              884.23,952.50 885.24,949.09 889.16,946.00              888.99,948.19 888.79,950.53 889.66,952.53              890.22,954.15 891.49,955.73 892.98,956.33              895.06,957.40 898.34,956.58 900.60,955.68              901.45,955.48 907.99,952.08 908.00,952.00              907.90,954.06 907.45,956.33 907.28,958.69              906.97,961.66 906.89,964.75 907.13,967.38              907.25,968.73 907.51,969.97 907.98,971.04              908.32,972.03 909.28,973.34 909.97,974.11              912.46,976.74 915.43,977.73 917.10,977.15              919.82,976.33 920.59,973.47 920.82,971.25              921.11,967.48 922.07,963.62 923.00,961.00              924.70,961.38 926.68,961.65 928.39,961.56              931.13,961.41 933.36,960.33 935.39,958.96              938.03,957.10 940.12,954.58 942.24,952.31              943.85,950.56 945.97,948.63 948.68,946.45              950.36,945.19 952.24,943.72 954.77,942.83              956.46,942.04 959.43,942.04 961.04,943.32              963.31,944.65 963.19,946.81 961.70,948.80              961.20,949.98 959.26,951.57 957.88,953.06              956.41,954.61 954.77,956.40 953.77,959.18              953.20,960.78 952.78,962.97 953.19,965.01              953.66,968.94 956.10,970.22 958.82,971.13              960.58,971.77 962.85,972.02 964.44,973.61              965.19,975.55 965.51,976.27 966.19,977.86              966.54,978.86 967.31,980.39 967.94,982.00              968.95,984.11 969.72,986.32 969.19,987.30              968.62,989.16 965.47,990.21 964.33,991.44              962.69,993.00 962.04,995.02 962.20,997.03              962.69,1003.26 975.81,1005.06 979.91,1004.24              980.81,1003.91 986.78,999.25 987.00,998.98              987.09,1005.87 980.11,1007.15 977.16,1013.09              975.64,1016.38 976.02,1022.28 976.00,1026.00              976.03,1029.38 976.08,1031.86 975.31,1034.02              974.63,1036.42 973.38,1038.16 972.64,1039.74              972.00,1041.13 971.37,1042.39 971.34,1043.97              971.27,1046.08 971.84,1047.89 973.33,1049.19              975.65,1051.04 978.03,1050.36 979.94,1049.60              980.58,1049.27 986.12,1046.99 987.95,1047.06              987.67,1048.30 987.70,1049.36 985.86,1052.59              984.33,1055.05 983.19,1056.31 980.70,1058.56              978.56,1060.27 976.86,1061.74 975.06,1063.17              973.83,1064.36 972.59,1065.48 971.78,1067.44              971.03,1068.98 971.05,1071.01 971.01,1072.40              971.14,1074.58 971.70,1076.55 972.80,1078.41              974.22,1080.49 975.42,1081.91 979.47,1083.05              981.42,1083.35 983.45,1083.41 984.79,1082.67              986.19,1082.33 988.92,1080.56 991.00,1078.89              992.92,1077.35 994.81,1075.56 998.03,1074.52              1000.53,1073.91 1000.98,1075.95 1000.81,1076.81              1000.45,1078.69 998.72,1081.23 998.23,1082.53              997.14,1084.98 996.10,1087.33 996.59,1090.14              997.12,1093.31 998.80,1095.08 1000.70,1096.94              1003.31,1099.25 1006.41,1101.24 1006.09,1104.59              1005.78,1107.27 1003.98,1109.38 1002.06,1112.52              998.55,1118.03 994.28,1124.33 999.84,1129.47              1006.28,1133.91 1011.69,1130.25 1014.53,1125.68              1016.69,1121.81 1019.00,1118.81 1022.39,1117.64              1026.50,1116.20 1030.50,1118.14 1034.55,1117.84              1040.88,1117.64 1043.66,1113.63 1048.23,1112.45              1052.83,1111.32 1058.79,1112.82 1062.91,1110.98              1066.91,1109.38 1068.81,1106.66 1070.39,1103.44              1072.20,1099.88 1071.38,1097.03 1074.34,1095.17              1076.77,1093.58 1084.44,1094.47 1088.72,1092.97              1091.69,1092.07 1093.67,1090.17 1094.40,1087.87              1095.11,1086.12 1095.13,1083.62 1095.11,1081.86              1094.86,1079.62 1094.46,1077.02 1093.31,1075.13              1091.61,1072.26 1090.14,1070.78 1086.78,1070.17              1082.47,1069.76 1078.42,1070.47 1075.42,1068.94              1073.71,1067.97 1072.13,1066.53 1071.50,1063.89              1070.95,1061.91 1071.09,1059.66 1071.02,1058.01              1073.07,1059.21 1073.83,1060.29 1075.04,1061.44              1077.51,1064.14 1079.38,1065.69 1081.70,1066.33              1086.50,1067.10 1087.93,1063.54 1091.12,1060.77              1093.00,1059.24 1094.72,1057.96 1095.70,1056.17              1097.15,1053.71 1096.91,1051.37 1096.57,1049.77              1096.41,1047.78 1094.74,1045.57 1092.94,1045.00              1090.78,1044.21 1089.38,1044.08 1086.01,1044.01              1087.22,1040.58 1087.56,1039.27 1087.62,1036.04              1087.53,1033.27 1086.78,1031.07 1084.82,1029.61              1081.59,1027.62 1079.58,1028.86 1078.03,1029.20              1075.75,1029.70 1074.58,1030.51 1072.00,1030.99              1070.69,1025.20 1067.13,1024.80 1066.00,1023.98              1067.89,1023.42 1070.92,1022.34 1072.38,1020.87              1074.30,1018.92 1075.31,1016.10 1075.78,1013.04              1076.53,1008.15 1075.07,1005.20 1073.67,1002.89              1072.08,1000.15 1070.36,998.36 1068.89,995.16              1067.13,990.07 1070.02,987.93 1071.04,986.38              1073.38,982.84 1072.76,979.40 1071.16,977.24              1069.47,974.89 1065.82,973.58 1064.00,973.00              1064.48,971.34 1065.94,968.51 1065.93,966.82              1066.22,961.96 1063.40,960.13 1059.04,958.64              1052.11,956.89 1047.70,955.82 1044.96,952.27              1040.31,945.98 1043.11,933.72 1044.00,927.00 Z"/>
</svg>