<svg xmlns="http://www.w3.org/2000/svg" viewBox="541.31 448.38 110.19 136.12">
  <path id="York" fill="none" stroke="black" stroke-width="1" d="M 605.00,584.00            C 600.01,579.60 591.19,560.88 587.64,554.00              587.64,554.00 569.48,522.00 569.48,522.00              569.48,522.00 557.04,498.83 557.04,498.83              557.04,498.83 545.59,478.00 545.59,478.00              543.97,475.05 541.24,470.46 541.91,467.00              542.49,463.98 545.45,460.76 547.36,458.42              551.16,453.77 550.95,451.09 552.58,449.82              554.59,448.14 559.74,449.07 562.00,449.82              572.59,453.66 572.34,464.34 579.30,471.90              579.30,471.90 584.61,476.59 584.61,476.59              584.61,476.59 595.98,490.09 595.98,490.09              596.79,491.58 596.75,492.44 597.00,494.00              597.00,494.00 608.00,494.00 608.00,494.00              609.72,499.37 611.86,498.93 617.00,499.00              618.40,507.80 623.09,507.70 626.04,511.49              626.04,511.49 628.41,515.71 628.41,515.71              628.41,515.71 639.00,530.00 639.00,530.00              630.00,529.48 628.14,524.76 618.00,528.00              618.00,528.00 634.00,533.57 634.00,533.57              637.50,534.30 647.08,532.13 651.00,543.00              645.68,543.70 640.25,543.66 636.56,548.11              632.70,552.75 633.84,556.83 629.78,560.37              626.08,563.58 615.59,566.96 612.23,570.27              610.12,572.34 607.30,580.18 605.00,584.00 Z            M 633.00,522.00            C 633.00,522.00 632.00,522.00 632.00,522.00              632.00,522.00 633.00,523.00 633.00,523.00              633.00,523.00 633.00,522.00 633.00,522.00 Z"/>
</svg>