<svg xmlns="http://www.w3.org/2000/svg" viewBox="553.5 432.5 115 109">
  <path id="York Küste" fill="none" stroke="black" stroke-width="1" d="M 558.00,434.00            C 558.00,434.00 572.00,433.00 572.00,433.00              570.99,445.72 579.65,447.99 590.00,448.00              590.21,449.84 590.23,451.20 591.17,452.90              592.43,455.16 601.51,462.19 604.00,462.88              606.66,463.37 608.39,462.12 613.00,462.88              611.78,468.43 608.90,479.17 619.00,477.66              621.08,477.35 623.93,475.81 626.00,475.00              623.82,478.78 619.45,484.06 618.59,488.00              617.00,495.37 623.54,502.38 630.99,501.43              637.67,500.58 637.72,495.60 645.00,493.00              644.04,495.41 641.59,499.17 641.38,501.09              640.77,506.76 646.54,511.61 651.99,510.39              657.49,509.17 657.47,505.03 664.00,503.00              664.00,503.00 659.57,512.00 659.57,512.00              657.42,520.02 662.61,525.27 668.00,530.00              668.00,530.00 650.00,541.00 650.00,541.00              645.41,534.80 644.36,534.20 637.00,533.88              631.78,533.65 631.23,531.75 627.00,530.50              627.00,530.50 620.00,529.00 620.00,529.00              627.44,524.68 631.48,529.56 639.00,530.00              637.39,526.96 635.39,524.00 632.00,523.00              632.00,523.00 627.00,510.00 627.00,510.00              621.65,508.80 620.79,507.41 621.00,502.00              621.00,502.00 617.00,499.00 617.00,499.00              617.00,499.00 608.00,498.00 608.00,498.00              608.00,498.00 608.00,494.00 608.00,494.00              608.00,494.00 597.00,494.00 597.00,494.00              595.48,486.89 593.49,487.94 589.63,482.91              587.82,480.54 586.96,477.77 584.62,475.84              582.70,474.26 580.83,474.19 577.85,471.04              574.66,467.67 575.31,465.79 573.39,462.00              568.61,452.51 564.43,449.61 554.00,448.00              554.00,448.00 558.00,434.00 558.00,434.00 Z"/>
</svg>