<svg xmlns="http://www.w3.org/2000/svg" viewBox="1479.56 938.5 468.95 461.03">
  <path id="Zone VI" fill="green" stroke="black" stroke-width="1" d="M 1671.00,1005.00            C 1671.00,1005.00 1678.00,1005.00 1678.00,1005.00              1684.76,1005.01 1686.02,1004.59 1687.51,1011.00              1688.07,1012.56 1688.84,1014.99 1687.51,1016.26              1684.90,1018.33 1681.30,1014.00 1679.00,1012.59              1675.21,1010.28 1672.96,1011.50 1670.14,1010.26              1667.85,1009.26 1666.39,1006.62 1665.06,1004.57              1663.65,1002.42 1662.41,1000.72 1663.87,998.13              1665.92,994.47 1672.44,993.37 1675.95,991.01              1682.24,986.77 1681.95,976.87 1692.00,976.06              1700.26,975.39 1698.85,978.87 1710.00,979.00              1710.00,979.00 1728.00,979.00 1728.00,979.00              1728.00,979.00 1740.00,978.04 1740.00,978.04              1740.00,978.04 1752.00,978.04 1752.00,978.04              1762.54,977.98 1758.86,976.12 1767.00,976.00              1780.51,975.80 1780.98,976.12 1794.00,970.57              1803.88,966.36 1813.02,960.02 1824.00,960.00              1824.00,960.00 1848.00,961.00 1848.00,961.00              1860.32,960.98 1881.72,954.01 1893.00,948.82              1893.00,948.82 1905.00,942.20 1905.00,942.20              1910.95,939.72 1919.57,938.93 1926.00,939.00              1934.35,939.10 1935.36,940.55 1942.00,945.03              1943.73,946.20 1946.52,947.51 1947.43,949.41              1948.14,950.92 1947.99,954.27 1948.00,956.00              1934.96,951.71 1936.47,945.01 1924.00,945.01              1909.18,945.00 1904.25,950.31 1892.00,956.05              1879.16,962.06 1863.33,967.94 1849.00,968.00              1849.00,968.00 1821.00,966.21 1821.00,966.21              1821.00,966.21 1782.00,982.08 1782.00,982.08              1772.60,984.66 1771.57,983.35 1764.00,984.29              1764.00,984.29 1754.00,985.83 1754.00,985.83              1754.00,985.83 1717.00,987.00 1717.00,987.00              1717.00,987.00 1700.00,985.54 1700.00,985.54              1696.82,984.98 1692.25,983.21 1689.27,985.03              1685.94,987.06 1686.41,991.94 1680.91,996.61              1676.25,1000.56 1673.02,998.91 1671.00,1005.00 Z            M 1904.00,1281.00            C 1904.00,1272.23 1903.61,1266.85 1910.73,1260.28              1915.27,1256.09 1920.23,1257.92 1921.14,1253.86              1921.80,1250.94 1917.72,1244.65 1916.31,1242.00              1913.73,1237.17 1910.65,1227.47 1911.37,1222.00              1912.71,1211.77 1922.72,1204.29 1924.25,1199.99              1926.52,1193.57 1918.77,1187.87 1919.33,1179.00              1919.52,1175.88 1920.20,1169.77 1921.36,1167.00              1924.41,1159.74 1929.16,1156.93 1930.40,1153.83              1931.21,1151.81 1931.02,1146.38 1931.00,1144.00              1931.00,1144.00 1930.00,1127.00 1930.00,1127.00              1930.05,1115.65 1933.65,1113.54 1931.82,1099.00              1930.76,1090.58 1926.02,1089.91 1926.09,1074.00              1926.09,1074.00 1926.09,1060.00 1926.09,1060.00              1926.57,1056.29 1928.04,1052.78 1927.79,1049.00              1927.44,1043.80 1922.85,1036.33 1922.25,1030.00              1921.44,1021.54 1925.33,1014.17 1926.62,1007.00              1927.94,999.68 1921.21,987.26 1934.01,979.48              1935.60,978.52 1937.18,977.80 1939.00,977.20              1941.31,976.87 1945.50,977.00 1948.00,977.20              1948.00,977.20 1948.00,983.00 1948.00,983.00              1941.02,984.09 1934.39,987.15 1933.30,995.00              1933.30,995.00 1933.99,1005.00 1933.99,1005.00              1934.25,1016.98 1930.53,1013.59 1930.06,1021.01              1930.06,1021.01 1934.00,1048.00 1934.00,1048.00              1934.05,1058.69 1933.06,1055.64 1932.09,1063.00              1932.09,1063.00 1932.09,1075.00 1932.09,1075.00              1932.15,1083.97 1937.94,1089.18 1938.00,1102.00              1938.06,1116.60 1933.54,1114.70 1934.04,1127.00              1934.33,1134.15 1937.38,1141.74 1936.82,1149.00              1936.54,1152.60 1935.13,1157.66 1932.97,1160.57              1929.96,1164.61 1926.30,1165.23 1926.02,1173.00              1925.88,1176.92 1926.50,1182.30 1927.78,1186.00              1929.03,1189.58 1931.98,1195.24 1931.75,1199.00              1931.47,1203.54 1925.69,1208.18 1922.93,1212.00              1918.78,1217.72 1918.93,1220.25 1919.00,1227.00              1919.18,1242.85 1929.75,1243.85 1927.87,1255.91              1926.72,1263.25 1918.79,1260.53 1912.43,1269.02              1908.78,1273.88 1910.00,1283.96 1910.00,1290.00              1906.19,1289.95 1904.23,1290.15 1901.01,1287.69              1897.19,1284.75 1893.27,1278.00 1888.00,1277.64              1884.27,1277.38 1880.30,1281.62 1877.00,1283.47              1872.67,1285.90 1871.53,1285.17 1868.06,1286.39              1866.10,1287.08 1864.80,1287.92 1864.42,1290.11              1863.68,1294.28 1868.55,1300.54 1867.76,1306.00              1867.06,1310.83 1863.31,1312.83 1861.74,1317.00              1860.68,1319.81 1861.00,1326.72 1861.00,1330.00              1861.00,1330.00 1855.00,1330.00 1855.00,1330.00              1855.00,1330.00 1853.00,1322.00 1853.00,1322.00              1838.45,1319.57 1846.24,1307.00 1832.00,1305.00              1832.00,1305.00 1833.10,1322.00 1833.10,1322.00              1833.10,1322.00 1836.00,1336.00 1836.00,1336.00              1822.65,1338.72 1818.81,1353.71 1830.00,1362.00              1828.01,1372.97 1826.00,1366.18 1826.00,1381.00              1834.48,1383.47 1838.48,1391.59 1834.43,1394.83              1833.03,1395.94 1829.80,1396.11 1828.00,1396.44              1821.17,1397.70 1822.27,1399.30 1814.00,1398.98              1807.93,1398.74 1807.23,1396.75 1802.00,1394.90              1802.00,1394.90 1791.00,1392.05 1791.00,1392.05              1780.05,1387.10 1771.21,1379.23 1761.00,1373.13              1761.00,1373.13 1734.00,1360.12 1734.00,1360.12              1728.91,1357.09 1715.27,1347.66 1711.00,1346.56              1707.53,1345.66 1689.66,1347.39 1685.00,1347.83              1685.00,1347.83 1649.00,1350.14 1649.00,1350.14              1643.66,1350.92 1643.59,1353.58 1635.00,1354.90              1635.00,1354.90 1624.00,1354.90 1624.00,1354.90              1624.00,1354.90 1612.00,1356.00 1612.00,1356.00              1612.00,1356.00 1553.00,1356.00 1553.00,1356.00              1540.18,1356.17 1533.07,1362.52 1524.00,1365.59              1524.00,1365.59 1507.00,1367.90 1507.00,1367.90              1498.09,1370.08 1491.67,1378.42 1488.56,1366.00              1488.31,1364.11 1488.14,1362.95 1488.56,1361.00              1488.92,1356.11 1491.31,1351.38 1489.26,1346.00              1486.76,1339.43 1479.47,1337.91 1480.10,1328.00              1480.10,1328.00 1486.39,1298.00 1486.39,1298.00              1486.39,1298.00 1488.21,1283.00 1488.21,1283.00              1488.21,1283.00 1489.79,1276.00 1489.79,1276.00              1489.79,1276.00 1490.42,1270.09 1490.42,1270.09              1491.42,1266.34 1494.48,1264.37 1496.02,1261.00              1497.18,1258.45 1496.99,1255.74 1497.00,1253.00              1497.00,1253.00 1497.00,1236.00 1497.00,1236.00              1497.00,1236.00 1496.09,1224.00 1496.09,1224.00              1496.09,1224.00 1494.80,1195.00 1494.80,1195.00              1494.99,1191.09 1493.47,1180.75 1494.80,1178.15              1495.97,1174.99 1500.11,1174.34 1502.40,1176.60              1504.90,1179.05 1503.36,1186.85 1511.00,1188.68              1518.35,1190.44 1523.63,1183.86 1530.00,1182.00              1529.42,1186.26 1526.96,1190.47 1527.70,1192.77              1528.73,1195.94 1533.27,1196.13 1536.00,1195.89              1543.12,1195.28 1555.46,1184.62 1562.00,1181.07              1569.02,1177.26 1573.90,1180.64 1578.91,1177.26              1585.21,1173.00 1583.22,1166.58 1593.00,1165.00              1592.18,1169.55 1589.01,1175.58 1590.74,1179.91              1593.24,1186.17 1604.47,1189.43 1609.47,1180.98              1617.15,1168.00 1604.82,1157.90 1607.47,1147.00              1608.34,1143.39 1615.75,1128.88 1618.41,1126.74              1622.34,1123.57 1625.92,1126.93 1629.08,1120.94              1631.99,1115.72 1629.49,1111.41 1629.08,1106.00              1636.91,1107.28 1641.16,1116.86 1647.94,1112.39              1649.88,1111.11 1651.13,1109.22 1651.84,1107.00              1652.03,1105.63 1651.98,1103.44 1651.84,1102.00              1651.84,1102.00 1669.00,1103.00 1669.00,1103.00              1667.40,1107.31 1665.03,1107.37 1663.33,1111.02              1660.45,1117.19 1665.29,1120.27 1671.00,1119.90              1676.99,1119.52 1680.97,1116.42 1684.54,1111.82              1685.79,1110.21 1687.74,1106.20 1689.98,1106.20              1692.80,1106.20 1693.12,1110.87 1694.31,1112.85              1697.07,1117.47 1704.27,1116.43 1707.96,1113.57              1712.05,1110.40 1713.78,1106.06 1712.51,1101.00              1711.67,1097.67 1709.71,1095.74 1710.59,1092.00              1711.63,1087.52 1713.88,1088.31 1714.00,1079.00              1714.11,1069.95 1713.58,1071.06 1712.26,1063.00              1712.26,1063.00 1711.70,1054.00 1711.70,1054.00              1711.70,1054.00 1709.43,1042.00 1709.43,1042.00              1708.64,1036.67 1708.80,1027.00 1704.77,1023.31              1701.20,1020.04 1693.66,1021.00 1689.00,1021.00              1689.36,1019.36 1689.47,1017.89 1690.74,1016.60              1693.28,1014.02 1709.03,1013.56 1711.52,1020.33              1711.52,1020.33 1712.32,1026.00 1712.32,1026.00              1712.32,1026.00 1717.15,1055.00 1717.15,1055.00              1717.15,1055.00 1719.95,1084.00 1719.95,1084.00              1719.63,1088.91 1717.67,1090.94 1717.47,1093.96              1717.20,1098.01 1722.08,1102.02 1719.11,1110.00              1716.34,1117.47 1705.79,1122.93 1698.09,1121.86              1693.84,1121.28 1692.92,1118.18 1689.00,1118.56              1686.76,1118.77 1683.27,1121.08 1681.00,1122.05              1673.20,1125.40 1667.27,1126.52 1660.06,1121.10              1657.29,1119.02 1656.96,1118.17 1656.00,1115.00              1645.42,1120.05 1646.92,1119.19 1636.00,1117.00              1635.52,1119.53 1635.03,1123.42 1633.27,1125.35              1630.64,1128.24 1625.74,1127.98 1622.19,1130.70              1619.17,1133.01 1616.10,1139.45 1614.46,1143.00              1612.93,1146.32 1611.35,1151.30 1612.58,1154.91              1613.57,1157.79 1616.08,1159.21 1617.39,1164.00              1619.44,1171.54 1617.04,1178.87 1612.30,1184.83              1607.22,1191.20 1599.35,1194.70 1592.09,1189.35              1588.86,1186.97 1586.52,1181.95 1582.00,1182.26              1582.00,1182.26 1576.00,1183.79 1576.00,1183.79              1571.14,1184.51 1567.38,1183.10 1562.00,1186.08              1554.29,1190.36 1544.74,1200.15 1535.83,1201.76              1525.52,1203.63 1523.50,1196.18 1519.79,1194.60              1517.51,1193.63 1511.94,1194.20 1509.01,1193.82              1509.01,1193.82 1500.00,1191.00 1500.00,1191.00              1500.00,1191.00 1501.17,1219.00 1501.17,1219.00              1501.17,1219.00 1503.00,1239.00 1503.00,1239.00              1503.00,1239.00 1503.00,1250.00 1503.00,1250.00              1502.98,1265.84 1499.26,1264.33 1496.70,1273.00              1496.70,1273.00 1489.59,1308.00 1489.59,1308.00              1488.47,1314.65 1486.56,1321.23 1486.34,1328.00              1486.11,1335.17 1492.47,1335.92 1494.66,1342.04              1497.73,1350.64 1494.19,1357.50 1494.00,1366.00              1494.00,1366.00 1509.00,1361.62 1509.00,1361.62              1509.00,1361.62 1523.00,1360.13 1523.00,1360.13              1523.00,1360.13 1538.17,1352.78 1538.17,1352.78              1538.17,1352.78 1557.00,1350.00 1557.00,1350.00              1557.00,1350.00 1615.00,1350.00 1615.00,1350.00              1615.00,1350.00 1627.00,1348.98 1627.00,1348.98              1627.00,1348.98 1635.00,1348.98 1635.00,1348.98              1635.00,1348.98 1650.04,1343.33 1650.04,1343.33              1650.04,1343.33 1682.00,1342.00 1682.00,1342.00              1682.00,1342.00 1701.00,1340.20 1701.00,1340.20              1701.00,1340.20 1711.00,1340.20 1711.00,1340.20              1711.00,1340.20 1738.00,1354.98 1738.00,1354.98              1738.00,1354.98 1761.00,1367.07 1761.00,1367.07              1761.00,1367.07 1772.00,1371.88 1772.00,1371.88              1772.00,1371.88 1786.00,1382.24 1786.00,1382.24              1786.00,1382.24 1804.00,1388.47 1804.00,1388.47              1804.00,1388.47 1815.00,1392.70 1815.00,1392.70              1815.00,1392.70 1827.00,1392.00 1827.00,1392.00              1824.36,1387.26 1821.68,1387.23 1819.95,1382.96              1818.05,1377.83 1819.28,1372.22 1819.95,1367.00              1820.56,1360.87 1816.98,1361.01 1817.01,1351.00              1817.03,1342.32 1819.84,1345.90 1821.00,1338.00              1823.58,1336.58 1823.74,1336.11 1825.77,1334.13              1833.56,1326.53 1828.12,1320.92 1828.00,1311.00              1827.96,1307.47 1827.23,1300.07 1832.11,1299.45              1841.10,1298.32 1847.50,1314.28 1848.58,1315.29              1850.45,1317.03 1853.58,1317.50 1856.00,1318.00              1857.67,1312.75 1862.05,1308.00 1861.70,1303.00              1861.37,1298.34 1855.62,1292.16 1858.85,1285.12              1861.16,1280.09 1867.24,1280.58 1871.00,1279.31              1877.59,1277.07 1884.62,1268.83 1893.83,1273.57              1893.83,1273.57 1904.00,1281.00 1904.00,1281.00 Z"/>
</svg>