<svg xmlns="http://www.w3.org/2000/svg" viewBox="328.24 43.48 554.26 706.88">
  <path id="Zone II" fill="yellow" stroke="black" stroke-width="1" d="M 683.00,44.00            C 685.51,44.00 689.73,43.80 692.00,44.58              698.17,46.71 708.66,57.82 703.26,64.61              700.89,67.58 684.76,71.24 680.00,73.00              683.55,73.86 689.21,73.94 691.81,75.45              696.03,77.91 696.76,82.96 692.72,85.99              689.14,88.69 685.31,87.27 682.05,89.02              679.05,90.64 678.03,93.54 675.74,95.77              672.60,98.85 669.20,99.19 665.00,98.96              658.64,98.60 658.30,96.03 654.00,94.58              654.00,94.58 643.00,93.28 643.00,93.28              636.46,92.51 633.29,92.70 629.00,98.00              634.17,99.94 644.15,100.69 647.43,103.70              651.35,107.28 649.85,113.17 654.22,115.83              657.98,118.11 663.97,115.51 668.57,120.39              672.89,124.97 672.25,137.98 663.91,142.28              660.24,144.17 654.95,144.44 651.00,143.37              648.56,142.71 644.96,140.76 642.47,141.02              637.40,141.54 638.64,148.24 632.95,148.81              626.09,149.51 623.85,141.59 619.92,140.90              617.25,140.43 616.05,143.65 609.00,145.00              611.59,150.82 614.67,154.34 614.96,161.00              615.44,172.10 605.54,183.48 594.00,181.16              590.79,180.52 588.72,179.50 586.64,176.89              584.33,173.99 583.61,169.47 578.99,169.45              574.19,169.43 572.09,175.11 562.00,178.00              562.00,178.00 562.00,181.00 562.00,181.00              566.99,181.89 574.16,181.21 577.35,185.15              582.09,190.98 581.30,203.15 569.00,202.43              557.55,201.76 560.98,216.44 547.00,214.58              542.31,213.96 539.78,210.84 537.51,207.02              536.41,205.15 535.10,201.83 532.23,203.17              527.64,205.32 528.98,216.07 524.50,220.57              522.91,222.17 521.19,222.68 519.00,222.89              508.63,223.87 508.44,215.29 500.00,213.00              501.87,215.95 503.86,218.34 503.89,222.00              503.91,225.55 502.11,227.44 502.52,230.00              503.03,233.16 510.24,240.33 506.13,246.91              502.70,252.39 497.75,250.99 492.92,254.79              489.58,257.41 486.66,262.50 482.00,262.63              475.06,262.82 475.31,254.67 473.83,252.22              472.46,249.96 469.25,248.46 467.00,247.12              467.00,247.12 455.00,240.79 455.00,240.79              450.57,238.06 445.01,233.47 440.00,232.53              435.57,231.43 432.55,232.68 429.00,232.53              424.19,232.64 412.85,229.29 409.21,226.21              398.09,216.83 412.21,201.43 412.57,197.00              412.74,194.79 411.93,193.81 411.00,192.00              409.47,195.72 407.85,199.88 403.91,201.74              401.95,202.55 400.02,202.51 398.00,201.74              391.11,199.42 391.58,193.85 393.00,188.00              393.00,188.00 392.00,187.00 392.00,187.00              392.00,187.00 390.00,187.00 390.00,187.00              387.90,196.32 388.24,207.58 376.00,208.87              373.99,209.08 371.17,208.97 369.44,207.83              367.87,206.79 366.75,204.68 366.03,202.98              361.65,192.59 367.34,184.52 368.11,180.00              369.19,173.69 363.64,172.44 361.17,176.30              357.60,181.90 364.90,190.27 356.94,194.69              350.63,198.19 346.20,192.19 342.00,190.32              339.68,189.29 336.33,189.16 335.33,192.09              334.31,195.09 339.93,198.27 342.04,199.54              348.14,203.21 355.71,205.69 354.44,214.96              353.51,221.73 344.79,225.29 345.58,233.00              346.79,244.86 365.46,255.01 356.56,270.99              355.49,272.91 353.86,275.40 352.22,276.87              350.47,278.43 346.23,280.62 344.00,281.32              340.97,282.25 336.26,282.00 333.00,282.00              336.09,287.60 339.00,286.93 342.43,291.13              349.72,300.03 343.45,306.63 338.00,314.00              342.89,312.81 347.24,312.16 351.54,315.40              356.42,319.08 358.37,325.10 362.16,329.72              367.04,335.66 383.77,356.27 386.88,362.17              387.86,364.02 388.44,366.91 389.00,369.00              389.00,369.00 372.00,379.00 372.00,379.00              372.00,379.00 383.77,384.51 383.77,384.51              390.15,390.00 385.81,398.13 383.00,404.00              386.40,404.68 391.32,404.23 393.77,405.58              397.40,407.59 396.50,410.77 397.73,414.00              399.76,419.32 404.62,421.04 401.89,429.00              399.73,435.32 394.81,437.92 391.00,443.00              393.81,444.19 400.74,446.91 402.78,448.65              407.05,452.28 405.94,456.90 407.60,460.08              409.69,464.12 424.45,474.05 414.47,483.43              411.13,486.57 407.74,486.05 404.00,484.01              401.91,482.87 398.89,480.01 396.60,481.74              394.85,483.07 395.19,486.47 393.83,488.90              391.47,493.09 387.34,493.76 383.00,494.00              383.55,497.10 385.43,501.78 383.70,504.57              381.61,507.94 375.81,506.43 375.23,513.00              375.23,513.00 376.66,532.00 376.66,532.00              376.66,532.00 380.72,541.00 380.72,541.00              383.35,549.34 380.20,557.64 372.00,561.00              379.72,571.26 387.15,568.84 391.91,577.01              398.14,587.70 386.47,598.86 384.84,605.00              383.33,610.69 388.34,619.36 378.82,627.59              374.98,630.90 369.90,631.92 365.00,632.00              361.10,632.06 356.00,631.68 354.13,636.06              352.67,639.48 355.54,642.22 358.04,644.05              362.36,647.20 367.31,649.68 366.69,656.09              366.35,659.64 363.38,664.57 361.86,668.00              361.86,668.00 351.14,693.00 351.14,693.00              349.42,697.39 344.99,703.55 349.24,707.57              354.00,712.08 358.96,708.16 364.00,706.96              364.00,706.96 370.00,706.07 370.00,706.07              373.58,705.23 376.01,703.01 379.96,703.42              382.58,703.70 385.60,705.77 388.00,707.00              390.57,700.84 392.84,701.06 399.00,701.00              399.20,692.27 402.36,686.22 412.00,685.79              413.97,686.00 416.03,686.30 417.91,685.79              420.74,684.40 421.89,681.79 425.04,680.60              431.20,678.27 438.28,681.73 436.50,689.00              436.06,690.80 434.80,693.26 434.00,695.00              440.52,697.10 445.88,696.91 451.83,692.93              454.08,691.42 457.10,688.17 455.84,685.22              454.50,682.12 448.79,681.53 445.74,677.53              442.01,672.66 444.29,665.41 451.00,665.37              455.55,665.35 455.97,667.98 462.00,668.00              459.39,662.49 455.77,660.96 455.38,656.99              455.02,653.32 457.66,651.02 458.79,648.09              459.72,645.67 459.34,635.58 469.00,634.22              470.77,633.97 473.07,634.03 474.61,635.02              478.12,637.29 477.67,641.46 477.86,644.98              478.38,655.03 488.01,641.40 494.65,648.57              497.67,652.24 494.92,659.96 494.65,661.96              494.86,663.96 497.17,668.75 498.00,671.00              498.00,671.00 501.74,658.23 501.74,658.23              502.13,657.40 502.62,656.70 503.43,656.23              506.17,654.64 508.22,656.95 509.60,659.04              512.57,663.53 517.54,668.40 516.76,674.00              515.86,680.45 510.73,681.54 509.19,685.10              508.03,687.78 509.52,691.00 508.61,695.00              506.60,703.83 497.94,702.00 491.00,702.00              492.37,705.12 494.88,707.99 495.58,711.00              497.38,718.80 490.22,722.30 484.00,724.00              489.32,731.57 489.28,729.71 491.00,739.00              497.53,732.94 493.50,729.86 499.47,724.31              504.47,719.66 509.09,723.36 510.47,729.00              510.95,730.98 510.95,732.98 511.00,735.00              517.70,737.50 516.02,743.33 525.00,741.00              525.00,741.00 520.00,736.00 520.00,736.00              521.57,732.62 521.34,729.59 523.44,727.43              527.70,723.07 533.39,726.90 544.00,725.00              544.91,716.64 549.95,718.04 556.00,716.37              559.42,715.43 562.24,713.39 566.00,714.61              570.01,715.91 572.63,720.71 576.87,718.31              581.89,715.47 582.14,706.21 591.18,701.70              599.30,697.66 600.28,700.80 603.95,699.94              608.19,698.94 607.88,694.43 617.00,689.68              617.00,689.68 627.00,685.02 627.00,685.02              627.00,685.02 664.00,665.78 664.00,665.78              669.33,663.02 690.13,654.18 693.15,651.15              696.31,647.99 699.19,636.82 701.31,632.00              701.31,632.00 710.81,607.00 710.81,607.00              712.24,603.29 714.97,596.97 714.56,593.00              714.03,588.00 708.92,584.94 708.47,579.00              707.85,575.52 709.87,568.57 708.47,564.02              706.90,557.19 699.77,560.03 696.99,556.30              694.36,552.77 698.87,547.02 700.00,543.00              700.00,543.00 693.00,543.90 693.00,543.90              689.26,544.04 683.27,542.90 683.65,537.96              683.82,535.84 685.70,533.29 686.46,531.00              687.39,528.17 689.08,517.78 687.74,515.29              686.95,513.83 686.23,513.75 685.00,513.00              684.87,515.75 684.83,519.15 683.10,521.45              681.96,522.96 679.64,524.26 678.00,525.19              671.02,529.13 664.74,528.33 661.85,519.99              657.60,507.72 668.76,507.57 670.00,497.00              667.59,498.04 662.19,500.35 660.26,501.80              657.25,504.05 656.39,506.87 652.00,508.11              647.14,509.47 642.62,505.73 643.37,501.00              644.01,496.95 646.90,496.83 648.00,490.00              637.70,490.83 638.84,497.85 631.99,499.55              625.73,501.11 620.14,495.55 621.49,488.00              622.26,483.68 628.37,473.69 630.78,469.00              632.15,466.35 634.43,463.25 633.36,460.11              632.58,457.83 630.89,457.11 629.00,456.00              627.95,460.32 628.27,465.59 626.55,468.99              623.07,475.83 615.12,478.65 614.16,471.94              614.16,471.94 615.00,461.00 615.00,461.00              605.81,461.00 604.88,461.98 597.02,456.34              594.21,454.32 591.38,452.11 592.31,448.18              593.33,443.89 598.78,443.65 600.80,442.50              601.81,441.92 603.08,440.84 602.09,439.58              599.56,436.37 593.27,442.81 591.00,444.02              580.11,449.79 574.11,442.72 574.00,432.00              567.63,431.84 559.09,433.24 553.48,428.86              551.07,426.98 551.30,423.84 550.32,421.00              548.99,417.15 546.42,414.50 547.32,410.00              547.89,407.20 549.61,405.56 550.35,403.00              551.11,400.35 550.19,398.65 551.88,395.00              555.54,387.08 560.20,389.93 564.00,381.00              564.00,381.00 563.00,380.00 563.00,380.00              563.00,380.00 556.00,382.56 556.00,382.56              550.40,384.13 544.34,382.89 543.86,376.00              543.64,372.91 545.42,370.47 545.03,368.09              544.68,365.98 542.95,364.65 542.00,362.83              540.67,360.27 541.00,357.50 538.69,355.36              535.41,352.33 530.63,355.05 527.00,356.14              520.86,357.97 511.36,358.07 506.92,352.66              502.25,346.98 502.72,335.53 511.00,333.44              515.32,332.36 521.21,335.59 524.52,332.40              527.06,329.96 525.35,325.87 526.51,322.00              529.14,313.20 537.27,312.05 545.00,313.00              545.60,308.59 546.09,303.47 550.11,300.74              553.20,298.64 563.84,300.37 566.66,302.60              568.57,304.11 569.15,305.86 570.00,308.00              571.54,307.22 572.23,307.11 573.49,305.71              582.45,295.77 562.74,293.43 570.69,282.00              570.69,282.00 577.61,274.96 577.61,274.96              582.20,269.36 584.97,259.14 594.79,265.16              598.04,267.15 600.36,273.70 606.00,275.47              609.60,276.61 611.94,273.75 610.83,271.21              609.39,267.91 599.78,265.82 597.57,263.87              594.58,261.23 595.87,253.96 599.15,252.02              599.15,252.02 614.00,250.00 614.00,250.00              611.06,246.27 606.62,243.91 606.47,240.82              606.24,236.41 609.85,235.27 612.45,232.87              615.55,230.00 615.55,226.23 619.19,224.18              623.86,221.54 626.74,225.58 634.00,223.45              641.27,221.31 639.45,218.62 647.00,218.00              645.77,213.61 644.61,213.09 643.58,210.00              642.79,207.62 643.20,205.37 641.98,203.05              640.49,200.22 629.18,192.65 637.47,185.74              640.25,183.42 643.60,184.46 647.00,183.46              649.66,182.67 652.27,180.56 655.00,180.64              660.01,180.78 663.43,187.22 668.00,187.30              674.58,187.40 681.28,170.63 690.61,179.43              695.75,184.28 692.77,190.77 695.02,194.95              696.86,198.36 700.10,198.98 702.66,201.41              705.68,204.27 709.80,212.87 710.62,217.00              712.94,228.61 704.48,231.27 699.00,223.00              699.00,223.00 697.13,223.00 697.13,223.00              697.13,223.00 697.13,235.91 697.13,235.91              697.13,235.91 689.00,245.00 689.00,245.00              699.03,245.00 719.69,242.95 717.86,259.00              716.92,267.34 707.84,269.08 710.74,273.51              711.98,275.41 715.93,276.25 717.83,279.33              719.60,282.21 718.46,285.74 721.43,288.26              725.23,291.50 732.44,287.88 734.57,296.00              735.67,300.25 733.60,303.49 731.58,307.00              730.64,308.64 728.55,311.49 729.87,313.40              731.97,316.40 736.70,313.59 738.54,311.77              743.02,307.34 750.70,296.38 757.40,306.06              761.45,311.90 757.07,318.77 756.27,323.00              755.80,325.48 756.25,328.56 755.26,330.87              753.81,334.27 747.86,336.39 751.63,340.67              755.38,344.93 761.24,339.97 762.61,334.00              764.12,327.43 761.80,316.83 769.04,313.22              771.70,311.62 774.44,312.10 777.00,313.22              777.00,313.22 784.00,318.00 784.00,318.00              788.24,309.34 791.45,314.22 795.69,310.52              798.84,307.76 797.63,299.26 806.00,297.47              811.95,296.21 813.85,302.24 820.00,299.11              823.18,297.49 842.82,282.79 845.47,280.12              845.47,280.12 856.42,267.34 856.42,267.34              861.12,262.96 864.66,263.62 867.49,260.58              870.01,257.87 870.49,251.66 871.00,248.00              871.00,248.00 874.00,229.00 874.00,229.00              874.00,229.00 874.00,220.00 874.00,220.00              874.00,220.00 875.70,212.00 875.70,212.00              875.70,212.00 876.63,200.00 876.63,200.00              876.63,200.00 875.93,192.00 875.93,192.00              875.93,192.00 875.93,175.00 875.93,175.00              876.01,167.09 878.52,156.40 875.93,149.01              874.01,144.43 869.97,142.35 866.81,138.83              864.27,136.00 857.45,126.35 855.67,123.00              855.67,123.00 849.07,111.00 849.07,111.00              845.48,103.81 842.41,94.37 834.83,90.24              829.83,87.51 824.45,88.07 819.00,88.00              795.97,87.69 795.38,68.43 773.00,58.50              766.05,55.41 753.40,52.46 752.00,44.00              758.60,44.51 757.54,46.45 763.00,48.87              769.57,51.77 775.00,51.07 785.99,59.29              793.97,65.26 800.07,74.03 804.09,76.90              812.05,82.58 817.03,81.91 826.00,82.29              840.38,82.90 846.64,93.56 852.73,104.72              852.73,104.72 859.60,116.00 859.60,116.00              862.31,120.58 867.95,127.95 868.00,133.00              870.11,134.02 879.95,140.64 880.98,142.33              882.13,144.22 881.98,146.86 882.00,149.00              882.00,149.00 882.00,170.00 882.00,170.00              882.00,170.00 882.00,195.00 882.00,195.00              882.00,195.00 880.00,217.00 880.00,217.00              879.98,226.79 877.66,230.00 876.04,239.00              876.04,239.00 872.52,261.94 872.52,261.94              870.69,266.66 868.01,265.67 864.09,267.53              860.46,269.25 854.78,273.99 854.00,278.00              854.00,278.00 844.91,287.10 844.91,287.10              844.91,287.10 827.00,299.87 827.00,299.87              824.41,301.82 817.25,307.09 814.13,307.19              811.28,307.28 810.48,304.43 807.87,303.65              799.95,301.30 800.11,313.47 798.71,315.57              796.52,318.87 792.35,317.27 789.30,319.17              786.94,320.64 786.43,323.61 783.88,324.26              778.38,325.64 777.17,313.13 770.30,317.19              767.26,318.99 767.22,323.90 766.85,327.00              766.02,333.86 766.34,339.61 760.48,344.45              754.35,349.52 749.16,344.21 744.00,340.95              742.10,339.74 738.39,338.18 737.73,335.88              736.02,329.92 747.62,331.98 750.40,329.26              752.28,327.42 751.75,324.70 752.49,322.00              752.49,322.00 755.30,315.00 755.30,315.00              756.39,309.81 751.53,306.87 747.04,309.01              741.23,311.79 739.50,319.80 730.00,318.89              728.11,318.71 726.16,318.26 725.03,316.57              721.11,310.72 731.68,302.64 730.08,297.14              728.77,292.69 722.28,294.37 718.29,290.97              714.42,287.68 717.39,282.13 710.98,279.06              707.85,277.56 701.63,279.95 700.45,275.77              699.65,272.91 703.05,270.45 705.01,269.04              708.98,266.18 713.81,263.65 713.79,258.00              713.75,250.97 708.29,251.01 703.00,251.00              698.14,250.99 687.75,252.05 686.16,245.94              684.57,239.81 692.64,237.36 692.84,232.99              693.00,229.51 685.31,222.92 686.18,215.02              686.65,210.85 690.09,209.17 693.71,211.18              696.73,212.86 702.38,220.76 704.00,224.00              705.47,222.73 706.70,222.04 707.22,219.96              708.08,216.46 702.18,207.01 699.61,204.63              697.24,202.43 693.50,201.35 691.31,196.98              688.68,191.73 691.96,183.21 685.94,181.81              679.05,180.21 670.62,198.88 664.00,189.00              664.00,189.00 662.00,190.00 662.00,190.00              656.44,183.49 653.05,186.84 646.00,187.82              643.54,188.16 638.58,188.11 639.03,191.95              639.40,195.07 643.50,195.49 644.98,197.56              646.68,199.94 645.47,203.34 645.85,206.00              646.75,212.26 654.39,212.84 652.22,218.95              650.78,223.00 647.38,222.55 644.09,223.68              640.27,225.00 636.50,226.82 634.00,230.00              636.37,230.80 640.62,232.13 641.93,234.41              643.66,237.41 641.01,242.22 636.04,241.72              628.49,240.96 629.02,230.20 623.95,228.40              619.32,226.76 618.46,232.19 616.43,234.74              614.53,237.15 613.11,236.99 610.00,241.00              611.74,241.99 613.00,242.52 614.26,244.22              615.10,245.35 615.56,246.62 615.76,248.00              616.73,254.86 611.94,254.77 607.00,255.02              605.37,255.10 602.01,255.15 601.62,257.30              601.20,259.59 604.33,261.63 605.99,262.56              605.99,262.56 611.37,265.25 611.37,265.25              615.19,268.01 617.69,274.54 614.26,278.57              606.83,287.31 594.34,269.70 591.87,268.76              584.69,266.01 583.06,275.83 580.18,279.74              576.71,284.45 574.19,282.38 573.00,290.16              573.00,290.16 588.94,290.16 588.94,290.16              591.52,291.02 593.28,293.10 592.34,295.86              590.92,300.04 585.83,298.13 582.13,300.31              576.71,303.52 578.34,314.55 571.00,312.34              566.36,310.95 566.73,306.06 560.98,305.15              557.45,304.58 549.79,304.41 551.29,309.98              551.98,312.56 557.25,318.03 553.40,321.30              550.56,323.71 546.44,319.77 544.00,318.50              540.54,316.70 537.36,317.10 534.11,319.23              526.04,324.51 535.40,330.15 529.49,336.70              523.65,343.18 515.73,336.42 511.23,339.04              505.18,342.55 509.33,353.61 521.00,352.47              527.97,351.79 543.83,342.14 545.93,355.00              545.93,355.00 545.93,362.00 545.93,362.00              547.07,362.33 547.72,362.30 549.05,363.00              555.54,367.17 547.67,373.11 549.05,376.57              551.60,381.73 558.99,374.21 564.89,375.75              569.07,376.84 569.31,380.58 567.68,384.00              566.17,387.17 558.14,394.40 555.00,398.00              558.17,399.49 565.40,401.85 567.26,404.27              569.20,406.80 569.58,411.72 565.77,412.69              561.68,413.73 559.73,410.22 551.00,410.00              552.51,415.75 552.88,414.06 554.82,418.08              555.98,420.49 556.54,429.44 566.00,426.30              570.50,424.81 573.77,420.53 577.00,419.65              581.08,418.54 584.18,421.99 583.53,426.00              582.78,430.61 574.85,436.92 581.34,440.14              589.38,444.13 595.22,430.61 603.90,432.52              608.37,433.50 611.10,440.62 605.78,444.65              601.45,447.94 602.97,445.59 598.00,451.00              600.71,452.80 603.82,455.54 607.00,456.07              610.42,456.63 615.20,454.67 617.43,458.29              620.05,462.56 616.72,465.20 618.00,472.00              620.02,469.90 622.37,467.80 623.40,465.00              624.43,462.21 623.57,458.73 624.60,456.00              628.08,446.75 635.75,451.88 637.47,459.00              639.28,466.49 636.04,468.95 632.99,475.00              632.99,475.00 630.17,481.00 630.17,481.00              628.25,484.15 623.68,487.89 625.90,491.85              626.58,493.06 627.72,493.91 629.03,494.31              635.58,496.30 637.94,486.72 643.17,484.76              648.40,482.79 652.64,488.50 651.40,493.96              650.40,498.33 648.55,497.07 648.00,504.00              649.88,503.85 651.15,503.90 652.91,502.98              654.84,501.97 656.40,499.99 658.17,498.64              658.17,498.64 670.00,490.65 670.00,490.65              675.08,489.15 675.28,494.63 674.37,498.00              672.45,505.08 669.07,506.43 667.17,510.09              665.61,513.10 665.36,519.07 668.31,521.36              669.77,522.50 671.27,522.51 673.00,522.16              675.87,521.57 679.24,519.70 680.40,516.90              681.69,513.80 680.47,508.82 685.06,507.74              689.26,506.76 692.39,511.74 693.25,515.17              694.79,521.27 689.62,533.65 688.00,540.00              688.00,540.00 704.00,539.00 704.00,539.00              705.27,549.25 700.76,545.24 700.00,555.00              700.00,555.00 706.00,556.17 706.00,556.17              717.87,559.81 710.26,570.79 712.31,579.00              713.75,584.75 719.27,585.94 719.59,591.04              719.78,593.95 714.53,607.55 713.14,611.00              713.14,611.00 709.67,621.00 709.67,621.00              709.67,621.00 706.29,628.00 706.29,628.00              706.29,628.00 704.77,634.00 704.77,634.00              704.77,634.00 699.76,647.00 699.76,647.00              694.17,658.36 680.61,663.33 669.83,668.18              669.83,668.18 639.00,684.04 639.00,684.04              639.00,684.04 618.04,693.64 618.04,693.64              606.83,700.16 611.30,710.64 601.96,713.82              591.59,717.34 601.29,703.91 593.98,705.40              587.99,706.62 584.93,716.72 580.78,720.47              577.64,723.31 574.02,724.60 570.00,722.84              568.31,722.10 565.97,720.12 564.14,720.18              561.35,720.28 561.17,723.87 559.42,725.36              556.30,728.01 552.44,723.85 550.00,722.00              549.40,723.68 548.86,725.43 547.92,726.96              542.61,735.54 534.29,730.36 531.00,729.90              529.11,729.49 527.83,729.77 526.00,729.90              528.72,734.35 536.90,739.38 530.00,744.00              528.11,752.95 516.33,750.15 511.33,745.47              505.39,739.92 507.01,734.74 506.42,732.06              506.00,730.21 504.57,728.02 502.39,729.17              500.07,730.39 500.48,733.85 500.26,736.00              499.93,739.27 498.81,743.05 495.79,744.82              494.41,745.63 492.61,745.93 491.04,745.73              484.08,744.85 485.80,737.71 483.83,734.10              482.07,730.89 477.39,729.37 478.79,725.03              480.42,720.00 488.34,718.46 489.76,714.79              491.34,710.68 483.40,704.65 487.02,699.51              490.23,694.96 498.04,699.01 501.57,696.22              505.20,693.35 503.28,687.30 504.57,683.04              506.40,676.98 516.92,674.92 507.94,667.41              506.69,666.36 505.41,665.76 504.00,665.00              504.63,669.24 503.88,676.63 498.90,678.16              492.62,680.07 488.03,666.45 489.15,662.00              489.64,660.08 491.80,656.39 490.19,654.61              487.93,652.11 482.73,657.69 477.11,655.40              471.17,652.99 473.28,645.46 471.00,639.00              459.24,645.46 471.40,649.27 460.00,655.00              462.39,659.84 464.44,660.14 465.98,663.09              468.42,667.74 465.19,673.36 459.96,673.65              455.46,673.90 455.20,670.92 448.00,672.00              454.19,680.16 460.36,678.47 461.64,685.00              462.76,690.70 457.61,695.68 453.17,698.17              444.97,702.77 432.35,707.01 429.01,694.00              428.22,690.91 429.33,688.01 430.00,685.00              421.37,688.53 422.83,692.28 418.90,693.84              414.77,695.47 411.71,689.64 407.24,692.78              403.57,695.35 405.45,699.40 404.34,702.96              402.57,708.59 397.80,707.99 393.00,708.00              393.60,711.43 394.96,716.80 389.96,717.58              388.35,717.83 386.77,717.26 385.53,716.26              383.13,714.34 382.00,710.79 381.00,708.00              377.61,709.58 373.38,713.14 370.99,713.64              370.99,713.64 366.00,713.64 366.00,713.64              361.82,714.09 360.08,716.47 354.00,715.81              352.35,715.64 350.58,715.18 349.01,714.64              333.31,709.19 347.77,688.71 351.72,679.00              351.72,679.00 355.99,667.00 355.99,667.00              357.20,664.02 360.05,658.22 359.22,655.04              358.30,651.51 353.86,649.58 351.34,647.24              347.18,643.39 345.82,637.13 348.45,632.02              353.79,621.66 366.55,627.70 372.91,623.17              379.84,618.23 374.95,611.63 378.56,602.00              380.46,596.94 386.14,590.37 387.11,586.00              389.78,573.94 366.47,573.63 365.76,562.00              365.36,555.61 373.42,554.25 373.78,547.00              373.99,542.64 371.31,538.94 369.96,535.00              368.49,530.71 369.45,527.38 369.31,523.00              369.31,523.00 368.04,511.00 368.04,511.00              367.96,509.07 367.80,505.15 369.02,503.60              370.67,501.52 375.55,502.00 378.00,502.00              378.00,502.00 376.16,498.00 376.16,498.00              373.27,488.90 384.39,491.05 388.40,485.78              391.38,481.87 388.38,475.86 395.02,474.33              400.70,473.02 403.57,477.96 407.00,478.92              408.84,479.45 410.71,478.95 411.13,476.85              411.53,474.78 409.87,472.53 408.66,471.01              406.53,468.34 403.34,466.05 402.02,462.91              400.33,458.93 402.32,455.44 397.79,451.87              394.56,449.33 388.08,448.53 386.69,443.95              384.52,436.77 396.01,432.21 396.99,427.08              397.52,424.31 394.80,422.19 393.50,419.96              391.92,417.24 391.56,414.05 391.00,411.00              391.00,411.00 389.00,411.00 389.00,411.00              387.38,417.43 387.81,426.15 379.00,425.00              379.00,425.00 380.00,410.00 380.00,410.00              376.01,414.00 374.29,422.40 367.02,420.55              365.38,420.14 363.90,419.29 363.00,417.77              362.07,416.00 362.45,413.86 363.00,412.00              365.10,403.57 369.38,402.59 375.98,398.88              378.54,397.44 381.71,395.38 381.46,392.00              380.93,384.75 365.04,385.61 367.66,377.05              369.61,370.67 380.79,372.48 382.53,366.89              383.60,363.41 377.06,355.88 375.00,353.00              375.00,353.00 357.12,331.00 357.12,331.00              357.12,331.00 351.55,322.20 351.55,322.20              351.55,322.20 348.00,318.00 348.00,318.00              346.03,318.65 344.07,319.29 342.00,319.54              335.14,320.37 332.58,314.69 335.14,309.00              335.14,309.00 339.72,302.00 339.72,302.00              340.68,300.36 341.39,299.00 340.92,297.04              339.57,291.41 328.60,289.23 328.74,283.00              328.91,275.90 338.54,276.61 343.00,275.78              348.28,274.79 352.81,269.23 353.52,264.00              354.82,254.45 340.87,244.60 341.03,231.00              341.16,220.11 351.91,218.54 349.24,211.04              346.68,203.83 336.47,203.92 331.51,196.98              327.99,192.04 330.21,186.19 336.02,184.74              339.62,183.83 344.63,185.73 348.00,187.00              348.00,187.00 347.00,189.00 347.00,189.00              347.00,189.00 348.00,189.99 348.00,189.99              349.80,190.09 353.21,190.81 354.68,189.99              357.85,188.16 356.09,183.73 355.75,181.00              355.11,175.83 357.37,169.68 363.00,168.47              368.35,167.33 372.29,172.13 372.86,177.00              373.57,183.03 369.83,189.32 368.97,195.28              368.97,195.28 368.97,202.05 368.97,202.05              372.65,202.77 376.34,204.67 379.72,202.05              384.46,198.51 382.54,190.67 385.74,186.11              388.79,181.76 394.76,180.74 397.34,186.11              398.76,189.07 398.19,192.83 398.00,196.00              399.74,195.86 401.16,195.92 402.74,194.98              404.84,193.72 411.54,182.51 416.77,189.29              424.68,199.55 404.04,211.22 412.31,220.87              418.98,228.64 436.69,225.26 440.00,225.70              445.35,226.40 451.47,231.82 456.00,234.79              470.93,244.58 479.75,241.27 481.00,255.00              485.95,252.64 486.11,251.16 489.17,249.65              492.77,247.87 500.14,247.78 501.26,242.95              502.11,239.26 497.80,236.45 496.38,233.00              494.27,228.90 496.46,226.27 496.38,223.00              496.45,218.25 491.53,213.10 496.38,208.74              504.01,202.17 511.98,217.88 517.96,215.68              523.79,213.54 523.47,203.90 527.64,199.14              530.35,196.27 533.52,195.57 536.00,199.14              542.50,200.42 540.86,208.40 548.00,209.44              555.48,210.52 556.06,200.82 561.10,198.02              564.69,196.03 569.53,197.97 572.85,196.38              574.86,195.42 576.13,193.43 575.34,191.21              573.45,185.84 563.10,186.90 559.02,185.26              555.14,183.71 553.66,180.77 556.05,177.10              556.85,175.87 558.02,174.80 559.17,173.90              559.17,173.90 566.00,169.56 566.00,169.56              570.98,166.40 574.57,162.95 580.98,164.28              588.62,165.86 589.24,177.68 599.00,175.15              600.35,174.80 601.82,174.01 603.00,173.27              604.48,172.34 606.36,170.89 607.49,169.56              615.89,159.65 603.72,151.33 604.50,145.04              604.97,141.26 608.74,140.36 611.63,137.62              611.63,137.62 615.37,133.64 615.37,133.64              621.42,129.46 626.58,140.55 630.27,141.66              634.01,142.80 635.23,136.70 640.02,135.75              643.06,135.14 646.22,137.36 649.00,138.40              655.31,140.77 662.86,140.34 665.36,132.98              669.74,120.16 656.21,124.17 650.14,118.70              645.38,114.41 647.40,109.34 639.98,106.61              634.62,104.64 621.00,105.47 623.71,95.75              626.33,86.34 640.27,90.17 645.96,88.43              651.79,86.65 649.92,82.07 653.27,80.84              659.41,78.60 659.55,88.58 659.00,92.00              662.69,92.79 667.26,94.96 670.82,92.98              673.80,91.31 674.79,87.70 679.04,85.45              683.63,83.03 684.28,85.41 689.00,81.00              689.00,81.00 679.00,78.39 679.00,78.39              676.81,77.50 674.81,76.21 673.02,74.67              669.92,72.01 664.68,63.71 672.11,62.57              675.08,62.12 677.58,64.61 681.00,65.10              684.46,65.60 687.55,63.76 691.00,63.20              693.36,62.82 697.44,63.07 697.95,59.86              698.35,57.30 695.83,55.16 693.98,53.85              688.69,50.10 685.19,51.27 683.00,44.00 Z            M 350.00,190.00            C 350.00,190.00 349.00,190.00 349.00,190.00              349.00,190.00 350.00,191.00 350.00,191.00              350.00,191.00 350.00,190.00 350.00,190.00 Z"/>
</svg>