<svg xmlns="http://www.w3.org/2000/svg" viewBox="620.31 699.29 744.72 534.08">
  <path id="Zone VII" fill="purple" stroke="black" stroke-width="1" d="M 1242.00,725.00            C 1246.38,715.09 1248.59,717.35 1252.59,713.59              1254.37,711.91 1254.96,709.80 1257.25,708.74              1259.47,707.71 1264.40,708.07 1267.00,707.96              1272.12,707.74 1276.61,706.39 1282.00,707.21              1287.99,708.12 1290.98,712.18 1299.00,711.94              1302.12,711.85 1314.46,709.34 1316.89,707.71              1321.69,704.51 1320.56,700.43 1325.02,699.79              1325.02,699.79 1339.09,703.04 1339.09,703.04              1344.54,704.80 1346.44,704.06 1348.72,704.57              1353.38,705.61 1362.28,712.50 1363.77,717.09              1366.15,724.41 1362.19,731.86 1362.00,739.00              1359.63,740.51 1357.25,742.00 1355.42,744.17              1351.21,749.16 1351.73,758.37 1354.43,764.00              1354.43,764.00 1359.04,772.00 1359.04,772.00              1360.29,774.86 1361.37,779.86 1362.00,783.00              1356.81,789.38 1351.10,805.59 1352.30,814.00              1352.75,817.13 1354.04,822.07 1355.39,824.91              1356.43,827.11 1358.30,829.25 1357.35,831.85              1354.69,839.18 1342.69,835.77 1341.10,836.11              1338.53,836.66 1337.33,839.00 1336.00,841.00              1336.00,841.00 1334.00,841.00 1334.00,841.00              1330.00,828.67 1344.75,831.00 1352.00,831.00              1350.52,825.75 1348.65,824.88 1347.57,821.00              1346.80,818.24 1346.98,812.09 1347.00,809.00              1347.08,796.85 1355.43,789.52 1354.82,781.00              1354.10,771.14 1343.80,760.95 1345.27,752.00              1347.42,738.86 1363.08,736.40 1359.20,723.00              1356.21,712.69 1347.22,710.08 1338.00,707.99              1338.00,707.99 1331.00,706.43 1331.00,706.43              1325.48,706.14 1324.01,710.88 1319.00,713.07              1319.00,713.07 1302.00,716.70 1302.00,716.70              1290.80,718.26 1285.24,711.51 1275.00,712.09              1258.75,713.01 1257.50,718.33 1245.00,727.00              1245.00,727.00 1243.00,725.00 1243.00,725.00              1243.00,725.00 1242.00,725.00 1242.00,725.00 Z            M 1063.00,723.77            C 1065.42,717.99 1068.64,720.79 1073.91,719.73              1073.91,719.73 1082.01,716.47 1082.01,716.47              1082.01,716.47 1102.00,708.15 1102.00,708.15              1104.68,707.54 1108.91,706.28 1111.44,708.15              1114.21,709.87 1121.14,724.61 1123.80,727.70              1126.08,730.35 1128.34,730.10 1130.90,731.85              1134.36,734.21 1135.26,737.12 1136.00,741.00              1146.06,740.68 1144.22,737.01 1149.09,735.64              1152.32,734.73 1154.49,736.98 1158.00,737.94              1162.25,738.58 1167.73,736.94 1170.71,737.94              1178.17,741.26 1178.58,749.48 1180.85,752.70              1183.76,756.80 1192.10,760.02 1197.00,759.20              1198.71,758.91 1201.33,757.70 1203.00,757.00              1202.98,758.62 1203.08,761.26 1202.40,762.72              1198.71,770.67 1183.54,762.59 1178.00,762.00              1176.65,759.17 1172.47,750.69 1170.52,748.94              1165.81,744.73 1160.73,746.38 1155.00,745.89              1155.00,745.89 1149.00,745.24 1149.00,745.24              1143.45,745.59 1140.45,750.49 1135.22,746.26              1132.51,744.06 1131.87,741.05 1128.87,738.22              1126.02,735.54 1123.84,735.44 1121.61,733.48              1119.01,731.21 1117.65,727.95 1116.02,725.00              1114.45,722.14 1110.20,714.07 1106.94,713.69              1105.25,713.49 1102.69,714.48 1101.00,714.91              1101.00,714.91 1093.00,716.79 1093.00,716.79              1088.18,718.41 1087.27,720.82 1080.00,723.77              1074.02,725.77 1069.08,725.09 1063.00,723.77 Z            M 1041.00,726.00            C 1039.14,719.69 1036.44,719.77 1035.74,716.85              1035.03,713.91 1037.43,712.55 1040.02,712.61              1040.02,712.61 1056.98,717.04 1056.98,717.04              1058.47,717.59 1062.35,719.15 1060.83,721.44              1058.72,724.62 1052.47,718.87 1048.74,722.60              1047.16,724.17 1047.19,726.75 1046.00,728.91              1046.00,728.91 1042.00,734.17 1042.00,734.17              1042.00,734.17 1040.00,738.79 1040.00,738.79              1037.96,742.03 1035.63,741.27 1029.00,751.00              1024.41,748.01 1025.54,746.87 1027.00,742.00              1022.83,741.85 1021.48,742.21 1020.00,738.00              1023.79,738.00 1033.79,738.50 1035.90,734.69              1036.63,733.15 1036.04,728.03 1035.90,726.00              1035.90,726.00 1041.00,726.00 1041.00,726.00 Z            M 1204.00,752.00            C 1209.55,750.38 1211.00,747.67 1215.42,744.69              1217.78,743.10 1220.18,742.89 1222.15,740.69              1222.15,740.69 1228.58,729.85 1228.58,729.85              1230.20,728.43 1233.86,727.78 1236.00,727.03              1237.43,726.94 1239.37,726.33 1240.84,727.03              1243.51,727.60 1243.43,730.38 1240.84,731.98              1238.26,733.57 1235.40,732.30 1232.47,734.60              1229.03,737.29 1228.14,742.14 1224.78,745.96              1220.61,750.69 1214.99,753.09 1210.12,756.78              1210.12,756.78 1205.00,761.00 1205.00,761.00              1205.00,761.00 1204.00,752.00 1204.00,752.00 Z            M 1022.00,750.00            C 1022.00,750.00 1024.00,750.00 1024.00,750.00              1025.62,752.20 1029.37,755.75 1029.69,758.18              1030.53,764.58 1021.75,771.08 1016.00,771.78              1009.60,772.55 1004.06,768.68 1000.00,768.53              996.71,768.42 994.38,770.64 984.00,769.91              976.51,769.39 973.46,767.17 967.00,766.00              967.00,766.00 967.00,760.00 967.00,760.00              967.00,760.00 985.00,764.96 985.00,764.96              985.00,764.96 1000.00,763.34 1000.00,763.34              1000.00,763.34 1013.00,766.83 1013.00,766.83              1013.00,766.83 1026.00,763.00 1026.00,763.00              1026.00,763.00 1025.00,757.00 1025.00,757.00              1025.00,757.00 1020.00,757.00 1020.00,757.00              1020.00,757.00 1022.00,750.00 1022.00,750.00 Z            M 953.00,760.00            C 953.00,760.00 965.00,760.00 965.00,760.00              965.00,760.00 965.00,764.00 965.00,764.00              963.53,764.24 962.60,764.20 961.21,765.02              961.21,765.02 949.89,777.18 949.89,777.18              947.67,780.38 947.51,784.29 942.95,786.49              942.95,786.49 925.00,791.49 925.00,791.49              925.00,791.49 890.00,799.45 890.00,799.45              890.00,799.45 879.00,803.37 879.00,803.37              879.00,803.37 874.00,804.54 874.00,804.54              871.05,805.55 864.45,810.03 862.17,812.26              862.17,812.26 858.41,816.42 858.41,816.42              858.41,816.42 850.00,821.32 850.00,821.32              846.08,823.42 845.19,822.49 841.00,824.30              841.00,824.30 831.91,828.70 831.91,828.70              831.91,828.70 822.00,829.43 822.00,829.43              822.00,829.43 814.00,832.79 814.00,832.79              809.22,834.16 805.61,833.73 801.00,834.15              796.07,834.64 781.48,837.43 778.13,834.15              774.11,830.17 774.47,819.40 773.82,814.00              773.26,809.36 772.30,809.21 772.00,803.00              770.17,803.40 768.97,803.47 767.41,804.74              763.37,808.02 759.27,821.48 752.96,823.43              752.96,823.43 734.00,826.42 734.00,826.42              720.08,828.35 706.06,829.02 692.00,829.00              692.00,829.00 675.09,827.89 675.09,827.89              675.09,827.89 669.83,826.92 669.83,826.92              669.83,826.92 665.00,827.58 665.00,827.58              665.00,827.58 657.00,827.00 657.00,827.00              655.40,831.76 650.55,834.74 647.00,838.09              647.00,838.09 627.00,858.00 627.00,858.00              632.50,857.14 632.21,855.63 636.04,855.19              637.09,855.01 638.94,855.04 639.98,855.19              651.86,857.40 639.28,873.89 637.00,879.00              644.16,879.80 645.72,877.30 650.00,878.32              654.54,879.40 655.10,882.33 656.83,885.91              658.26,888.87 660.41,890.60 660.84,894.01              661.51,899.30 658.53,902.45 659.68,909.00              660.77,915.21 665.34,926.77 660.57,931.69              654.27,938.17 646.10,927.98 643.85,927.15              639.90,925.69 633.02,934.70 632.00,938.00              638.62,938.00 644.56,937.35 648.23,944.02              651.06,949.15 648.81,952.81 654.13,956.75              657.42,959.19 661.44,960.38 665.00,962.35              675.00,967.86 690.47,976.93 702.00,977.00              702.00,977.00 714.00,977.00 714.00,977.00              709.94,981.00 702.52,981.18 697.00,980.96              694.15,980.85 690.74,980.28 688.01,979.43              688.01,979.43 665.00,968.95 665.00,968.95              665.00,968.95 659.00,964.97 659.00,964.97              659.00,964.97 646.31,958.04 646.31,958.04              642.24,954.48 645.50,949.95 642.40,946.51              638.09,941.73 630.13,947.07 626.86,938.98              624.46,933.04 629.29,930.68 632.87,927.49              632.87,927.49 637.45,923.04 637.45,923.04              640.72,920.42 645.12,920.51 648.14,923.04              649.73,924.66 652.81,928.84 655.63,927.10              657.34,925.79 656.17,918.28 655.63,916.04              655.40,912.45 654.19,911.68 654.06,907.96              653.76,899.44 659.03,899.15 652.52,889.02              651.46,887.37 650.16,885.27 648.00,885.03              644.30,884.61 643.87,889.60 642.15,891.69              640.01,894.28 637.04,893.96 633.76,894.00              634.01,891.33 634.43,885.28 633.76,883.10              632.17,879.86 627.48,878.00 628.71,874.21              629.58,871.53 632.71,871.37 634.74,870.04              637.97,867.92 639.43,864.64 640.00,861.00              634.82,861.37 625.67,866.47 621.76,862.26              618.02,858.25 626.38,851.58 629.00,849.04              629.00,849.04 643.14,835.91 643.14,835.91              650.90,828.11 651.86,821.74 664.00,822.01              664.00,822.01 680.00,823.00 680.00,823.00              680.00,823.00 696.00,824.00 696.00,824.00              710.85,824.02 733.13,824.57 747.00,819.44              751.49,817.78 755.88,815.04 758.49,810.96              761.08,806.91 764.14,798.32 769.17,797.26              776.16,795.78 775.73,801.12 776.42,806.00              777.15,811.10 778.19,826.27 781.56,829.40              783.07,830.80 785.04,830.95 787.00,830.94              787.00,830.94 798.00,829.37 798.00,829.37              801.99,828.96 804.97,830.51 809.00,829.37              813.72,828.37 815.50,825.21 819.09,824.31              819.09,824.31 830.00,823.70 830.00,823.70              833.83,823.13 840.47,820.42 843.96,818.63              851.52,814.74 855.97,807.25 873.00,800.23              873.00,800.23 887.00,794.68 887.00,794.68              887.00,794.68 896.00,793.25 896.00,793.25              896.00,793.25 906.00,790.33 906.00,790.33              906.00,790.33 934.00,784.14 934.00,784.14              941.88,781.92 940.15,780.73 945.00,779.00              945.85,768.04 954.73,771.99 953.00,760.00 Z            M 1331.00,842.00            C 1335.66,845.50 1334.47,849.99 1333.35,855.00              1333.35,855.00 1330.57,869.96 1330.57,869.96              1330.57,869.96 1328.47,876.17 1328.47,876.17              1326.96,882.09 1329.08,887.15 1329.22,890.00              1329.22,890.00 1327.71,903.83 1327.71,903.83              1326.44,908.45 1321.93,908.38 1319.27,915.04              1319.27,915.04 1314.48,938.00 1314.48,938.00              1313.10,944.38 1309.65,954.64 1310.10,961.00              1310.61,968.35 1315.38,973.69 1317.42,980.00              1318.98,985.40 1316.63,988.91 1317.42,992.83              1318.12,995.47 1320.93,998.75 1320.19,1002.00              1319.19,1006.42 1313.42,1008.34 1311.70,1013.09              1310.04,1017.67 1312.69,1021.95 1310.94,1024.40              1309.42,1026.53 1301.60,1026.10 1301.60,1032.00              1301.60,1041.30 1319.88,1037.52 1318.72,1048.02              1317.87,1055.81 1309.67,1052.55 1305.31,1056.01              1302.37,1058.34 1303.02,1062.63 1303.00,1066.00              1302.99,1067.98 1303.17,1070.68 1302.01,1072.37              1299.71,1075.72 1291.78,1077.26 1290.74,1083.02              1289.47,1090.10 1296.15,1090.75 1298.57,1092.84              1300.75,1094.72 1301.36,1097.65 1299.13,1099.75              1299.13,1099.75 1290.13,1104.90 1290.13,1104.90              1287.66,1106.79 1286.12,1109.88 1282.95,1110.68              1278.50,1111.80 1274.41,1108.86 1270.00,1109.23              1263.83,1109.75 1262.83,1114.50 1259.40,1118.58              1257.15,1121.25 1254.28,1123.39 1253.45,1127.00              1253.10,1128.50 1253.16,1130.35 1254.03,1131.69              1257.61,1137.20 1265.01,1130.14 1269.00,1129.02              1272.88,1127.94 1274.94,1130.28 1273.83,1132.79              1272.76,1135.23 1269.40,1135.68 1267.74,1137.56              1265.40,1140.18 1266.00,1146.56 1266.00,1149.81              1264.31,1149.96 1262.67,1149.96 1261.00,1149.81              1257.45,1148.88 1252.64,1146.10 1249.85,1150.40              1249.36,1151.52 1249.28,1152.76 1249.85,1154.00              1251.03,1158.59 1256.74,1159.71 1259.77,1163.33              1262.49,1166.57 1264.31,1175.92 1256.98,1175.02              1251.83,1174.43 1253.37,1174.34 1248.00,1175.02              1248.36,1185.36 1253.94,1186.97 1263.00,1187.00              1263.00,1192.43 1265.84,1204.28 1258.96,1205.81              1255.31,1206.72 1250.83,1202.03 1246.43,1205.81              1238.57,1212.37 1254.46,1224.24 1244.85,1231.40              1239.00,1235.77 1232.48,1229.17 1223.00,1227.46              1211.20,1225.33 1201.92,1232.39 1195.47,1226.44              1189.60,1221.30 1196.47,1212.64 1195.47,1208.00              1194.41,1201.24 1185.36,1198.59 1183.21,1197.08              1180.26,1195.00 1179.49,1191.82 1176.79,1189.23              1173.08,1185.65 1169.74,1186.01 1165.00,1186.00              1163.82,1180.37 1158.20,1171.39 1155.31,1166.00              1155.31,1166.00 1149.73,1154.00 1149.73,1154.00              1149.73,1154.00 1140.46,1137.00 1140.46,1137.00              1140.46,1137.00 1138.46,1132.10 1138.46,1132.10              1135.86,1126.91 1129.12,1127.02 1128.27,1120.00              1127.32,1112.13 1136.01,1109.85 1142.00,1109.00              1142.00,1109.00 1142.00,1106.00 1142.00,1106.00              1136.80,1105.31 1130.31,1104.64 1126.19,1101.20              1122.79,1098.43 1121.68,1092.96 1126.19,1090.87              1128.54,1089.81 1133.37,1090.01 1136.00,1090.00              1138.37,1089.99 1141.53,1090.21 1143.62,1089.02              1146.96,1087.11 1148.28,1081.93 1151.22,1079.31              1156.16,1074.92 1161.52,1077.11 1162.00,1084.00              1162.00,1084.00 1163.00,1092.00 1163.00,1092.00              1175.00,1087.59 1164.40,1068.48 1178.00,1070.52              1182.05,1071.13 1184.60,1073.85 1188.00,1073.43              1191.98,1072.94 1196.46,1067.17 1202.99,1069.60              1208.79,1071.76 1214.23,1086.86 1221.71,1079.43              1223.86,1077.30 1223.05,1075.66 1220.89,1074.07              1219.24,1072.86 1216.68,1072.27 1214.23,1069.78              1210.39,1065.88 1210.12,1057.03 1211.68,1052.00              1212.75,1048.59 1215.74,1044.97 1215.14,1042.06              1214.60,1039.43 1211.71,1037.84 1209.18,1038.66              1205.79,1039.75 1205.08,1044.24 1200.90,1046.55              1198.45,1047.90 1196.66,1047.82 1194.00,1047.74              1186.90,1047.54 1176.83,1054.58 1175.47,1042.00              1175.02,1040.40 1175.14,1038.68 1175.47,1037.17              1175.47,1037.17 1183.00,1026.00 1183.00,1026.00              1178.00,1026.41 1171.56,1028.35 1167.42,1024.49              1162.63,1020.03 1164.74,1009.00 1156.98,1010.85              1152.57,1011.68 1144.69,1019.72 1135.00,1010.85              1133.13,1015.28 1131.57,1019.03 1126.91,1020.87              1118.62,1024.14 1105.18,1014.30 1104.00,1006.00              1113.42,1004.11 1111.35,1004.44 1119.00,999.56              1122.74,997.18 1123.62,998.25 1126.00,994.00              1120.85,993.32 1112.53,992.78 1108.30,989.92              1104.82,987.57 1102.74,982.82 1098.99,981.06              1094.97,979.18 1091.12,982.49 1086.13,979.43              1082.08,976.94 1083.72,974.10 1081.98,971.21              1080.02,967.95 1075.45,966.81 1072.00,966.00              1071.52,962.50 1069.99,956.10 1066.85,954.16              1062.69,951.59 1054.52,953.15 1051.17,947.67              1046.55,940.10 1056.25,929.01 1044.00,927.00              1043.00,934.59 1040.17,946.28 1045.26,952.66              1051.16,960.07 1067.53,955.78 1065.75,967.85              1065.49,969.57 1064.61,971.36 1064.00,973.00              1069.02,974.49 1074.02,977.84 1072.18,983.96              1071.15,987.37 1067.87,988.66 1068.32,992.93              1068.77,997.04 1073.14,1001.38 1074.84,1005.00              1076.99,1009.58 1075.84,1018.14 1071.78,1021.42              1070.25,1022.64 1067.84,1023.33 1066.00,1024.00              1069.87,1025.81 1070.78,1026.91 1072.00,1031.00              1074.90,1030.42 1079.74,1028.21 1081.96,1028.56              1089.39,1029.74 1088.05,1039.15 1086.00,1044.00              1090.74,1044.12 1095.62,1044.32 1096.65,1050.04              1097.00,1052.02 1096.77,1054.16 1095.82,1055.95              1094.46,1058.53 1092.38,1059.54 1090.37,1061.44              1088.36,1063.33 1086.94,1065.96 1083.96,1066.38              1078.24,1067.20 1075.62,1060.66 1071.00,1058.00              1071.05,1061.85 1070.96,1065.63 1074.34,1068.26              1078.08,1071.17 1083.89,1069.26 1087.96,1070.43              1094.25,1072.24 1096.07,1081.32 1094.70,1086.91              1092.31,1096.62 1078.27,1092.58 1074.31,1095.17              1071.90,1096.76 1071.89,1099.54 1070.99,1102.00              1069.70,1105.54 1067.35,1108.77 1063.96,1110.55              1058.96,1113.17 1052.63,1111.18 1048.00,1112.51              1043.45,1113.81 1041.00,1117.43 1035.00,1117.81              1030.44,1118.22 1026.17,1116.14 1022.00,1117.81              1014.45,1120.63 1014.73,1131.81 1005.00,1131.47              1003.12,1131.40 1001.02,1130.62 999.65,1129.30              991.81,1121.76 1005.24,1110.73 1006.08,1105.00              1006.99,1098.81 997.68,1097.82 996.59,1090.00              995.72,1083.83 1001.87,1078.19 1000.68,1075.54              999.49,1072.91 995.37,1075.56 994.00,1076.55              988.68,1080.38 984.61,1085.42 977.17,1082.26              971.51,1079.86 969.32,1071.63 972.28,1066.46              975.56,1060.72 985.69,1058.03 988.00,1047.00              981.48,1047.89 978.09,1051.87 974.23,1049.78              971.77,1048.46 970.98,1045.60 971.46,1043.00              972.12,1039.38 975.02,1036.92 975.79,1032.00              976.61,1026.74 974.94,1017.41 977.17,1013.00              980.37,1006.69 986.61,1006.77 987.00,999.00              985.21,1000.29 981.46,1003.63 979.83,1004.22              977.92,1004.93 960.36,1004.12 962.33,995.02              963.73,988.57 971.51,990.41 968.77,983.98              968.77,983.98 964.40,973.58 964.40,973.58              961.34,970.43 953.49,972.37 953.08,964.00              952.68,955.94 959.18,952.62 961.63,948.99              963.17,946.71 963.46,944.77 960.84,943.18              956.11,940.32 950.57,944.94 947.09,947.77              938.61,954.65 935.38,964.00 923.00,961.00              920.06,968.85 921.68,972.82 919.26,975.68              916.02,979.52 911.02,975.85 908.85,972.71              905.44,967.77 907.54,957.71 908.00,952.00              902.36,954.88 892.06,961.79 889.16,951.00              888.97,949.65 889.02,947.42 889.16,946.00              880.32,953.23 887.05,959.17 880.21,964.80              871.71,971.79 864.52,958.84 858.00,970.00              852.18,968.91 834.08,960.29 830.41,955.90              827.46,952.36 823.73,940.44 817.98,941.03              812.01,941.64 807.68,954.44 804.74,958.82              801.36,963.86 792.74,965.82 787.00,966.00              789.22,960.31 794.25,962.72 798.79,959.28              804.86,954.67 806.78,938.12 815.01,936.33              820.21,935.20 826.74,941.11 829.42,945.04              829.42,945.04 832.16,950.69 832.16,950.69              833.29,952.29 843.32,957.02 846.00,958.69              847.56,959.67 850.05,961.51 851.91,961.57              854.79,961.65 856.07,958.55 860.01,957.61              866.54,956.04 871.79,963.77 876.40,958.57              879.58,954.97 876.19,943.64 884.04,940.60              886.75,939.55 890.95,939.89 892.72,942.43              894.14,944.49 893.91,948.46 897.14,948.77              900.57,949.09 904.13,944.40 908.98,945.94              922.15,950.14 906.69,963.95 916.00,970.00              914.92,965.13 915.72,956.83 921.13,954.35              923.34,953.68 926.27,954.32 928.00,954.35              932.73,953.54 934.96,949.21 938.09,946.09              942.57,941.61 947.80,937.49 954.00,935.78              962.14,933.54 970.33,939.16 969.70,948.00              969.11,956.14 961.74,955.46 959.00,966.00              963.98,966.05 970.33,966.46 972.37,972.04              973.22,974.38 972.25,976.06 973.75,978.72              975.08,981.09 978.69,983.13 977.55,988.00              976.61,992.02 972.70,994.20 970.00,997.00              979.14,996.76 984.09,990.20 990.61,994.29              993.81,996.30 994.60,1001.60 993.26,1004.91              991.34,1009.66 984.71,1012.08 982.74,1017.04              981.15,1021.03 982.89,1025.17 982.74,1029.00              982.55,1033.74 980.28,1037.97 978.00,1042.00              980.30,1041.59 982.66,1041.04 985.00,1041.08              987.85,1041.13 990.48,1041.82 992.26,1044.23              996.59,1050.08 989.20,1058.95 984.96,1062.68              983.07,1064.34 979.99,1066.22 978.60,1068.18              977.27,1070.06 976.48,1073.60 978.60,1075.26              981.16,1077.26 985.09,1073.42 987.00,1071.93              991.48,1068.45 997.20,1065.43 1002.98,1067.85              1003.99,1068.28 1004.91,1068.84 1005.72,1069.57              1013.26,1076.36 1003.22,1083.66 1003.90,1087.90              1004.34,1090.63 1007.90,1091.98 1009.79,1093.63              1012.07,1095.62 1013.39,1097.99 1013.77,1101.00              1014.90,1109.79 1006.75,1116.90 1003.00,1124.00              1012.65,1121.10 1010.61,1110.70 1022.00,1110.26              1027.71,1109.72 1031.48,1111.42 1034.99,1110.26              1039.02,1109.40 1042.10,1105.19 1048.00,1104.22              1051.87,1103.58 1058.48,1104.95 1061.44,1102.26              1064.10,1099.84 1063.67,1094.06 1069.10,1089.28              1074.38,1084.63 1079.16,1086.62 1084.00,1085.85              1086.20,1085.51 1088.69,1084.53 1088.97,1081.96              1089.69,1075.41 1079.97,1077.99 1077.00,1077.26              1069.20,1075.35 1062.65,1064.83 1064.94,1057.00              1066.65,1051.20 1071.90,1049.31 1076.87,1052.74              1076.87,1052.74 1083.00,1059.00 1083.00,1059.00              1084.00,1053.01 1085.77,1053.95 1091.00,1051.00              1088.81,1051.18 1083.82,1052.04 1082.06,1051.65              1074.53,1049.95 1079.76,1039.38 1081.00,1035.00              1071.26,1041.88 1069.13,1035.10 1065.54,1031.38              1065.54,1031.38 1060.10,1026.61 1060.10,1026.61              1057.37,1023.39 1055.87,1017.57 1060.10,1015.02              1062.57,1013.67 1066.40,1014.66 1069.00,1015.02              1069.85,1008.02 1069.17,1005.67 1064.40,1000.13              1060.00,995.01 1058.25,997.91 1058.00,990.00              1058.00,990.00 1052.00,990.00 1052.00,990.00              1052.13,977.11 1056.40,979.96 1066.00,982.00              1066.00,982.00 1066.00,978.00 1066.00,978.00              1061.74,978.00 1052.56,978.55 1049.06,976.69              1043.81,973.89 1044.55,967.63 1048.28,965.95              1051.03,964.61 1056.74,965.85 1060.00,965.95              1060.00,965.95 1060.00,964.00 1060.00,964.00              1045.39,962.77 1036.08,956.94 1036.00,941.00              1035.96,932.75 1037.04,914.89 1050.00,921.45              1055.88,924.44 1057.30,928.81 1056.91,935.00              1056.71,938.22 1055.06,942.80 1058.31,944.98              1060.52,946.46 1064.31,945.64 1067.99,946.72              1075.24,948.85 1075.98,954.56 1076.00,961.00              1085.53,961.55 1089.76,965.54 1090.00,975.16              1094.16,974.25 1098.00,973.25 1102.00,975.16              1107.28,978.04 1109.24,983.34 1114.01,985.27              1119.54,987.49 1128.82,986.86 1132.06,993.33              1135.67,1000.51 1126.50,1002.48 1124.09,1003.55              1118.53,1006.02 1120.74,1008.51 1111.00,1009.00              1114.10,1011.47 1121.46,1016.74 1125.35,1013.39              1127.93,1011.17 1128.06,1006.09 1132.11,1004.64              1137.13,1002.84 1139.66,1008.05 1144.01,1008.18              1149.68,1008.34 1153.37,1002.90 1159.00,1003.42              1163.28,1003.82 1168.15,1006.81 1169.49,1011.04              1170.40,1013.90 1169.38,1018.30 1172.31,1019.87              1174.92,1021.28 1178.20,1018.79 1181.00,1018.44              1185.12,1017.93 1192.21,1024.15 1192.48,1028.13              1192.81,1032.84 1187.05,1033.08 1184.34,1034.98              1181.70,1036.83 1181.41,1039.07 1181.00,1042.00              1183.49,1041.56 1187.73,1040.19 1189.83,1040.34              1192.31,1040.52 1194.05,1042.20 1196.97,1041.21              1200.36,1040.06 1201.56,1036.71 1203.53,1034.72              1206.44,1031.77 1212.20,1031.19 1215.90,1032.85              1220.68,1035.00 1221.80,1041.39 1220.49,1046.00              1219.13,1050.79 1214.56,1053.81 1217.01,1060.00              1220.28,1068.26 1231.39,1068.99 1231.75,1077.00              1232.10,1084.98 1217.44,1091.49 1210.17,1085.57              1206.46,1082.55 1204.01,1076.48 1200.82,1075.87              1197.45,1075.23 1194.95,1079.34 1189.00,1079.89              1183.93,1080.36 1180.66,1078.31 1176.00,1077.00              1176.00,1083.39 1177.16,1090.60 1171.67,1095.20              1163.91,1101.70 1153.54,1095.26 1156.00,1084.00              1156.00,1084.00 1145.83,1095.59 1145.83,1095.59              1145.83,1095.59 1130.00,1097.00 1130.00,1097.00              1134.82,1098.28 1142.07,1098.91 1145.89,1101.77              1150.17,1104.96 1151.00,1109.74 1146.77,1113.43              1141.35,1118.17 1138.83,1113.17 1133.00,1120.00              1137.55,1121.33 1142.29,1122.04 1144.26,1127.02              1145.69,1130.61 1144.07,1133.28 1146.65,1138.00              1149.50,1143.22 1151.74,1143.90 1156.00,1153.00              1156.00,1153.00 1168.63,1178.85 1168.63,1178.85              1171.63,1182.40 1173.79,1181.39 1176.91,1183.59              1180.58,1186.19 1181.21,1189.80 1186.04,1192.59              1190.63,1195.23 1194.68,1194.58 1199.08,1201.02              1201.38,1204.37 1202.61,1207.95 1201.35,1211.96              1200.32,1215.24 1195.03,1219.95 1199.43,1222.97              1202.84,1225.31 1209.03,1221.80 1215.00,1221.17              1223.16,1220.31 1225.95,1222.61 1233.00,1225.57              1235.31,1226.54 1239.20,1228.44 1241.39,1226.36              1244.40,1223.49 1240.69,1217.93 1239.52,1215.00              1236.75,1208.09 1238.82,1201.31 1246.00,1198.17              1248.21,1197.48 1249.69,1197.33 1252.00,1198.17              1254.21,1198.56 1256.09,1199.79 1258.00,1201.00              1257.56,1198.86 1257.13,1196.12 1255.86,1194.30              1254.26,1191.97 1251.88,1191.56 1249.33,1189.28              1244.03,1184.55 1240.65,1175.19 1247.39,1170.07              1248.88,1168.94 1252.17,1167.73 1254.00,1167.00              1250.48,1164.34 1246.32,1161.15 1244.51,1157.00              1241.22,1149.43 1244.53,1142.59 1253.00,1142.00              1248.54,1136.46 1244.49,1130.60 1248.30,1123.17              1248.30,1123.17 1254.96,1114.83 1254.96,1114.83              1257.35,1110.86 1257.47,1106.91 1264.00,1104.09              1270.66,1101.20 1274.93,1105.68 1279.00,1104.62              1282.35,1103.75 1287.48,1098.71 1294.00,1097.00              1294.00,1097.00 1294.00,1095.00 1294.00,1095.00              1287.25,1092.99 1284.41,1090.31 1285.10,1083.00              1285.34,1080.48 1286.01,1078.21 1287.65,1076.22              1291.91,1071.05 1297.92,1073.27 1297.38,1064.00              1297.07,1058.55 1298.42,1050.28 1305.00,1048.92              1306.79,1048.55 1310.13,1049.59 1312.00,1050.00              1312.00,1050.00 1313.00,1045.00 1313.00,1045.00              1307.00,1043.79 1302.53,1042.96 1298.71,1037.70              1296.83,1035.11 1296.19,1033.19 1296.05,1030.00              1295.71,1022.40 1300.43,1021.21 1307.00,1021.00              1304.20,1012.33 1305.41,1004.34 1315.00,1001.00              1313.66,998.19 1311.70,995.04 1311.29,992.00              1311.29,992.00 1311.29,982.00 1311.29,982.00              1310.49,977.19 1304.91,969.40 1304.19,963.00              1303.51,957.01 1305.82,952.54 1306.83,947.00              1306.83,947.00 1315.20,910.17 1315.20,910.17              1316.85,905.64 1320.46,905.63 1321.69,900.96              1320.95,903.77 1323.90,885.29 1323.51,888.00              1323.51,888.00 1323.51,883.00 1323.51,883.00              1322.80,875.47 1325.62,872.95 1327.03,867.00              1327.03,867.00 1329.30,850.00 1329.30,850.00              1329.30,850.00 1331.00,842.00 1331.00,842.00 Z            M 715.00,980.00            C 715.00,980.00 716.72,976.99 716.72,976.99              716.72,976.99 732.00,973.66 732.00,973.66              732.00,973.66 753.00,970.19 753.00,970.19              753.00,970.19 784.00,964.00 784.00,964.00              784.00,964.00 784.00,968.00 784.00,968.00              784.00,968.00 760.00,972.67 760.00,972.67              760.00,972.67 715.00,980.00 715.00,980.00 Z"/>
</svg>