<svg xmlns="http://www.w3.org/2000/svg" viewBox="519.98 401.48 801.11 477.75">
  <path id="Zone III" fill="cadetblue" stroke="black" stroke-width="1" d="M 1146.00,419.00            C 1148.52,422.24 1152.29,430.25 1156.92,429.30              1163.05,428.04 1160.75,421.12 1164.13,415.58              1166.52,411.67 1174.70,403.37 1179.09,402.30              1182.59,401.45 1188.39,402.52 1192.00,403.00              1192.00,403.00 1188.53,426.00 1188.53,426.00              1188.53,426.00 1202.09,457.00 1202.09,457.00              1203.38,461.00 1203.06,468.58 1203.00,473.00              1203.00,473.00 1198.93,492.83 1198.93,492.83              1198.93,492.83 1196.17,500.01 1196.17,500.01              1195.91,502.22 1195.98,506.62 1196.17,509.00              1196.17,509.00 1198.90,530.00 1198.90,530.00              1198.56,536.88 1195.45,539.22 1194.39,544.00              1193.06,550.02 1195.65,552.68 1195.94,558.00              1196.28,564.11 1194.05,566.40 1194.32,570.00              1194.70,575.02 1197.87,574.82 1198.00,584.00              1198.07,589.05 1197.62,595.62 1200.58,599.98              1203.30,603.98 1206.20,604.22 1209.56,609.05              1213.82,615.18 1216.59,621.93 1224.00,625.35              1231.65,628.89 1238.20,626.93 1245.83,630.62              1252.34,633.76 1259.12,641.27 1264.01,642.19              1271.07,643.94 1281.11,641.90 1289.00,642.19              1295.81,642.10 1303.33,645.33 1303.94,653.00              1305.00,666.14 1294.81,669.64 1299.90,681.00              1302.76,687.37 1308.12,692.40 1314.00,696.03              1316.95,697.85 1321.76,699.41 1320.34,703.95              1319.46,706.79 1316.65,707.92 1314.00,708.52              1308.60,709.73 1299.35,711.48 1294.00,710.82              1287.28,709.98 1284.15,706.28 1280.00,705.45              1276.62,704.78 1272.55,706.45 1269.00,706.83              1265.98,707.15 1259.37,706.65 1257.13,707.60              1254.03,708.91 1253.89,711.59 1252.16,713.49              1248.48,717.55 1246.71,713.53 1242.00,723.00              1242.00,723.00 1238.00,722.00 1238.00,722.00              1238.00,722.00 1251.30,705.42 1251.30,705.42              1255.23,703.00 1260.64,703.26 1265.00,702.83              1272.77,702.07 1275.74,699.97 1284.00,702.04              1289.34,703.38 1291.95,706.04 1296.00,706.62              1300.18,707.22 1305.01,704.54 1311.00,704.00              1308.39,698.76 1306.33,698.96 1302.70,695.16              1298.71,690.98 1294.20,682.82 1293.98,676.99              1293.54,662.16 1301.94,656.16 1293.98,650.74              1288.76,647.22 1277.18,649.92 1271.00,650.00              1267.86,650.03 1263.90,650.26 1261.00,649.08              1254.92,646.60 1252.48,641.60 1246.00,638.72              1246.00,638.72 1221.01,631.85 1221.01,631.85              1213.03,628.23 1210.48,622.37 1205.45,616.04              1205.45,616.04 1197.61,607.96 1197.61,607.96              1191.91,600.62 1192.11,596.67 1192.00,588.00              1191.86,577.54 1187.57,577.81 1187.11,570.00              1186.82,565.09 1188.65,562.74 1188.30,559.00              1187.90,554.62 1185.12,551.22 1186.21,544.00              1187.03,538.58 1190.59,535.43 1190.86,530.00              1191.03,526.54 1187.24,515.22 1187.75,503.00              1187.94,498.17 1190.26,484.77 1191.48,480.00              1192.84,474.68 1195.21,469.64 1194.89,464.00              1194.27,452.81 1185.02,440.19 1183.77,435.00              1180.48,424.24 1183.97,416.79 1183.77,406.00              1178.04,407.85 1179.21,409.99 1174.90,413.36              1172.69,415.08 1169.82,415.79 1168.31,418.27              1166.57,421.15 1166.80,438.06 1155.00,436.37              1153.71,436.18 1152.17,435.59 1151.05,434.91              1147.30,432.65 1147.33,429.95 1141.00,425.00              1142.32,421.26 1142.49,420.87 1146.00,419.00 Z            M 1016.00,508.00            C 1027.83,506.09 1024.46,497.12 1027.85,492.21              1027.85,492.21 1041.28,478.04 1041.28,478.04              1041.28,478.04 1059.04,458.65 1059.04,458.65              1064.64,454.63 1067.64,457.69 1073.79,451.70              1073.79,451.70 1090.25,433.83 1090.25,433.83              1094.47,428.39 1103.17,416.40 1108.04,412.27              1116.60,405.01 1122.97,406.56 1132.00,411.59              1138.30,415.10 1141.11,415.41 1140.00,423.00              1133.11,422.10 1123.39,411.95 1117.04,413.84              1113.81,414.80 1110.84,419.38 1108.87,422.00              1101.85,431.35 1101.75,432.82 1093.17,441.96              1089.75,445.60 1081.65,455.92 1078.71,457.80              1070.69,462.96 1067.93,457.96 1060.09,466.02              1060.09,466.02 1048.25,479.83 1048.25,479.83              1048.25,479.83 1034.69,494.09 1034.69,494.09              1034.69,494.09 1029.12,505.48 1029.12,505.48              1026.71,508.79 1020.74,512.44 1017.00,514.00              1017.00,514.00 1016.00,508.00 1016.00,508.00 Z            M 784.00,480.00            C 780.35,473.10 771.75,473.88 773.47,466.02              774.91,459.48 790.03,455.13 792.00,467.00              794.44,466.46 797.58,465.35 800.00,466.04              804.65,467.36 816.43,480.88 821.01,485.05              825.79,489.40 831.21,491.97 831.00,499.00              831.00,499.00 828.00,499.00 828.00,499.00              824.57,495.20 824.51,496.46 821.68,494.13              818.58,491.58 818.30,488.52 811.00,486.00              809.80,481.61 802.35,475.35 799.00,472.00              795.82,474.82 795.10,474.50 791.00,474.00              791.00,476.21 791.20,480.98 790.40,482.87              787.85,488.90 780.53,486.18 776.00,485.00              776.92,493.96 781.11,500.46 773.47,508.85              771.14,511.42 768.44,512.33 765.00,511.85              754.83,510.44 761.31,499.23 761.40,496.01              761.45,494.28 760.37,490.51 757.95,491.96              756.35,492.92 755.28,496.31 754.66,498.00              753.61,500.88 751.15,506.07 751.92,508.98              753.41,514.58 760.74,514.99 763.83,521.02              765.89,525.03 765.00,530.59 759.98,531.65              757.34,532.20 752.75,530.62 750.00,530.00              752.41,532.76 756.69,535.53 757.97,538.04              760.47,542.95 756.94,546.58 752.00,546.94              745.17,547.44 741.58,544.12 736.00,541.00              741.27,551.87 758.51,549.26 756.66,566.00              755.97,572.25 750.19,579.61 745.72,583.77              743.59,585.76 739.39,588.13 736.60,585.97              734.66,584.48 734.94,580.21 735.09,578.00              735.57,570.96 739.33,562.07 730.00,559.00              730.10,569.93 732.78,569.39 732.99,578.00              733.27,590.07 729.58,587.85 725.39,596.00              725.39,596.00 712.69,629.00 712.69,629.00              712.69,629.00 705.86,647.00 705.86,647.00              704.45,651.03 704.33,654.42 700.86,657.37              694.46,662.80 686.47,665.93 679.00,669.48              679.00,669.48 645.72,686.92 645.72,686.92              645.72,686.92 630.06,694.95 630.06,694.95              624.17,699.21 626.33,703.57 621.45,709.96              618.19,714.22 613.54,716.51 612.31,720.04              611.18,723.24 615.59,734.34 608.66,737.43              602.79,740.04 594.68,732.93 590.00,730.00              591.19,736.66 592.15,740.33 584.00,741.00              582.25,751.45 570.90,744.94 564.00,744.00              564.00,749.32 564.70,753.63 560.77,757.89              553.87,765.39 546.27,761.34 546.00,751.00              539.79,756.25 546.59,760.16 543.01,765.39              538.44,772.07 529.84,764.78 528.00,776.00              528.00,776.00 536.99,773.44 536.99,773.44              543.61,772.56 545.84,779.67 544.20,785.00              540.42,797.25 528.48,791.77 528.00,807.00              528.00,807.00 535.00,803.00 535.00,803.00              541.02,800.27 548.62,805.11 547.33,812.00              546.45,816.64 542.02,818.89 539.15,822.09              537.61,823.80 536.28,825.56 536.58,828.00              537.40,834.84 546.35,833.82 548.00,844.00              548.00,844.00 550.72,841.23 550.72,841.23              557.78,834.76 559.99,843.06 564.98,844.84              570.95,846.97 572.20,834.23 580.89,838.01              582.46,838.69 583.55,839.65 584.26,841.21              584.84,842.46 584.84,843.68 585.00,845.00              594.80,845.70 594.55,850.12 592.00,858.00              595.66,854.81 600.03,848.99 605.00,848.33              610.55,847.59 611.71,852.76 616.85,849.80              616.85,849.80 642.01,826.72 642.01,826.72              649.67,819.79 648.33,818.02 659.00,818.00              659.00,818.00 718.00,818.00 718.00,818.00              724.62,817.92 745.05,814.66 749.91,810.61              759.17,802.89 758.07,791.03 770.00,791.03              782.01,791.03 783.19,803.76 784.00,813.00              784.24,815.78 784.68,821.56 786.59,823.60              788.66,825.78 792.27,825.07 795.00,825.01              798.43,824.94 807.04,824.43 809.91,823.02              812.47,821.75 814.20,819.20 817.04,817.77              820.94,816.20 824.08,817.92 828.00,817.77              831.03,817.37 837.19,815.13 840.00,813.82              845.94,811.03 850.62,806.26 856.00,802.63              856.00,802.63 864.00,798.47 864.00,798.47              864.00,798.47 871.00,793.97 871.00,793.97              871.00,793.97 886.00,789.01 886.00,789.01              886.00,789.01 906.00,784.53 906.00,784.53              906.00,784.53 917.00,781.59 917.00,781.59              922.27,780.68 933.74,778.72 937.78,775.44              939.74,773.85 940.39,772.07 941.79,770.17              948.87,760.58 945.85,765.97 948.00,754.00              948.00,754.00 966.00,755.00 966.00,755.00              966.00,755.00 966.00,758.00 966.00,758.00              966.00,758.00 952.00,758.00 952.00,758.00              953.55,770.10 950.49,765.53 945.73,772.12              945.73,772.12 942.73,778.28 942.73,778.28              940.70,780.94 935.20,782.15 932.00,783.12              912.11,789.14 892.74,790.17 873.09,798.61              873.09,798.61 858.17,805.73 858.17,805.73              858.17,805.73 853.83,809.52 853.83,809.52              853.83,809.52 842.00,817.56 842.00,817.56              830.19,823.76 827.07,820.55 820.01,822.43              816.98,823.23 814.78,825.55 811.91,826.73              807.95,828.36 804.17,827.95 800.00,828.00              790.32,828.12 787.16,832.44 783.85,829.41              780.00,825.89 778.59,810.39 777.84,805.00              777.18,800.18 775.66,796.11 770.00,796.11              763.17,796.11 761.19,804.13 758.37,808.99              755.26,814.31 751.81,816.75 746.00,818.44              724.98,824.55 699.84,823.25 678.00,823.00              668.67,822.89 662.31,818.07 654.02,823.89              654.02,823.89 631.84,845.25 631.84,845.25              628.06,848.77 620.42,854.70 618.16,859.00              615.42,864.22 615.07,880.22 604.00,878.62              598.31,877.79 595.25,871.31 596.62,867.26              597.30,865.25 602.16,861.16 605.00,855.00              599.54,857.98 597.71,862.88 592.99,865.01              588.36,867.10 584.32,863.94 584.60,859.00              584.71,857.01 586.20,853.90 587.00,852.00              581.12,849.46 580.42,846.24 578.00,846.18              574.85,846.10 572.22,852.46 566.00,852.35              558.19,852.20 557.65,845.06 552.00,850.00              552.00,850.00 550.00,851.00 550.00,851.00              543.49,849.25 544.54,847.43 540.18,842.75              534.87,837.06 529.93,835.15 531.21,826.00              532.69,815.53 548.52,810.92 536.00,807.00              533.85,814.57 526.16,813.73 524.57,810.57              523.63,808.69 524.00,796.88 524.00,794.00              529.30,791.54 535.11,787.12 538.00,781.93              531.77,780.77 530.90,782.36 527.10,781.93              521.39,781.09 518.95,774.14 521.48,769.34              522.57,767.29 528.00,763.46 530.17,762.54              532.32,761.63 535.73,761.57 537.31,759.49              538.57,757.54 537.30,755.14 537.31,753.00              537.64,749.47 540.83,745.50 544.00,744.07              550.02,741.35 551.21,746.90 551.87,750.99              552.16,752.79 553.06,755.33 555.45,754.37              559.87,752.61 555.80,744.00 561.34,739.73              566.96,735.66 573.43,740.72 576.87,739.73              578.72,739.01 583.53,733.68 584.16,731.79              584.78,729.96 584.19,725.40 588.21,723.76              594.45,721.20 597.59,729.42 607.00,731.00              607.00,731.00 606.30,724.00 606.30,724.00              605.43,717.77 604.22,716.82 609.09,711.26              611.49,708.53 614.03,708.18 616.49,704.94              619.33,701.22 618.47,697.94 622.22,694.55              625.16,691.90 633.94,688.72 638.00,686.74              638.00,686.74 658.00,676.12 658.00,676.12              658.00,676.12 677.00,667.08 677.00,667.08              681.82,664.65 695.21,658.08 698.57,654.59              701.40,651.65 704.13,640.51 706.09,636.00              706.09,636.00 712.71,618.00 712.71,618.00              712.71,618.00 718.49,603.00 718.49,603.00              718.49,603.00 721.81,591.09 721.81,591.09              723.44,586.27 725.87,586.48 726.65,582.91              727.95,576.95 722.23,564.99 725.29,558.06              728.18,551.50 737.40,553.24 741.00,559.02              744.45,564.57 742.10,571.96 741.00,578.00              743.61,575.70 744.57,575.04 746.37,571.96              746.37,571.96 749.28,566.00 749.28,566.00              753.41,554.48 734.78,553.91 731.00,545.00              728.30,538.64 737.08,535.43 742.00,536.47              742.00,536.47 752.00,541.00 752.00,541.00              752.00,541.00 746.57,536.46 746.57,536.46              743.70,533.52 742.77,527.92 747.13,525.85              752.48,523.32 754.75,527.91 761.00,522.00              754.90,521.60 745.20,516.77 744.44,509.96              744.15,507.38 746.13,501.95 746.79,499.00              747.76,494.62 749.73,488.51 753.39,485.60              754.85,484.43 756.18,484.19 758.00,484.06              767.64,483.40 767.98,493.84 768.00,501.00              769.36,499.60 770.24,499.13 770.48,496.96              770.92,493.04 765.42,485.52 771.56,479.31              773.56,477.29 775.34,477.08 778.00,477.77              778.00,477.77 784.00,480.00 784.00,480.00 Z            M 787.00,470.00            C 786.68,468.94 786.70,468.27 786.00,467.15              782.65,461.81 777.42,467.25 784.06,469.44              784.06,469.44 787.00,470.00 787.00,470.00 Z            M 832.00,499.00            C 832.00,499.00 834.00,499.00 834.00,499.00              837.37,513.78 840.60,508.59 846.73,521.00              850.05,527.73 853.00,542.57 860.04,545.94              863.36,547.53 867.66,545.53 871.00,544.75              874.88,543.84 878.20,544.14 882.00,545.33              887.81,547.14 897.32,554.91 902.98,553.67              908.13,552.54 908.24,547.60 912.21,545.43              915.36,543.71 919.47,544.60 926.00,541.18              932.51,537.76 934.09,533.69 940.00,530.59              942.94,529.05 946.67,527.98 950.00,528.22              953.07,528.45 955.44,529.81 958.00,529.22              960.70,528.60 962.14,526.43 966.00,525.22              966.00,525.22 976.00,522.96 976.00,522.96              976.00,522.96 1001.00,514.35 1001.00,514.35              1001.00,514.35 1010.94,511.66 1010.94,511.66              1012.59,511.56 1015.12,512.36 1013.83,514.47              1013.05,515.77 1010.37,516.42 1009.00,516.85              1009.00,516.85 996.00,520.65 996.00,520.65              987.42,523.38 978.20,526.01 970.04,529.84              965.64,531.90 964.90,534.80 960.99,535.67              955.52,536.89 952.77,532.22 946.00,533.33              938.64,534.54 935.95,540.42 930.00,543.97              923.34,547.93 919.64,546.45 915.14,549.85              911.28,552.76 911.38,557.11 905.96,558.57              899.02,560.44 894.60,555.68 889.00,552.82              883.82,550.17 880.70,549.88 875.00,550.01              869.72,550.13 861.09,553.53 857.04,551.07              849.12,546.26 846.76,527.43 842.61,520.17              839.26,514.32 829.39,512.30 832.00,499.00 Z            M 1067.00,715.00            C 1080.59,714.96 1078.19,712.28 1084.32,709.35              1084.32,709.35 1109.00,701.57 1109.00,701.57              1116.07,700.68 1117.39,704.73 1120.11,710.00              1121.92,713.51 1126.10,723.25 1129.13,724.98              1130.94,726.01 1133.00,725.93 1135.00,726.00              1139.95,736.10 1143.68,729.02 1151.00,729.28              1154.57,729.40 1158.68,731.72 1162.00,731.12              1165.36,730.52 1167.53,727.26 1171.73,729.62              1174.23,731.03 1181.15,742.10 1182.48,745.00              1183.57,747.36 1184.20,750.43 1186.42,752.00              1191.62,755.66 1196.97,752.98 1202.00,751.00              1204.02,760.70 1191.53,759.55 1186.04,756.69              1181.51,754.32 1181.45,750.94 1179.45,747.00              1178.16,744.46 1173.74,739.09 1171.58,737.36              1166.68,733.43 1165.34,739.62 1162.00,736.00              1153.62,738.86 1154.60,734.59 1150.00,735.16              1144.54,735.84 1145.69,741.17 1136.00,740.00              1134.18,729.09 1128.92,731.97 1124.43,728.11              1121.97,726.01 1122.02,723.31 1120.00,720.00              1115.65,712.90 1114.44,716.58 1113.00,706.00              1096.54,706.41 1085.30,718.95 1067.00,719.00              1067.00,719.00 1067.00,715.00 1067.00,715.00 Z            M 1018.00,737.00            C 1024.64,728.48 1027.82,734.88 1031.20,727.94              1035.51,719.09 1025.99,713.71 1032.31,708.93              1037.24,705.21 1049.55,709.82 1055.00,711.62              1056.38,712.08 1060.48,713.23 1061.40,714.00              1062.80,715.19 1062.72,716.39 1063.00,718.00              1058.80,717.62 1050.22,715.03 1046.00,713.62              1043.79,712.88 1039.36,711.13 1037.13,711.78              1028.22,714.39 1046.24,723.11 1037.85,725.84              1037.85,725.84 1034.87,725.84 1034.87,725.84              1035.16,728.31 1035.79,731.79 1034.87,733.85              1032.67,737.90 1021.90,737.79 1018.00,737.00 Z            M 1204.00,752.00            C 1204.98,746.27 1209.69,744.12 1214.00,740.42              1215.92,738.77 1217.94,737.12 1219.54,735.15              1219.54,735.15 1222.67,730.21 1222.67,730.21              1226.67,725.28 1233.57,721.07 1239.00,726.00              1239.00,726.00 1225.00,731.00 1225.00,731.00              1225.69,739.46 1223.02,741.90 1215.00,742.00              1213.98,747.93 1209.27,749.99 1204.00,752.00 Z            M 1015.00,741.00            C 1015.00,741.00 1017.00,741.00 1017.00,741.00              1017.00,741.00 1022.00,750.00 1022.00,750.00              1022.00,750.00 1018.00,757.00 1018.00,757.00              1020.43,757.09 1025.46,757.00 1023.83,761.01              1022.18,765.08 1016.92,766.28 1013.00,765.87              1008.25,765.37 1005.85,762.76 1002.00,762.35              999.12,762.04 995.15,763.49 992.00,763.83              987.08,764.35 981.80,764.03 977.00,762.87              972.02,761.66 968.94,761.51 968.00,756.00              968.00,756.00 984.00,759.91 984.00,759.91              984.00,759.91 1002.00,758.02 1002.00,758.02              1002.00,758.02 1014.00,761.00 1014.00,761.00              1014.00,761.00 1014.00,742.00 1014.00,742.00              1014.00,742.00 1015.00,741.00 1015.00,741.00 Z            M 611.00,861.00            C 608.46,862.67 604.36,865.39 603.00,868.17              602.05,870.11 602.20,873.17 604.99,873.26              608.53,873.37 610.51,863.74 611.00,861.00 Z"/>
</svg>