<svg xmlns:inkscape="http://www.inkscape.org/namespaces/inkscape" xmlns:sodipodi="http://sodipodi.sourceforge.net/DTD/sodipodi-0.dtd" xmlns="http://www.w3.org/2000/svg" xmlns:svg="http://www.w3.org/2000/svg" version="1.1" id="svg1" sodipodi:docname="zone5.svg" inkscape:version="1.3.2 (091e20e, 2023-11-25, custom)" viewBox="1505.99 337.39 488.42 562.95">
  <defs id="defs1"/>
  <sodipodi:namedview id="namedview1" pagecolor="#ffffff" bordercolor="#999999" borderopacity="1" inkscape:showpageshadow="2" inkscape:pageopacity="0" inkscape:pagecheckerboard="0" inkscape:deskcolor="#d1d1d1" inkscape:document-units="in" inkscape:zoom="1.6768791" inkscape:cx="326.49938" inkscape:cy="244.50182" inkscape:window-width="1346" inkscape:window-height="1040" inkscape:window-x="-162" inkscape:window-y="48" inkscape:window-maximized="0" inkscape:current-layer="svg1"/>
  <path id="Zone V" fill="none" stroke="black" stroke-width="1" d="M 1614.01,341.99            C 1619.91,341.99 1622.89,342.00 1626.16,342.00              1629.57,342.75 1631.76,344.79 1636.00,344.96              1648.46,345.45 1654.85,339.68 1663.00,338.32              1673.91,336.50 1673.93,340.91 1680.00,343.44              1685.37,345.68 1694.28,346.80 1698.28,351.27              1704.91,358.70 1697.27,374.16 1699.51,380.82              1700.70,384.35 1708.69,388.74 1712.00,390.75              1717.59,394.15 1734.31,398.35 1744.68,405.76              1751.05,410.31 1756.04,419.92 1762.17,425.54              1768.13,431.00 1778.21,435.65 1778.85,445.09              1779.21,450.40 1775.89,458.48 1772.54,462.54              1772.54,462.54 1766.26,469.09 1766.26,469.09              1764.58,471.17 1763.38,473.65 1762.13,476.00              1760.37,479.31 1755.07,494.28 1754.29,498.00              1753.42,502.12 1753.06,510.03 1751.70,513.00              1746.78,523.73 1734.76,529.64 1729.00,541.00              1735.68,541.00 1744.08,540.63 1749.67,536.52              1752.87,534.17 1754.36,530.44 1756.09,527.00              1756.09,527.00 1770.53,497.41 1770.53,497.41              1778.30,489.50 1787.62,495.11 1797.00,493.81              1803.20,492.95 1802.08,489.66 1808.00,489.00              1810.27,485.66 1811.63,486.48 1814.20,484.13              1816.85,481.71 1816.79,479.28 1821.73,475.83              1824.41,473.95 1826.94,473.60 1830.00,472.66              1839.17,469.84 1846.25,467.23 1856.00,470.00              1858.48,467.23 1861.50,468.04 1865.00,468.00              1869.36,467.94 1874.91,467.20 1879.00,465.67              1890.72,461.29 1900.01,452.61 1911.00,446.98              1917.09,443.86 1921.48,443.36 1928.00,442.25              1932.93,441.40 1939.91,438.57 1944.42,441.29              1950.55,444.99 1957.44,459.11 1959.31,466.09              1960.47,470.38 1960.28,473.87 1962.84,478.00              1965.26,481.90 1975.98,490.98 1979.98,494.39              1983.46,497.34 1987.01,499.86 1984.98,504.96              1982.84,510.34 1976.76,511.17 1972.00,513.09              1966.24,515.40 1960.46,519.00 1954.00,518.62              1943.67,518.02 1931.23,509.29 1920.00,509.01              1917.40,508.95 1914.51,508.94 1912.00,509.63              1912.00,509.63 1884.00,522.78 1884.00,522.78              1880.04,524.89 1874.60,528.37 1872.15,532.17              1868.83,537.30 1870.65,546.24 1866.91,553.91              1863.97,559.93 1858.39,562.19 1856.00,571.00              1854.31,571.50 1853.68,571.52 1852.09,572.56              1849.49,574.27 1843.26,581.19 1845.13,584.57              1847.46,588.81 1861.33,586.90 1865.82,589.27              1870.80,591.91 1873.53,598.48 1878.17,602.47              1883.14,606.76 1895.46,612.03 1902.00,612.91              1902.00,612.91 1913.00,612.91 1913.00,612.91              1919.24,612.92 1923.46,611.46 1930.00,612.17              1934.32,612.64 1944.37,617.13 1947.71,619.70              1949.48,621.06 1953.28,625.66 1954.83,627.58              1959.08,632.87 1957.85,635.51 1961.46,639.79              1964.32,643.20 1976.88,650.92 1979.49,660.00              1979.49,660.00 1980.49,673.00 1980.49,673.00              1981.84,678.12 1985.18,680.18 1984.89,686.01              1984.61,691.67 1981.01,696.32 1981.58,701.00              1981.58,701.00 1984.52,710.00 1984.52,710.00              1985.47,714.64 1984.41,718.66 1985.85,723.00              1987.21,727.09 1989.74,729.27 1990.66,734.00              1993.09,746.51 1990.13,751.85 1990.00,763.00              1990.00,763.00 1990.00,774.00 1990.00,774.00              1990.00,774.00 1993.91,808.00 1993.91,808.00              1993.91,808.00 1993.91,824.00 1993.91,824.00              1993.91,824.00 1992.04,835.00 1992.04,835.00              1991.83,840.30 1992.61,842.12 1993.38,847.00              1994.50,854.03 1990.67,859.54 1983.09,857.58              1977.64,856.18 1971.44,847.46 1963.04,849.56              1960.84,850.10 1958.85,851.40 1956.83,852.39              1956.83,852.39 1948.00,856.48 1948.00,856.48              1941.20,860.05 1936.02,864.43 1928.00,864.91              1917.15,865.56 1919.63,858.16 1909.00,858.03              1898.86,857.91 1888.39,865.27 1882.00,864.88              1874.76,864.43 1870.01,857.66 1862.00,859.63              1851.73,862.14 1848.96,873.61 1841.96,875.57              1832.01,878.36 1828.23,866.87 1816.00,870.65              1808.17,873.06 1804.30,881.07 1797.00,883.86              1789.47,886.73 1776.92,885.70 1769.00,887.60              1769.00,887.60 1748.00,892.88 1748.00,892.88              1748.00,892.88 1726.00,899.84 1726.00,899.84              1726.00,899.84 1710.75,899.81 1710.75,899.81              1710.75,897.55 1711.09,894.84 1711.03,892.03              1711.14,888.25 1710.28,884.95 1708.99,882.26              1707.99,879.87 1705.61,876.23 1702.95,872.98              1700.66,870.19 1698.14,867.91 1696.55,866.48              1694.15,864.34 1690.27,861.67 1688.52,858.91              1686.69,856.03 1687.31,853.18 1688.23,850.39              1689.23,847.26 1690.03,844.21 1690.00,841.09              1690.00,837.84 1689.48,835.54 1687.66,832.98              1685.88,830.41 1682.42,826.09 1678.64,822.24              1674.54,818.20 1671.68,815.17 1667.40,815.14              1663.38,814.99 1658.94,817.94 1655.51,822.82              1653.43,825.41 1652.10,828.24 1651.04,830.28              1649.43,834.01 1648.48,836.22 1646.74,837.43              1646.13,837.90 1645.34,838.22 1644.52,838.33              1643.11,838.57 1640.60,837.80 1641.13,835.12              1641.13,835.12 1641.87,833.72 1643.41,830.88              1643.64,830.34 1643.81,829.75 1643.98,829.14              1645.07,825.45 1644.87,821.12 1644.74,821.02              1644.27,817.47 1642.52,815.04 1638.22,815.88              1636.52,816.27 1634.33,817.09 1631.53,820.63              1628.49,824.93 1626.91,827.84 1625.26,829.24              1624.41,830.03 1623.61,830.57 1622.56,830.93              1618.59,831.82 1617.88,830.66 1614.16,831.27              1610.53,832.23 1609.90,835.49 1609.97,838.08              1610.12,842.81 1608.59,844.09 1603.99,845.00              1603.99,845.00 1603.03,840.91 1603.03,840.91              1602.97,840.36 1602.21,838.31 1602.03,834.69              1602.03,831.30 1602.00,827.17 1601.96,823.84              1601.85,821.72 1601.46,820.38 1600.80,819.45              1599.92,818.27 1598.86,817.90 1598.00,817.59              1598.00,817.59 1596.29,817.03 1593.66,817.02              1590.54,816.97 1586.38,817.21 1586.09,817.17              1586.09,817.17 1569.03,817.70 1569.03,817.70              1569.03,817.70 1559.03,817.99 1559.03,817.99              1559.03,817.99 1557.62,812.98 1557.62,812.98              1557.62,812.98 1570.25,811.50 1570.25,811.50              1581.75,811.97 1589.35,809.14 1599.00,812.23              1606.33,814.57 1606.05,820.75 1609.30,823.40              1612.01,825.62 1620.43,825.97 1624.00,826.00              1625.92,818.24 1633.89,808.31 1643.00,811.60              1646.75,812.95 1648.99,816.81 1652.00,816.80              1656.55,816.80 1657.24,810.37 1666.00,810.02              1677.49,809.55 1683.01,817.73 1689.60,826.04              1691.45,828.38 1694.40,831.27 1695.72,834.00              1696.11,835.95 1696.00,838.91 1695.72,841.00              1695.72,841.00 1695.72,847.83 1695.72,847.83              1695.21,850.98 1693.19,853.32 1694.99,856.63              1694.99,856.63 1705.79,868.00 1705.79,868.00              1708.26,870.92 1709.12,872.87 1711.06,876.00              1716.92,885.43 1716.00,884.04 1716.00,895.00              1718.11,895.28 1720.95,895.83 1723.00,895.73              1726.32,895.56 1744.31,890.50 1748.00,889.09              1748.00,889.09 1757.00,885.47 1757.00,885.47              1757.00,885.47 1794.99,880.36 1794.99,880.36              1800.87,878.33 1804.50,871.14 1810.00,867.74              1813.10,865.82 1816.48,865.92 1820.00,866.02              1830.40,866.30 1833.18,873.30 1839.94,871.56              1842.87,870.80 1844.22,868.07 1846.15,866.00              1848.95,862.99 1854.99,856.75 1858.42,854.95              1863.21,852.45 1870.38,855.96 1877.00,856.06              1877.00,856.06 1886.00,856.06 1886.00,856.06              1888.77,856.44 1891.47,857.77 1894.00,857.46              1899.54,856.78 1902.33,851.56 1914.00,853.19              1920.88,854.15 1922.68,861.54 1931.00,860.14              1942.83,858.14 1954.15,842.97 1967.96,843.09              1976.35,843.16 1977.45,850.63 1988.00,851.00              1988.00,851.00 1988.00,814.00 1988.00,814.00              1988.00,814.00 1985.71,788.00 1985.71,788.00              1984.74,780.76 1984.01,781.39 1984.04,773.00              1984.04,773.00 1984.04,758.00 1984.04,758.00              1984.04,758.00 1985.00,748.00 1985.00,748.00              1985.06,742.66 1985.01,735.11 1983.59,730.00              1983.59,730.00 1980.30,722.00 1980.30,722.00              1980.30,722.00 1979.53,714.00 1979.53,714.00              1978.33,709.20 1974.55,705.63 1975.20,699.00              1975.64,694.51 1977.97,691.72 1977.90,687.01              1977.84,682.81 1974.91,679.03 1974.18,673.00              1973.40,666.49 1975.21,663.49 1971.07,657.09              1966.99,650.79 1962.92,651.43 1957.57,643.98              1952.71,637.24 1952.60,632.96 1949.44,629.10              1946.68,625.73 1941.02,622.92 1937.00,621.23              1928.80,617.80 1917.89,619.01 1909.00,619.00              1899.54,618.99 1884.55,615.28 1877.00,609.47              1867.19,601.92 1866.70,594.20 1856.00,593.84              1856.00,593.84 1850.00,593.84 1850.00,593.84              1848.16,594.00 1844.99,594.11 1843.32,593.84              1835.94,590.89 1835.57,581.95 1838.57,576.02              1840.92,571.35 1843.52,571.23 1846.41,568.52              1846.41,568.52 1859.86,551.00 1859.86,551.00              1862.63,545.94 1862.71,539.30 1864.38,534.00              1865.84,529.37 1871.26,522.69 1875.05,519.79              1878.85,516.88 1883.70,515.25 1888.00,513.22              1896.91,509.01 1905.95,504.55 1916.00,504.04              1927.44,503.46 1944.89,512.76 1954.00,512.98              1963.05,513.20 1964.89,510.02 1973.00,507.64              1975.39,506.94 1979.34,506.18 1979.26,502.94              1979.18,500.08 1974.03,496.37 1971.92,494.55              1966.06,489.51 1960.44,483.97 1956.90,477.00              1952.69,468.71 1950.19,449.55 1940.96,445.86              1937.57,444.55 1934.43,445.47 1931.00,445.86              1924.65,446.51 1918.77,446.72 1913.00,449.90              1913.00,449.90 1894.83,463.24 1894.83,463.24              1885.41,468.15 1874.79,472.95 1864.00,473.00              1853.44,473.05 1838.74,473.88 1829.04,478.09              1823.08,480.68 1822.24,483.97 1817.91,487.73              1817.91,487.73 1811.09,492.37 1811.09,492.37              1805.24,496.85 1805.21,498.86 1797.00,499.00              1791.48,499.09 1779.71,498.46 1775.63,502.31              1771.76,505.96 1770.95,510.33 1769.14,514.96              1769.14,514.96 1760.55,531.29 1760.55,531.29              1758.82,534.72 1757.87,537.91 1754.87,540.54              1748.82,545.85 1743.22,545.07 1736.00,546.19              1731.20,547.15 1723.78,549.62 1719.45,546.19              1716.82,544.06 1717.78,541.47 1719.45,539.37              1719.45,539.37 1736.09,523.42 1736.09,523.42              1739.33,520.39 1744.74,515.86 1746.61,511.83              1748.57,507.61 1747.54,503.33 1748.53,499.00              1748.53,499.00 1757.95,473.00 1757.95,473.00              1762.02,465.89 1772.86,454.72 1772.86,447.00              1772.86,437.71 1763.52,435.27 1758.28,429.90              1758.28,429.90 1741.87,410.80 1741.87,410.80              1733.46,404.24 1731.04,404.29 1722.17,400.28              1722.17,400.28 1716.91,397.65 1716.91,397.65              1713.41,396.30 1711.01,396.46 1707.00,394.25              1700.56,390.70 1692.47,384.03 1693.11,376.00              1693.50,371.05 1695.65,369.85 1695.96,364.00              1696.58,351.99 1689.13,351.41 1680.00,348.31              1675.18,346.67 1671.96,343.30 1666.00,343.07              1660.09,342.84 1658.97,345.46 1653.96,346.96              1647.13,349.01 1637.16,350.10 1630.00,350.00              1621.08,349.86 1625.06,347.26 1615.00,347.00              1615.00,347.00 1614.01,341.99 1614.01,341.99 Z            M 1531.70,816.08            C 1530.81,817.77 1530.16,819.42 1529.27,821.34              1528.37,822.44 1527.02,823.34 1525.00,824.00              1524.11,822.39 1523.09,820.78 1522.55,819.00              1521.09,814.18 1522.15,799.03 1523.60,794.00              1526.03,785.53 1528.67,785.16 1528.99,772.00              1529.05,769.33 1529.22,765.56 1528.02,763.17              1523.52,754.27 1505.67,747.44 1506.52,734.00              1507.18,723.60 1512.51,722.78 1516.62,707.00              1519.77,694.90 1518.86,695.96 1519.00,684.00              1519.11,675.32 1523.31,664.57 1527.33,656.92              1530.40,651.08 1534.44,646.67 1539.43,642.42              1543.38,639.05 1547.77,636.54 1548.91,631.00              1548.91,631.00 1548.91,624.00 1548.91,624.00              1549.24,619.39 1550.28,607.08 1551.43,603.00              1552.62,598.76 1557.21,591.32 1556.21,588.00              1556.21,588.00 1542.31,570.58 1542.31,570.58              1540.52,568.16 1537.55,564.51 1538.63,561.29              1539.68,558.13 1543.87,555.62 1547.00,554.92              1547.00,554.92 1557.00,554.92 1557.00,554.92              1560.28,553.93 1561.70,552.08 1565.00,551.31              1567.59,550.71 1570.00,551.39 1572.99,550.07              1580.47,546.76 1580.77,539.21 1592.00,539.00              1595.80,538.93 1600.34,539.27 1604.00,538.48              1611.21,536.94 1613.51,534.08 1622.00,535.13              1631.02,536.24 1634.49,542.97 1648.00,543.10              1648.00,543.10 1655.00,543.10 1655.00,543.10              1659.30,543.80 1663.41,546.07 1667.99,544.41              1674.59,542.00 1678.92,531.80 1684.17,527.75              1693.02,520.93 1714.15,517.49 1722.57,504.71              1730.83,492.19 1725.50,485.34 1730.48,476.00              1735.43,466.71 1744.21,462.58 1747.21,452.00              1751.83,435.76 1735.67,436.53 1727.58,431.84              1721.78,428.48 1718.46,422.49 1713.00,418.57              1707.74,414.79 1700.06,414.86 1694.00,412.53              1688.35,410.36 1678.13,403.45 1673.00,403.12              1665.65,402.66 1663.22,409.32 1658.83,413.91              1656.55,416.29 1653.63,418.22 1651.93,421.04              1650.09,424.11 1650.35,427.95 1646.86,429.98              1642.52,432.49 1635.77,428.24 1632.00,425.96              1628.23,423.67 1620.70,418.04 1619.01,413.99              1619.01,413.99 1616.60,403.00 1616.60,403.00              1614.56,397.46 1611.46,395.66 1612.11,389.00              1612.94,380.43 1623.37,376.89 1622.18,371.06              1620.88,364.71 1610.76,368.70 1605.13,365.07              1596.82,359.71 1600.12,348.74 1602.82,346.69              1605.56,344.25 1602.43,342.23 1602.99,342.00              1606.36,341.99 1609.88,342.01 1612.00,342.00              1612.00,342.00 1613.00,348.00 1613.00,348.00              1604.34,349.01 1603.48,356.15 1607.65,360.57              1611.52,364.67 1629.16,361.04 1626.95,373.00              1626.04,377.96 1618.56,385.46 1617.67,391.00              1616.99,395.16 1619.40,397.83 1620.57,401.28              1622.36,406.53 1621.10,412.21 1628.59,417.97              1631.31,420.07 1632.50,419.80 1634.92,421.14              1637.81,422.74 1639.81,425.74 1642.68,424.92              1645.51,424.11 1646.45,419.76 1648.50,417.09              1648.50,417.09 1659.80,404.72 1659.80,404.72              1662.04,401.94 1663.30,399.26 1667.02,398.31              1675.96,396.03 1683.77,402.99 1691.00,406.83              1700.72,411.99 1704.63,408.61 1713.00,413.05              1722.03,417.84 1719.99,422.04 1730.01,427.62              1736.88,431.44 1747.84,433.64 1751.69,441.00              1752.99,443.50 1753.08,446.25 1752.96,449.00              1752.25,465.95 1738.03,469.13 1733.75,482.00              1730.08,493.04 1734.54,496.04 1726.25,508.00              1715.85,523.01 1697.94,523.58 1688.00,531.39              1679.76,537.87 1677.19,550.28 1665.00,551.85              1659.43,552.57 1656.67,550.22 1653.00,549.51              1647.63,548.46 1647.52,551.77 1636.00,546.98              1630.52,544.70 1626.10,540.38 1620.00,540.04              1611.74,539.59 1610.14,542.41 1603.00,544.24              1597.42,545.67 1594.68,544.28 1590.00,545.97              1590.00,545.97 1575.00,554.72 1575.00,554.72              1564.54,559.71 1555.33,560.00 1544.00,560.00              1545.38,571.83 1562.55,577.94 1561.86,592.00              1561.86,592.00 1555.76,613.00 1555.76,613.00              1554.50,620.75 1557.34,629.68 1552.81,638.00              1548.11,646.63 1539.68,650.36 1537.81,652.49              1537.81,652.49 1530.97,665.00 1530.97,665.00              1522.98,681.57 1526.34,691.04 1522.54,708.00              1522.54,708.00 1513.21,733.00 1513.21,733.00              1512.35,739.52 1516.79,742.82 1521.00,746.99              1527.61,753.53 1531.28,755.66 1533.96,765.00              1538.77,781.77 1528.49,793.21 1528.00,809.00              1530.47,807.32 1533.09,805.02 1536.00,804.31              1545.10,802.09 1552.54,808.60 1555.00,817.00              1551.91,816.96 1550.26,817.43 1547.02,815.82              1543.62,814.00 1541.85,810.40 1536.89,811.28              1534.04,812.03 1532.90,814.06 1531.70,816.08 Z" style="fill:#b04466;fill-opacity:1"/>
</svg>