<svg xmlns:inkscape="http://www.inkscape.org/namespaces/inkscape" xmlns:sodipodi="http://sodipodi.sourceforge.net/DTD/sodipodi-0.dtd" xmlns="http://www.w3.org/2000/svg" xmlns:svg="http://www.w3.org/2000/svg" version="1.1" id="svg1" sodipodi:docname="zone1.svg" inkscape:version="1.3.2 (091e20e, 2023-11-25, custom)" viewBox="789.81 32.76 842.6 521.65">
  <defs id="defs1"/>
  <sodipodi:namedview id="namedview1" pagecolor="#ffffff" bordercolor="#999999" borderopacity="1" inkscape:showpageshadow="2" inkscape:pageopacity="0" inkscape:pagecheckerboard="0" inkscape:deskcolor="#d1d1d1" inkscape:document-units="in" inkscape:zoom="1.6768791" inkscape:cx="326.49938" inkscape:cy="244.8" inkscape:window-width="1904" inkscape:window-height="1001" inkscape:window-x="-593" inkscape:window-y="61" inkscape:window-maximized="0" inkscape:current-layer="svg1"/>
  <path id="Zone I" fill="none" stroke="black" stroke-width="1" d="M 1209.00,111.00            C 1209.00,111.00 1239.00,88.91 1239.00,88.91              1243.99,84.85 1248.56,80.17 1254.00,76.71              1269.28,67.01 1289.10,58.15 1306.00,51.45              1306.00,51.45 1317.00,47.55 1317.00,47.55              1317.00,47.55 1346.00,34.17 1346.00,34.17              1348.16,33.91 1365.13,33.12 1367.38,33.28              1367.38,33.28 1391.00,34.16 1391.00,34.16              1395.10,34.01 1403.07,35.00 1406.58,36.97              1415.39,41.93 1411.67,44.98 1425.00,45.00              1429.47,45.01 1433.88,44.55 1437.82,47.15              1441.92,49.85 1444.06,56.02 1451.00,57.36              1461.13,59.30 1468.45,47.15 1479.91,50.43              1485.47,52.02 1489.64,60.20 1494.09,62.78              1497.78,64.48 1504.43,62.91 1509.00,62.78              1522.17,63.31 1524.30,68.39 1535.00,67.96              1548.22,67.43 1556.64,58.27 1567.00,58.01              1582.50,57.63 1580.04,64.68 1587.34,72.08              1592.47,77.28 1597.94,78.07 1602.52,83.18              1606.81,87.97 1611.89,105.47 1612.00,112.00              1612.00,112.00 1612.00,125.00 1612.00,125.00              1612.25,138.80 1625.34,149.11 1627.74,157.00              1628.10,159.16 1628.04,162.71 1627.74,165.00              1627.68,177.66 1620.70,179.59 1614.22,189.00              1608.71,197.00 1607.85,201.57 1608.00,211.00              1608.27,226.67 1627.77,235.50 1631.52,254.00              1632.90,260.77 1630.38,264.20 1627.53,270.00              1622.53,280.14 1617.57,285.30 1616.29,297.00              1615.50,304.18 1623.93,319.05 1626.16,327.00              1627.67,331.49 1626.11,337.16 1626.16,342.00              1626.16,342.00 1614.00,342.00 1614.00,342.00              1614.00,342.00 1614.00,338.00 1614.00,338.00              1621.72,336.34 1623.48,332.78 1621.53,325.00              1620.64,321.46 1617.01,315.77 1615.31,312.00              1613.04,306.95 1611.75,299.54 1612.04,294.00              1612.85,278.53 1628.99,268.87 1626.68,255.00              1625.01,245.00 1618.37,240.21 1612.46,233.00              1605.81,224.88 1602.54,217.63 1603.04,207.00              1603.55,196.11 1610.42,188.41 1616.42,180.00              1620.69,174.02 1624.52,169.74 1623.91,162.00              1623.08,151.50 1612.60,145.18 1609.44,135.00              1607.47,128.62 1608.03,122.58 1608.00,116.00              1607.96,107.94 1604.48,94.72 1600.03,88.02              1595.61,81.35 1590.44,81.75 1585.47,76.67              1581.01,72.13 1580.38,66.44 1574.00,63.31              1566.40,59.59 1558.76,65.68 1552.00,68.69              1547.45,70.72 1541.00,71.62 1536.00,71.91              1525.32,72.51 1520.04,66.98 1510.26,67.57              1505.24,67.82 1496.88,70.52 1492.17,68.43              1486.19,65.85 1484.81,55.88 1478.00,54.48              1470.13,52.87 1460.85,65.67 1449.00,62.43              1442.13,60.56 1439.92,55.01 1434.99,52.01              1430.48,49.27 1425.03,50.09 1420.00,50.00              1410.30,49.82 1412.07,44.80 1404.96,41.87              1400.22,39.92 1391.93,39.91 1386.78,39.22              1378.38,38.09 1366.21,34.22 1358.00,37.36              1358.00,37.36 1344.00,43.72 1344.00,43.72              1344.00,43.72 1297.00,64.21 1297.00,64.21              1286.44,69.02 1271.72,74.58 1262.04,80.60              1262.04,80.60 1243.00,95.13 1243.00,95.13              1243.00,95.13 1228.00,106.44 1228.00,106.44              1223.89,109.89 1214.77,118.37 1209.00,117.47              1206.92,117.15 1205.67,116.10 1204.00,115.00              1204.00,119.50 1204.57,125.01 1201.99,128.90              1198.46,134.24 1188.80,136.49 1185.31,129.94              1179.95,119.87 1191.54,111.49 1183.77,106.01              1176.88,101.15 1174.79,110.76 1169.00,111.58              1163.92,112.29 1161.36,106.83 1159.60,105.91              1156.83,104.45 1156.22,108.16 1156.06,110.01              1155.79,113.01 1156.32,116.06 1155.30,118.98              1153.55,123.98 1145.18,128.22 1140.57,125.01              1135.48,121.45 1140.29,113.14 1137.36,109.57              1134.20,105.71 1130.27,103.84 1121.60,105.40              1118.83,99.87 1117.78,92.00 1113.43,82.57              1110.69,79.91 1098.33,75.25 1094.24,73.49              1094.24,73.49 1058.29,58.33 1058.29,58.33              1053.24,56.29 1043.24,50.44 1038.51,50.53              1032.02,50.66 1032.48,54.52 1025.96,58.49              1016.06,64.50 1006.11,59.70 999.73,68.21              998.62,69.69 998.28,71.20 997.57,72.83              993.74,81.56 989.46,98.01 979.91,101.42              977.89,102.14 974.21,102.02 972.00,102.00              967.49,101.94 963.12,101.08 959.17,98.77              952.35,96.70 951.38,91.15 942.35,92.04              935.94,92.68 933.71,96.99 934.17,103.00              934.17,103.00 937.18,128.02 937.18,128.02              937.21,130.56 937.16,134.68 936.26,136.99              933.75,143.39 923.57,147.68 917.00,146.76              911.69,146.03 911.27,144.01 901.22,144.70              896.88,144.99 890.82,144.60 888.89,149.11              887.87,151.48 888.00,155.40 888.00,158.00              888.00,158.00 888.68,196.00 888.68,196.00              888.98,200.02 887.81,203.11 887.29,207.00              887.29,207.00 885.71,223.00 885.71,223.00              885.71,223.00 883.94,233.00 883.94,233.00              883.94,233.00 883.94,241.00 883.94,241.00              883.94,241.00 880.75,258.00 880.75,258.00              880.30,260.81 879.92,266.69 878.69,268.86              875.82,273.90 869.93,271.69 864.00,276.30              864.00,276.30 846.00,294.53 846.00,294.53              846.00,294.53 821.18,311.48 821.18,311.48              818.60,313.86 816.82,316.50 816.22,320.00              815.72,322.91 816.48,326.22 814.40,328.69              809.89,334.05 803.62,326.75 800.00,337.00              803.54,336.25 814.29,332.46 813.36,340.04              813.18,341.55 810.77,346.25 810.00,348.00              825.07,348.15 824.86,359.12 819.77,363.68              816.29,366.80 813.81,364.83 811.00,364.84              804.04,364.86 807.00,369.32 797.00,363.00              797.00,363.00 796.00,364.00 796.00,364.00              796.00,364.00 797.00,369.00 797.00,369.00              805.21,369.21 803.52,370.57 808.00,371.42              812.41,372.25 816.30,369.04 822.90,375.21              827.03,379.08 831.32,389.27 823.89,392.25              820.81,393.48 816.98,391.96 814.00,391.00              809.43,398.32 803.90,395.79 797.00,394.00              803.71,406.54 819.72,388.82 821.00,405.00              824.68,404.97 829.82,404.09 832.98,405.89              842.49,411.30 840.46,424.75 835.59,427.99              832.45,430.05 823.64,428.65 820.00,427.99              823.17,433.45 826.51,432.25 828.26,436.21              830.26,440.73 827.47,445.17 823.00,446.19              819.84,447.41 816.24,446.31 813.00,446.19              813.00,446.19 798.00,446.19 798.00,446.19              798.00,446.19 798.00,449.00 798.00,449.00              802.21,449.00 809.38,448.41 812.85,450.85              817.48,454.11 817.55,461.33 810.00,464.00              813.61,472.95 823.33,477.11 830.51,483.09              833.66,485.90 835.64,488.20 836.13,490.49              834.53,492.40 834.27,493.36 831.66,495.85              827.10,488.70 824.82,489.63 819.10,484.15              814.00,479.26 805.61,468.71 800.00,466.00              800.57,459.18 803.85,459.50 810.00,459.00              810.00,459.00 810.00,455.00 810.00,455.00              805.40,455.00 799.05,455.70 795.23,452.85              790.99,449.71 790.85,443.31 796.06,441.01              802.07,438.34 813.29,442.40 824.00,440.00              824.00,440.00 824.00,438.00 824.00,438.00              822.00,437.34 820.85,437.01 819.06,435.75              813.35,431.73 814.49,425.28 818.23,423.60              821.95,421.92 835.08,425.62 833.09,416.00              830.50,403.50 816.07,417.42 815.00,404.00              808.78,404.14 801.94,406.32 796.11,403.23              791.99,401.06 789.07,393.35 792.74,389.60              798.29,383.92 805.90,395.57 809.00,386.00              809.00,386.00 822.00,388.00 822.00,388.00              821.91,384.26 821.41,381.24 817.82,379.17              814.51,377.27 809.75,378.38 806.09,377.87              803.13,377.47 802.47,376.46 799.92,375.53              797.90,374.80 796.37,374.92 794.61,373.40              787.57,367.34 789.07,356.79 799.83,358.11              806.76,359.15 809.83,359.74 817.00,358.11              816.19,356.73 815.97,355.93 814.59,355.02              811.37,352.88 802.10,354.24 805.00,343.00              792.39,342.68 792.15,333.00 797.23,328.43              801.31,324.74 806.92,325.93 809.40,323.41              812.13,320.63 809.82,316.04 812.89,312.52              812.89,312.52 820.00,307.75 820.00,307.75              820.00,307.75 842.00,292.32 842.00,292.32              851.99,284.59 857.53,275.30 861.09,272.42              865.55,268.79 871.05,269.14 874.15,264.79              875.93,262.28 876.57,257.08 877.00,254.00              877.00,254.00 879.58,234.00 879.58,234.00              879.58,234.00 884.00,194.00 884.00,194.00              884.00,194.00 884.00,142.00 884.00,142.00              895.55,141.97 896.27,139.26 904.00,139.04              911.25,138.84 924.75,147.23 931.09,135.82              934.49,129.31 931.97,125.90 931.09,121.83              930.27,116.50 929.97,108.48 930.00,103.00              930.02,100.61 929.94,98.26 930.85,96.00              933.82,88.70 940.71,85.78 948.00,88.09              957.59,91.14 967.26,101.06 977.99,95.55              987.23,90.80 989.77,73.72 995.47,65.42              1004.31,52.58 1012.86,59.05 1021.99,53.52              1028.39,49.64 1030.08,43.80 1035.09,42.66              1039.82,41.57 1049.05,47.42 1054.00,49.11              1054.00,49.11 1071.00,56.43 1071.00,56.43              1071.00,56.43 1098.00,67.57 1098.00,67.57              1102.24,69.38 1114.89,74.09 1117.72,76.64              1122.16,80.62 1121.83,91.63 1125.09,95.65              1127.42,98.53 1129.61,96.40 1134.00,97.90              1145.86,101.95 1147.55,108.06 1144.00,119.00              1154.09,117.31 1147.99,108.57 1150.60,102.06              1152.39,97.59 1158.96,96.01 1162.83,98.60              1162.83,98.60 1169.00,104.00 1169.00,104.00              1173.63,93.50 1186.80,95.34 1191.43,105.00              1195.14,112.75 1190.69,119.30 1190.00,127.00              1202.29,125.57 1195.59,117.59 1199.65,110.23              1202.21,105.58 1206.66,107.11 1209.00,111.00 Z            M 1145.00,416.00            C 1145.96,415.11 1145.58,415.22 1146.64,414.42              1151.71,415.96 1154.04,420.19 1156.72,418.84              1159.57,417.39 1158.37,413.27 1160.97,409.18              1163.66,404.96 1166.48,405.39 1169.80,402.59              1172.35,400.43 1173.61,397.48 1177.04,395.93              1182.88,393.30 1186.76,398.01 1191.00,396.94              1198.29,395.08 1200.72,385.08 1209.00,378.86              1210.60,377.65 1219.20,371.58 1220.88,371.00              1224.84,369.63 1226.57,371.78 1235.00,367.68              1241.17,364.67 1245.24,359.19 1251.00,355.55              1253.77,353.80 1260.84,350.67 1264.00,349.55              1274.44,345.83 1284.16,344.71 1283.22,330.24              1282.66,321.51 1276.27,315.48 1271.43,308.96              1266.15,301.85 1264.11,295.82 1264.00,287.00              1263.80,269.91 1269.29,248.51 1283.00,237.23              1291.43,230.29 1303.11,235.22 1308.50,230.94              1312.21,227.99 1310.54,212.96 1310.59,208.00              1310.70,199.15 1314.07,189.60 1318.75,182.09              1321.47,177.71 1323.39,177.16 1326.20,172.00              1331.56,162.16 1327.88,156.71 1333.11,149.04              1335.92,144.91 1347.66,135.00 1352.00,131.27              1352.00,131.27 1376.38,109.12 1376.38,109.12              1376.38,109.12 1401.00,95.88 1401.00,95.88              1401.00,95.88 1408.91,91.87 1408.91,91.87              1418.30,85.68 1414.94,74.29 1424.02,69.98              1434.87,64.84 1444.88,77.33 1454.00,77.88              1462.68,78.40 1460.97,70.56 1471.66,66.62              1471.66,66.62 1474.88,64.62 1479.88,67.38              1480.30,67.98 1481.22,68.48 1481.22,69.39              1479.35,69.21 1480.50,69.12 1474.56,68.88              1475.81,70.94 1480.06,76.81 1480.06,76.81              1481.13,74.76 1480.91,75.29 1481.62,74.02              1484.08,74.74 1487.59,78.59 1490.83,79.04              1497.68,80.01 1501.12,76.09 1508.26,80.48              1517.79,86.34 1519.32,93.41 1523.11,96.36              1527.47,99.74 1537.01,102.47 1539.98,107.33              1541.09,109.15 1541.15,112.72 1541.68,115.00              1542.83,119.93 1544.35,121.24 1545.54,125.00              1547.39,130.83 1546.99,136.60 1552.30,140.75              1563.43,149.45 1573.51,137.97 1582.00,139.23              1591.44,140.62 1600.73,151.13 1606.00,154.00              1606.00,158.28 1606.49,166.24 1605.12,170.00              1602.00,178.58 1592.20,187.66 1592.00,204.00              1591.88,214.64 1593.15,226.48 1598.31,236.00              1603.11,244.86 1613.72,256.94 1611.73,267.00              1610.76,271.88 1607.46,273.71 1605.37,283.00              1602.79,292.39 1603.69,311.41 1605.37,321.00              1607.81,332.07 1605.54,335.85 1612.00,338.00              1612.00,338.00 1612.00,342.00 1612.00,342.00              1612.00,342.00 1603.00,342.00 1603.00,342.00              1603.00,342.00 1603.00,333.00 1603.00,333.00              1603.00,333.00 1599.00,303.00 1599.00,303.00              1598.99,296.26 1600.27,284.40 1602.32,278.09              1604.11,272.62 1608.67,267.20 1607.71,261.09              1607.06,256.92 1596.95,242.00 1594.10,236.00              1589.17,225.63 1588.87,215.19 1589.00,204.00              1589.12,194.35 1593.73,184.86 1597.31,176.00              1598.74,172.45 1601.76,166.62 1601.84,163.00              1602.01,155.83 1592.43,147.49 1586.00,145.64              1583.82,145.01 1581.26,144.95 1579.00,145.04              1568.59,145.44 1559.47,151.78 1549.02,144.35              1541.71,139.16 1542.46,132.63 1540.63,125.00              1540.63,125.00 1535.69,111.00 1535.69,111.00              1531.88,103.87 1524.37,102.21 1520.52,99.49              1514.60,95.31 1513.59,89.72 1510.45,87.26              1503.59,81.90 1496.56,85.39 1489.00,84.96              1484.53,84.70 1482.54,83.48 1479.78,79.96              1478.04,77.73 1476.26,73.63 1472.96,73.63              1470.12,73.62 1467.75,76.73 1465.72,78.40              1461.43,81.92 1455.65,84.76 1450.00,83.47              1443.15,81.90 1434.83,72.74 1428.09,74.33              1422.64,75.61 1421.46,81.65 1419.67,85.96              1417.91,90.20 1414.81,93.89 1410.91,96.27              1410.91,96.27 1384.00,110.80 1384.00,110.80              1384.00,110.80 1359.00,132.75 1359.00,132.75              1354.51,136.49 1341.82,146.25 1338.89,150.13              1330.55,161.17 1335.11,166.29 1330.94,174.00              1327.60,180.19 1323.37,183.06 1320.84,188.00              1317.69,194.16 1315.09,209.93 1314.85,217.00              1314.85,217.00 1314.85,226.00 1314.85,226.00              1312.22,242.63 1296.80,233.18 1287.00,239.70              1277.87,245.77 1269.81,265.26 1268.28,276.00              1267.10,284.33 1267.25,294.54 1271.63,302.00              1276.92,311.02 1287.13,318.89 1287.90,330.00              1288.15,333.56 1287.53,336.67 1286.29,340.00              1281.58,352.68 1269.42,352.43 1259.00,356.95              1248.78,361.39 1248.22,366.57 1240.00,370.72              1232.62,374.45 1221.52,375.70 1213.00,381.36              1201.22,389.19 1203.81,398.41 1193.00,401.33              1189.43,402.51 1186.47,401.44 1183.00,401.33              1175.70,400.61 1175.83,403.77 1171.68,407.37              1167.77,410.76 1164.89,411.13 1162.28,417.00              1160.25,421.55 1161.87,426.61 1157.78,428.63              1153.38,430.79 1151.55,426.05 1149.55,423.28              1147.20,420.04 1146.59,419.98 1145.00,416.00 Z            M 1015.91,508.53            C 1015.66,507.00 1015.60,506.22 1015.42,504.66              1017.16,502.81 1019.91,501.56 1021.69,497.99              1023.12,495.11 1022.64,490.90 1024.22,488.35              1024.22,488.35 1035.97,478.00 1035.97,478.00              1042.00,471.47 1051.84,458.90 1058.28,453.80              1063.06,450.02 1066.28,450.90 1069.99,448.42              1069.99,448.42 1082.56,435.88 1082.56,435.88              1082.56,435.88 1101.44,412.66 1101.44,412.66              1103.60,409.99 1109.80,401.86 1112.49,400.24              1114.36,398.56 1117.96,398.31 1121.96,400.33              1128.10,402.10 1140.38,408.87 1144.37,413.97              1144.37,413.97 1143.00,416.00 1143.00,416.00              1137.49,414.23 1137.68,412.98 1133.83,411.41              1133.83,411.41 1127.00,408.97 1127.00,408.97              1123.43,407.24 1121.31,405.38 1117.00,406.43              1108.65,408.46 1095.30,427.00 1089.39,433.96              1089.39,433.96 1071.82,453.01 1071.82,453.01              1068.14,455.50 1062.42,455.55 1057.46,459.80              1057.46,459.80 1039.37,480.42 1039.37,480.42              1039.37,480.42 1034.79,485.90 1034.79,485.90              1031.72,489.10 1028.79,490.16 1026.85,493.10              1023.45,498.29 1027.30,503.84 1019.08,507.29              1019.08,507.29 1015.91,508.53 1015.91,508.53 Z            M 1013.00,511.00            C 1004.73,511.70 997.78,515.76 990.00,518.33              990.00,518.33 974.00,523.39 974.00,523.39              974.00,523.39 966.18,524.51 966.18,524.51              963.00,525.58 961.84,528.38 958.91,529.07              955.88,529.78 948.05,525.76 940.00,530.14              935.14,532.77 932.09,538.03 927.00,540.72              921.09,543.86 916.68,542.04 912.05,545.01              906.59,548.51 908.09,553.17 902.90,553.85              896.53,554.69 886.87,546.57 880.00,544.76              871.47,542.52 866.05,548.55 860.04,546.13              852.78,543.21 849.43,526.04 845.06,518.00              841.61,511.65 839.63,512.79 837.08,508.87              835.77,506.86 834.30,502.45 834.27,499.47              834.23,498.97 834.20,498.91 834.14,498.52              835.70,496.34 836.66,494.92 837.69,493.95              838.52,494.05 839.91,496.66 840.07,497.84              841.78,500.18 841.76,503.21 842.00,506.00              854.91,508.76 853.74,527.95 860.68,536.89              866.35,544.19 870.95,536.86 879.00,538.40              885.34,539.61 895.55,547.48 899.05,547.59              903.85,547.74 904.29,542.35 909.10,539.57              914.03,536.73 918.16,539.22 922.99,536.69              927.39,534.37 930.16,528.10 934.72,525.91              936.71,524.95 946.02,523.22 948.00,523.21              951.42,523.19 954.07,524.36 957.47,523.59              957.47,523.59 964.38,519.75 964.38,519.75              964.38,519.75 976.00,518.57 976.00,518.57              976.00,518.57 996.00,511.50 996.00,511.50              1003.34,508.91 1004.81,506.69 1013.00,506.00              1013.00,506.00 1013.00,511.00 1013.00,511.00 Z" style="fill:#2b78b0;fill-opacity:1"/>
</svg>