<svg xmlns:inkscape="http://www.inkscape.org/namespaces/inkscape" xmlns:sodipodi="http://sodipodi.sourceforge.net/DTD/sodipodi-0.dtd" xmlns="http://www.w3.org/2000/svg" xmlns:svg="http://www.w3.org/2000/svg" version="1.1" id="svg1" sodipodi:docname="zone7.svg" inkscape:version="1.3.2 (091e20e, 2023-11-25, custom)" viewBox="619.07 698.41 745.96 537">
  <defs id="defs1"/>
  <sodipodi:namedview id="namedview1" pagecolor="#ffffff" bordercolor="#999999" borderopacity="1" inkscape:showpageshadow="2" inkscape:pageopacity="0" inkscape:pagecheckerboard="0" inkscape:deskcolor="#d1d1d1" inkscape:document-units="in" inkscape:zoom="1.1857326" inkscape:cx="226.44229" inkscape:cy="258.0683" inkscape:window-width="1346" inkscape:window-height="1040" inkscape:window-x="201" inkscape:window-y="13" inkscape:window-maximized="0" inkscape:current-layer="svg1"/>
  <path id="Zone VII" fill="none" stroke="black" stroke-width="1" d="M 1241.65,723.79            C 1243.78,719.18 1245.36,717.51 1246.78,716.59              1247.70,716.04 1248.51,715.83 1249.53,715.42              1250.62,714.99 1251.29,714.41 1252.24,713.40              1252.77,712.81 1253.22,711.94 1253.75,711.00              1254.42,709.71 1255.33,708.40 1257.01,707.65              1259.22,706.70 1264.63,707.06 1267.23,706.93              1270.15,706.86 1272.10,706.28 1274.12,705.84              1275.59,705.52 1277.41,705.17 1279.40,705.36              1282.31,705.75 1284.68,707.52 1287.56,708.90              1289.41,709.71 1290.92,710.31 1292.92,710.65              1294.56,710.95 1296.41,711.07 1298.84,710.90              1299.98,710.84 1302.02,710.65 1304.36,710.32              1309.13,709.59 1315.08,708.51 1316.98,707.56              1320.52,705.83 1320.52,703.30 1322.04,698.91              1322.04,698.91 1339.09,703.04 1339.09,703.04              1344.54,704.80 1346.44,704.06 1348.72,704.57              1353.38,705.61 1362.28,712.50 1363.77,717.09              1366.15,724.41 1362.19,731.86 1362.00,739.00              1359.63,740.51 1357.25,742.00 1355.42,744.17              1351.21,749.16 1351.73,758.37 1354.43,764.00              1354.43,764.00 1359.04,772.00 1359.04,772.00              1360.29,774.86 1361.37,779.86 1362.00,783.00              1356.81,789.38 1351.10,805.59 1352.30,814.00              1352.74,817.13 1354.04,822.07 1355.39,824.91              1356.43,827.11 1361.56,830.06 1360.25,833.88              1346.47,840.12 1341.24,836.63 1339.66,836.97              1337.12,838.19 1337.49,842.29 1336.16,844.29              1336.16,844.29 1333.31,838.50 1333.31,838.50              1333.09,837.45 1333.13,837.75 1333.01,837.00              1333.28,836.55 1333.68,835.68 1334.41,834.56              1335.58,832.79 1336.92,831.85 1337.27,831.65              1340.74,829.40 1344.71,830.00 1350.01,830.00              1348.53,824.76 1348.33,824.94 1347.24,821.07              1345.62,815.66 1345.64,811.87 1345.92,808.78              1346.22,804.65 1347.26,801.39 1348.43,798.00              1350.08,793.67 1351.65,789.67 1352.91,785.95              1353.40,784.21 1353.88,781.67 1353.48,779.75              1352.86,776.24 1351.33,773.04 1349.76,769.86              1346.72,763.66 1343.48,757.86 1344.27,752.01              1346.42,738.87 1363.08,736.40 1359.20,723.00              1356.21,712.69 1347.22,710.08 1338.00,707.99              1338.00,707.99 1331.00,706.43 1331.00,706.43              1325.48,706.14 1324.01,710.88 1319.00,713.07              1319.00,713.07 1301.96,717.24 1301.96,717.24              1290.75,718.81 1285.01,712.26 1274.78,712.84              1259.89,713.69 1252.42,720.87 1249.51,725.11              1248.76,726.00 1247.70,727.16 1246.64,727.89              1246.64,727.89 1243.00,725.00 1243.00,725.00              1243.00,725.00 1241.65,723.79 1241.65,723.79 Z            M 1071.52,726.38            C 1068.60,726.20 1066.05,726.04 1062.13,726.07              1063.82,723.33 1064.40,720.78 1065.69,719.09              1067.21,719.07 1071.19,718.93 1074.02,718.36              1075.12,718.16 1079.17,717.27 1082.02,716.21              1082.02,716.21 1086.71,714.50 1091.42,712.30              1096.40,709.96 1101.97,708.02 1101.97,708.02              1104.59,707.28 1107.66,706.11 1113.01,706.02              1113.38,708.06 1113.52,711.37 1115.16,713.98              1117.04,716.32 1118.38,717.06 1120.34,720.59              1122.02,723.81 1122.32,725.95 1123.86,727.58              1126.82,730.41 1129.36,730.14 1131.85,731.79              1134.62,733.73 1135.26,736.12 1136.00,740.00              1137.25,740.09 1138.51,740.34 1140.53,740.02              1142.99,739.67 1144.44,738.49 1145.59,737.41              1146.55,736.59 1147.28,735.84 1148.94,735.38              1152.87,734.52 1152.49,735.95 1156.00,736.91              1158.94,737.27 1161.05,736.24 1161.99,736.01              1163.30,737.36 1164.12,737.31 1165.06,737.04              1168.07,735.74 1168.41,735.83 1169.99,736.36              1177.71,742.18 1179.48,749.29 1181.76,752.51              1184.33,757.49 1191.91,759.64 1196.81,758.81              1198.52,758.52 1201.33,757.70 1203.00,757.00              1202.98,758.62 1203.55,762.05 1204.00,765.00              1201.29,765.91 1199.19,766.55 1197.03,767.28              1196.43,767.32 1196.31,767.41 1195.20,767.36              1190.24,767.10 1185.32,765.70 1181.59,764.20              1179.92,763.59 1178.66,762.79 1177.71,762.12              1176.36,759.29 1172.47,750.69 1170.52,748.94              1165.81,744.73 1160.73,746.38 1155.00,745.89              1155.00,745.89 1148.24,746.22 1148.24,746.22              1145.09,746.42 1138.06,748.38 1135.89,748.73              1134.41,747.03 1135.79,748.51 1133.68,746.23              1132.99,745.30 1132.20,744.22 1131.30,742.99              1130.28,741.70 1129.36,740.35 1127.90,738.84              1125.33,736.77 1123.09,736.11 1120.86,734.16              1117.62,731.67 1116.46,728.33 1114.96,725.34              1113.38,722.48 1110.76,716.18 1106.95,714.76              1105.44,714.37 1104.06,714.70 1100.81,715.98              1100.81,715.98 1100.26,716.23 1099.09,716.57              1096.75,717.12 1092.94,717.98 1092.94,717.98              1088.11,719.61 1085.65,722.65 1078.38,725.60              1075.75,726.48 1074.04,726.49 1071.52,726.38 Z            M 1037.84,725.84            C 1040.23,725.12 1040.14,723.74 1040.14,723.74              1040.16,723.26 1040.08,722.67 1039.52,721.73              1037.82,719.13 1037.65,719.41 1035.73,716.77              1034.30,714.77 1034.36,713.61 1035.11,712.84              1035.73,712.25 1036.54,711.92 1037.46,711.70              1038.27,711.58 1039.25,711.65 1040.14,711.84              1040.14,711.84 1041.47,712.09 1043.29,712.69              1044.70,713.19 1046.39,713.74 1048.13,714.31              1052.50,715.72 1057.07,716.86 1057.07,716.86              1059.25,717.43 1061.30,717.81 1063.00,718.00              1062.74,719.46 1060.13,724.36 1059.62,725.12              1058.69,724.96 1057.80,724.50 1057.12,724.29              1055.73,723.81 1054.54,723.41 1053.35,723.37              1052.27,723.26 1051.34,723.48 1050.16,724.31              1048.58,725.88 1048.67,726.40 1047.48,728.51              1046.97,729.52 1044.76,732.77 1044.51,733.15              1044.51,733.15 1043.24,735.05 1042.46,736.16              1041.57,737.55 1040.76,739.02 1040.76,739.02              1039.48,741.26 1038.82,742.16 1034.98,745.02              1032.67,748.07 1031.80,748.84 1029.12,752.19              1024.70,748.72 1025.40,749.02 1023.36,746.13              1020.40,742.44 1019.49,741.31 1018.00,737.01              1022.83,737.80 1032.72,737.72 1034.84,733.91              1035.86,731.94 1035.09,727.88 1034.88,725.84              1034.88,725.84 1036.45,725.85 1037.84,725.84 Z            M 1204.00,752.00            C 1210.44,749.71 1214.20,747.07 1215.00,742.01              1217.33,741.91 1219.89,741.88 1222.12,740.54              1222.92,740.10 1224.40,738.83 1224.87,736.26              1225.32,733.72 1225.00,731.00 1225.00,731.00              1227.55,730.08 1233.27,728.03 1235.41,727.28              1238.23,726.28 1238.06,726.28 1239.83,725.82              1241.51,726.89 1242.68,727.84 1244.01,729.00              1243.16,729.88 1242.18,731.05 1240.84,731.98              1239.62,732.84 1238.83,733.35 1237.04,733.91              1235.79,734.38 1234.38,734.70 1232.95,735.82              1230.58,737.59 1229.09,740.24 1227.41,743.11              1226.47,744.54 1226.13,745.16 1225.51,746.24              1225.03,747.00 1224.52,748.02 1224.00,749.00              1219.50,751.14 1215.02,753.92 1210.73,757.35              1210.73,757.35 1208.23,759.37 1207.40,760.77              1206.17,762.27 1205.47,763.84 1205.47,763.84              1205.47,763.84 1204.00,752.00 1204.00,752.00 Z            M 1022.00,750.00            C 1022.00,750.00 1024.28,752.22 1024.28,752.22              1026.47,754.59 1029.53,756.41 1032.52,758.78              1030.49,761.60 1028.33,764.74 1026.14,767.23              1024.23,768.98 1021.28,772.62 1017.96,773.02              1011.55,773.80 1004.06,768.68 1000.00,768.53              996.71,768.42 994.38,770.64 984.00,769.91              976.51,769.39 972.60,768.03 966.01,767.00              966.01,767.00 967.44,760.28 967.44,760.28              967.44,760.28 972.45,761.90 977.23,762.91              981.33,763.92 985.16,764.02 985.16,764.02              986.87,764.04 989.05,764.20 992.52,763.77              993.50,763.62 994.13,763.48 994.97,763.30              998.55,762.44 1000.71,762.31 1000.71,762.31              1000.71,762.31 1002.73,762.10 1005.47,763.32              1009.90,765.38 1011.27,765.68 1013.28,765.90              1015.92,766.14 1021.18,765.64 1023.45,761.80              1023.93,761.00 1024.81,759.08 1023.32,757.97              1022.08,757.23 1020.59,757.05 1018.01,757.00              1018.01,757.00 1022.00,750.00 1022.00,750.00 Z            M 953.00,760.00            C 953.00,760.00 965.82,760.04 965.82,760.04              965.82,760.04 964.00,767.00 964.00,767.00              962.42,766.47 962.61,766.52 961.00,766.01              961.00,766.01 950.81,777.41 950.81,777.41              948.58,780.60 946.63,785.27 942.06,787.47              942.06,787.47 925.06,791.25 925.06,791.25              925.06,791.25 890.00,799.45 890.00,799.45              890.00,799.45 879.00,803.37 879.00,803.37              879.00,803.37 874.00,804.54 874.00,804.54              871.05,805.55 864.45,810.03 862.17,812.26              862.17,812.26 858.41,816.42 858.41,816.42              858.41,816.42 850.00,821.32 850.00,821.32              846.08,823.42 845.19,822.49 841.00,824.30              841.00,824.30 831.91,828.70 831.91,828.70              831.91,828.70 822.00,829.43 822.00,829.43              822.00,829.43 814.00,832.79 814.00,832.79              809.22,834.16 805.75,834.03 801.14,834.45              797.25,834.80 787.64,835.66 782.02,835.99              780.48,835.33 779.47,834.33 778.77,833.64              774.75,829.67 774.47,819.40 773.82,814.00              773.26,809.36 773.22,808.61 772.04,802.43              769.83,802.52 769.43,801.87 767.87,803.13              763.83,806.41 760.18,819.70 753.87,821.65              753.87,821.65 734.00,826.42 734.00,826.42              720.08,828.35 706.06,829.02 692.00,829.00              692.00,829.00 675.09,827.89 675.09,827.89              675.09,827.89 669.83,826.92 669.83,826.92              669.83,826.92 665.00,827.58 665.00,827.58              665.00,827.58 657.00,828.65 657.00,828.65              653.30,832.22 650.55,834.74 647.00,838.09              647.00,838.09 627.00,858.00 627.00,858.00              632.50,857.14 632.21,855.63 636.04,855.19              637.09,855.01 638.94,855.04 639.98,855.19              651.86,857.40 639.28,873.89 637.00,879.00              644.16,879.80 645.72,877.30 650.00,878.32              654.54,879.40 655.10,882.33 656.83,885.91              658.26,888.87 660.41,890.60 660.84,894.01              661.51,899.30 658.53,902.45 659.68,909.00              660.77,915.21 665.34,926.77 660.57,931.69              654.27,938.17 646.10,927.98 643.85,927.15              639.90,925.69 633.02,934.70 632.00,938.00              638.62,938.00 644.56,937.35 648.23,944.02              651.06,949.15 648.81,952.81 654.13,956.75              657.42,959.19 661.44,960.38 665.00,962.35              675.00,967.86 681.57,972.87 693.73,976.00              693.73,976.00 713.99,975.01 713.99,975.01              713.51,976.17 712.33,979.07 711.83,980.06              706.70,980.49 701.50,981.31 697.00,980.96              694.15,980.85 690.74,980.28 688.01,979.43              688.01,979.43 665.00,968.95 665.00,968.95              665.00,968.95 659.00,964.97 659.00,964.97              659.00,964.97 646.31,958.04 646.31,958.04              642.24,954.48 645.50,949.95 642.40,946.51              638.09,941.73 630.13,947.07 626.86,938.98              624.46,933.04 629.29,930.68 632.87,927.49              632.87,927.49 637.45,923.04 637.45,923.04              640.72,920.42 645.12,920.51 648.14,923.04              649.73,924.66 652.81,928.84 655.63,927.10              657.34,925.79 656.17,918.28 655.63,916.04              655.40,912.45 654.19,911.68 654.06,907.96              653.76,899.44 659.03,899.15 652.52,889.02              651.46,887.37 650.16,885.27 648.00,885.03              644.30,884.61 643.87,889.60 642.15,891.69              640.01,894.28 637.04,893.96 633.76,894.00              634.01,891.33 634.43,885.28 633.76,883.10              632.17,879.86 627.48,878.00 628.71,874.21              629.58,871.53 632.71,871.37 634.74,870.04              637.97,867.92 639.43,864.64 640.00,861.00              634.82,861.37 624.61,866.77 620.69,862.56              616.57,858.70 624.86,851.33 628.08,848.55              629.48,847.58 641.56,835.94 641.98,835.48              647.18,830.49 650.78,826.93 654.09,823.91              656.59,822.62 658.87,821.03 663.22,821.13              663.22,821.13 680.00,823.00 680.00,823.00              680.00,823.00 696.09,823.57 696.09,823.57              710.93,823.59 732.74,824.17 746.61,819.04              751.10,817.38 755.88,815.04 758.49,810.96              761.08,806.91 764.14,798.32 769.17,797.26              776.16,795.78 776.67,801.39 777.36,806.27              778.09,811.37 779.20,825.81 782.56,828.94              784.07,830.34 785.04,830.95 787.00,830.94              787.00,830.94 797.62,828.69 797.62,828.69              801.62,828.28 804.65,829.46 808.69,828.31              813.41,827.31 815.91,824.52 819.50,823.62              819.50,823.62 829.94,822.94 829.94,822.94              833.77,822.37 839.76,819.92 843.25,818.12              850.81,814.24 855.66,805.80 872.69,798.78              872.69,798.78 876.02,797.33 879.44,796.11              882.99,794.84 886.64,793.80 886.64,793.80              886.64,793.80 889.59,792.98 892.12,792.32              894.05,791.82 895.73,791.44 895.73,791.44              895.73,791.44 906.19,789.19 906.19,789.19              909.78,788.58 928.04,784.60 932.13,783.09              939.78,780.79 938.41,781.64 943.19,778.46              945.75,768.08 954.73,771.99 953.00,760.00 Z            M 1330.62,840.47            C 1333.00,843.93 1333.61,845.53 1334.92,847.75              1335.06,849.95 1335.03,850.00 1334.99,852.01              1334.99,852.01 1331.85,870.02 1331.85,870.02              1331.85,870.02 1331.68,870.96 1331.50,872.03              1331.08,873.58 1330.57,875.50 1330.57,875.50              1330.21,876.89 1329.74,878.59 1329.36,880.01              1329.20,881.34 1329.37,883.20 1329.73,884.58              1330.46,886.86 1330.85,888.91 1330.89,890.27              1330.89,890.27 1330.79,891.56 1330.54,893.33              1330.34,894.75 1330.03,896.47 1329.76,898.11              1329.25,901.15 1328.61,903.88 1328.61,903.88              1328.23,905.28 1327.71,906.31 1327.07,907.22              1326.72,907.72 1326.32,908.20 1325.94,908.65              1325.36,909.40 1324.60,910.18 1323.91,911.27              1323.26,912.24 1322.56,913.55 1321.88,915.25              1321.88,915.25 1320.48,918.75 1319.36,923.20              1317.81,929.86 1315.87,938.30 1315.87,938.30              1314.62,943.84 1312.72,951.58 1311.27,957.73              1311.11,958.91 1311.15,959.98 1311.22,961.00              1312.11,968.29 1316.80,973.76 1319.03,980.06              1320.21,983.79 1319.91,985.04 1319.35,988.38              1319.22,989.63 1319.17,990.86 1319.41,992.22              1319.78,994.96 1322.39,999.00 1321.58,1002.25              1320.59,1006.91 1315.12,1008.64 1312.80,1013.29              1310.69,1017.52 1316.71,1022.69 1311.43,1026.90              1309.20,1028.60 1308.01,1028.44 1305.64,1029.42              1305.12,1029.71 1303.74,1030.07 1303.60,1032.19              1303.73,1034.97 1306.71,1036.36 1309.66,1037.54              1311.44,1038.31 1313.55,1038.94 1315.81,1040.23              1318.81,1041.89 1321.12,1044.22 1320.36,1048.33              1318.76,1055.03 1314.73,1054.71 1311.99,1055.01              1310.44,1055.06 1308.84,1055.18 1307.39,1055.97              1304.42,1057.76 1305.03,1062.48 1305.00,1065.85              1305.02,1069.67 1304.22,1071.70 1302.91,1073.38              1301.55,1075.30 1299.03,1076.75 1296.58,1078.39              1294.67,1079.69 1293.25,1081.02 1292.60,1083.20              1292.01,1085.52 1292.78,1086.70 1293.41,1087.51              1294.92,1089.12 1296.38,1089.62 1297.48,1090.26              1298.32,1090.63 1299.24,1091.13 1300.27,1091.79              1301.57,1092.64 1302.40,1093.75 1302.51,1095.09              1302.63,1097.12 1301.16,1099.39 1299.85,1100.70              1299.85,1100.70 1298.73,1101.88 1296.95,1102.91              1294.66,1104.04 1292.63,1105.03 1291.73,1105.72              1290.80,1106.41 1290.09,1107.05 1288.55,1108.40              1286.82,1109.94 1284.98,1111.43 1283.05,1112.01              1281.43,1112.53 1279.60,1112.46 1278.06,1112.05              1275.38,1111.46 1273.55,1110.43 1270.98,1110.41              1268.95,1110.57 1267.67,1111.52 1266.36,1112.37              1263.80,1114.14 1261.71,1116.39 1259.62,1118.80              1257.78,1121.03 1255.25,1124.19 1254.72,1126.74              1254.40,1128.25 1254.40,1129.56 1255.17,1130.91              1256.15,1132.23 1257.45,1132.45 1259.13,1132.19              1259.86,1132.00 1260.59,1131.68 1261.37,1131.28              1263.34,1130.33 1265.79,1128.82 1268.95,1127.83              1271.67,1127.05 1273.28,1127.30 1274.57,1128.32              1276.09,1129.75 1276.60,1131.74 1275.60,1133.36              1275.42,1133.72 1275.15,1134.06 1274.89,1134.38              1273.49,1136.14 1271.01,1137.17 1269.60,1138.76              1268.21,1140.31 1267.98,1141.75 1267.96,1145.63              1267.84,1147.58 1267.58,1149.21 1266.50,1150.32              1264.90,1151.84 1263.08,1151.81 1260.88,1151.25              1257.34,1150.30 1255.04,1148.99 1253.13,1150.17              1252.34,1150.63 1251.50,1152.16 1252.06,1153.70              1252.38,1154.54 1252.82,1155.29 1253.43,1155.96              1253.66,1156.25 1253.93,1156.53 1254.22,1156.80              1254.98,1157.39 1255.72,1157.96 1256.46,1158.51              1257.35,1159.17 1258.21,1159.83 1259.02,1160.49              1259.77,1161.13 1260.49,1161.83 1261.11,1162.66              1263.27,1165.21 1266.32,1171.12 1263.83,1174.63              1263.17,1175.65 1261.95,1176.49 1259.96,1177.04              1254.79,1176.50 1255.00,1176.52 1250.00,1176.00              1250.74,1181.19 1254.05,1184.74 1258.94,1185.14              1263.38,1185.27 1265.76,1182.74 1266.90,1181.68              1269.30,1179.27 1270.15,1178.21 1272.23,1178.26              1272.99,1178.28 1274.23,1179.00 1274.37,1180.61              1274.47,1181.48 1274.24,1182.55 1273.27,1183.79              1271.03,1186.27 1268.70,1186.38 1265.88,1189.23              1264.38,1190.70 1264.39,1192.90 1264.58,1195.02              1264.72,1196.65 1264.93,1198.24 1264.92,1199.40              1265.21,1204.57 1262.77,1207.27 1259.75,1207.65              1255.38,1208.17 1251.86,1204.59 1248.23,1207.20              1245.06,1209.97 1246.62,1213.50 1247.99,1217.47              1249.51,1221.21 1249.70,1223.70 1249.57,1226.50              1249.24,1228.72 1248.72,1230.68 1246.39,1232.77              1242.68,1235.53 1239.44,1235.91 1231.12,1232.20              1228.27,1230.99 1225.17,1229.30 1221.70,1228.56              1217.46,1227.75 1213.82,1228.43 1211.31,1229.34              1208.33,1230.41 1205.36,1231.70 1202.73,1231.62              1199.23,1231.64 1195.69,1229.27 1193.71,1227.19              1191.05,1224.27 1190.81,1221.16 1191.84,1217.66              1193.04,1213.96 1194.77,1211.20 1194.41,1207.98              1193.84,1204.85 1191.97,1203.34 1189.18,1201.80              1185.69,1200.18 1183.92,1199.39 1182.07,1197.69              1178.84,1194.98 1176.81,1190.88 1176.01,1189.00              1171.02,1187.77 1168.77,1186.87 1167.24,1186.37              1164.83,1185.50 1164.53,1184.80 1163.54,1183.69              1162.34,1182.20 1161.62,1180.70 1160.72,1178.98              1158.53,1174.70 1156.03,1169.90 1154.26,1166.61              1154.26,1166.61 1147.86,1154.50 1147.86,1154.50              1147.86,1154.50 1140.51,1137.01 1140.51,1137.01              1140.51,1137.01 1138.46,1132.10 1138.46,1132.10              1135.86,1126.91 1129.12,1127.02 1128.27,1120.00              1127.32,1112.13 1136.01,1109.85 1142.00,1109.00              1142.00,1109.00 1142.00,1106.00 1142.00,1106.00              1136.80,1105.31 1130.31,1104.64 1126.19,1101.20              1122.79,1098.43 1121.68,1092.96 1126.19,1090.87              1128.54,1089.81 1133.37,1090.01 1136.00,1090.00              1138.37,1089.99 1141.53,1090.21 1143.62,1089.02              1146.96,1087.11 1148.28,1081.93 1151.22,1079.31              1156.16,1074.92 1161.52,1077.11 1162.00,1084.00              1162.00,1084.00 1163.00,1092.00 1163.00,1092.00              1175.00,1087.59 1164.40,1068.48 1178.00,1070.52              1182.05,1071.13 1184.60,1073.85 1188.00,1073.43              1191.98,1072.94 1196.46,1067.17 1202.99,1069.60              1208.79,1071.76 1214.23,1086.86 1221.71,1079.43              1223.86,1077.30 1223.05,1075.66 1220.89,1074.07              1219.24,1072.86 1216.68,1072.27 1214.23,1069.78              1210.39,1065.88 1210.12,1057.03 1211.68,1052.00              1212.75,1048.59 1215.74,1044.97 1215.14,1042.06              1214.60,1039.43 1211.71,1037.84 1209.18,1038.66              1205.79,1039.75 1205.08,1044.24 1200.90,1046.55              1198.45,1047.90 1196.66,1047.82 1194.00,1047.74              1186.90,1047.54 1176.83,1054.58 1175.47,1042.00              1175.02,1040.40 1175.14,1038.68 1175.47,1037.17              1175.47,1037.17 1183.00,1026.00 1183.00,1026.00              1178.00,1026.41 1171.56,1028.35 1167.42,1024.49              1162.63,1020.03 1164.74,1009.00 1156.98,1010.85              1152.57,1011.68 1144.69,1019.72 1135.00,1010.85              1133.13,1015.28 1131.57,1019.03 1126.91,1020.87              1118.62,1024.14 1105.18,1014.30 1104.00,1006.00              1113.42,1004.11 1111.35,1004.44 1119.00,999.56              1122.74,997.18 1123.62,998.25 1126.00,994.00              1120.85,993.32 1112.53,992.78 1108.30,989.92              1104.82,987.57 1102.74,982.82 1098.99,981.06              1094.97,979.18 1091.12,982.49 1086.13,979.43              1082.08,976.94 1083.72,974.10 1081.98,971.21              1080.02,967.95 1075.45,966.81 1072.00,966.00              1071.52,962.50 1069.99,956.10 1066.85,954.16              1062.69,951.59 1054.52,953.15 1051.17,947.67              1046.55,940.10 1056.25,929.01 1044.00,927.00              1043.00,934.59 1040.17,946.28 1045.26,952.66              1051.16,960.07 1067.53,955.78 1065.75,967.85              1065.49,969.57 1064.61,971.36 1064.00,973.00              1069.02,974.49 1074.02,977.84 1072.18,983.96              1071.15,987.37 1067.87,988.66 1068.32,992.93              1068.77,997.04 1073.14,1001.38 1074.84,1005.00              1076.99,1009.58 1075.84,1018.14 1071.78,1021.42              1070.25,1022.64 1067.84,1023.33 1066.00,1024.00              1069.87,1025.81 1070.78,1026.91 1072.00,1031.00              1074.90,1030.42 1079.74,1028.21 1081.96,1028.56              1089.39,1029.74 1088.05,1039.15 1086.00,1044.00              1090.74,1044.12 1095.62,1044.32 1096.65,1050.04              1097.00,1052.02 1096.77,1054.16 1095.82,1055.95              1094.46,1058.53 1092.38,1059.54 1090.37,1061.44              1088.36,1063.33 1086.94,1065.96 1083.96,1066.38              1078.24,1067.20 1075.62,1060.66 1071.00,1058.00              1071.05,1061.85 1070.96,1065.63 1074.34,1068.26              1078.08,1071.17 1083.89,1069.26 1087.96,1070.43              1094.25,1072.24 1096.07,1081.32 1094.70,1086.91              1092.31,1096.62 1078.27,1092.58 1074.31,1095.17              1071.90,1096.76 1071.89,1099.54 1070.99,1102.00              1069.70,1105.54 1067.35,1108.77 1063.96,1110.55              1058.96,1113.17 1052.63,1111.18 1048.00,1112.51              1043.45,1113.81 1041.00,1117.43 1035.00,1117.81              1030.44,1118.22 1026.17,1116.14 1022.00,1117.81              1014.45,1120.63 1014.73,1131.81 1005.00,1131.46              1003.12,1131.40 1001.02,1130.62 999.65,1129.30              991.81,1121.76 1005.24,1110.73 1006.08,1105.00              1006.99,1098.81 997.68,1097.82 996.59,1090.00              995.72,1083.83 1001.87,1078.19 1000.68,1075.54              999.49,1072.91 995.37,1075.56 994.00,1076.55              988.68,1080.38 984.61,1085.42 977.17,1082.26              971.51,1079.86 969.32,1071.63 972.28,1066.46              975.56,1060.72 985.69,1058.03 988.00,1047.00              981.48,1047.89 978.09,1051.87 974.23,1049.78              971.77,1048.46 970.98,1045.60 971.46,1043.00              972.12,1039.38 975.02,1036.92 975.79,1032.00              976.61,1026.74 974.94,1017.41 977.17,1013.00              980.37,1006.69 986.61,1006.77 987.00,999.00              985.21,1000.29 981.46,1003.63 979.83,1004.22              977.92,1004.93 960.36,1004.12 962.33,995.02              963.73,988.57 971.51,990.41 968.77,983.98              968.77,983.98 964.40,973.58 964.40,973.58              961.34,970.43 953.49,972.37 953.08,964.00              952.68,955.94 959.18,952.62 961.63,948.99              963.17,946.71 963.46,944.77 960.84,943.18              956.11,940.32 950.57,944.94 947.09,947.77              938.61,954.65 935.38,964.00 923.00,961.00              920.06,968.85 921.68,972.82 919.26,975.68              916.02,979.52 911.02,975.85 908.85,972.71              905.44,967.77 907.54,957.71 908.00,952.00              902.36,954.88 892.06,961.79 889.16,951.00              888.97,949.65 889.02,947.42 889.16,946.00              880.32,953.23 887.05,959.17 880.21,964.80              871.71,971.79 864.52,958.81 858.00,969.97              857.41,970.23 857.27,970.42 856.67,971.25              851.16,968.09 833.90,960.07 830.41,955.90              827.46,952.36 823.73,940.44 817.98,941.03              812.01,941.64 807.68,954.44 804.74,958.82              801.36,963.86 793.18,965.57 787.32,966.06              786.68,964.36 786.28,963.02 786.01,961.99              789.20,961.09 792.96,960.18 797.76,958.83              803.83,954.23 806.01,937.13 814.24,935.33              820.93,934.42 827.03,941.09 829.71,945.02              829.71,945.02 832.31,950.62 832.31,950.62              834.16,951.80 843.22,957.04 846.00,958.73              847.56,959.71 850.05,961.51 851.91,961.57              854.79,961.65 856.07,958.55 860.01,957.61              866.54,956.04 871.79,963.77 876.40,958.57              879.58,954.97 876.19,943.64 884.04,940.60              886.75,939.55 890.95,939.89 892.72,942.43              894.14,944.49 893.91,948.46 897.14,948.77              900.57,949.09 904.13,944.40 908.98,945.94              922.15,950.14 906.69,963.95 916.00,970.00              914.92,965.13 915.72,956.83 921.13,954.35              923.34,953.68 926.27,954.32 928.00,954.35              932.73,953.54 934.96,949.21 938.09,946.09              942.57,941.61 947.80,937.49 954.00,935.78              962.14,933.54 970.33,939.16 969.70,948.00              969.11,956.14 961.74,955.46 959.00,966.00              963.98,966.05 970.33,966.46 972.37,972.04              973.22,974.38 972.25,976.06 973.75,978.72              975.08,981.09 978.69,983.13 977.55,988.00              976.61,992.02 972.70,994.20 970.00,997.00              979.14,996.76 984.09,990.20 990.61,994.29              993.81,996.30 994.60,1001.60 993.26,1004.91              991.34,1009.66 984.71,1012.08 982.74,1017.04              981.15,1021.03 982.89,1025.17 982.74,1029.00              982.55,1033.74 980.28,1037.97 978.00,1042.00              980.30,1041.59 982.66,1041.04 985.00,1041.08              987.85,1041.13 990.48,1041.82 992.26,1044.23              996.59,1050.08 989.20,1058.95 984.96,1062.68              983.07,1064.34 979.99,1066.22 978.60,1068.18              977.27,1070.06 976.48,1073.60 978.60,1075.26              981.16,1077.26 985.09,1073.42 987.00,1071.93              991.48,1068.45 997.20,1065.43 1002.98,1067.85              1003.99,1068.28 1004.91,1068.84 1005.72,1069.57              1013.26,1076.36 1003.22,1083.66 1003.90,1087.90              1004.34,1090.63 1007.90,1091.98 1009.79,1093.63              1012.07,1095.62 1013.39,1097.99 1013.77,1101.00              1014.90,1109.79 1006.75,1116.90 1003.00,1124.00              1012.65,1121.10 1010.61,1110.70 1022.00,1110.26              1027.71,1109.72 1031.48,1111.42 1034.99,1110.26              1039.02,1109.40 1042.10,1105.19 1048.00,1104.22              1051.87,1103.58 1058.48,1104.95 1061.44,1102.26              1064.10,1099.84 1063.67,1094.06 1069.10,1089.28              1074.38,1084.63 1079.16,1086.62 1084.00,1085.85              1086.20,1085.51 1088.69,1084.53 1088.97,1081.96              1089.69,1075.41 1079.97,1077.99 1077.00,1077.26              1069.20,1075.35 1062.65,1064.83 1064.94,1057.00              1066.65,1051.20 1071.90,1049.31 1076.87,1052.74              1076.87,1052.74 1083.00,1059.00 1083.00,1059.00              1084.00,1053.01 1085.77,1053.95 1091.00,1051.00              1088.81,1051.18 1083.82,1052.04 1082.06,1051.65              1074.53,1049.95 1079.76,1039.38 1081.00,1035.00              1071.26,1041.88 1069.13,1035.10 1065.54,1031.38              1065.54,1031.38 1060.10,1026.61 1060.10,1026.61              1057.37,1023.39 1055.87,1017.57 1060.10,1015.02              1062.57,1013.67 1066.40,1014.66 1069.00,1015.02              1069.85,1008.02 1069.17,1005.67 1064.40,1000.13              1060.00,995.01 1058.25,997.91 1058.00,990.00              1058.00,990.00 1052.00,990.00 1052.00,990.00              1052.13,977.11 1056.40,979.96 1066.00,982.00              1066.00,982.00 1066.00,978.00 1066.00,978.00              1061.74,978.00 1052.56,978.55 1049.06,976.69              1043.81,973.89 1044.55,967.63 1048.28,965.95              1051.03,964.61 1056.74,965.85 1060.00,965.95              1060.00,965.95 1060.00,964.00 1060.00,964.00              1045.39,962.77 1036.08,956.94 1036.00,941.00              1035.96,932.75 1037.04,914.89 1050.00,921.45              1055.88,924.44 1057.30,928.81 1056.91,935.00              1056.71,938.22 1055.06,942.80 1058.31,944.98              1060.52,946.46 1064.31,945.64 1067.99,946.72              1075.24,948.85 1075.98,954.56 1076.00,961.00              1085.53,961.55 1089.76,965.54 1090.00,975.16              1094.16,974.25 1098.00,973.25 1102.00,975.16              1107.28,978.04 1109.24,983.34 1114.01,985.27              1119.54,987.49 1128.82,986.86 1132.06,993.33              1135.67,1000.51 1126.50,1002.48 1124.09,1003.55              1118.53,1006.02 1120.74,1008.52 1111.00,1009.00              1114.10,1011.47 1121.46,1016.74 1125.35,1013.39              1127.93,1011.17 1128.06,1006.09 1132.11,1004.64              1137.13,1002.84 1139.66,1008.05 1144.01,1008.18              1149.68,1008.34 1153.37,1002.90 1159.00,1003.42              1163.28,1003.82 1168.15,1006.81 1169.49,1011.04              1170.40,1013.90 1169.38,1018.30 1172.31,1019.87              1174.92,1021.28 1178.20,1018.79 1181.00,1018.44              1185.12,1017.93 1192.21,1024.15 1192.48,1028.13              1192.81,1032.84 1187.05,1033.08 1184.34,1034.98              1181.70,1036.83 1181.41,1039.07 1181.00,1042.00              1183.49,1041.56 1187.73,1040.19 1189.83,1040.34              1192.31,1040.52 1194.05,1042.20 1196.97,1041.21              1200.36,1040.06 1201.56,1036.71 1203.53,1034.72              1206.44,1031.77 1212.20,1031.19 1215.90,1032.85              1220.68,1035.00 1221.80,1041.39 1220.49,1046.00              1219.13,1050.79 1214.56,1053.81 1217.01,1060.00              1220.28,1068.26 1231.39,1068.99 1231.75,1077.00              1232.10,1084.98 1217.44,1091.49 1210.17,1085.57              1206.46,1082.55 1204.01,1076.48 1200.82,1075.87              1197.45,1075.23 1194.95,1079.34 1189.00,1079.89              1183.93,1080.36 1180.66,1078.31 1176.00,1077.00              1176.00,1083.39 1177.16,1090.60 1171.67,1095.20              1163.91,1101.70 1153.54,1095.26 1156.00,1084.00              1156.00,1084.00 1145.83,1095.59 1145.83,1095.59              1145.83,1095.59 1130.00,1097.00 1130.00,1097.00              1134.82,1098.28 1142.07,1098.91 1145.89,1101.77              1150.17,1104.96 1151.00,1109.74 1146.77,1113.43              1141.35,1118.17 1138.83,1113.17 1133.00,1120.00              1137.55,1121.33 1142.29,1122.04 1144.26,1127.02              1145.69,1130.61 1144.07,1133.28 1146.65,1138.00              1149.50,1143.22 1151.74,1143.90 1156.00,1153.00              1156.00,1153.00 1168.63,1178.85 1168.63,1178.85              1171.63,1182.40 1173.79,1181.39 1176.91,1183.59              1180.58,1186.19 1181.21,1189.80 1186.04,1192.59              1190.63,1195.23 1194.68,1194.58 1199.08,1201.02              1201.38,1204.37 1202.61,1207.95 1201.35,1211.96              1200.32,1215.24 1195.03,1219.95 1199.43,1222.97              1202.84,1225.31 1209.03,1221.80 1215.00,1221.17              1223.16,1220.31 1225.95,1222.61 1233.00,1225.57              1235.31,1226.54 1239.20,1228.44 1241.39,1226.36              1244.40,1223.49 1240.69,1217.93 1239.52,1215.00              1236.75,1208.09 1238.82,1201.31 1246.00,1198.17              1248.21,1197.48 1249.69,1197.33 1252.00,1198.17              1254.21,1198.56 1256.09,1199.79 1258.00,1201.00              1257.56,1198.86 1257.13,1196.12 1255.86,1194.30              1254.26,1191.97 1251.88,1191.56 1249.33,1189.28              1244.03,1184.55 1240.65,1175.19 1247.39,1170.07              1248.88,1168.94 1252.17,1167.73 1254.00,1167.00              1250.48,1164.34 1246.32,1161.15 1244.51,1157.00              1241.22,1149.43 1244.53,1142.59 1253.00,1142.00              1248.54,1136.46 1244.49,1130.60 1248.30,1123.17              1248.30,1123.17 1254.96,1114.83 1254.96,1114.83              1257.35,1110.86 1257.47,1106.91 1264.00,1104.09              1270.66,1101.20 1274.93,1105.68 1279.00,1104.62              1282.35,1103.75 1287.48,1098.71 1294.00,1097.00              1294.00,1097.00 1294.00,1095.00 1294.00,1095.00              1287.25,1092.99 1284.41,1090.31 1285.10,1083.00              1285.34,1080.48 1286.01,1078.21 1287.65,1076.22              1291.91,1071.05 1297.92,1073.27 1297.38,1064.00              1297.07,1058.55 1298.42,1050.28 1305.00,1048.92              1306.79,1048.55 1310.13,1049.59 1312.00,1050.00              1312.00,1050.00 1313.00,1045.00 1313.00,1045.00              1307.00,1043.79 1302.53,1042.96 1298.71,1037.70              1296.83,1035.11 1296.19,1033.19 1296.05,1030.00              1295.71,1022.40 1300.43,1021.21 1307.00,1021.00              1304.20,1012.33 1305.41,1004.34 1315.00,1001.00              1313.66,998.19 1311.70,995.04 1311.29,992.00              1311.29,992.00 1311.29,982.00 1311.29,982.00              1310.49,977.19 1304.91,969.40 1304.19,963.00              1303.51,957.01 1305.82,952.54 1306.83,947.00              1306.83,947.00 1315.20,910.17 1315.20,910.17              1316.85,905.64 1320.46,905.63 1321.69,900.96              1320.95,903.77 1323.90,885.29 1323.51,888.00              1323.51,888.00 1323.51,883.00 1323.51,883.00              1322.80,875.47 1325.62,872.95 1327.03,867.00              1327.03,867.00 1329.30,850.00 1329.30,850.00              1329.30,850.00 1330.62,840.47 1330.62,840.47 Z            M 715.27,979.96            C 715.27,979.96 720.02,975.04 720.02,975.04              720.02,975.04 732.12,972.80 732.12,972.80              732.12,972.80 753.19,968.88 753.19,968.88              753.19,968.88 780.98,963.59 780.98,963.59              780.98,963.59 782.02,963.45 783.64,963.28              784.19,964.39 785.82,967.70 785.82,967.70              785.82,967.70 781.92,968.39 777.11,969.31              769.61,970.80 760.00,972.67 760.00,972.67              760.00,972.67 715.27,979.96 715.27,979.96 Z            M 1090.04,976.02" style="fill:#635590;fill-opacity:1"/>
</svg>