<svg xmlns:inkscape="http://www.inkscape.org/namespaces/inkscape" xmlns:sodipodi="http://sodipodi.sourceforge.net/DTD/sodipodi-0.dtd" xmlns="http://www.w3.org/2000/svg" xmlns:svg="http://www.w3.org/2000/svg" version="1.1" id="svg1" sodipodi:docname="zone6.svg" inkscape:version="1.3.2 (091e20e, 2023-11-25, custom)" viewBox="1478.82 938.5 479.43 461.03">
  <defs id="defs1"/>
  <sodipodi:namedview id="namedview1" pagecolor="#ffffff" bordercolor="#999999" borderopacity="1" inkscape:showpageshadow="2" inkscape:pageopacity="0" inkscape:pagecheckerboard="0" inkscape:deskcolor="#d1d1d1" inkscape:document-units="in" inkscape:zoom="1.6768791" inkscape:cx="326.49938" inkscape:cy="244.8" inkscape:window-width="1904" inkscape:window-height="1001" inkscape:window-x="-715" inkscape:window-y="78" inkscape:window-maximized="0" inkscape:current-layer="svg1"/>
  <path id="Zone VI" fill="none" stroke="black" stroke-width="1" d="M 1951.06,976.94            C 1951.06,976.94 1951.69,970.06 1951.69,970.06              1951.69,970.06 1951.35,960.04 1951.35,960.04              1951.35,960.04 1950.32,952.77 1949.61,951.26              1948.71,949.36 1943.73,946.20 1942.00,945.03              1935.36,940.55 1934.35,939.10 1926.00,939.00              1919.57,938.93 1910.95,939.72 1905.00,942.20              1905.00,942.20 1893.00,948.82 1893.00,948.82              1881.72,954.01 1860.32,960.98 1848.00,961.00              1848.00,961.00 1824.00,960.00 1824.00,960.00              1813.02,960.02 1803.88,966.36 1794.00,970.57              1780.98,976.12 1780.51,975.80 1767.00,976.00              1758.86,976.12 1762.54,977.98 1752.00,978.04              1752.00,978.04 1740.00,978.04 1740.00,978.04              1740.00,978.04 1728.00,979.00 1728.00,979.00              1728.00,979.00 1710.00,979.00 1710.00,979.00              1698.85,978.87 1700.26,975.39 1692.00,976.06              1681.95,976.87 1682.24,986.77 1675.95,991.01              1672.44,993.37 1665.92,994.47 1663.87,998.13              1662.41,1000.72 1662.24,1002.29 1663.64,1004.44              1664.77,1005.41 1665.93,1006.37 1666.60,1007.29              1667.56,1008.31 1668.82,1009.70 1670.09,1010.45              1672.21,1011.67 1675.25,1011.95 1676.15,1012.12              1678.35,1012.52 1679.19,1013.17 1680.28,1013.95              1681.90,1015.24 1682.19,1015.89 1683.03,1017.14              1683.81,1018.10 1684.24,1018.69 1685.58,1019.27              1686.25,1018.35 1687.76,1015.91 1688.16,1015.06              1688.45,1013.78 1687.92,1012.16 1687.51,1011.00              1686.02,1004.59 1684.76,1005.01 1678.00,1005.00              1678.00,1005.00 1671.00,1005.00 1671.00,1005.00              1673.02,998.91 1676.25,1000.56 1680.91,996.61              1686.41,991.94 1685.94,987.06 1689.27,985.03              1692.25,983.21 1696.82,984.98 1700.00,985.54              1700.00,985.54 1717.00,987.00 1717.00,987.00              1717.00,987.00 1754.00,985.83 1754.00,985.83              1754.00,985.83 1764.00,984.29 1764.00,984.29              1771.57,983.35 1772.60,984.66 1782.00,982.08              1782.00,982.08 1821.00,966.21 1821.00,966.21              1821.00,966.21 1849.00,968.00 1849.00,968.00              1863.33,967.94 1879.16,962.06 1892.00,956.05              1904.25,950.31 1909.18,945.00 1924.00,945.01              1936.19,945.01 1935.83,951.69 1947.97,955.99              1948.04,958.95 1950.14,962.07 1948.01,977.18              1945.51,976.99 1941.31,976.87 1939.00,977.20              1937.18,977.80 1935.60,978.52 1934.01,979.48              1921.21,987.26 1927.94,999.68 1926.62,1007.00              1925.33,1014.17 1921.44,1021.54 1922.25,1030.00              1922.85,1036.33 1927.44,1043.80 1927.79,1049.00              1928.04,1052.78 1926.57,1056.29 1926.09,1060.00              1926.09,1060.00 1926.09,1074.00 1926.09,1074.00              1926.02,1089.91 1930.76,1090.58 1931.82,1099.00              1933.65,1113.54 1930.05,1115.65 1930.00,1127.00              1930.00,1127.00 1931.00,1144.00 1931.00,1144.00              1931.02,1146.38 1931.21,1151.81 1930.40,1153.83              1929.16,1156.93 1924.41,1159.74 1921.36,1167.00              1920.20,1169.77 1919.52,1175.88 1919.33,1179.00              1918.77,1187.87 1926.52,1193.57 1924.25,1199.99              1922.72,1204.29 1912.71,1211.77 1911.37,1222.00              1910.65,1227.47 1913.73,1237.17 1916.31,1242.00              1917.72,1244.65 1921.80,1250.94 1921.14,1253.86              1920.23,1257.92 1915.27,1256.09 1910.73,1260.28              1903.61,1266.85 1904.00,1272.23 1904.00,1281.00              1904.00,1281.00 1893.83,1273.57 1893.83,1273.57              1884.62,1268.83 1877.59,1277.07 1871.00,1279.31              1867.24,1280.58 1861.16,1280.09 1858.85,1285.12              1855.62,1292.16 1861.37,1298.34 1861.70,1303.00              1862.05,1308.00 1857.67,1312.75 1856.00,1318.00              1853.58,1317.50 1850.45,1317.03 1848.58,1315.29              1847.50,1314.28 1841.10,1298.32 1832.11,1299.45              1827.23,1300.07 1827.96,1307.47 1828.00,1311.00              1828.12,1320.92 1833.56,1326.53 1825.77,1334.13              1823.74,1336.11 1823.58,1336.58 1821.00,1338.00              1819.84,1345.90 1817.03,1342.32 1817.01,1351.00              1816.98,1361.01 1820.56,1360.87 1819.95,1367.00              1819.28,1372.22 1818.05,1377.83 1819.95,1382.96              1821.68,1387.23 1824.36,1387.26 1827.00,1392.00              1827.00,1392.00 1815.00,1392.70 1815.00,1392.70              1815.00,1392.70 1804.00,1388.47 1804.00,1388.47              1804.00,1388.47 1786.00,1382.24 1786.00,1382.24              1786.00,1382.24 1772.00,1371.88 1772.00,1371.88              1772.00,1371.88 1761.00,1367.07 1761.00,1367.07              1761.00,1367.07 1738.00,1354.97 1738.00,1354.97              1738.00,1354.97 1711.00,1340.20 1711.00,1340.20              1711.00,1340.20 1701.00,1340.20 1701.00,1340.20              1701.00,1340.20 1682.00,1342.00 1682.00,1342.00              1682.00,1342.00 1650.04,1343.33 1650.04,1343.33              1650.04,1343.33 1635.00,1348.98 1635.00,1348.98              1635.00,1348.98 1627.00,1348.98 1627.00,1348.98              1627.00,1348.98 1615.00,1350.00 1615.00,1350.00              1615.00,1350.00 1557.00,1350.00 1557.00,1350.00              1557.00,1350.00 1538.17,1352.78 1538.17,1352.78              1538.17,1352.78 1523.00,1360.13 1523.00,1360.13              1523.00,1360.13 1509.00,1361.62 1509.00,1361.62              1509.00,1361.62 1494.00,1366.00 1494.00,1366.00              1494.19,1357.50 1497.73,1350.64 1494.66,1342.04              1492.47,1335.92 1486.11,1335.17 1486.34,1328.00              1486.56,1321.23 1488.47,1314.65 1489.59,1308.00              1489.59,1308.00 1496.70,1273.00 1496.70,1273.00              1499.26,1264.33 1502.98,1265.84 1503.00,1250.00              1503.00,1250.00 1503.00,1239.00 1503.00,1239.00              1503.00,1239.00 1501.17,1219.00 1501.17,1219.00              1501.17,1219.00 1500.00,1191.00 1500.00,1191.00              1500.00,1191.00 1509.01,1193.82 1509.01,1193.82              1511.94,1194.20 1517.51,1193.63 1519.79,1194.60              1523.50,1196.18 1525.52,1203.63 1535.83,1201.76              1544.74,1200.15 1554.29,1190.36 1562.00,1186.08              1567.38,1183.10 1571.14,1184.51 1576.00,1183.79              1576.00,1183.79 1582.00,1182.26 1582.00,1182.26              1586.52,1181.95 1588.86,1186.97 1592.09,1189.35              1599.35,1194.70 1607.22,1191.20 1612.30,1184.83              1617.04,1178.87 1619.44,1171.54 1617.39,1164.00              1616.08,1159.21 1613.57,1157.79 1612.58,1154.91              1611.35,1151.30 1612.93,1146.32 1614.46,1143.00              1616.10,1139.45 1619.17,1133.01 1622.19,1130.70              1625.74,1127.98 1630.64,1128.24 1633.27,1125.35              1635.03,1123.42 1635.52,1119.53 1636.00,1117.00              1646.92,1119.19 1645.42,1120.05 1656.00,1115.00              1656.96,1118.17 1657.29,1119.02 1660.06,1121.10              1667.27,1126.52 1673.20,1125.40 1681.00,1122.05              1683.27,1121.08 1686.76,1118.77 1689.00,1118.56              1692.92,1118.18 1693.84,1121.28 1698.09,1121.86              1705.79,1122.93 1716.34,1117.47 1719.11,1110.00              1722.08,1102.02 1717.20,1098.01 1717.47,1093.96              1717.67,1090.94 1719.63,1088.91 1719.95,1084.00              1719.95,1084.00 1717.15,1055.00 1717.15,1055.00              1717.15,1055.00 1712.32,1026.00 1712.32,1026.00              1712.32,1026.00 1711.52,1020.33 1711.52,1020.33              1709.40,1014.55 1698.67,1013.29 1692.31,1014.91              1691.64,1015.64 1691.11,1016.22 1690.74,1016.60              1689.47,1017.89 1688.42,1020.33 1687.44,1021.91              1688.90,1021.91 1690.75,1021.95 1692.64,1021.93              1695.24,1021.80 1701.51,1021.75 1703.97,1024.00              1707.99,1027.68 1707.74,1036.64 1708.53,1041.97              1708.53,1041.97 1709.91,1053.88 1709.91,1053.88              1709.91,1053.88 1710.91,1062.94 1710.91,1062.94              1711.81,1071.16 1711.69,1069.84 1712.73,1078.97              1712.88,1079.91 1712.95,1080.20 1712.95,1081.00              1712.97,1082.28 1712.77,1083.68 1712.53,1084.53              1711.82,1088.09 1710.87,1088.51 1709.95,1091.67              1709.34,1094.05 1709.91,1095.96 1710.50,1097.70              1710.99,1098.82 1711.12,1099.88 1711.40,1101.17              1711.98,1104.86 1711.97,1106.54 1712.00,1110.00              1710.52,1110.86 1708.94,1111.75 1707.40,1112.67              1703.02,1115.39 1697.87,1116.28 1695.80,1113.07              1694.34,1110.98 1693.53,1104.17 1690.25,1104.20              1687.67,1104.02 1685.59,1109.02 1683.80,1111.04              1680.23,1115.64 1677.18,1117.93 1671.19,1118.74              1665.48,1119.10 1662.47,1116.18 1664.35,1111.53              1664.86,1110.25 1665.67,1108.81 1666.57,1108.05              1668.47,1106.18 1670.19,1105.41 1673.00,1104.01              1673.00,1102.29 1673.00,1102.72 1673.00,1101.96              1671.48,1101.70 1669.47,1101.15 1665.12,1101.82              1661.67,1102.23 1660.01,1101.84 1658.25,1101.61              1656.28,1101.32 1655.16,1101.49 1655.16,1101.49              1652.56,1101.72 1651.24,1103.46 1650.64,1105.02              1649.84,1107.20 1649.45,1110.37 1647.31,1111.69              1645.26,1112.63 1643.78,1112.44 1642.27,1111.83              1637.51,1109.80 1635.01,1105.61 1628.22,1105.00              1628.23,1110.38 1630.70,1114.48 1628.39,1119.49              1626.56,1123.49 1622.61,1123.60 1621.58,1124.04              1620.53,1124.37 1619.22,1124.75 1617.96,1125.77              1615.09,1127.69 1607.78,1139.25 1606.49,1146.84              1605.82,1149.98 1606.06,1153.07 1606.93,1156.11              1608.22,1160.01 1610.19,1163.86 1610.71,1167.97              1611.40,1171.98 1610.96,1177.00 1608.11,1180.58              1605.98,1183.29 1603.07,1184.46 1600.39,1184.74              1596.80,1184.86 1593.87,1183.22 1592.16,1179.58              1591.52,1177.93 1591.40,1176.41 1591.54,1174.97              1591.98,1172.61 1592.76,1170.51 1593.16,1168.20              1593.32,1166.88 1593.27,1165.81 1592.72,1165.10              1592.45,1164.81 1592.29,1164.65 1591.80,1164.48              1589.68,1163.93 1587.96,1165.00 1586.02,1167.16              1584.15,1169.27 1582.16,1173.07 1579.97,1175.24              1579.47,1175.79 1578.83,1176.22 1578.18,1176.58              1575.52,1178.07 1572.56,1177.93 1568.33,1178.04              1567.07,1178.07 1565.65,1178.28 1563.99,1178.86              1558.78,1181.98 1547.22,1189.20 1540.01,1193.47              1538.66,1193.99 1537.52,1194.32 1536.27,1194.56              1534.05,1194.97 1530.15,1195.41 1528.79,1192.85              1528.50,1192.18 1528.21,1190.91 1528.92,1189.29              1529.27,1188.46 1529.74,1187.62 1530.18,1186.79              1531.12,1185.08 1531.31,1184.44 1531.34,1183.48              1531.19,1181.84 1530.04,1180.79 1528.16,1181.01              1525.06,1181.18 1521.23,1184.77 1518.92,1186.05              1516.44,1187.64 1513.87,1188.47 1511.21,1187.81              1504.34,1185.66 1506.39,1179.81 1503.11,1175.49              1501.91,1174.07 1500.16,1173.52 1498.79,1173.40              1496.66,1173.40 1495.28,1175.08 1494.61,1178.14              1493.56,1180.83 1494.11,1191.09 1494.04,1195.04              1494.04,1195.04 1493.93,1200.33 1494.04,1206.30              1494.64,1214.49 1495.44,1224.09 1495.44,1224.09              1495.44,1224.09 1496.00,1231.01 1496.00,1231.01              1496.00,1231.01 1496.00,1252.77 1496.00,1252.77              1495.99,1255.50 1495.97,1257.92 1494.98,1260.64              1494.17,1263.11 1491.22,1265.33 1490.06,1270.05              1490.06,1270.05 1489.90,1270.58 1489.77,1271.32              1489.49,1273.05 1489.05,1275.90 1489.05,1275.90              1489.05,1275.90 1487.92,1282.97 1487.92,1282.97              1487.92,1282.97 1485.31,1297.82 1485.31,1297.82              1485.22,1298.50 1483.74,1307.07 1482.14,1314.87              1481.81,1316.57 1481.46,1318.22 1481.17,1319.77              1480.36,1323.95 1479.70,1327.26 1479.55,1327.96              1479.32,1329.02 1479.32,1329.24 1479.32,1329.80              1479.55,1332.70 1480.18,1334.07 1482.36,1337.30              1483.82,1339.21 1485.30,1340.94 1486.67,1342.91              1487.35,1343.92 1487.94,1344.98 1488.44,1346.22              1489.24,1348.06 1489.61,1349.54 1489.61,1351.58              1489.60,1354.80 1488.53,1357.75 1488.40,1360.98              1488.27,1362.96 1488.15,1364.12 1488.40,1366.01              1488.77,1368.91 1489.16,1371.41 1489.18,1373.00              1492.71,1376.32 1500.14,1369.58 1507.00,1367.90              1507.00,1367.90 1524.00,1365.59 1524.00,1365.59              1533.07,1362.52 1540.18,1356.17 1553.00,1356.00              1553.00,1356.00 1612.00,1356.00 1612.00,1356.00              1612.00,1356.00 1624.00,1354.90 1624.00,1354.90              1624.00,1354.90 1635.00,1354.90 1635.00,1354.90              1643.59,1353.58 1643.66,1350.92 1649.00,1350.14              1649.00,1350.14 1685.00,1347.83 1685.00,1347.83              1689.66,1347.39 1707.53,1345.66 1711.00,1346.56              1715.27,1347.66 1728.91,1357.09 1734.00,1360.12              1734.00,1360.12 1761.00,1373.13 1761.00,1373.13              1771.21,1379.23 1780.05,1387.10 1791.00,1392.05              1791.00,1392.05 1802.00,1394.90 1802.00,1394.90              1807.23,1396.75 1807.93,1398.74 1814.00,1398.98              1822.27,1399.30 1821.17,1397.70 1828.00,1396.44              1829.80,1396.11 1833.03,1395.94 1834.43,1394.83              1838.48,1391.59 1834.48,1383.47 1826.00,1381.00              1826.00,1366.18 1828.01,1372.97 1830.00,1362.00              1818.81,1353.71 1822.65,1338.72 1836.00,1336.00              1836.00,1336.00 1833.10,1322.00 1833.10,1322.00              1833.10,1322.00 1832.00,1305.00 1832.00,1305.00              1846.24,1307.00 1838.45,1319.57 1853.00,1322.00              1853.00,1322.00 1855.00,1330.00 1855.00,1330.00              1855.00,1330.00 1861.00,1330.00 1861.00,1330.00              1861.00,1326.72 1860.68,1319.81 1861.74,1317.00              1863.31,1312.83 1867.06,1310.83 1867.76,1306.00              1868.55,1300.54 1863.68,1294.28 1864.42,1290.11              1864.80,1287.92 1866.10,1287.08 1868.06,1286.39              1871.53,1285.17 1872.67,1285.90 1877.00,1283.47              1880.30,1281.62 1884.27,1277.38 1888.00,1277.64              1893.27,1278.00 1897.19,1284.75 1901.01,1287.69              1904.23,1290.15 1906.19,1289.95 1910.00,1290.00              1910.00,1283.96 1908.78,1273.88 1912.43,1269.02              1918.79,1260.53 1926.72,1263.25 1927.87,1255.91              1929.75,1243.85 1919.18,1242.85 1919.00,1227.00              1918.93,1220.25 1918.78,1217.72 1922.93,1212.00              1925.69,1208.18 1931.47,1203.54 1931.75,1199.00              1931.98,1195.24 1929.03,1189.58 1927.78,1186.00              1926.50,1182.30 1925.88,1176.92 1926.02,1173.00              1926.30,1165.23 1929.96,1164.61 1932.97,1160.57              1935.13,1157.66 1936.54,1152.60 1936.82,1149.00              1937.38,1141.74 1934.33,1134.15 1934.04,1127.00              1933.54,1114.70 1938.06,1116.60 1938.00,1102.00              1937.94,1089.18 1932.15,1083.97 1932.09,1075.00              1932.09,1075.00 1932.09,1063.00 1932.09,1063.00              1933.06,1055.64 1934.05,1058.69 1934.00,1048.00              1934.00,1048.00 1930.06,1021.01 1930.06,1021.01              1930.53,1013.59 1934.25,1016.98 1933.99,1005.00              1933.99,1005.00 1933.30,995.00 1933.30,995.00              1934.39,987.15 1941.65,984.16 1948.62,983.06              1948.62,983.06 1951.06,976.94 1951.06,976.94 Z            M 1957.75,970.38" style="fill:#a5c36d;fill-opacity:1"/>
</svg>