<svg xmlns:inkscape="http://www.inkscape.org/namespaces/inkscape" xmlns:sodipodi="http://sodipodi.sourceforge.net/DTD/sodipodi-0.dtd" xmlns="http://www.w3.org/2000/svg" xmlns:svg="http://www.w3.org/2000/svg" version="1.1" id="svg1" sodipodi:docname="zoneIV.svg" inkscape:version="1.3.2 (091e20e, 2023-11-25, custom)" viewBox="441.66 940.54 449.6 360.71">
  <defs id="defs1"/>
  <sodipodi:namedview id="namedview1" pagecolor="#ffffff" bordercolor="#999999" borderopacity="1" inkscape:showpageshadow="2" inkscape:pageopacity="0" inkscape:pagecheckerboard="0" inkscape:deskcolor="#d1d1d1" inkscape:document-units="in" inkscape:zoom="1.6768791" inkscape:cx="326.49938" inkscape:cy="244.8" inkscape:window-width="1920" inkscape:window-height="1017" inkscape:window-x="-8" inkscape:window-y="-8" inkscape:window-maximized="1" inkscape:current-layer="svg1"/>
  <path id="Zone IV" fill="none" stroke="black" stroke-width="1" d="M 789.81,970.84            C 789.16,969.47 787.90,967.64 787.34,966.06              792.75,965.47 800.81,964.41 804.78,958.72              807.50,954.74 812.03,942.05 817.44,941.12              821.21,940.48 823.25,943.59 825.69,947.75              829.25,953.56 828.22,954.72 833.25,958.34              838.81,962.28 850.83,967.97 856.66,971.25              856.22,972.75 856.41,972.94 856.41,972.94              860.01,975.83 861.11,979.54 866.00,980.48              870.58,981.36 877.35,976.94 881.00,976.48              885.73,975.88 889.99,979.32 890.68,984.00              892.19,994.26 873.80,995.76 870.06,998.09              865.59,1000.87 866.02,1004.37 866.00,1009.00              870.55,1006.53 872.20,1003.04 876.00,1002.37              882.30,1001.26 887.52,1008.16 885.40,1014.00              883.56,1019.06 877.54,1021.22 876.87,1025.04              876.14,1029.21 882.77,1033.66 879.96,1038.87              878.03,1042.45 873.82,1042.26 871.74,1044.56              868.88,1047.71 871.47,1051.50 866.85,1055.43              863.65,1058.16 859.54,1057.72 857.74,1062.06              854.97,1068.70 860.29,1075.96 858.40,1080.96              856.03,1087.21 849.54,1084.87 846.31,1087.60              843.98,1089.57 844.10,1092.25 844.00,1095.00              848.91,1093.85 858.43,1088.40 859.93,1097.04              859.93,1097.04 859.93,1102.00 859.93,1102.00              861.70,1101.37 862.84,1101.22 863.98,1099.58              865.46,1097.44 865.20,1086.47 874.00,1088.33              880.32,1089.67 882.13,1098.76 880.28,1104.00              880.28,1104.00 875.80,1112.00 875.80,1112.00              875.14,1113.89 874.97,1115.99 875.80,1117.90              878.27,1124.14 888.56,1122.13 888.56,1131.00              888.56,1136.87 882.50,1138.96 879.74,1143.09              876.83,1147.45 879.01,1156.65 870.98,1160.83              864.35,1164.27 857.82,1158.60 851.53,1166.06              849.53,1168.43 846.49,1174.01 845.63,1177.00              843.81,1183.39 845.77,1188.93 837.00,1192.26              828.52,1195.48 822.03,1186.76 818.00,1185.65              814.07,1184.57 812.19,1187.46 812.10,1191.00              811.91,1198.42 819.76,1201.10 817.39,1208.00              814.92,1215.18 805.91,1214.78 801.60,1220.44              799.56,1223.12 800.00,1226.81 800.00,1230.00              807.88,1229.37 807.30,1225.81 812.02,1226.20              818.93,1226.76 819.27,1235.96 815.39,1240.39              812.10,1244.15 808.24,1243.70 806.70,1245.59              804.02,1248.88 811.06,1260.60 802.94,1262.33              800.16,1262.92 797.87,1261.43 795.00,1261.53              791.68,1261.65 789.10,1263.76 786.00,1263.06              785.18,1262.87 784.21,1262.43 783.36,1261.86              782.06,1260.93 780.80,1259.67 779.66,1258.69              776.53,1256.10 770.13,1250.36 765.91,1245.48              763.86,1243.03 762.16,1240.76 761.32,1239.00              760.31,1236.87 760.07,1234.76 761.02,1232.71              761.95,1230.67 763.14,1228.83 762.16,1226.72              760.67,1223.14 754.64,1221.95 752.05,1217.84              751.22,1216.84 750.92,1215.61 750.77,1214.42              750.58,1211.94 751.08,1209.73 750.02,1207.22              748.59,1204.09 745.88,1203.48 743.59,1200.08              743.59,1200.08 742.78,1198.71 741.96,1196.58              739.70,1191.06 735.17,1181.01 735.14,1181.02              735.14,1181.02 732.02,1174.37 729.53,1168.72              727.61,1164.58 726.37,1161.02 726.37,1161.02              726.25,1160.52 723.40,1151.77 723.01,1151.27              721.97,1148.12 717.52,1143.25 714.77,1143.78              711.75,1144.11 710.55,1147.39 709.53,1151.11              708.74,1154.25 708.17,1157.70 707.45,1159.97              706.38,1163.77 706.11,1165.76 705.91,1168.04              705.69,1170.53 705.93,1173.53 703.78,1179.09              702.91,1181.47 701.78,1184.58 698.62,1190.60              696.20,1194.51 695.04,1198.00 695.04,1198.00              693.93,1201.98 694.06,1207.41 694.02,1209.99              691.90,1210.41 692.51,1210.29 690.00,1210.71              685.80,1211.53 680.38,1212.47 676.07,1213.29              676.07,1213.29 662.02,1215.69 662.02,1215.69              662.02,1215.69 650.87,1217.36 650.87,1217.36              650.87,1217.36 626.13,1221.07 626.13,1221.07              618.82,1221.98 605.76,1222.67 599.24,1226.51              599.24,1226.51 595.00,1228.91 590.27,1233.76              585.80,1238.13 581.00,1242.58 581.00,1242.58              581.00,1242.57 558.51,1262.15 544.93,1273.80              538.91,1278.67 534.80,1282.16 534.78,1282.20              534.78,1282.20 524.56,1291.38 524.56,1291.38              522.23,1294.51 523.45,1298.90 518.82,1300.42              514.30,1301.90 512.46,1297.93 508.91,1296.59              505.32,1295.25 500.17,1296.95 496.00,1294.83              489.49,1291.51 486.05,1283.08 499.00,1280.00              497.82,1277.98 494.57,1273.87 494.55,1271.84              494.51,1267.93 498.84,1266.16 499.78,1260.99              500.60,1256.45 498.24,1251.98 503.00,1250.00              503.00,1250.00 502.00,1245.00 502.00,1245.00              502.00,1245.00 499.00,1245.00 499.00,1245.00              498.44,1248.11 497.98,1253.43 496.26,1255.89              493.50,1259.85 487.91,1261.08 484.86,1256.52              482.57,1252.74 484.95,1244.33 484.86,1240.00              484.56,1236.68 482.82,1233.35 483.18,1230.02              484.08,1221.93 496.63,1225.24 494.67,1216.00              494.14,1213.54 492.81,1212.19 490.98,1210.60              487.63,1207.67 480.42,1203.38 479.47,1198.91              478.12,1192.63 483.11,1191.29 488.00,1191.57              493.15,1191.88 496.27,1189.47 494.26,1184.00              492.05,1178.00 482.75,1174.35 480.02,1168.99              476.72,1162.47 482.68,1159.32 484.28,1154.00              485.66,1149.41 482.69,1147.18 483.48,1143.00              483.89,1140.81 485.27,1138.95 486.26,1137.00              488.98,1131.62 488.41,1129.63 495.00,1128.00              492.06,1122.85 490.48,1122.11 490.00,1115.86              484.83,1116.92 480.07,1119.48 475.29,1115.86              471.27,1112.54 474.06,1107.92 473.41,1104.01              472.87,1100.82 470.69,1099.52 470.40,1096.83              470.10,1094.07 472.15,1091.32 471.67,1088.09              471.13,1084.41 465.35,1078.83 462.00,1077.60              460.06,1076.88 457.09,1077.00 455.00,1076.95              455.00,1076.95 449.00,1076.95 449.00,1076.95              444.58,1076.40 440.28,1073.03 443.03,1068.33              445.33,1064.38 452.39,1063.75 456.07,1055.00              458.38,1049.50 455.10,1041.07 459.43,1038.18              463.73,1035.31 467.06,1040.30 469.28,1041.02              475.08,1042.90 474.67,1034.10 476.16,1031.09              477.33,1028.71 478.95,1027.79 479.69,1024.91              480.45,1021.94 479.17,1017.86 482.72,1015.29              485.01,1013.63 489.24,1014.00 492.00,1014.00              492.00,1014.00 487.32,1004.83 487.32,1004.83              486.99,1002.87 487.62,1000.72 488.74,999.11              492.84,993.21 500.06,995.87 506.00,996.00              504.29,989.91 496.65,981.42 509.00,977.65              511.98,976.74 514.29,977.33 516.99,975.98              521.26,973.84 524.15,967.90 529.89,971.03              534.93,973.77 534.89,984.01 544.00,985.53              545.19,985.73 546.59,985.68 547.63,984.97              553.19,981.15 538.70,977.56 543.62,971.31              548.69,964.87 558.95,974.48 563.79,971.94              567.38,970.05 567.59,965.39 568.54,962.00              569.59,958.25 571.44,954.98 574.47,952.47              580.99,947.04 596.28,944.91 598.48,956.00              600.10,964.17 593.66,964.00 588.00,964.00              588.00,964.00 588.00,969.00 588.00,969.00              588.00,969.00 595.00,970.53 595.00,970.53              599.53,970.59 608.94,965.75 610.12,961.00              611.09,957.09 605.61,951.59 609.60,947.60              610.75,946.44 612.43,946.12 614.00,946.16              621.04,946.34 623.41,955.30 624.00,961.00              629.37,961.76 640.93,958.06 645.87,957.65              646.44,958.20 646.76,958.23 648.73,959.37              649.95,959.92 652.47,961.42 656.01,963.34              658.82,964.72 661.71,966.75 665.19,969.06              673.03,972.59 681.39,976.39 687.97,979.41              690.66,980.30 693.97,980.73 695.89,980.91              695.89,980.91 699.31,981.12 702.72,980.95              706.69,980.51 711.76,980.07 711.76,980.07              711.32,981.44 709.40,984.80 708.07,986.04              707.69,986.53 707.10,986.89 706.38,987.14              705.61,987.11 705.16,987.06 704.32,985.83              704.13,986.13 704.35,985.79 703.95,986.48              700.20,987.13 693.83,987.13 692.07,986.92              689.51,986.74 686.55,986.46 683.45,985.65              679.29,983.90 674.44,981.81 669.44,979.56              662.81,976.09 656.03,972.17 651.06,969.53              651.06,969.53 643.78,965.56 643.78,965.56              638.00,963.43 633.02,969.24 625.01,966.11              617.83,963.30 618.41,956.76 614.00,952.00              616.70,959.20 616.77,967.25 608.96,971.39              605.92,973.01 603.21,972.84 600.00,973.41              595.27,974.69 592.74,975.83 588.02,973.41              581.27,969.52 582.56,963.00 585.43,961.02              587.34,959.71 591.68,960.00 594.00,960.00              592.56,949.77 584.51,950.22 578.00,956.11              575.98,957.94 573.57,960.41 572.60,963.00              571.79,965.17 572.12,979.43 560.00,977.52              558.43,977.27 556.48,976.66 555.00,976.07              555.00,976.07 547.00,972.00 547.00,972.00              547.00,972.00 546.00,973.00 546.00,973.00              546.00,973.00 546.00,975.00 546.00,975.00              556.61,978.16 554.71,986.28 550.66,988.83              546.85,991.22 539.57,989.37 536.09,987.01              532.59,984.63 529.37,977.10 527.00,973.00              527.00,973.00 525.00,973.00 525.00,973.00              520.41,981.46 515.87,981.97 507.00,982.00              507.53,988.88 514.08,996.39 508.69,999.98              503.87,1003.18 495.79,997.02 493.08,1001.43              490.37,1005.85 504.08,1013.89 493.94,1017.97              492.84,1018.42 491.19,1018.69 490.00,1018.91              490.00,1018.91 485.00,1018.91 485.00,1018.91              485.89,1021.50 488.46,1025.95 486.96,1028.35              485.78,1030.26 482.59,1030.76 481.02,1033.27              479.59,1035.56 480.33,1038.75 478.55,1041.91              474.38,1048.99 467.09,1045.41 462.00,1041.91              462.00,1048.88 462.43,1054.76 458.19,1060.71              454.86,1065.40 449.85,1067.83 446.00,1072.00              458.05,1072.00 465.92,1069.41 473.77,1080.17              475.02,1081.88 477.00,1084.93 477.37,1087.00              477.89,1090.01 476.09,1092.22 476.44,1094.91              476.84,1098.02 479.57,1099.17 479.75,1103.01              479.84,1105.63 477.75,1109.38 479.75,1111.26              481.34,1112.71 482.94,1111.09 483.86,1109.84              485.86,1107.13 486.28,1102.47 490.91,1103.49              496.73,1104.77 494.18,1112.02 494.93,1115.99              495.81,1120.68 499.60,1122.28 501.00,1125.18              502.24,1127.75 501.47,1130.34 501.00,1133.00              501.00,1133.00 493.00,1134.00 493.00,1134.00              493.94,1141.29 490.67,1139.65 489.22,1143.37              488.11,1146.20 490.73,1148.55 490.29,1152.00              489.75,1156.31 485.00,1159.58 485.16,1165.00              485.24,1167.65 486.19,1169.52 488.22,1171.20              490.57,1173.13 495.06,1174.37 498.10,1180.01              501.10,1185.58 500.93,1197.52 492.00,1196.49              492.00,1196.49 484.00,1195.00 484.00,1195.00              485.61,1204.48 498.84,1204.24 500.66,1216.00              501.34,1220.43 500.01,1224.26 495.95,1226.44              493.93,1227.52 490.23,1228.03 489.24,1230.30              488.15,1232.81 490.69,1235.40 490.75,1238.91              490.77,1239.94 489.00,1244.99 489.00,1254.00              496.04,1250.03 490.70,1241.43 499.97,1239.48              504.36,1238.56 507.77,1242.97 507.79,1247.01              507.80,1250.23 505.85,1252.91 505.27,1256.00              504.76,1258.70 505.31,1261.29 504.41,1264.00              504.41,1264.00 502.14,1269.00 502.14,1269.00              501.43,1272.68 511.86,1283.53 499.98,1284.95              499.98,1284.95 495.00,1284.95 495.00,1284.95              497.87,1292.73 502.72,1288.90 509.00,1290.31              512.47,1291.09 514.70,1293.82 517.16,1291.55              517.16,1291.55 520.51,1286.63 520.51,1286.63              520.51,1286.63 530.98,1279.53 530.98,1279.53              530.98,1279.53 537.59,1272.85 537.59,1272.85              537.59,1272.85 555.91,1258.40 555.91,1258.40              555.91,1258.40 566.62,1247.43 566.62,1247.43              569.28,1245.32 571.97,1244.85 576.71,1240.84              576.71,1240.84 583.29,1234.19 583.29,1234.19              583.29,1234.19 593.75,1224.15 593.75,1224.15              595.68,1222.21 596.78,1219.58 599.33,1218.39              604.10,1216.17 608.68,1216.62 613.00,1215.71              617.85,1214.68 616.71,1213.14 624.00,1213.00              624.00,1213.00 662.00,1208.43 662.00,1208.43              667.48,1207.64 680.90,1207.20 684.85,1203.69              688.33,1200.60 687.62,1196.59 689.48,1192.72              693.68,1184.01 696.61,1177.43 699.22,1168.00              699.22,1168.00 700.40,1162.00 700.40,1162.00              701.39,1158.31 703.12,1156.89 703.78,1153.00              703.78,1153.00 704.43,1146.00 704.43,1146.00              705.89,1140.31 710.59,1134.89 717.00,1136.33              719.99,1137.00 721.47,1138.79 723.56,1140.81              725.45,1142.64 728.68,1145.09 729.80,1147.33              730.65,1149.01 731.70,1157.70 734.87,1165.00              734.87,1165.00 748.26,1193.96 748.26,1193.96              750.73,1198.28 754.41,1200.35 756.16,1203.32              758.41,1207.17 757.42,1211.02 759.02,1213.90              761.09,1217.61 767.66,1219.97 769.84,1225.00              772.39,1230.42 766.42,1233.06 769.84,1239.00              771.53,1242.20 780.69,1251.58 784.09,1252.64              787.16,1253.61 789.11,1251.50 792.00,1251.69              795.28,1251.90 798.60,1254.98 800.80,1257.00              800.30,1253.16 798.02,1245.60 800.80,1242.39              805.15,1236.74 811.16,1242.32 812.00,1232.00              809.04,1233.80 804.61,1237.28 801.00,1236.30              793.92,1234.37 792.22,1223.54 795.74,1218.02              797.90,1214.62 801.51,1212.42 805.00,1210.60              807.06,1209.53 810.58,1208.31 811.18,1205.79              811.76,1203.36 809.36,1200.18 808.50,1198.00              806.72,1194.14 806.11,1186.66 808.50,1183.06              816.95,1170.98 827.46,1189.39 834.91,1185.78              839.52,1183.55 839.40,1179.11 840.75,1175.00              841.70,1172.08 846.65,1162.51 848.52,1160.18              855.30,1151.76 863.51,1156.63 868.89,1154.40              874.30,1152.16 872.12,1146.25 873.85,1142.00              876.60,1135.26 881.66,1136.22 883.00,1128.00              875.77,1127.34 872.16,1125.57 870.85,1118.00              870.03,1115.03 869.96,1112.91 870.85,1110.00              872.80,1104.30 880.78,1097.13 870.85,1094.00              870.40,1097.90 869.34,1102.68 866.44,1105.57              865.01,1107.01 863.00,1107.94 861.00,1108.26              854.73,1109.26 853.46,1103.90 853.00,1099.00              849.92,1099.96 846.39,1101.60 843.18,1100.26              836.47,1097.45 837.45,1087.59 842.39,1083.60              844.99,1081.49 849.76,1082.00 853.00,1082.00              852.78,1074.81 848.70,1066.03 852.31,1059.04              854.75,1054.34 859.14,1054.12 861.69,1052.01              864.96,1049.29 863.61,1045.71 865.90,1042.48              867.87,1039.71 871.70,1038.59 872.85,1035.87              874.52,1031.92 868.27,1025.87 870.58,1020.30              872.86,1014.79 878.62,1017.05 880.00,1009.00              871.43,1010.42 872.42,1018.22 866.02,1016.34              860.15,1014.63 855.10,1003.35 863.52,995.63              868.66,990.92 877.18,989.78 879.98,988.49              883.01,987.10 883.62,985.82 885.00,983.00              872.69,980.91 873.57,987.28 865.00,985.72              858.70,984.58 854.93,979.10 850.00,975.76              850.00,975.76 833.21,966.79 833.21,966.79              830.34,964.85 819.18,952.45 818.00,949.00              809.95,956.02 811.14,967.70 799.00,970.19              795.75,970.86 792.81,971.22 789.81,970.84 Z            M 719.56,985.19            C 714.03,986.19 714.31,985.94 711.82,985.91              711.19,985.88 709.94,985.43 709.94,985.43              711.93,983.44 713.31,982.09 715.31,980.00              718.38,979.36 721.67,978.96 725.09,978.36              725.09,978.36 733.30,977.00 733.30,977.00              733.30,977.00 760.78,972.52 760.78,972.52              760.78,972.52 769.35,970.87 769.35,970.87              773.17,970.09 781.82,968.33 785.78,967.72              785.78,967.72 787.91,970.97 787.91,970.97              787.91,970.97 770.00,975.91 770.00,975.91              770.00,975.91 742.00,981.42 742.00,981.42              742.00,981.42 729.12,983.84 719.56,985.19 Z"/>
</svg>