<svg xmlns:inkscape="http://www.inkscape.org/namespaces/inkscape" xmlns:sodipodi="http://sodipodi.sourceforge.net/DTD/sodipodi-0.dtd" xmlns="http://www.w3.org/2000/svg" xmlns:svg="http://www.w3.org/2000/svg" version="1.1" id="svg1" sodipodi:docname="zone8.svg" inkscape:version="1.3.2 (091e20e, 2023-11-25, custom)" viewBox="418.49 810.64 1294.99 609.87">
  <defs id="defs1"/>
  <sodipodi:namedview id="namedview1" pagecolor="#ffffff" bordercolor="#999999" borderopacity="1" inkscape:showpageshadow="2" inkscape:pageopacity="0" inkscape:pagecheckerboard="0" inkscape:deskcolor="#d1d1d1" inkscape:document-units="in" inkscape:zoom="1.6768791" inkscape:cx="326.49938" inkscape:cy="244.8" inkscape:window-width="1920" inkscape:window-height="1017" inkscape:window-x="-8" inkscape:window-y="-8" inkscape:window-maximized="1" inkscape:current-layer="svg1"/>
  <path id="Zone VIII" fill="none" stroke="black" stroke-width="1" d="M 1340.00,852.00            C 1340.00,852.00 1337.99,848.00 1337.99,848.00              1337.38,846.30 1337.11,844.82 1337.43,843.02              1338.73,835.78 1345.07,838.94 1351.00,837.53              1354.71,836.65 1357.80,834.26 1362.00,835.75              1366.49,837.35 1372.24,845.32 1376.00,848.96              1376.00,848.96 1398.00,867.75 1398.00,867.75              1404.00,872.78 1411.14,878.89 1419.00,880.48              1426.82,882.06 1434.38,877.63 1441.00,874.17              1448.81,870.08 1460.10,865.32 1469.00,866.17              1479.91,867.21 1487.83,871.02 1498.00,873.58              1502.56,874.79 1508.54,875.98 1512.89,873.58              1517.71,870.85 1518.26,863.96 1519.20,859.00              1519.20,859.00 1521.07,844.17 1521.07,844.17              1521.07,844.17 1525.51,833.83 1525.51,833.83              1526.89,829.06 1524.71,829.58 1528.42,823.00              1531.07,818.31 1532.64,809.75 1539.91,811.33              1542.86,811.97 1544.27,814.43 1547.04,815.83              1548.85,816.74 1550.37,816.94 1551.67,817.04              1552.94,817.05 1553.87,816.94 1555.01,817.02              1556.29,818.27 1556.67,819.38 1558.00,822.80              1558.00,822.80 1546.00,822.80 1546.00,822.80              1546.00,822.80 1536.97,817.44 1536.97,817.44              1536.97,817.44 1535.79,823.00 1535.79,823.00              1535.79,823.00 1536.52,827.22 1531.22,827.04              1530.04,831.65 1530.05,838.83 1530.05,838.83              1530.05,838.83 1527.13,845.04 1527.13,845.04              1523.88,855.08 1528.47,876.23 1513.00,879.80              1510.64,880.13 1505.59,880.03 1503.00,879.80              1489.16,879.83 1477.82,869.70 1460.00,872.21              1447.43,873.98 1429.65,890.92 1414.00,884.95              1401.22,880.08 1384.02,865.29 1374.00,855.91              1371.14,853.23 1362.93,843.22 1360.83,842.28              1357.92,840.96 1354.88,842.83 1352.00,843.47              1349.05,844.13 1346.00,844.00 1343.00,844.00              1343.00,844.00 1340.00,852.00 1340.00,852.00 Z            M 1604.00,845.00            C 1613.79,843.36 1607.41,837.01 1611.74,832.60              1614.88,829.39 1619.97,832.72 1623.87,830.33              1628.92,827.24 1631.10,816.69 1639.00,815.76              1646.77,814.84 1645.15,826.46 1643.42,830.83              1643.42,830.83 1641.14,835.11 1641.14,835.11              1640.61,837.54 1642.82,838.77 1644.97,838.26              1648.55,837.40 1649.77,832.90 1651.17,830.00              1654.45,823.18 1661.81,812.10 1671.00,815.94              1675.41,817.78 1686.76,830.63 1688.84,835.00              1689.81,837.03 1689.96,838.79 1689.97,841.00              1690.01,849.21 1685.67,853.06 1688.04,858.00              1689.50,861.05 1693.39,863.83 1695.96,866.00              1702.43,871.48 1710.77,881.26 1710.99,890.00              1711.12,893.33 1711.00,895.25 1710.70,899.81              1708.09,900.05 1701.98,900.02 1700.00,900.00              1689.35,899.88 1674.49,895.77 1666.85,906.10              1665.46,907.98 1661.31,918.52 1660.63,921.00              1659.11,926.52 1661.31,930.37 1657.47,936.99              1653.15,944.43 1642.56,947.60 1641.24,957.00              1640.17,964.62 1646.50,967.31 1645.94,976.00              1645.65,980.55 1643.60,983.17 1639.92,985.65              1638.21,986.81 1634.43,988.26 1635.34,990.96              1637.10,996.24 1644.73,991.20 1649.00,998.00              1653.23,998.82 1652.75,1000.06 1656.09,1001.84              1658.89,1003.33 1661.34,1002.51 1664.38,1005.06              1666.53,1006.88 1667.91,1009.15 1669.97,1010.38              1672.41,1011.83 1674.49,1011.67 1676.99,1012.31              1678.96,1012.82 1680.55,1013.97 1681.81,1015.37              1682.46,1016.26 1682.96,1017.07 1683.54,1017.76              1684.19,1018.64 1684.90,1018.90 1685.56,1019.27              1685.68,1019.54 1684.88,1020.73 1685.00,1021.00              1683.87,1021.87 1683.98,1021.80 1682.73,1022.87              1677.65,1019.43 1678.87,1019.87 1674.35,1018.00              1671.13,1016.76 1666.98,1018.19 1664.22,1016.55              1661.49,1014.92 1661.07,1012.53 1658.73,1010.73              1658.73,1010.73 1652.11,1007.59 1652.11,1007.59              1649.36,1005.85 1648.74,1003.90 1645.87,1002.26              1641.71,999.88 1636.18,1000.18 1633.30,998.60              1629.83,996.69 1628.68,992.74 1629.15,989.00              1630.16,980.95 1637.52,981.55 1638.64,975.96              1639.61,971.15 1632.51,962.38 1634.25,954.17              1635.82,946.77 1648.36,938.07 1652.11,932.00              1654.96,927.39 1653.92,917.53 1656.48,911.00              1659.35,903.64 1664.25,896.62 1672.00,893.82              1676.03,892.36 1698.15,893.00 1704.00,893.00              1703.97,891.04 1704.08,888.86 1703.40,887.00              1702.48,884.46 1694.21,873.41 1691.96,871.51              1687.09,867.41 1679.14,862.56 1680.28,854.99              1681.22,848.69 1687.45,845.18 1683.40,838.01              1681.05,833.85 1671.84,822.24 1667.01,822.37              1655.91,822.68 1657.52,844.22 1645.00,844.86              1640.27,845.10 1633.93,842.32 1633.53,836.98              1633.34,834.47 1635.35,829.94 1636.00,827.00              1631.71,830.77 1631.76,832.80 1628.79,835.20              1624.79,838.43 1620.79,838.00 1616.00,838.00              1615.92,841.64 1615.83,845.86 1613.44,848.85              1609.31,854.03 1602.51,852.15 1599.36,846.96              1593.97,838.05 1600.58,827.35 1592.89,823.01              1589.12,820.90 1572.64,823.04 1567.00,823.01              1564.11,822.98 1562.40,823.02 1560.13,822.91              1559.76,821.29 1559.41,820.33 1559.00,818.00              1559.00,818.00 1592.00,817.00 1592.00,817.00              1594.82,817.04 1599.00,816.91 1600.83,819.48              1602.15,821.35 1601.99,824.78 1602.00,827.00              1602.05,837.67 1601.61,834.82 1604.00,845.00 Z            M 1335.00,852.00            C 1342.26,854.27 1340.34,859.79 1339.96,866.00              1339.53,872.95 1336.74,873.60 1336.13,879.00              1335.57,884.03 1337.40,886.78 1337.80,891.00              1338.53,898.61 1336.26,893.77 1339.00,906.00              1334.32,910.20 1335.85,910.71 1333.42,913.25              1331.67,915.09 1329.12,915.77 1327.14,919.09              1324.93,922.77 1320.81,940.01 1319.80,945.00              1318.97,949.10 1316.77,957.29 1317.22,961.00              1317.85,966.22 1321.54,970.42 1323.24,977.00              1323.24,977.00 1324.56,991.00 1324.56,991.00              1325.59,994.82 1327.86,996.73 1327.89,1001.00              1327.94,1008.55 1321.62,1010.86 1319.80,1014.10              1318.44,1016.71 1319.48,1018.38 1319.80,1021.00              1320.30,1026.42 1318.46,1028.46 1314.00,1031.00              1318.46,1036.53 1320.81,1035.66 1323.26,1039.13              1327.13,1044.62 1324.32,1054.43 1319.67,1058.69              1316.25,1061.82 1313.00,1060.55 1311.02,1063.43              1309.67,1065.41 1310.21,1068.67 1309.72,1071.00              1308.66,1076.13 1304.81,1080.28 1300.00,1082.00              1302.22,1085.83 1305.41,1088.29 1306.85,1092.00              1311.21,1103.20 1301.57,1106.64 1296.00,1110.63              1296.00,1110.63 1288.00,1117.31 1288.00,1117.31              1286.49,1118.33 1282.81,1119.87 1282.10,1121.13              1280.20,1123.65 1284.63,1127.87 1282.10,1134.00              1280.50,1138.57 1276.52,1139.70 1274.60,1142.26              1272.04,1145.65 1273.73,1149.30 1272.26,1152.83              1271.12,1155.58 1268.38,1157.23 1267.81,1160.01              1265.60,1170.66 1284.86,1170.12 1279.97,1182.91              1278.19,1187.55 1273.04,1189.53 1271.02,1193.17              1268.77,1197.23 1272.61,1214.31 1259.00,1213.89              1259.00,1213.89 1253.00,1213.00 1253.00,1213.00              1253.72,1220.02 1255.19,1219.50 1254.99,1228.00              1254.94,1229.96 1254.85,1232.12 1254.11,1233.96              1253.06,1236.56 1251.45,1237.87 1248.98,1239.08              1238.34,1244.32 1230.41,1236.42 1222.00,1235.21              1209.62,1233.43 1200.79,1242.46 1189.06,1230.90              1186.48,1228.36 1185.35,1226.62 1185.06,1223.00              1184.36,1214.22 1189.37,1211.98 1187.77,1208.27              1186.64,1205.66 1182.36,1205.14 1179.01,1203.01              1175.04,1200.48 1173.71,1197.53 1170.91,1195.59              1167.52,1193.25 1164.91,1194.45 1161.39,1190.77              1159.19,1188.48 1156.30,1182.10 1154.75,1179.00              1154.75,1179.00 1146.20,1162.00 1146.20,1162.00              1144.82,1158.49 1140.66,1147.84 1137.73,1146.02              1134.95,1144.30 1121.02,1145.00 1117.00,1145.00              1116.00,1152.63 1110.53,1159.72 1102.00,1157.57              1098.11,1156.58 1096.08,1153.49 1093.09,1154.33              1089.58,1155.32 1085.85,1164.05 1079.04,1162.53              1074.86,1161.59 1074.14,1157.61 1071.61,1155.60              1069.53,1153.94 1067.49,1154.09 1065.00,1154.00              1064.90,1155.72 1064.91,1157.34 1064.26,1158.99              1060.02,1169.79 1046.48,1164.56 1042.00,1165.64              1039.35,1166.29 1034.32,1170.14 1029.00,1171.19              1025.69,1172.15 1022.33,1171.27 1019.00,1171.19              1015.90,1181.30 1008.41,1177.11 1002.22,1181.14              998.03,1183.86 997.74,1191.40 987.00,1192.69              979.92,1193.53 977.11,1188.70 973.17,1190.23              970.55,1191.26 967.40,1196.59 965.66,1198.91              961.18,1204.87 955.72,1209.86 948.00,1209.89              948.00,1209.89 927.00,1209.89 927.00,1209.89              927.00,1209.89 921.00,1212.31 921.00,1212.31              917.82,1213.33 915.83,1212.64 913.00,1214.02              913.00,1214.02 905.00,1219.43 905.00,1219.43              900.96,1221.35 896.35,1221.00 892.00,1221.00              891.11,1229.30 888.75,1229.59 882.00,1232.97              879.69,1234.13 877.49,1235.59 875.00,1236.35              872.44,1237.14 869.42,1236.82 867.31,1238.60              863.48,1241.83 864.02,1264.25 852.00,1260.14              850.74,1259.71 849.23,1258.74 848.17,1257.94              846.64,1256.79 845.27,1255.41 844.09,1253.91              842.02,1251.28 841.08,1249.11 840.00,1246.00              837.78,1247.10 834.56,1248.67 835.49,1251.80              836.42,1254.93 843.87,1257.18 845.61,1265.00              847.80,1274.86 839.68,1275.03 836.30,1277.58              833.23,1279.89 831.14,1285.26 825.00,1281.40              825.00,1281.40 815.00,1273.00 815.00,1273.00              814.45,1277.06 814.02,1281.67 810.77,1284.57              807.65,1287.37 804.15,1286.56 802.60,1290.14              800.65,1294.65 804.16,1302.89 799.43,1308.94              793.67,1316.32 784.79,1313.01 784.00,1302.00              779.28,1304.97 780.34,1308.30 778.20,1313.00              776.39,1316.97 771.60,1321.88 768.00,1324.30              760.27,1329.51 753.04,1328.14 747.00,1329.53              741.64,1330.76 739.25,1333.50 733.00,1332.89              727.25,1332.33 723.65,1327.61 725.74,1322.00              729.44,1312.08 740.71,1315.78 744.40,1311.57              746.65,1309.01 745.36,1305.95 748.57,1302.53              751.89,1298.98 757.27,1298.58 758.78,1295.61              760.60,1292.60 757.53,1289.54 758.78,1286.28              759.29,1284.31 762.14,1281.90 763.49,1279.99              763.49,1279.99 766.93,1273.15 766.93,1273.15              770.98,1267.32 776.36,1272.33 781.00,1274.10              782.45,1274.66 786.80,1275.93 786.80,1273.03              786.80,1271.27 784.25,1269.94 782.98,1269.15              778.37,1266.30 777.16,1265.89 773.00,1261.96              773.00,1261.96 760.84,1249.42 760.84,1249.42              758.75,1247.40 754.98,1244.25 753.85,1241.58              752.69,1238.75 754.27,1235.21 753.85,1232.02              752.97,1225.56 746.75,1227.36 744.51,1220.00              744.51,1220.00 743.40,1212.13 743.40,1212.13              742.26,1209.34 739.95,1208.80 738.13,1205.87              738.13,1205.87 728.57,1184.00 728.57,1184.00              728.57,1184.00 716.00,1154.00 716.00,1154.00              714.90,1157.35 712.57,1164.74 712.18,1168.00              711.47,1173.92 712.75,1177.41 710.84,1183.96              708.93,1190.52 703.84,1195.88 701.13,1202.00              699.26,1206.22 701.16,1211.94 696.77,1214.86              692.58,1217.66 683.91,1217.58 679.00,1218.86              679.00,1218.86 660.00,1222.20 660.00,1222.20              660.00,1222.20 653.00,1223.79 653.00,1223.79              653.00,1223.79 624.00,1227.58 624.00,1227.58              624.00,1227.58 609.00,1229.62 609.00,1229.62              602.73,1231.14 600.47,1234.64 596.00,1238.96              596.00,1238.96 580.00,1253.97 580.00,1253.97              580.00,1253.97 551.99,1277.51 551.99,1277.51              548.43,1280.17 539.45,1286.03 537.91,1290.00              536.13,1294.62 543.43,1297.15 541.38,1302.94              540.25,1306.16 537.13,1306.78 535.60,1308.54              533.78,1310.63 534.03,1313.41 534.00,1316.00              545.07,1316.91 541.11,1326.79 534.00,1330.39              528.76,1333.05 513.50,1331.99 507.00,1332.00              504.40,1332.01 500.59,1331.67 498.58,1333.60              496.90,1335.22 496.43,1338.77 496.00,1341.00              496.00,1341.00 480.00,1343.41 480.00,1343.41              480.00,1343.41 469.00,1348.62 469.00,1348.62              469.00,1348.62 455.00,1348.00 455.00,1348.00              454.97,1357.45 454.72,1361.86 444.00,1362.00              444.32,1371.43 451.49,1375.39 448.26,1382.87              445.01,1390.41 429.26,1387.23 426.66,1396.01              425.80,1398.88 427.31,1400.94 430.06,1401.69              430.06,1401.69 454.00,1403.00 454.00,1403.00              454.00,1403.00 483.00,1403.00 483.00,1403.00              483.00,1403.00 512.00,1405.00 512.00,1405.00              512.00,1405.00 536.00,1405.00 536.00,1405.00              536.00,1405.00 569.00,1407.00 569.00,1407.00              569.00,1407.00 598.00,1407.00 598.00,1407.00              598.00,1407.00 613.00,1408.00 613.00,1408.00              618.34,1408.06 628.39,1408.69 633.00,1406.59              639.97,1403.40 643.01,1397.19 650.00,1396.42              652.76,1396.11 661.53,1398.06 665.00,1398.57              665.00,1398.57 694.00,1401.00 694.00,1401.00              709.11,1401.17 722.19,1401.83 737.00,1398.11              737.00,1398.11 758.00,1391.09 758.00,1391.09              758.00,1391.09 766.00,1386.51 766.00,1386.51              766.00,1386.51 779.00,1380.69 779.00,1380.69              779.00,1380.69 805.42,1365.76 805.42,1365.76              805.42,1365.76 814.90,1361.40 814.90,1361.40              818.80,1359.27 818.60,1357.43 823.04,1355.14              829.59,1351.76 843.60,1350.05 851.00,1348.08              851.00,1348.08 864.00,1343.69 864.00,1343.69              874.94,1339.29 880.85,1333.26 890.00,1326.34              890.00,1326.34 909.00,1313.97 909.00,1313.97              909.00,1313.97 925.92,1300.35 925.92,1300.35              925.92,1300.35 950.00,1282.58 950.00,1282.58              950.00,1282.58 965.00,1273.10 965.00,1273.10              965.00,1273.10 975.00,1264.79 975.00,1264.79              975.00,1264.79 986.00,1258.46 986.00,1258.46              986.00,1258.46 1000.00,1248.26 1000.00,1248.26              1013.89,1237.75 1025.81,1222.42 1045.00,1223.13              1048.24,1223.25 1052.03,1224.59 1055.00,1225.87              1057.98,1227.15 1060.05,1228.23 1062.58,1230.30              1063.83,1231.32 1067.23,1234.26 1068.01,1235.51              1070.75,1239.87 1070.10,1252.98 1068.82,1258.00              1067.10,1264.71 1064.42,1266.91 1066.90,1275.00              1070.69,1287.33 1079.46,1294.10 1081.08,1296.59              1082.08,1298.12 1082.78,1301.14 1083.44,1303.00              1084.45,1305.85 1085.46,1307.89 1085.81,1311.00              1086.61,1318.10 1083.53,1321.21 1080.49,1327.01              1079.35,1329.19 1077.30,1332.49 1077.82,1335.00              1078.45,1338.04 1082.49,1341.09 1085.00,1342.67              1099.37,1351.74 1119.77,1349.59 1133.83,1358.31              1137.15,1360.37 1139.90,1363.04 1140.72,1367.00              1141.63,1371.38 1139.87,1377.06 1142.60,1380.87              1144.70,1383.80 1149.69,1385.86 1153.00,1387.18              1163.75,1391.48 1173.62,1392.13 1185.00,1392.00              1195.02,1391.88 1212.40,1384.17 1227.00,1384.00              1235.80,1383.90 1234.01,1384.19 1242.00,1385.69              1266.71,1390.33 1276.15,1397.25 1291.00,1400.58              1312.31,1405.35 1345.35,1403.96 1368.00,1404.00              1378.40,1404.02 1375.44,1405.03 1382.00,1405.99              1382.00,1405.99 1390.00,1405.99 1390.00,1405.99              1390.00,1405.99 1407.00,1409.29 1407.00,1409.29              1414.08,1410.85 1413.52,1412.89 1422.00,1413.00              1422.00,1413.00 1442.00,1411.17 1442.00,1411.17              1442.00,1411.17 1457.00,1409.28 1457.00,1409.28              1459.48,1408.96 1462.53,1409.16 1464.49,1407.40              1464.49,1407.40 1472.99,1388.00 1472.99,1388.00              1475.74,1383.58 1481.60,1379.16 1482.50,1374.00              1483.22,1369.86 1480.56,1366.66 1480.63,1363.00              1480.68,1360.51 1483.30,1353.16 1481.90,1349.00              1480.63,1345.25 1476.46,1342.35 1474.28,1338.91              1471.76,1334.93 1471.91,1331.52 1472.01,1327.00              1472.33,1313.57 1477.43,1300.86 1480.63,1288.00              1480.63,1288.00 1483.59,1270.00 1483.59,1270.00              1485.92,1262.40 1489.19,1260.54 1490.49,1256.00              1491.27,1253.30 1491.01,1244.33 1491.00,1241.00              1491.00,1241.00 1489.00,1218.00 1489.00,1218.00              1489.00,1218.00 1488.00,1202.00 1488.00,1202.00              1488.00,1202.00 1488.00,1170.00 1488.00,1170.00              1494.10,1169.14 1501.81,1165.65 1506.69,1171.15              1510.60,1175.55 1507.45,1180.55 1512.15,1182.38              1517.83,1184.61 1524.10,1176.48 1529.00,1175.47              1534.26,1174.39 1537.08,1178.09 1536.81,1183.00              1536.81,1183.00 1536.00,1189.00 1536.00,1189.00              1544.74,1187.61 1553.47,1178.00 1561.00,1175.14              1567.10,1172.83 1571.78,1175.34 1575.81,1172.40              1580.27,1169.16 1582.38,1158.29 1592.00,1158.16              1594.09,1158.13 1596.01,1158.66 1597.20,1160.31              1600.84,1164.39 1597.13,1174.43 1597.20,1180.00              1599.10,1179.83 1600.95,1179.86 1602.66,1178.40              1606.89,1174.86 1604.71,1165.22 1602.66,1161.00              1601.49,1158.70 1599.03,1155.33 1598.63,1153.00              1598.00,1149.27 1601.77,1143.23 1603.58,1140.00              1608.63,1130.98 1611.00,1119.42 1623.00,1119.00              1622.94,1112.85 1620.01,1104.87 1626.11,1100.74              1627.62,1099.72 1629.19,1099.28 1631.00,1099.62              1634.97,1100.36 1638.52,1105.36 1641.86,1104.97              1645.97,1104.49 1644.77,1097.35 1650.18,1095.76              1652.34,1094.90 1655.66,1095.75 1658.00,1095.76              1663.03,1096.25 1677.31,1093.97 1677.81,1101.10              1678.17,1106.32 1671.47,1110.69 1668.00,1114.00              1670.37,1113.97 1672.80,1114.11 1674.98,1112.98              1680.62,1110.05 1681.62,1102.15 1687.04,1098.60              1690.94,1096.05 1695.73,1097.77 1697.40,1102.04              1698.16,1103.98 1698.00,1107.83 1698.00,1110.00              1701.32,1109.96 1705.90,1110.31 1706.50,1105.94              1706.99,1102.39 1703.77,1099.23 1704.12,1093.00              1705.19,1077.74 1705.76,1062.25 1704.12,1047.00              1703.75,1044.30 1702.85,1032.62 1701.98,1031.15              1701.81,1024.25 1692.38,1029.46 1684.62,1025.39              1685.76,1024.00 1686.33,1023.07 1687.44,1021.93              1688.88,1021.87 1690.67,1021.98 1692.51,1021.96              1696.55,1021.62 1701.85,1022.26 1703.70,1023.74              1706.12,1025.67 1707.00,1030.07 1707.54,1033.00              1707.54,1033.00 1712.98,1081.00 1712.98,1081.00              1712.75,1088.03 1709.61,1089.43 1709.70,1094.00              1709.78,1097.93 1711.99,1097.71 1712.00,1110.00              1708.11,1111.98 1701.29,1117.55 1696.58,1113.98              1694.15,1112.13 1694.13,1104.20 1690.10,1104.20              1687.92,1104.20 1685.80,1108.32 1684.65,1109.91              1681.74,1113.91 1678.86,1116.80 1674.00,1118.21              1667.86,1119.99 1660.90,1117.67 1665.02,1110.09              1666.67,1107.05 1670.04,1105.46 1673.00,1104.00              1673.00,1104.00 1673.00,1101.95 1673.00,1101.95              1666.95,1100.81 1666.47,1102.21 1661.00,1101.95              1658.12,1101.75 1654.81,1100.59 1652.31,1102.61              1649.05,1105.25 1650.77,1111.05 1645.94,1112.19              1640.29,1113.53 1636.94,1105.72 1628.21,1105.00              1628.24,1109.87 1630.73,1115.62 1628.21,1119.79              1625.92,1124.33 1621.68,1123.06 1618.21,1125.58              1614.13,1128.54 1609.20,1138.21 1607.54,1143.00              1602.94,1156.34 1610.76,1159.36 1610.95,1171.00              1611.05,1177.14 1608.38,1182.83 1602.00,1184.48              1596.88,1185.80 1592.02,1182.21 1591.51,1177.00              1591.31,1174.90 1591.96,1172.98 1592.50,1171.00              1593.04,1169.02 1594.50,1164.40 1590.85,1164.34              1585.80,1164.25 1582.78,1173.57 1578.89,1176.15              1574.21,1179.26 1568.78,1176.98 1564.00,1178.85              1564.00,1178.85 1540.00,1193.47 1540.00,1193.47              1537.34,1194.59 1530.07,1196.35 1528.68,1192.57              1527.46,1189.26 1531.90,1185.70 1531.28,1183.07              1530.57,1180.05 1527.12,1180.90 1525.17,1181.94              1520.93,1184.18 1515.32,1190.57 1509.21,1186.98              1504.12,1183.99 1506.04,1176.75 1501.72,1174.33              1494.76,1170.43 1494.01,1179.78 1494.00,1184.00              1494.00,1184.00 1494.00,1206.00 1494.00,1206.00              1494.00,1206.00 1496.00,1231.00 1496.00,1231.00              1496.00,1231.00 1496.00,1254.00 1496.00,1254.00              1495.85,1264.52 1491.84,1262.25 1489.82,1271.00              1489.82,1271.00 1487.92,1283.00 1487.92,1283.00              1487.92,1283.00 1483.69,1307.00 1483.69,1307.00              1483.69,1307.00 1479.34,1329.00 1479.34,1329.00              1478.95,1335.98 1486.06,1340.09 1488.34,1346.04              1491.13,1351.78 1488.43,1356.10 1488.34,1362.00              1487.77,1367.51 1490.47,1372.61 1488.34,1378.00              1485.90,1383.98 1478.76,1388.18 1475.48,1396.00              1473.25,1401.31 1472.13,1413.38 1467.87,1415.83              1465.46,1417.21 1461.73,1417.00 1459.00,1417.08              1459.00,1417.08 1448.00,1417.08 1448.00,1417.08              1438.51,1418.08 1435.32,1420.11 1425.00,1420.00              1412.64,1419.86 1406.09,1415.96 1395.00,1413.67              1395.00,1413.67 1364.00,1411.00 1364.00,1411.00              1342.21,1410.97 1310.89,1411.69 1290.00,1407.54              1270.64,1403.69 1252.18,1391.10 1232.00,1391.00              1232.00,1391.00 1225.00,1391.00 1225.00,1391.00              1225.00,1391.00 1180.00,1400.00 1180.00,1400.00              1167.39,1400.05 1149.48,1395.13 1139.04,1388.03              1126.77,1379.69 1141.57,1370.03 1127.00,1362.91              1112.13,1355.65 1089.29,1355.17 1076.00,1345.82              1074.32,1344.63 1073.15,1343.67 1072.01,1341.91              1064.23,1329.94 1080.63,1322.55 1079.77,1312.00              1079.29,1306.06 1074.72,1303.49 1071.70,1299.00              1071.70,1299.00 1065.97,1287.09 1065.97,1287.09              1063.95,1283.60 1061.98,1282.42 1060.33,1278.00              1055.27,1264.51 1072.14,1249.27 1058.62,1235.33              1056.72,1233.37 1054.50,1232.12 1052.00,1231.09              1049.05,1229.88 1046.19,1229.16 1043.00,1229.04              1031.84,1228.64 1028.73,1233.11 1021.00,1239.70              1021.00,1239.70 1012.00,1246.92 1012.00,1246.92              1012.00,1246.92 998.00,1258.50 998.00,1258.50              998.00,1258.50 974.00,1275.20 974.00,1275.20              974.00,1275.20 956.00,1287.95 956.00,1287.95              956.00,1287.95 933.00,1303.50 933.00,1303.50              933.00,1303.50 913.00,1319.71 913.00,1319.71              913.00,1319.71 897.00,1329.92 897.00,1329.92              889.04,1335.65 881.59,1341.81 873.00,1346.66              859.55,1354.27 847.28,1354.52 834.00,1358.97              834.00,1358.97 822.00,1364.64 822.00,1364.64              822.00,1364.64 800.00,1377.43 800.00,1377.43              787.14,1384.74 757.96,1398.40 744.00,1402.26              744.00,1402.26 733.00,1404.31 733.00,1404.31              720.15,1406.70 715.11,1407.15 702.00,1407.00              702.00,1407.00 677.00,1404.96 677.00,1404.96              677.00,1404.96 667.00,1404.96 667.00,1404.96              667.00,1404.96 650.00,1402.52 650.00,1402.52              646.58,1403.18 642.13,1407.41 639.00,1409.46              632.90,1413.44 631.13,1413.99 624.00,1414.00              624.00,1414.00 589.00,1414.00 589.00,1414.00              589.00,1414.00 577.00,1413.09 577.00,1413.09              577.00,1413.09 554.00,1411.91 554.00,1411.91              554.00,1411.91 542.00,1411.00 542.00,1411.00              542.00,1411.00 513.00,1411.00 513.00,1411.00              513.00,1411.00 497.00,1410.00 497.00,1410.00              497.00,1410.00 472.00,1410.00 472.00,1410.00              472.00,1410.00 457.00,1409.00 457.00,1409.00              447.10,1408.89 434.18,1410.10 425.02,1406.81              423.53,1406.27 421.82,1405.65 420.74,1404.44              417.60,1400.96 419.13,1392.60 421.85,1389.23              426.04,1384.03 437.67,1385.31 441.47,1380.58              442.87,1378.70 442.53,1377.02 441.47,1375.00              441.47,1375.00 437.14,1368.00 437.14,1368.00              434.88,1363.03 435.90,1357.02 442.09,1356.06              442.09,1356.06 448.10,1356.06 448.10,1356.06              448.10,1356.06 448.10,1352.00 448.10,1352.00              448.01,1350.63 447.98,1348.30 448.10,1347.02              450.76,1337.63 461.16,1345.12 466.98,1343.48              471.78,1342.12 472.25,1337.86 477.02,1336.53              480.16,1335.65 485.97,1337.88 491.00,1338.00              491.00,1338.00 495.56,1327.02 495.56,1327.02              495.56,1327.02 503.00,1326.00 503.00,1326.00              503.00,1326.00 532.00,1326.00 532.00,1326.00              530.14,1319.44 526.15,1317.78 527.13,1310.00              527.87,1304.18 531.87,1303.44 531.41,1299.96              531.03,1297.13 525.41,1293.38 526.48,1289.68              527.74,1288.48 529.25,1287.31 531.16,1285.44              535.94,1280.81 543.24,1275.32 546.00,1272.94              546.00,1272.94 583.00,1240.72 583.00,1240.72              588.35,1236.00 594.58,1228.44 601.00,1225.63              609.21,1222.04 621.10,1221.96 630.00,1220.56              630.00,1220.56 667.00,1214.92 667.00,1214.92              667.00,1214.92 694.00,1210.00 694.00,1210.00              694.00,1192.98 696.89,1196.49 702.65,1182.00              707.08,1170.85 704.86,1172.89 706.46,1164.00              706.46,1164.00 708.91,1154.00 708.91,1154.00              709.53,1150.91 710.59,1144.91 714.17,1143.88              716.76,1143.15 719.30,1145.87 720.86,1147.59              723.82,1150.84 725.87,1160.67 728.31,1166.00              728.31,1166.00 738.80,1189.09 738.80,1189.09              738.80,1189.09 742.95,1198.95 742.95,1198.95              745.85,1204.64 750.52,1203.73 750.70,1211.00              750.78,1214.31 750.29,1215.78 752.65,1218.67              755.30,1221.91 760.38,1223.44 761.93,1226.32              764.33,1230.76 758.20,1232.74 761.32,1239.00              765.01,1246.42 778.07,1257.50 784.58,1262.97              788.01,1265.86 793.23,1268.04 793.72,1273.00              794.41,1280.02 785.64,1279.63 781.00,1278.45              781.00,1278.45 775.00,1276.10 775.00,1276.10              773.36,1275.63 771.99,1275.41 770.59,1276.64              769.36,1277.73 765.99,1286.31 766.04,1288.00              766.06,1290.06 767.79,1293.24 766.04,1296.70              763.37,1302.11 755.05,1303.67 752.60,1306.49              749.43,1310.15 753.15,1313.72 746.95,1316.64              743.30,1318.35 730.06,1317.76 731.58,1324.86              732.13,1327.39 734.96,1327.55 737.00,1327.16              737.00,1327.16 751.00,1322.38 751.00,1322.38              751.00,1322.38 758.00,1321.79 758.00,1321.79              763.29,1320.97 769.94,1316.34 772.86,1311.91              776.36,1306.60 775.11,1298.04 782.01,1295.08              788.09,1292.47 790.16,1300.88 791.00,1305.00              800.34,1300.20 793.28,1291.90 797.02,1285.06              799.90,1279.79 805.01,1282.25 807.98,1276.94              809.44,1274.33 809.26,1263.43 817.96,1265.33              823.73,1266.59 823.27,1273.50 827.14,1274.09              829.30,1274.42 833.03,1271.60 834.99,1270.51              836.31,1269.77 838.37,1268.94 839.18,1267.59              842.00,1262.87 832.25,1259.49 829.31,1253.96              825.99,1247.69 831.10,1244.69 833.82,1239.91              834.86,1238.07 835.89,1234.93 837.50,1233.62              840.75,1230.97 843.77,1233.90 844.97,1237.02              847.08,1242.50 844.69,1248.64 851.04,1252.59              852.35,1253.11 853.48,1253.39 854.94,1252.59              861.45,1250.37 856.79,1241.40 861.65,1235.11              866.79,1228.45 880.52,1232.52 884.00,1222.00              874.53,1220.45 876.42,1212.68 882.02,1211.32              887.67,1209.94 891.77,1214.74 898.00,1214.86              904.69,1215.00 906.59,1210.23 911.00,1208.02              913.78,1206.63 916.30,1207.27 918.94,1205.83              924.40,1202.85 924.82,1191.49 931.19,1190.35              939.74,1188.81 932.12,1199.72 934.65,1202.31              935.52,1203.19 948.22,1204.07 950.00,1203.84              957.48,1202.87 962.86,1192.26 967.32,1187.00              969.39,1184.57 972.41,1180.99 976.00,1182.16              978.01,1182.82 980.22,1185.43 983.00,1186.40              992.35,1189.65 994.00,1178.22 1000.04,1175.02              1003.96,1172.95 1009.00,1175.27 1012.40,1171.43              1015.23,1168.23 1012.85,1162.84 1015.60,1161.13              1018.75,1159.16 1022.72,1164.75 1028.98,1163.76              1038.18,1162.30 1028.27,1156.42 1027.70,1155.59              1026.16,1153.34 1027.38,1150.76 1030.11,1150.59              1035.67,1150.24 1046.27,1163.46 1055.92,1159.26              1062.93,1156.21 1051.15,1147.25 1060.06,1145.36              1063.39,1144.65 1073.02,1148.46 1075.63,1150.64              1077.44,1152.16 1078.81,1154.73 1081.10,1155.13              1086.72,1156.10 1089.73,1146.61 1093.21,1145.74              1097.87,1144.58 1101.15,1152.53 1105.98,1151.40              1107.38,1151.07 1108.67,1149.95 1109.57,1148.88              1113.42,1144.31 1110.65,1140.56 1110.38,1137.00              1110.19,1134.50 1111.02,1131.63 1114.05,1131.63              1117.90,1131.63 1119.86,1136.60 1124.04,1138.26              1130.26,1140.74 1136.04,1135.82 1140.37,1140.31              1140.37,1140.31 1158.69,1175.00 1158.69,1175.00              1160.36,1178.09 1162.49,1183.35 1165.21,1185.40              1166.67,1186.50 1173.87,1188.49 1176.00,1189.00              1177.70,1193.00 1180.34,1196.75 1184.02,1199.19              1187.13,1201.25 1190.98,1201.83 1193.26,1205.13              1197.24,1210.91 1189.96,1216.33 1191.47,1223.00              1192.07,1225.67 1193.83,1227.68 1196.04,1229.18              1205.81,1235.83 1209.26,1226.59 1221.00,1228.44              1229.48,1229.78 1239.29,1239.29 1246.69,1232.49              1251.05,1228.48 1249.80,1221.82 1247.80,1217.00              1246.97,1214.23 1245.09,1210.14 1247.80,1207.60              1251.40,1203.75 1257.24,1209.65 1261.77,1206.97              1267.73,1203.46 1263.01,1194.03 1265.06,1190.33              1267.09,1186.65 1274.37,1185.47 1274.37,1181.02              1274.37,1178.50 1272.27,1177.58 1270.15,1178.74              1268.36,1179.72 1266.61,1182.61 1263.96,1183.98              1257.49,1187.34 1250.84,1183.07 1250.00,1176.00              1250.00,1176.00 1259.96,1177.06 1259.96,1177.06              1268.91,1174.74 1263.42,1164.09 1258.98,1160.45              1258.98,1160.45 1254.15,1156.74 1254.15,1156.74              1252.81,1155.39 1251.20,1153.35 1252.17,1151.34              1254.24,1147.01 1260.78,1152.86 1264.85,1151.34              1269.44,1149.67 1267.18,1143.49 1268.57,1140.33              1269.78,1137.59 1272.81,1136.74 1274.67,1134.62              1275.83,1133.30 1276.57,1131.91 1275.83,1130.14              1272.88,1123.07 1262.12,1131.71 1259.02,1132.21              1254.31,1132.95 1253.73,1128.38 1255.32,1125.00              1257.28,1120.81 1265.92,1110.50 1271.00,1110.42              1274.36,1110.36 1278.12,1112.95 1282.00,1112.26              1286.12,1111.53 1288.72,1107.81 1292.00,1105.55              1294.76,1103.66 1297.24,1103.33 1299.77,1100.78              1300.56,1099.98 1301.32,1099.00 1301.81,1097.99              1305.98,1089.28 1290.14,1091.55 1292.66,1083.02              1294.13,1078.01 1300.98,1077.37 1303.83,1071.96              1306.37,1067.12 1303.48,1059.72 1306.60,1056.60              1310.12,1053.07 1317.67,1057.99 1320.19,1049.00              1322.25,1041.63 1314.05,1039.34 1309.00,1037.29              1306.72,1036.36 1302.81,1034.47 1303.74,1031.30              1304.64,1028.27 1309.53,1029.60 1312.52,1025.77              1315.56,1021.57 1311.38,1018.19 1312.52,1014.00              1314.14,1009.11 1320.68,1007.24 1321.63,1002.00              1322.25,998.60 1319.88,995.53 1319.38,992.00              1318.59,986.47 1321.54,985.54 1318.20,978.00              1315.51,971.92 1310.45,964.84 1311.22,958.00              1311.22,958.00 1316.63,935.00 1316.63,935.00              1318.29,928.34 1319.38,921.39 1321.97,915.01              1324.57,908.60 1327.19,908.82 1328.57,904.00              1329.07,902.26 1330.99,891.64 1330.88,890.00              1330.63,886.05 1328.92,884.02 1329.37,880.00              1329.37,880.00 1331.50,872.00 1331.50,872.00              1331.50,872.00 1335.00,852.00 1335.00,852.00 Z            M 1273.00,1118.00            C 1269.46,1117.53 1269.20,1117.61 1268.00,1121.00              1268.00,1121.00 1273.00,1118.00 1273.00,1118.00 Z"/>
</svg>