<svg xmlns:inkscape="http://www.inkscape.org/namespaces/inkscape" xmlns:sodipodi="http://sodipodi.sourceforge.net/DTD/sodipodi-0.dtd" xmlns="http://www.w3.org/2000/svg" xmlns:svg="http://www.w3.org/2000/svg" version="1.1" id="svg1" sodipodi:docname="zone3.svg" inkscape:version="1.3.2 (091e20e, 2023-11-25, custom)" viewBox="519.98 400.73 802.56 478.5">
  <defs id="defs1"/>
  <sodipodi:namedview id="namedview1" pagecolor="#ffffff" bordercolor="#999999" borderopacity="1" inkscape:showpageshadow="2" inkscape:pageopacity="0" inkscape:pagecheckerboard="0" inkscape:deskcolor="#d1d1d1" inkscape:document-units="in" inkscape:zoom="1.6768791" inkscape:cx="326.49938" inkscape:cy="244.8" inkscape:window-width="1210" inkscape:window-height="845" inkscape:window-x="89" inkscape:window-y="62" inkscape:window-maximized="0" inkscape:current-layer="svg1"/>
  <path id="Zone III" fill="none" stroke="black" stroke-width="1" d="M 1145.00,416.00            C 1145.25,416.71 1145.75,417.79 1146.42,419.03              1147.20,420.29 1148.27,421.59 1149.32,422.96              1150.67,424.95 1151.79,426.84 1152.87,427.91              1154.35,429.25 1155.43,429.33 1156.73,429.03              1159.36,428.25 1160.23,426.48 1160.72,424.26              1161.18,421.55 1161.27,418.29 1163.20,415.18              1163.76,414.26 1164.60,412.91 1165.98,411.69              1167.01,410.77 1168.37,409.89 1169.62,408.99              1170.15,408.60 1170.69,408.21 1171.17,407.80              1171.91,407.23 1172.47,406.61 1173.08,406.03              1174.41,404.68 1175.19,403.45 1176.32,402.60              1177.22,401.91 1177.98,401.64 1178.70,401.47              1179.59,401.25 1180.78,401.18 1182.03,401.26              1182.98,401.32 1183.93,401.38 1184.88,401.47              1187.78,401.82 1190.20,402.15 1192.35,401.52              1192.35,401.52 1188.53,426.00 1188.53,426.00              1188.53,426.00 1202.09,457.00 1202.09,457.00              1203.38,461.00 1203.06,468.58 1203.00,473.00              1203.00,473.00 1198.93,492.83 1198.93,492.83              1198.93,492.83 1196.17,500.01 1196.17,500.01              1195.91,502.22 1195.98,506.62 1196.17,509.00              1196.17,509.00 1198.90,530.00 1198.90,530.00              1198.56,536.88 1195.45,539.22 1194.39,544.00              1193.06,550.02 1195.65,552.68 1195.94,558.00              1196.28,564.11 1194.05,566.40 1194.32,570.00              1194.70,575.02 1197.87,574.82 1198.00,584.00              1198.07,589.05 1197.62,595.62 1200.58,599.98              1203.30,603.98 1206.20,604.22 1209.56,609.05              1213.82,615.18 1216.59,621.93 1224.00,625.35              1231.65,628.89 1238.20,626.93 1245.83,630.62              1252.34,633.76 1259.12,641.27 1264.01,642.19              1271.07,643.94 1281.11,641.90 1289.00,642.19              1295.81,642.10 1303.33,645.33 1303.94,653.00              1305.00,666.14 1294.81,669.64 1299.90,681.00              1302.76,687.37 1308.12,692.40 1314.00,696.03              1315.79,697.13 1320.69,697.27 1322.04,698.90              1321.62,700.18 1320.73,703.26 1320.38,703.94              1320.30,704.23 1320.14,704.47 1320.02,704.72              1318.90,706.99 1316.39,707.98 1314.00,708.52              1308.60,709.73 1299.35,711.48 1294.00,710.82              1287.28,709.98 1284.15,706.28 1280.00,705.45              1276.62,704.78 1272.55,706.45 1269.00,706.83              1265.98,707.15 1259.37,706.65 1257.13,707.60              1254.03,708.91 1253.89,711.59 1252.16,713.49              1248.48,717.55 1246.72,713.54 1242.02,723.01              1242.02,723.01 1241.84,723.38 1241.65,723.79              1240.47,723.27 1238.00,722.00 1238.00,722.00              1238.00,722.00 1251.30,705.42 1251.30,705.42              1255.23,703.00 1260.64,703.26 1265.00,702.83              1272.77,702.07 1275.73,699.97 1284.00,702.04              1289.34,703.38 1291.95,706.04 1296.00,706.62              1300.18,707.22 1305.01,704.54 1311.00,704.00              1308.39,698.76 1306.33,698.96 1302.70,695.16              1298.71,690.98 1294.20,682.82 1293.98,676.99              1293.54,662.16 1301.94,656.16 1293.98,650.74              1288.76,647.22 1277.18,649.92 1271.00,650.00              1267.86,650.03 1263.90,650.26 1261.00,649.08              1254.92,646.60 1252.48,641.60 1246.00,638.72              1246.00,638.72 1221.01,631.85 1221.01,631.85              1213.03,628.23 1210.48,622.37 1205.45,616.04              1205.45,616.04 1197.61,607.96 1197.61,607.96              1191.91,600.62 1192.11,596.67 1192.00,588.00              1191.86,577.54 1187.57,577.81 1187.11,570.00              1186.82,565.09 1188.65,562.74 1188.30,559.00              1187.90,554.62 1185.12,551.22 1186.21,544.00              1187.03,538.58 1190.59,535.43 1190.86,530.00              1191.03,526.54 1187.24,515.22 1187.75,503.00              1187.94,498.17 1190.26,484.77 1191.48,480.00              1192.84,474.68 1195.21,469.64 1194.89,464.00              1194.27,452.81 1185.02,440.19 1183.77,435.00              1180.48,424.24 1184.33,416.79 1184.13,406.00              1181.91,406.39 1180.70,405.48 1179.04,406.26              1177.42,407.66 1177.66,411.20 1174.90,413.36              1172.69,415.08 1169.82,415.79 1168.31,418.27              1166.57,421.15 1166.80,438.06 1155.00,436.37              1153.71,436.18 1152.17,435.59 1151.05,434.91              1147.30,432.65 1147.33,429.95 1141.00,425.00              1142.32,421.26 1143.41,419.19 1145.00,416.00 Z            M 1015.91,508.51            C 1018.27,507.64 1019.77,507.07 1021.04,506.31              1022.74,505.37 1023.64,504.08 1024.23,502.69              1024.90,500.93 1024.98,498.94 1025.34,497.09              1025.52,496.20 1025.76,495.26 1026.12,494.48              1026.54,493.43 1027.10,492.73 1027.70,491.99              1027.70,491.99 1028.46,491.09 1029.98,489.91              1031.36,488.85 1033.29,487.46 1034.82,485.87              1038.09,481.97 1041.42,478.08 1041.42,478.08              1041.42,478.08 1053.59,464.20 1057.46,459.80              1058.39,459.03 1059.02,458.59 1059.02,458.59              1065.22,454.83 1067.81,455.61 1071.82,453.00              1071.82,453.00 1089.67,433.64 1089.67,433.64              1094.02,428.24 1103.24,416.43 1108.11,412.30              1109.77,410.79 1111.35,409.41 1112.91,408.37              1114.99,406.97 1117.07,406.18 1119.10,406.12              1122.68,406.09 1125.02,408.13 1127.04,408.99              1128.75,409.62 1131.09,410.39 1133.12,411.16              1135.15,411.87 1135.88,412.38 1137.78,413.61              1139.87,414.94 1141.52,415.52 1142.99,416.00              1142.13,418.11 1141.40,419.69 1139.51,423.53              1132.63,422.64 1123.39,411.95 1117.04,413.84              1113.81,414.80 1110.84,419.38 1108.87,422.00              1101.85,431.35 1101.75,432.82 1093.17,441.96              1089.75,445.60 1081.65,455.92 1078.71,457.80              1070.69,462.96 1067.93,457.96 1060.09,466.02              1060.09,466.02 1048.25,479.83 1048.25,479.83              1048.25,479.83 1034.69,494.09 1034.69,494.09              1034.69,494.09 1029.12,505.48 1029.12,505.48              1026.71,508.79 1020.74,512.44 1017.00,514.00              1017.00,514.00 1015.91,508.51 1015.91,508.51 Z            M 784.00,480.00            C 780.35,473.10 771.75,473.88 773.47,466.02              774.91,459.48 790.03,455.13 792.00,467.00              794.44,466.46 797.58,465.35 800.00,466.04              801.59,466.68 804.14,468.73 806.94,471.42              808.26,472.68 809.60,474.11 810.93,475.51              813.45,478.23 815.96,480.98 817.95,483.02              818.97,484.02 819.90,484.90 820.61,485.52              821.97,486.76 823.17,487.52 824.21,488.27              826.81,490.09 828.68,491.20 831.67,495.84              831.67,495.84 828.34,500.06 828.34,500.06              824.92,496.26 824.51,496.46 821.68,494.13              818.58,491.58 818.30,488.52 811.00,486.00              809.80,481.61 802.35,475.35 799.00,472.00              795.82,474.82 795.10,474.50 791.00,474.00              791.00,476.21 791.20,480.98 790.40,482.87              787.85,488.90 780.53,486.18 776.00,485.00              776.92,493.96 781.11,500.46 773.47,508.85              771.14,511.42 768.44,512.33 765.00,511.85              754.83,510.44 761.31,499.23 761.40,496.01              761.45,494.28 760.37,490.51 757.95,491.96              756.35,492.92 755.28,496.31 754.66,498.00              753.61,500.88 751.15,506.07 751.92,508.98              753.41,514.58 760.74,514.99 763.83,521.02              765.89,525.03 765.00,530.59 759.98,531.65              757.34,532.20 752.75,530.62 750.00,530.00              752.41,532.76 756.69,535.53 757.97,538.04              760.47,542.95 756.94,546.58 752.00,546.94              745.17,547.44 741.58,544.12 736.00,541.00              734.78,549.62 758.51,549.26 756.66,566.00              755.97,572.25 750.19,579.61 745.72,583.77              743.59,585.76 739.39,588.13 736.60,585.97              734.66,584.48 735.22,580.27 735.38,578.06              735.85,571.03 739.33,562.07 730.00,559.00              730.10,569.93 732.67,569.45 732.88,578.06              733.16,590.13 729.58,587.85 725.39,596.00              725.39,596.00 712.69,629.00 712.69,629.00              712.69,629.00 705.86,647.00 705.86,647.00              704.45,651.03 704.33,654.42 700.86,657.37              694.46,662.80 686.47,665.93 679.00,669.48              679.00,669.48 645.72,686.92 645.72,686.92              645.72,686.92 630.06,694.95 630.06,694.95              624.17,699.21 626.33,703.57 621.45,709.96              618.19,714.22 613.54,716.51 612.31,720.04              611.18,723.24 615.59,734.34 608.66,737.43              602.79,740.04 594.68,732.93 590.00,730.00              591.19,736.66 592.15,740.33 584.00,741.00              582.25,751.45 570.90,744.94 564.00,744.00              564.00,749.32 564.70,753.63 560.77,757.89              553.87,765.39 546.27,761.34 546.00,751.00              539.79,756.25 546.59,760.16 543.01,765.39              538.44,772.07 529.84,764.78 528.00,776.00              528.00,776.00 536.99,773.44 536.99,773.44              543.61,772.56 545.84,779.67 544.20,785.00              540.42,797.25 528.48,791.77 528.00,807.00              528.00,807.00 535.00,803.01 535.00,803.01              541.02,800.27 548.62,805.11 547.33,812.00              546.45,816.64 542.02,818.89 539.15,822.09              537.61,823.80 536.28,825.56 536.58,828.00              537.40,834.84 546.35,833.82 548.00,844.00              548.00,844.00 550.72,841.23 550.72,841.23              557.78,834.76 559.99,843.06 564.98,844.84              570.95,846.97 572.20,834.23 580.89,838.01              582.46,838.69 583.55,839.65 584.26,841.21              584.84,842.46 584.84,843.68 585.00,845.00              594.80,845.70 594.55,850.12 592.00,858.00              595.66,854.81 600.03,848.99 605.00,848.33              610.55,847.59 611.71,852.76 616.85,849.80              616.85,849.80 642.01,826.72 642.01,826.72              649.67,819.79 648.33,818.02 659.00,818.00              659.00,818.00 718.00,818.00 718.00,818.00              724.62,817.92 745.05,814.66 749.91,810.61              759.17,802.89 758.07,791.03 770.00,791.03              782.01,791.03 783.19,803.76 784.00,813.00              784.24,815.78 784.68,821.56 786.59,823.60              788.66,825.78 792.27,825.07 795.00,825.01              798.43,824.94 807.04,824.43 809.91,823.02              812.47,821.75 814.20,819.20 817.04,817.77              820.94,816.20 824.08,817.92 828.00,817.77              831.03,817.37 837.19,815.13 840.00,813.82              845.95,811.03 850.62,806.26 856.00,802.63              856.00,802.63 864.00,798.47 864.00,798.47              864.00,798.47 871.00,793.97 871.00,793.97              871.00,793.97 886.00,789.01 886.00,789.01              886.00,789.01 906.00,784.53 906.00,784.53              906.00,784.53 917.00,781.59 917.00,781.59              922.27,780.68 933.74,778.72 937.78,775.44              939.74,773.85 940.39,772.07 941.79,770.17              948.87,760.58 945.85,765.97 948.00,754.00              948.00,754.00 966.00,755.00 966.00,755.00              966.00,755.00 965.82,760.04 965.82,760.04              965.82,760.04 953.00,760.01 953.00,760.01              953.34,762.65 953.23,764.00 953.00,765.05              952.68,766.63 952.16,767.23 951.62,768.03              950.16,769.89 948.75,770.20 946.18,772.74              946.18,772.74 945.21,773.71 944.54,774.95              943.61,776.57 943.19,778.46 943.19,778.46              941.82,779.34 940.58,780.30 938.96,781.02              938.02,781.42 936.91,781.69 935.90,781.98              934.50,782.40 933.10,782.78 932.00,783.13              930.50,783.61 929.48,783.93 927.41,784.45              926.44,784.72 925.47,784.94 924.50,785.18              922.81,785.59 921.11,786.00 919.41,786.38              918.02,786.69 916.62,787.02 915.22,787.32              913.57,787.67 911.91,788.05 910.24,788.39              908.89,788.66 907.54,788.93 906.17,789.19              905.23,789.38 904.19,789.62 903.24,789.82              900.74,790.36 898.19,790.88 895.65,791.46              893.70,791.92 891.72,792.42 889.77,792.94              887.25,793.61 884.71,794.34 882.20,795.16              879.16,796.15 876.10,797.31 873.09,798.61              873.09,798.61 869.64,799.98 866.27,801.77              862.37,803.78 858.97,806.19 858.97,806.19              858.97,806.19 857.33,807.36 855.99,808.38              855.02,809.12 854.23,809.79 854.23,809.79              854.23,809.79 851.07,812.47 848.24,814.77              845.84,816.71 843.75,817.86 843.75,817.86              842.03,818.76 840.34,819.52 838.73,820.19              835.22,821.66 832.10,822.60 829.92,822.94              825.95,823.21 823.74,823.34 819.50,823.62              816.52,824.46 815.20,825.75 812.30,827.09              806.98,829.44 804.27,828.80 800.08,828.59              797.83,828.62 797.85,828.62 796.58,828.91              792.66,829.71 790.99,830.12 787.09,830.91              785.87,831.04 784.44,830.62 783.43,829.70              779.03,827.28 778.18,811.29 777.20,805.03              776.56,801.88 776.41,796.78 770.88,797.03              764.64,796.84 761.50,806.10 759.43,809.35              756.87,814.30 752.77,816.73 746.54,819.07              743.62,820.08 740.94,820.97 734.98,821.92              726.47,823.21 717.67,823.54 708.83,823.59              704.52,823.59 700.40,823.57 696.06,823.56              690.72,823.38 685.18,823.18 680.01,823.00              675.09,822.48 668.83,821.72 664.73,821.30              662.96,821.02 660.54,820.91 657.31,822.27              656.32,822.72 655.30,823.27 654.08,823.92              654.08,823.92 652.05,825.80 649.25,828.48              642.71,834.75 631.80,845.23 631.80,845.23              631.01,845.96 630.10,846.82 629.07,847.72              628.36,848.34 627.59,848.96 626.83,849.64              626.12,850.26 625.45,850.92 624.75,851.60              621.99,854.14 619.33,856.78 618.16,859.00              615.42,864.22 615.07,880.22 604.00,878.62              598.31,877.79 595.25,871.31 596.62,867.26              597.30,865.25 602.16,861.16 605.00,855.00              599.54,857.98 597.71,862.88 592.99,865.01              588.36,867.10 584.32,863.94 584.60,859.00              584.71,857.01 586.20,853.90 587.00,852.00              581.12,849.46 580.42,846.24 578.00,846.18              574.85,846.10 572.22,852.46 566.00,852.35              558.19,852.20 557.65,845.06 552.00,850.00              552.00,850.00 550.00,851.00 550.00,851.00              543.49,849.25 544.54,847.43 540.18,842.75              534.87,837.06 529.93,835.15 531.21,826.00              532.69,815.53 548.52,810.92 536.00,807.00              533.85,814.57 526.16,813.73 524.57,810.57              522.50,808.38 522.94,798.69 524.00,794.00              529.30,791.54 535.11,787.12 538.00,781.93              531.77,780.77 530.90,782.36 527.10,781.93              521.39,781.09 518.95,774.14 521.48,769.34              522.57,767.29 528.00,763.46 530.17,762.54              532.32,761.63 535.73,761.57 537.31,759.49              538.57,757.54 537.30,755.14 537.31,753.00              537.64,749.47 540.83,745.50 544.00,744.07              550.02,741.35 551.21,746.90 551.87,750.99              552.16,752.79 553.06,755.33 555.45,754.37              559.87,752.61 555.80,744.00 561.34,739.73              566.96,735.66 573.43,740.72 576.87,739.73              578.72,739.01 583.53,733.68 584.16,731.79              584.78,729.96 584.19,725.40 588.21,723.76              594.45,721.20 597.59,729.42 607.00,731.00              607.00,731.00 606.30,724.00 606.30,724.00              605.43,717.77 605.74,717.13 609.83,711.39              617.48,709.70 615.84,707.97 618.30,704.74              621.14,701.01 619.55,696.56 623.30,693.17              626.24,690.52 633.24,687.81 637.30,685.83              637.30,685.83 657.48,675.48 657.48,675.48              657.48,675.48 676.43,666.39 676.43,666.39              681.25,663.96 694.12,657.62 697.48,654.13              700.31,651.20 702.69,640.12 704.65,635.61              704.65,635.61 711.26,617.65 711.26,617.65              711.26,617.65 717.13,602.48 717.13,602.48              717.13,602.48 721.47,590.38 721.47,590.38              723.72,586.41 725.87,586.48 726.65,582.91              727.95,576.95 722.23,564.99 725.29,558.06              728.18,551.50 737.40,553.24 741.00,559.02              744.45,564.57 742.10,571.96 741.00,578.00              743.61,575.70 744.57,575.04 746.37,571.96              746.37,571.96 749.28,566.00 749.28,566.00              753.41,554.48 734.78,553.91 731.00,545.00              728.30,538.64 737.08,535.43 742.00,536.47              742.00,536.47 752.00,541.00 752.00,541.00              754.00,538.28 748.01,536.98 746.62,536.25              743.76,533.31 742.77,527.92 747.13,525.85              752.48,523.32 758.94,529.00 761.00,522.06              754.90,521.66 745.20,516.77 744.44,509.96              744.15,507.38 746.13,501.95 746.79,499.00              747.76,494.62 749.73,488.51 753.39,485.60              754.85,484.43 756.18,484.19 758.00,484.06              767.64,483.40 767.98,493.84 768.00,501.00              769.36,499.60 770.76,500.47 770.48,496.96              770.92,493.04 765.42,485.52 771.56,479.31              773.56,477.29 775.34,477.08 778.00,477.77              778.00,477.77 784.00,480.00 784.00,480.00 Z            M 787.00,470.00            C 786.68,468.94 786.70,468.27 786.00,467.15              782.65,461.81 777.42,467.25 784.06,469.44              784.06,469.44 787.00,470.00 787.00,470.00 Z            M 830.82,502.13            C 830.82,502.13 834.13,498.51 834.13,498.51              834.25,499.01 834.26,499.51 834.32,499.99              834.35,501.04 834.55,502.02 834.73,502.91              835.34,505.20 835.96,506.91 836.63,508.10              837.37,509.39 838.07,510.31 839.02,511.15              839.69,511.74 840.45,512.28 841.23,512.94              843.48,514.90 844.70,517.04 846.51,521.02              848.71,525.88 851.18,534.97 854.80,540.92              856.27,543.32 857.92,545.18 859.92,546.08              863.24,547.66 867.78,545.82 871.10,544.96              876.27,543.73 878.53,544.21 881.97,545.41              884.14,546.23 887.03,547.80 890.01,549.43              894.71,552.00 899.78,554.55 903.24,553.79              905.96,553.30 906.56,551.80 907.38,550.46              907.97,549.45 908.45,548.68 909.04,547.80              909.84,546.76 910.70,545.89 911.84,545.14              913.32,544.20 914.89,543.43 917.93,543.07              920.76,542.74 923.34,542.40 926.04,541.20              928.90,539.90 930.88,538.07 932.57,536.39              934.79,534.22 936.69,532.16 939.81,530.23              941.17,529.52 942.72,528.87 944.34,528.50              946.24,528.07 948.23,527.99 950.03,528.12              951.43,528.22 952.96,528.42 954.38,528.68              956.09,528.96 957.85,529.35 959.02,529.03              960.56,528.65 961.58,527.71 962.74,526.67              963.66,525.90 964.61,525.03 966.21,524.50              966.21,524.50 974.01,523.39 974.01,523.39              974.01,523.39 978.84,521.91 982.58,520.68              985.62,519.67 989.26,518.60 992.49,517.45              997.16,515.66 1000.91,514.12 1000.91,514.12              1000.91,514.12 1003.96,512.86 1007.08,512.06              1010.39,511.19 1013.00,511.00 1013.00,511.00              1014.20,513.44 1013.64,512.42 1014.87,514.62              1014.08,515.91 1010.37,516.42 1009.00,516.85              1009.00,516.85 996.00,520.65 996.00,520.65              987.42,523.38 978.20,526.01 970.04,529.84              965.64,531.90 964.90,534.80 960.99,535.67              955.52,536.89 952.77,532.22 946.00,533.33              938.64,534.54 935.95,540.42 930.00,543.97              923.34,547.93 919.64,546.45 915.14,549.85              911.28,552.76 911.38,557.11 905.96,558.57              899.02,560.44 894.60,555.68 889.00,552.82              883.82,550.17 880.70,549.88 875.00,550.01              869.72,550.13 861.09,553.53 857.04,551.07              849.12,546.26 846.76,527.43 842.61,520.17              839.26,514.32 830.31,515.02 830.82,502.13 Z            M 1066.34,714.86            C 1079.93,714.82 1078.19,712.28 1084.32,709.35              1084.32,709.35 1109.00,701.57 1109.00,701.57              1116.07,700.68 1117.39,704.73 1120.11,710.00              1121.92,713.51 1126.10,723.25 1129.13,724.98              1130.94,726.01 1133.00,725.93 1135.00,726.00              1139.95,736.10 1143.68,729.02 1151.00,729.28              1154.57,729.40 1158.68,731.72 1162.00,731.12              1165.36,730.52 1167.53,727.26 1171.73,729.62              1174.23,731.03 1181.15,742.10 1182.48,745.00              1183.57,747.36 1184.20,750.43 1186.42,751.99              1191.62,755.66 1198.50,753.47 1201.53,749.03              1201.84,751.62 1202.66,755.06 1202.97,757.02              1201.98,757.43 1200.89,757.78 1199.83,758.09              1198.16,758.58 1196.56,758.91 1195.49,758.96              1193.55,759.05 1191.67,758.81 1189.97,758.34              1188.50,757.94 1187.17,757.38 1186.04,756.73              1184.05,755.60 1182.90,754.38 1181.97,752.91              1180.86,751.23 1179.99,749.35 1178.91,747.22              1177.17,743.66 1174.21,739.74 1171.45,737.54              1170.98,737.16 1170.40,736.66 1170.01,736.37              1169.38,736.16 1169.21,736.09 1168.72,736.01              1167.71,735.92 1166.93,736.29 1166.11,736.60              1164.79,737.21 1163.63,737.76 1162.00,736.00              1153.62,738.86 1154.60,734.59 1150.00,735.16              1144.54,735.84 1145.69,741.17 1136.00,740.00              1134.18,729.09 1128.92,731.97 1124.43,728.11              1121.97,726.01 1122.02,723.31 1120.00,720.00              1115.65,712.90 1114.44,716.58 1113.00,706.00              1104.23,706.22 1096.69,709.97 1088.70,713.53              1085.16,715.07 1081.46,716.47 1077.64,717.55              1073.90,718.55 1069.95,719.08 1065.73,719.09              1065.73,719.09 1066.34,714.86 1066.34,714.86 Z            M 1018.00,737.00            C 1018.19,735.59 1018.16,734.75 1018.50,732.94              1027.69,730.97 1028.21,734.08 1031.20,727.94              1035.51,719.09 1025.99,713.71 1032.31,708.93              1037.24,705.21 1049.55,709.82 1055.00,711.62              1056.38,712.08 1063.12,713.49 1064.04,714.27              1063.33,717.02 1063.73,715.93 1063.00,718.00              1058.80,717.62 1050.22,715.03 1046.00,713.62              1043.79,712.88 1039.36,711.13 1037.13,711.78              1028.22,714.39 1046.24,723.11 1037.85,725.84              1037.85,725.84 1034.87,725.84 1034.87,725.84              1035.16,728.31 1035.79,731.79 1034.87,733.85              1032.67,737.90 1021.90,737.79 1018.00,737.00 Z            M 1204.00,752.00            C 1204.00,750.12 1203.78,749.97 1203.72,747.62              1205.70,744.73 1210.91,742.78 1213.97,740.16              1215.89,738.51 1217.94,737.12 1219.54,735.15              1219.54,735.15 1220.88,729.84 1220.88,729.84              1223.62,726.45 1228.94,722.41 1233.55,722.55              1236.20,723.64 1237.80,724.44 1239.83,725.81              1239.83,725.81 1238.28,726.23 1236.24,726.99              1231.85,728.52 1225.00,731.00 1225.00,731.00              1225.69,739.46 1223.02,741.90 1215.00,742.00              1213.98,747.93 1209.27,749.99 1204.00,752.00 Z            M 1015.80,738.13            C 1015.80,738.13 1017.00,741.00 1017.00,741.00              1017.00,741.00 1022.00,750.00 1022.00,750.00              1022.00,750.00 1018.00,757.00 1018.00,757.00              1020.43,757.09 1025.46,757.00 1023.83,761.01              1022.18,765.08 1016.92,766.28 1013.00,765.87              1008.25,765.37 1005.85,762.76 1002.00,762.35              999.12,762.04 995.15,763.49 992.00,763.83              987.08,764.35 981.80,764.03 977.00,762.87              973.38,762.02 970.08,761.16 967.45,760.29              967.71,758.73 967.66,758.22 968.00,756.00              968.00,756.00 984.00,759.91 984.00,759.91              984.00,759.91 1002.00,758.02 1002.00,758.02              1002.00,758.02 1014.00,761.00 1014.00,761.00              1014.00,761.00 1014.00,742.00 1014.00,742.00              1014.00,742.00 1015.80,738.13 1015.80,738.13 Z            M 611.00,861.00            C 608.46,862.67 604.36,865.39 603.00,868.17              602.05,870.11 602.20,873.17 604.99,873.26              608.53,873.37 610.51,863.74 611.00,861.00 Z" style="fill:#479770;fill-opacity:1"/>
</svg>